<svg xmlns="http://www.w3.org/2000/svg" width="347" height="298.647" viewBox="17 501.353 347 298.647"><g data-name="Group 170"><g data-name="leisure, Social meia | relax, work, laptop, computer, clock, deadline"><g data-name="Group"><path d="M203.123 528.203s-14.47 44.755-70.171 42.338c-18.507-2.314-40.534 0-60.147 25.832-29.815 39.296-17.843 83.072-4.295 110.858" stroke-linejoin="round" stroke-linecap="round" stroke-width="2" stroke="#ccdde2" fill="transparent" data-name="Path"/><path d="M302.36 580.92c1.08 1.804 3.34 2.568 5.283 2.957 2.483.509 5.05.644 7.565.868l1.46.358a2.198 2.198 0 0 1 1.45 2.757 44.154 44.154 0 0 1-3.708 8.952l2.313 2.314c.655-.887.686-2.44 1.565-2.29.845-.845 1.847-1.257 2.884-.128 2.028 2.217 1.7 6.825-1.28 8.097l.667 3.32a5.116 5.116 0 0 0 5.012 4.121l-.512-3.929c3.47 1.755 7.406-2.04 7.132-5.166-.177-2.144.309-3.624 1.893-5.178.104-.104-.532-.49-.435-.594.447-1.353.509-2.934.065-3.828-.77-1.597-3.042-2.53-1.997-4.272a8.34 8.34 0 0 0 .991-2.452 8.158 8.158 0 0 0-1.646-6.555c-1.543-1.85-4.049-1.353-6.096-2.009-2.495-.77-3.647-3.443-6.258-4.268-1.299-.412-2.502-.223-3.801.074-1.099.254-2.186.54-3.266.879-1.08.339-2.028.62-3.084.304-1.396-.385-2.472-1.689-3.995-1.7a3.4 3.4 0 0 0-2.112.675c-1.126 2.024-1.134 4.962-.09 6.693Z" fill="#008379" fill-rule="evenodd" data-name="Path"/><g data-name="Group"><path d="M350.077 633.124s41.976-46.297-19.84-69.4a45.442 45.442 0 0 0-11.12-2.552c-9.866-1.049-31.677-4.777-34.19-17.37M173.87 568.312v-.011" stroke-linejoin="round" stroke-linecap="round" stroke-width="2" stroke="#ccdde2" fill="transparent" data-name="Path"/><g data-name="Group"><path d="M284.008 651.673v-.012M316.827 598.817c.41-.71.9-1.372 1.457-1.974.845-.844 1.847-1.257 2.884-.127 2.028 2.217 1.7 6.824-1.28 8.097l.667 3.32a5.116 5.116 0 0 0 5.012 4.12" stroke-linejoin="round" stroke-linecap="round" stroke-width="2" stroke="#000" fill="transparent" data-name="Path"/><path d="M327.434 626.944c-.17-1.288-.59-4.67-.995-7.893-.386-2.988-.729-5.864-.864-6.813l-.516-3.92" stroke-linejoin="round" stroke-linecap="round" stroke-width="2" stroke="#000" fill="transparent" data-name="Path"/><g data-name="Group"><path d="M303.63 588.307s4.923.243 5.875 4.318" stroke-linejoin="round" stroke-linecap="round" stroke-width="2" stroke="#000" fill="transparent" data-name="Path"/><path d="M301.84 599.076c-1.341-.035-3.084-.232-3.716-1.593l3.393-3.743a5.425 5.425 0 0 0 1.388-3.324c.135-2.07-.108-5.355 1.873-7.541" stroke-linejoin="round" stroke-linecap="round" stroke-width="2" stroke="#000" fill="transparent" data-name="Path"/></g></g></g><path d="M306.617 594.22a1.272 1.5-42.11 1 1 .074-.068z" fill-rule="evenodd" data-name="Oval"/><path d="m305.075 623.666 2.556-12.391" stroke-linejoin="round" stroke-linecap="round" stroke-width="2" stroke="#000" fill="transparent" data-name="Path"/><path d="m240.275 679.437 16.475 13.471c-19.822 30.228-4.82 35.776-4.82 35.776 2.91.557 5.849.952 8.803 1.183 14.327 1.034 29.024-2.664 40.834-10.945 23.904-16.772 44.724-50.339 33.62-79.564a46.931 46.931 0 0 0-3.412-7.14 21.136 21.136 0 0 0-4.341-5.274 20.82 20.82 0 0 0-22.363-3.274 20.554 20.554 0 0 0-3.936 2.36c-6.242 4.777-11.918 11.566-16.81 18.691a174.583 174.583 0 0 0-11.702 20.134 196.86 196.86 0 0 0-2.58 5.344c-6.92-2.8-12.723-7.553-18.12-12.689 6.527 12.184-11.648 21.927-11.648 21.927Z" fill="#ffb34d" fill-rule="evenodd" data-name="Path"/><g data-name="Group"><path d="M251.803 689.292c.316.243.644.497.972.74M300.51 638.078c-4.37 8.367-8.739 16.749-13.109 25.146-3.296 6.339-8.867 10.252-16.713 7.249-8.537-3.27-15.423-9.52-21.792-15.889-6.37-6.37-12.824-12.461-22.02-14.104-11.886-2.124-23.132 4.353-31.229 12.539a3.917 3.917 0 0 0 2.166 6.637 3.929 3.929 0 0 0 3.15-.881c3.837-3.273 10.08-8.008 14.42-8.07" stroke-linejoin="round" stroke-linecap="round" stroke-width="2" stroke="#000" fill="transparent" data-name="Path"/><path d="M227.228 661.937c-1.334.89-3.185 1.877-4.727 1.877" stroke-linejoin="round" stroke-linecap="round" stroke-width="2" stroke="#000" fill="transparent" data-name="Path"/><path d="M210.132 652.328c-2.845 1.408-3.882 5.525-1.874 7.985a28.57 28.57 0 0 0 9.362 7.573c3.963 1.978 6.508.77 10.41-1.643" stroke-linejoin="round" stroke-linecap="round" stroke-width="2" stroke="#000" fill="transparent" data-name="Path"/><path d="M216.718 656.018s-5.637 1.396-5.487 6.867c.01.233.052.464.124.686M220.7 659.465s-7.56 4.885-3.963 7.958" stroke-linejoin="round" stroke-linecap="round" stroke-width="2" stroke="#000" fill="transparent" data-name="Path"/></g><path d="M74.648 678.612c8.907 24.479 33.84 25.169 36.694 25.169-1.196-2.518-1.52-6.94 1.098-14.69a15.125 15.125 0 0 1 .182-17.35c-.035-.03-.054-.073-.085-.104a20.993 20.993 0 0 1-3.698-.559c-4.303-1.026-12.785-3.277-19.517-6.446-4.564-2.156-9.889 1.299-9.5 6.338 0 .066 0 .127.024.2a5.533 5.533 0 0 0-5.198 7.442Z" fill="#ffb34d" fill-rule="evenodd" data-name="Path"/><path d="M188.938 736.025c3 5.147 7.669 9.53 12.18 13.355 15.881 13.44 36.628 20.265 57.448 20.531 20.89-.266 41.713-7.113 57.667-20.434 50.412-42.095 41.3-91.797 33.146-114.81a9.83 9.83 0 0 0-1.156-2.249 8.008 8.008 0 0 0-5.59-3.423c-4.28.59-8.167 4.14-7.48 9.639 0 .212.084.505.104.717 11.096 29.225-9.732 62.791-33.62 79.563-10.839 7.607-24.11 11.347-37.296 11.104h-.15a64.849 64.849 0 0 1-3.389-.158c-7.407-.54-14.605-2.314-21.734-4.461-8.366-2.502-16.64-5.537-25-7.661a360.282 360.282 0 0 0-8.844-2.144 19.559 19.559 0 0 0-5.197-.358c-10.267.694-17.481 9.824-11.089 20.789Z" fill="#d7e8f0" fill-rule="evenodd" data-name="Path"/><path d="M186.401 736.025c3 5.147 7.673 9.53 12.184 13.355 16.513 13.988 38.3 20.82 59.992 20.531 20.89-.266 41.713-7.113 57.668-20.434 50.4-42.095 41.289-91.797 33.134-114.81a9.833 9.833 0 0 0-1.156-2.249 8.008 8.008 0 0 0-5.59-3.423c-4.28.59-8.167 4.14-7.48 9.639 0 .212.084.505.103.717 11.097 29.225-9.73 62.791-33.62 79.563-10.838 7.607-24.109 11.347-37.295 11.104h-.15a69.913 69.913 0 0 1-5.926-.158c-7.407-.54-14.601-2.314-21.734-4.461-8.366-2.502-16.64-5.537-25-7.661a359.993 359.993 0 0 0-8.84-2.144c-.879-.18-1.769-.3-2.664-.358-11.544-.775-20.535 8.937-13.626 20.789Z" fill="#c1dde4" fill-rule="evenodd" data-name="Path"/><g data-name="Path"><path d="m255.096 769.842-5.074 7.179s-30.702 1.195-47.504 15.299c-3.108 2.61-1.25 7.68 2.806 7.68a4.291 4.291 0 0 0 2.78-1.01c3.968-3.331 19.124-13.803 53.407-14.12 33.405-.312 46.217 10.025 49.76 13.792A4.299 4.299 0 0 0 314.41 800h.659c4.164 0 5.926-5.259 2.637-7.811-14.026-10.908-45.468-14.385-45.468-14.385l-5.367-8.097" fill="#353642" fill-rule="evenodd"/><path d="m255.096 769.842-5.074 7.179s-30.702 1.195-47.504 15.299c-3.108 2.61-1.25 7.68 2.806 7.68a4.291 4.291 0 0 0 2.78-1.01c3.968-3.331 19.124-13.803 53.407-14.12 33.405-.312 46.217 10.025 49.76 13.792A4.299 4.299 0 0 0 314.41 800h.659c4.164 0 5.926-5.259 2.637-7.811-14.026-10.908-45.468-14.385-45.468-14.385l-5.367-8.097" stroke-linejoin="round" stroke-linecap="round" stroke-width="2" stroke="#707070" fill="transparent"/></g><g data-name="Path"><path d="M119.222 730.033s-9.403 8.934-6.47 36.628a12.36 12.36 0 0 0 2.006 5.529l1.021 1.542a12.5 12.5 0 0 0 7.114 5.12c6.142 1.677 17.284 5.564 24.166 12.928 2.907 3.119.744 8.2-3.52 8.2a4.82 4.82 0 0 1-4.021-2.143c-2.803-4.218-11.29-13.174-31.758-12.986-23.087.213-32.387 9.393-35.367 13.348a4.434 4.434 0 0 1-3.544 1.782 4.434 4.434 0 0 1-3.234-7.457c9.002-9.782 20.014-13.429 26.09-14.782a12.519 12.519 0 0 0 7.56-4.978 12.446 12.446 0 0 0 2.272-6.685c.34-8.587.517-29.43-5.302-36.038" fill="#353642" fill-rule="evenodd"/><path d="M119.222 730.033s-9.403 8.934-6.47 36.628a12.36 12.36 0 0 0 2.006 5.529l1.021 1.542a12.5 12.5 0 0 0 7.114 5.12c6.142 1.677 17.284 5.564 24.166 12.928 2.907 3.119.744 8.2-3.52 8.2a4.82 4.82 0 0 1-4.021-2.143c-2.803-4.218-11.29-13.174-31.758-12.986-23.087.213-32.387 9.393-35.367 13.348a4.434 4.434 0 0 1-3.544 1.782 4.434 4.434 0 0 1-3.234-7.457c9.002-9.782 20.014-13.429 26.09-14.782a12.519 12.519 0 0 0 7.56-4.978 12.446 12.446 0 0 0 2.272-6.685c.34-8.587.517-29.43-5.302-36.038" stroke-linejoin="round" stroke-linecap="round" stroke-width="2" stroke="#707070" fill="transparent"/></g><g data-name="Group"><path d="M238.991 725.41c-16.536-8.027-34.484-13.293-52.13-18.252-17.76-4.989-35.692-9.342-53.678-13.432-7.187-1.631-14.439-3.085-21.59-4.924M223.476 663.702h-.019M225.33 662.658c1.038 1.025 4.74 6.504 5.669 7.487a190.463 190.463 0 0 0 16.24 15.468 184.728 184.728 0 0 0 4.564 3.679c.316.243.644.497.972.74 10.872 8.25 25.06 16.193 38.17 11.104.347-.127.686-.274 1.021-.424 20.107-9.003 34.16-31.55 35.387-53.315.042-.71.065-1.415.073-2.113.108-5.949-.771-11.898-6.477-15.036" stroke-linejoin="round" stroke-linecap="round" stroke-width="2" stroke="#000" fill="transparent" data-name="Path"/><path d="m335.156 639.274-.08-.633c-1.28-10.263 13.293-13.725 16.752-3.975 8.15 23.01 17.265 72.7-33.158 114.803-32.545 27.186-85.235 27.374-117.656-.089-4.511-3.82-9.18-8.212-12.184-13.36-7.599-13.015 4.006-23.452 17.096-20.248" stroke-linejoin="round" stroke-linecap="round" stroke-width="2" stroke="#000" fill="transparent" data-name="Path"/><path d="m255.096 769.842-5.074 7.179s-30.702 1.195-47.504 15.299c-3.108 2.61-1.25 7.68 2.806 7.68a4.291 4.291 0 0 0 2.78-1.01c3.968-3.331 19.124-13.803 53.407-14.12 33.405-.312 46.217 10.025 49.76 13.792A4.299 4.299 0 0 0 314.41 800h.659c4.164 0 5.926-5.259 2.637-7.811-14.026-10.908-45.468-14.385-45.468-14.385l-5.367-8.097M272.238 664.238c-12.87-3.47-18.172-21.626-20.308-33.832M284.336 644.733a21.082 21.082 0 0 1-16.513-12.307 4.627 4.627 0 0 1 .116-4.164c1.403-2.599 3.497-5.61 3-8.725-.36-2.198-2.168-3.744-4.242-4.241a5.934 5.934 0 0 0-3.2.054 4.376 4.376 0 0 0-2.822 2.471c-.505 1.184.096 2.356 1.025 3.127.93.771 2.017 1.045 3.15 1.353.147.043.548.128.991.213M111.608 688.794s-25.37-5.313-30.135-12.966a10.703 10.703 0 0 1-1.627-4.627" stroke-linejoin="round" stroke-linecap="round" stroke-width="2" stroke="#000" fill="transparent" data-name="Path"/><path d="M236.443 675.724c-44.25-4.7-94.195-4.006-94.195-4.006h-28.03a22.926 22.926 0 0 1-5.379-.632c-4.303-1.026-12.785-3.274-19.517-6.447-4.564-2.155-9.889 1.3-9.5 6.343 0 .061 0 .127.024.2a5.533 5.533 0 0 0-5.198 7.426c9.454 25.982 36.96 25.169 36.96 25.169 3.516.104 7.024.243 10.544.424 31.01 1.508 61.747 5.86 91.836 13.545 8.359 2.124 16.633 5.154 25 7.66 7.132 2.156 14.338 3.918 21.745 4.458 14.327 1.037 29.024-2.665 40.834-10.946 25.867-18.152 48.129-55.998 30.208-86.72-6.327-10.841-20.654-13.81-30.64-6.168-14.084 10.776-25.335 31.77-31.107 44.154M75.234 730.033h61.581" stroke-linejoin="round" stroke-linecap="round" stroke-width="2" stroke="#000" fill="transparent" data-name="Path"/><path d="M149.245 717.595c-.019-6.862-5.576-12.42-12.438-12.442H75.22c-6.864.02-12.423 5.579-12.442 12.442" stroke-linejoin="round" stroke-linecap="round" stroke-width="2" stroke="#000" fill="transparent" data-name="Path"/></g><path d="M61.566 722.006a8.004 8.004 0 0 0 8.031 8.027h72.87a6.994 6.994 0 0 0-1.056-13.945h-72.87a8.004 8.004 0 0 0-6.585 3.435 8.124 8.124 0 0 0-.39 2.483Z" fill="#c1dde4" fill-rule="evenodd" data-name="Path"/><g data-name="Group"><g data-name="Group"><g data-name="Group"><path d="M61.566 722.006a8.004 8.004 0 0 0 8.031 8.027h72.87a8.031 8.031 0 1 0 0-16.058h-72.87a8.031 8.031 0 0 0-7.641 5.548 8.124 8.124 0 0 0-.39 2.483h0ZM252.07 630.12l.146 1.238a2.313 2.313 0 0 0 2.294 2.04h8.008a2.313 2.313 0 0 0 2.294-2.04l1.033-8.868c-.443-.084-.844-.17-.99-.212-1.134-.308-2.233-.57-3.15-1.353-.918-.783-1.543-1.928-1.026-3.127a4.376 4.376 0 0 1 2.822-2.471 5.934 5.934 0 0 1 3.2-.054l.243-2.113a2.313 2.313 0 0 0-2.294-2.568h-12.288a2.313 2.313 0 0 0-2.29 2.568l.285 2.41M251.001 621.08l.012.084M251.603 626.172v-.034" stroke-linejoin="round" stroke-linecap="round" stroke-width="2" stroke="#000" fill="transparent" data-name="Path"/><path d="M251.487 626.172a.316.316 0 0 1 .104 0 .644.644 0 0 1 .147 0 1.993 1.993 0 0 1 .32 3.96 1.643 1.643 0 0 1-.644 0 4.176 4.176 0 0 1-2.483-1.373 13.668 13.668 0 0 1-1.755-4.576.081.081 0 0 1 0-.05 15.002 15.002 0 0 1-.266-3.624c0-.52.066-1.038.128-1.543a3.979 3.979 0 0 1 3.32-3.38c.042 0 .092 0 .134-.024 1.62-.2 3.89.412 4.31 2.24.386 1.65-1.403 3.065-2.872 3.192 0 0-.385.05-.929.085-1.087.073-2.895.062-4.09-.57a2.745 2.745 0 0 1-.494-.328" stroke-linejoin="round" stroke-linecap="round" stroke-width="2" stroke="#000" fill="transparent" data-name="Path"/><path d="M249.798 621.168H253.025c1.272.004 2.32 1 2.387 2.27a2.406 2.406 0 0 1-2.036 2.5c-2.66.427-5.698.516-6.219-1.867M119.222 730.033s-9.403 8.934-6.47 36.628a12.36 12.36 0 0 0 2.006 5.529l1.021 1.542a12.5 12.5 0 0 0 7.114 5.12c6.142 1.677 17.284 5.564 24.166 12.928 2.907 3.119.744 8.2-3.52 8.2a4.82 4.82 0 0 1-4.021-2.143c-2.803-4.218-11.29-13.174-31.758-12.986-23.087.213-32.387 9.393-35.367 13.348a4.434 4.434 0 0 1-3.543 1.782 4.434 4.434 0 0 1-3.235-7.457c9.002-9.782 20.014-13.429 26.09-14.782a12.519 12.519 0 0 0 7.56-4.978 12.446 12.446 0 0 0 2.272-6.685c.34-8.587.517-29.43-5.302-36.038M138.77 665.302v.625c0 4.276 3.447 5.012 6.423 5.085l57.606 1.342c2.525.062 4.65-2.143 4.704-4.904v-.116c0-2.699-1.99-4.954-4.48-5.012 0 0-32.229-.91-57.182-1.596-.478 1.511-1.635 2.676-3.084 3.59a7.036 7.036 0 0 1-3.987.986h0ZM108.15 604.346a4.526 4.526 0 0 0 .47 2.028l25.762 52.814a4.688 4.688 0 0 0 3.085 2.479 4.627 4.627 0 0 0 3.177-.324 4.704 4.704 0 0 0 2.155-6.266l-25.759-52.82a4.673 4.673 0 0 0-8.868 2.062l-.023.027Z" stroke-linejoin="round" stroke-linecap="round" stroke-width="2" stroke="#000" fill="transparent" data-name="Path"/></g><path d="M316.719 599.133c.03-.108.073-.212.108-.316.035-.104.085-.223.116-.339M316.719 599.137l-.79-.794-1.512-1.53M307.824 601.227s-1.014 3.027-4.889 3.231" stroke-linejoin="round" stroke-linecap="round" stroke-width="2" stroke="#000" fill="transparent" data-name="Path"/><path d="M325.059 608.317c3.47 1.755 7.406-2.04 7.132-5.166-.177-2.144.309-3.624 1.893-5.178a7.3 7.3 0 0 0 .293-.316 4.453 4.453 0 0 0 .733-4.947c-.721-1.677-2.275-2.66-1.195-4.468a8.617 8.617 0 0 0 1.025-2.526 8.405 8.405 0 0 0-1.7-6.75c-1.588-1.929-4.176-1.397-6.3-2.071-2.556-.814-3.751-3.563-6.435-4.407-1.342-.42-2.587-.232-3.929.073a46.92 46.92 0 0 0-3.362.91c-1.099.347-2.101.644-3.2.316-1.438-.42-2.544-1.743-4.11-1.754-1.565-.012-2.768.91-3.47 2.197-1.11 2.02-1.118 4.959-.073 6.701 1.08 1.805 3.339 2.568 5.282 2.958 2.483.509 5.05.643 7.565.867l1.46.359a2.198 2.198 0 0 1 1.45 2.745 44.154 44.154 0 0 1-3.708 8.952M314.417 608.76s-7.65 5.603-12.01 2.515c-4.36-3.089-1.897-12.142-1.897-12.142" stroke-linejoin="round" stroke-linecap="round" stroke-width="2" stroke="#000" fill="transparent" data-name="Path"/><g data-name="Group"><path d="M260.366 606.725s3.25-2.198 1.184-4.442c-2.067-2.243.686-5.205.686-5.205M257.367 607.107s-2.152-1.454-.771-2.942c1.38-1.488-.46-3.47-.46-3.47" stroke-linejoin="round" stroke-linecap="round" stroke-width="2" stroke="#000" fill="transparent" data-name="Path"/></g></g><g data-name="Group"><path d="M200.162 543.683a42.38 42.38 0 1 1 0 .1z" stroke-linejoin="round" stroke-linecap="round" stroke-width="2" stroke="#ccdde2" fill="transparent" data-name="Oval"/><path d="M219.266 543.683a23.276 23.276 0 1 1 0 .1z" stroke-linejoin="round" stroke-linecap="round" stroke-width="2" stroke="#ccdde2" fill="transparent" data-name="Oval"/><path d="M238.552 543.683a3.99 3.99 0 1 1 0 .1z" stroke-linejoin="round" stroke-linecap="round" stroke-width="2" stroke="#ccdde2" fill="transparent" data-name="Oval"/><path d="m234.28 530.458 6.16 9.932M242.542 520.507v4.141M219.266 543.783h3.925M242.542 567.063v-4.025M265.822 543.783h-3.54" stroke-linejoin="round" stroke-linecap="round" stroke-width="2" stroke="#ccdde2" fill="transparent" data-name="Path"/></g></g><path d="M186.155 598.378a15.77 15.77 0 1 1 0 .1z" fill="#008379" fill-rule="evenodd" data-name="Oval"/><path d="M196.738 593.211c.223-.512.522-.988.887-1.41a3.979 3.979 0 0 1 5.201-.772 4.102 4.102 0 0 1 1.85 3.142 4.075 4.075 0 0 1 4.627 6.32c-1.13 1.472-3.05 2.44-4.788 3.003a14.17 14.17 0 0 1-2.803.594c-.482.054-3.231.424-3.47 0-1.716-2.684-2.934-7.6-1.504-10.877Z" fill="#fff" fill-rule="evenodd" data-name="Path"/><g data-name="Group"><path d="M153.938 583.168a8.683 8.683 0 1 1 0 .1z" fill="#008379" fill-rule="evenodd" data-name="Oval"/><path d="M158.853 584.806a2.953 2.953 0 0 1-.532-.744 2.19 2.19 0 0 1 .69-2.814 2.252 2.252 0 0 1 1.986-.286 2.244 2.244 0 0 1 4.187-1.033c.472.955.656 2.027.529 3.084a7.838 7.838 0 0 1-.286 1.543c-.073.258-.459 1.735-.72 1.78-1.724.29-4.485-.115-5.854-1.53Z" fill="#fff" fill-rule="evenodd" data-name="Path"/></g><path d="M156.939 638.181a11.166 11.166 0 0 1 5.32-14.867 11.166 11.166 0 0 1 14.867 5.32 11.166 11.166 0 0 1-5.32 14.868 11.166 11.166 0 0 1-14.867-5.32z" fill="#008379" fill-rule="evenodd" data-name="Rectangle"/><path d="M129.173 595.644a9.79 9.79 0 0 0-.998 2.7 10.17 10.17 0 0 0 3.115 9.557c1.033.914 2.348 1.627 3.393 2.583a5.351 5.351 0 0 1 1.62 2.48c.053.328.186.639.385.905.61.656 1.207-.385 1.735-.563a3.651 3.651 0 0 1 2.595.128A10.129 10.129 0 0 0 152.16 597c-1.615-1.646-3.728-2.699-5.783-3.77-1.797-.953-3.586-1.967-5.537-2.537-4.572-1.37-9.453.91-11.667 4.95Z" fill="#008379" fill-rule="evenodd" data-name="Path"/><g data-name="Group"><path d="M145.39 605.256a2.198 2.198 0 1 1 0 .1zM139.472 602.09a2.198 2.198 0 1 1 0 .1zM133.92 599.122a2.198 2.198 0 1 1 0 .1z" fill="#fff" fill-rule="evenodd" data-name="Oval"/></g><path d="M130.185 542.223c.044.535.126 1.065.248 1.587l1.373 5.956c.42 1.831.894 3.747 2.2 5.084 2.44 2.49 6.5 1.92 9.892 1.166l8.33-1.85c1.914-.424 3.857-.86 5.572-1.809 1.715-.949 3.204-2.502 3.6-4.421.306-1.416-.02-2.88-.332-4.29l-1.257-5.719c-.418-1.873-.888-3.85-2.24-5.215-2.407-2.425-6.408-1.873-9.733-1.15l-8.532 1.855c-5.145 1.11-9.53 3.497-9.12 8.806Z" fill="#008379" fill-rule="evenodd" data-name="Path"/><path d="M349.935 799.98H17" stroke-linejoin="round" stroke-linecap="round" stroke-width="2" stroke="#000" fill="transparent" data-name="Path"/><g data-name="Solid"><path d="M161.799 637.425a.605.605 0 0 0 .373-.276l2.485-4.136 1.685 1.013c.287.172.66.08.832-.208l2.78-4.625.33 1.325a.606.606 0 1 0 1.176-.293l-.684-2.746a.606.606 0 0 0-.735-.442l-2.746.685a.606.606 0 1 0 .294 1.177l1.325-.33-2.467 4.105-1.686-1.013a.606.606 0 0 0-.832.208l-2.797 4.655a.606.606 0 0 0 .667.9Z" fill="#fff" fill-rule="evenodd" data-name="Path 3"/><path d="m172.29 636.059-10.198 2.542a.606.606 0 0 0 .293 1.177l10.199-2.543a.606.606 0 0 0-.294-1.176Z" fill="#fff" fill-rule="evenodd" data-name="Path 4"/></g></g></g><g data-name="graph (1)"><g data-name="Group 3"><path d="M150.87 537.393a1.42 1.42 0 0 0-1.023 2.406l-2.598 5.195a1.375 1.375 0 0 0-.172-.017c-.183 0-.365.036-.535.106l-2.017-2.268c.118-.208.18-.443.182-.682a1.422 1.422 0 0 0-2.844 0c.002.34.126.667.35.922l-2.465 4.317a1.426 1.426 0 0 0-.255-.025 1.422 1.422 0 1 0 1.422 1.422 1.41 1.41 0 0 0-.348-.923l2.464-4.317c.265.053.54.024.788-.08l2.017 2.268c-.118.208-.18.443-.18.682a1.422 1.422 0 1 0 2.443-.985l2.598-5.195c.057.01.115.016.172.018a1.422 1.422 0 0 0 0-2.844Zm-11.377 11.85a.474.474 0 1 1 0-.948.474.474 0 0 1 0 .948Zm3.792-6.636a.474.474 0 1 1 0-.948.474.474 0 0 1 0 .948Zm3.792 4.266a.474.474 0 1 1 0-.948.474.474 0 0 1 0 .948Zm3.792-7.584a.474.474 0 1 1 0-.948.474.474 0 0 1 0 .948Z" fill="#fff" fill-rule="evenodd" data-name="Path 5"/></g></g></g></svg>