<svg xmlns="http://www.w3.org/2000/svg" width="576.434" height="496.077" viewBox="647.566 145.937 576.434 496.077"><g data-name="Group 4"><g data-name="leisure, Social meia | relax, work, laptop, computer, clock, deadline"><g data-name="Group"><path d="M1121.606 278.08c1.793 2.997 5.546 4.265 8.774 4.912 4.125.845 8.39 1.07 12.566 1.44l2.428.597a3.65 3.65 0 0 1 2.408 4.579 73.348 73.348 0 0 1-6.161 14.872l3.842 3.843c1.09-1.473 1.14-4.054 2.6-3.805 1.403-1.402 3.069-2.088 4.792-.211 3.369 3.683 2.824 11.337-2.127 13.45l1.108 5.515a8.5 8.5 0 0 0 8.326 6.846l-.851-6.526c5.764 2.914 12.303-3.388 11.849-8.583-.295-3.56.512-6.02 3.144-8.601.173-.173-.884-.814-.723-.987.743-2.248.845-4.874.108-6.36-1.28-2.651-5.053-4.201-3.317-7.096a13.853 13.853 0 0 0 1.646-4.073 13.553 13.553 0 0 0-2.735-10.889c-2.562-3.074-6.725-2.248-10.126-3.337-4.144-1.28-6.059-5.72-10.395-7.09-2.158-.685-4.157-.371-6.315.122a72.891 72.891 0 0 0-5.425 1.46c-1.793.564-3.369 1.031-5.124.506-2.318-.64-4.105-2.805-6.635-2.824a5.649 5.649 0 0 0-3.51 1.12c-1.87 3.363-1.883 8.244-.147 11.12Z" fill="#008379" fill-rule="evenodd" data-name="Path"/><g data-name="Group"><path d="M1200.872 364.8s69.729-76.908-32.96-115.286a75.487 75.487 0 0 0-18.471-4.24c-16.39-1.742-52.622-7.936-56.798-28.854M908.159 257.136v-.02" stroke-linejoin="round" stroke-linecap="round" stroke-width="4" stroke="#ccdde2" fill="transparent" data-name="Path"/><g data-name="Group"><path d="M1091.119 395.614v-.02M1145.636 307.81a18.324 18.324 0 0 1 2.421-3.279c1.403-1.402 3.068-2.088 4.791-.211 3.37 3.683 2.825 11.336-2.126 13.45l1.108 5.514a8.5 8.5 0 0 0 8.326 6.847" stroke-linejoin="round" stroke-linecap="round" stroke-width="4" stroke="#000" fill="transparent" data-name="Path"/><path d="M1163.256 354.534c-.282-2.14-.98-7.757-1.652-13.111-.64-4.964-1.21-9.742-1.435-11.317l-.858-6.514" stroke-linejoin="round" stroke-linecap="round" stroke-width="4" stroke="#000" fill="transparent" data-name="Path"/><g data-name="Group"><path d="M1123.713 290.351s8.179.403 9.76 7.173" stroke-linejoin="round" stroke-linecap="round" stroke-width="4" stroke="#000" fill="transparent" data-name="Path"/><path d="M1120.74 308.24c-2.228-.058-5.123-.385-6.173-2.646l5.636-6.219a9.012 9.012 0 0 0 2.306-5.52c.224-3.44-.18-8.897 3.112-12.528" stroke-linejoin="round" stroke-linecap="round" stroke-width="4" stroke="#000" fill="transparent" data-name="Path"/></g></g></g><path d="M1128.725 300.128a2.114 2.491-42.11 1 1 .074-.067z" fill-rule="evenodd" data-name="Oval"/><path d="m1126.115 349.09 4.246-20.586" stroke-linejoin="round" stroke-linecap="round" stroke-width="4.11" stroke="#000" fill="transparent" data-name="Path"/><path d="m1018.469 441.735 27.368 22.379c-32.928 50.213-8.006 59.43-8.006 59.43a133.22 133.22 0 0 0 14.622 1.966c23.8 1.717 48.215-4.426 67.833-18.183 39.71-27.861 74.296-83.621 55.85-132.17a77.963 77.963 0 0 0-5.668-11.862 35.11 35.11 0 0 0-7.212-8.761 34.586 34.586 0 0 0-37.148-5.438 34.144 34.144 0 0 0-6.54 3.92c-10.369 7.935-19.796 19.214-27.924 31.05a290.017 290.017 0 0 0-19.439 33.446 327.05 327.05 0 0 0-4.285 8.877c-11.496-4.65-21.135-12.547-30.102-21.078 10.843 20.24-19.35 36.424-19.35 36.424Z" fill="#ffb34d" fill-rule="evenodd" data-name="Path"/><g data-name="Group"><path d="M1037.62 458.106c.524.403 1.069.826 1.613 1.23M1118.531 373.03a31231.842 31231.842 0 0 0-21.776 41.773c-5.476 10.53-14.731 17.03-27.765 12.04-14.18-5.43-25.62-15.813-36.2-26.393-10.58-10.581-21.302-20.7-36.578-23.43-19.746-3.528-38.429 7.232-51.879 20.83a6.507 6.507 0 0 0 3.598 11.025 6.526 6.526 0 0 0 5.234-1.463c6.373-5.438 16.743-13.303 23.954-13.406" stroke-linejoin="round" stroke-linecap="round" stroke-width="4.11" stroke="#000" fill="transparent" data-name="Path"/><path d="M996.795 412.664c-2.216 1.48-5.29 3.119-7.852 3.119" stroke-linejoin="round" stroke-linecap="round" stroke-width="4.11" stroke="#000" fill="transparent" data-name="Path"/><path d="M968.396 396.703c-4.727 2.338-6.45 9.178-3.113 13.264a47.46 47.46 0 0 0 15.551 12.58c6.584 3.285 10.811 1.28 17.293-2.73" stroke-linejoin="round" stroke-linecap="round" stroke-width="4.11" stroke="#000" fill="transparent" data-name="Path"/><path d="M979.335 402.832s-9.363 2.319-9.114 11.407c.017.388.086.771.205 1.14M985.952 408.558s-12.56 8.115-6.585 13.22" stroke-linejoin="round" stroke-linecap="round" stroke-width="4.11" stroke="#000" fill="transparent" data-name="Path"/></g><path d="M743.33 440.364c14.796 40.665 56.216 41.811 60.956 41.811-1.986-4.182-2.524-11.529 1.825-24.402a25.126 25.126 0 0 1 .3-28.822c-.057-.051-.089-.122-.14-.173a34.874 34.874 0 0 1-6.142-.929c-7.148-1.703-21.239-5.444-32.421-10.708-7.584-3.58-16.429 2.158-15.782 10.53 0 .108 0 .21.039.332a9.19 9.19 0 0 0-8.634 12.361Z" fill="#ffb34d" fill-rule="evenodd" data-name="Path"/><path d="M933.189 535.739c4.983 8.55 12.739 15.832 20.233 22.186 26.381 22.327 60.845 33.663 95.431 34.105 34.702-.442 69.294-11.816 95.797-33.945 83.743-69.928 68.608-152.492 55.062-190.723a16.33 16.33 0 0 0-1.921-3.734 13.303 13.303 0 0 0-9.287-5.687c-7.11.98-13.566 6.879-12.426 16.012 0 .352.141.839.173 1.191 18.433 48.549-16.165 104.309-55.85 132.17-18.003 12.637-40.049 18.85-61.953 18.446h-.25a107.714 107.714 0 0 1-5.63-.263c-12.304-.896-24.261-3.843-36.104-7.41-13.898-4.157-27.643-9.197-41.529-12.726a598.4 598.4 0 0 0-14.692-3.562 32.49 32.49 0 0 0-8.634-.595c-17.056 1.153-29.04 16.32-18.42 34.535Z" fill="#d7e8f0" fill-rule="evenodd" data-name="Path"/><path d="M928.974 535.739c4.983 8.55 12.746 15.832 20.24 22.186 27.431 23.236 63.625 34.586 99.658 34.105 34.702-.442 69.294-11.816 95.797-33.945 83.724-69.928 68.59-152.492 55.043-190.723a16.334 16.334 0 0 0-1.921-3.734 13.303 13.303 0 0 0-9.287-5.687c-7.11.98-13.566 6.879-12.426 16.012 0 .352.141.839.173 1.191 18.433 48.549-16.165 104.309-55.85 132.17-18.004 12.637-40.049 18.85-61.953 18.446h-.25c-3.3.051-6.582-.036-9.844-.263-12.304-.896-24.255-3.843-36.104-7.41-13.899-4.157-27.643-9.197-41.53-12.726a597.922 597.922 0 0 0-14.685-3.562 32.836 32.836 0 0 0-4.426-.595c-19.176-1.288-34.112 14.846-22.635 34.535Z" fill="#c1dde4" fill-rule="evenodd" data-name="Path"/><path d="m1043.089 591.915-8.429 11.926s-51.001 1.985-78.913 25.414c-5.163 4.336-2.076 12.759 4.662 12.759a7.129 7.129 0 0 0 4.618-1.678c6.59-5.534 31.768-22.93 88.72-23.455 55.49-.519 76.774 16.653 82.66 22.91a7.141 7.141 0 0 0 5.214 2.223h1.095c6.917 0 9.844-8.737 4.38-12.977-23.3-18.119-75.531-23.896-75.531-23.896l-8.916-13.45M817.377 525.785s-15.621 14.84-10.747 60.846a20.534 20.534 0 0 0 3.33 9.185l1.697 2.562a20.764 20.764 0 0 0 11.817 8.505c10.203 2.786 28.713 9.242 40.146 21.476 4.829 5.181 1.236 13.623-5.848 13.623a8.006 8.006 0 0 1-6.68-3.562c-4.656-7.006-18.753-21.885-52.757-21.57-38.352.351-53.8 15.601-58.75 22.173a7.366 7.366 0 0 1-5.887 2.959 7.366 7.366 0 0 1-5.374-12.387c14.956-16.25 33.248-22.308 43.342-24.556a20.796 20.796 0 0 0 12.56-8.269 20.675 20.675 0 0 0 3.772-11.106c.564-14.263.858-48.888-8.807-59.866" fill="#353642" fill-rule="evenodd" data-name="Path"/><g data-name="Group"><path d="M1016.336 518.106c-27.47-13.335-57.285-22.084-86.6-30.32-29.5-8.288-59.289-15.52-89.167-22.315-11.939-2.709-23.986-5.124-35.867-8.179M990.563 415.597h-.032M993.644 413.861c1.723 1.704 7.871 10.805 9.415 12.439a316.395 316.395 0 0 0 26.977 25.696 306.867 306.867 0 0 0 7.583 6.11c.525.403 1.07.826 1.614 1.23 18.062 13.706 41.632 26.9 63.408 18.445.576-.211 1.14-.454 1.697-.704 33.401-14.955 56.747-52.41 58.784-88.566.07-1.178.108-2.35.121-3.51.18-9.882-1.28-19.765-10.76-24.978" stroke-linejoin="round" stroke-linecap="round" stroke-width="4" stroke="#000" fill="transparent" data-name="Path"/><path d="m1176.085 375.016-.135-1.05c-2.126-17.05 22.084-22.801 27.83-6.604 13.539 38.224 28.68 120.77-55.082 190.71-54.063 45.16-141.591 45.474-195.45-.147-7.493-6.347-15.25-13.642-20.239-22.193-12.623-21.623 6.655-38.96 28.4-33.638" stroke-linejoin="round" stroke-linecap="round" stroke-width="4" stroke="#000" fill="transparent" data-name="Path"/><path d="m1043.089 591.915-8.429 11.926s-51.001 1.985-78.913 25.414c-5.163 4.336-2.076 12.759 4.662 12.759a7.129 7.129 0 0 0 4.618-1.678c6.59-5.534 31.768-22.93 88.72-23.455 55.49-.519 76.774 16.653 82.66 22.91a7.141 7.141 0 0 0 5.214 2.223h1.095c6.917 0 9.844-8.737 4.38-12.977-23.3-18.119-75.531-23.896-75.531-23.896l-8.916-13.45M1071.565 416.487c-21.38-5.764-30.186-35.924-33.734-56.202M1091.663 384.085a35.022 35.022 0 0 1-27.432-20.444 7.686 7.686 0 0 1 .192-6.917c2.332-4.317 5.81-9.319 4.983-14.494-.595-3.65-3.6-6.22-7.045-7.045a9.857 9.857 0 0 0-5.316.09 7.27 7.27 0 0 0-4.688 4.105c-.84 1.966.16 3.913 1.703 5.194 1.544 1.281 3.35 1.736 5.233 2.248.244.07.91.212 1.646.352M804.727 457.28s-42.143-8.826-50.06-21.54a17.78 17.78 0 0 1-2.702-7.686" stroke-linejoin="round" stroke-linecap="round" stroke-width="4" stroke="#000" fill="transparent" data-name="Path"/><path d="M1012.102 435.567c-73.508-7.807-156.476-6.654-156.476-6.654h-46.563a38.084 38.084 0 0 1-8.934-1.05c-7.148-1.704-21.239-5.438-32.421-10.71-7.584-3.58-16.429 2.159-15.782 10.536 0 .103 0 .212.039.333a9.19 9.19 0 0 0-8.634 12.336c15.704 43.162 61.396 41.81 61.396 41.81 5.842.174 11.67.404 17.518.705 51.513 2.504 102.573 9.736 152.556 22.5 13.885 3.53 27.63 8.564 41.529 12.727 11.849 3.58 23.82 6.507 36.123 7.404 23.8 1.723 48.215-4.426 67.833-18.184 42.97-30.153 79.951-93.023 50.182-144.057-10.51-18.01-34.31-22.942-50.9-10.247-23.396 17.901-42.085 52.775-51.673 73.348M744.304 525.785h102.298" stroke-linejoin="round" stroke-linecap="round" stroke-width="4" stroke="#000" fill="transparent" data-name="Path"/><path d="M867.251 505.124c-.031-11.4-9.263-20.634-20.662-20.669H744.28c-11.402.032-20.637 9.267-20.668 20.669" stroke-linejoin="round" stroke-linecap="round" stroke-width="4" stroke="#000" fill="transparent" data-name="Path"/></g><path d="M721.6 512.45a13.296 13.296 0 0 0 13.34 13.335h121.052c6.303-.596 10.968-6.13 10.49-12.444-.478-6.314-5.924-11.082-12.245-10.722H733.186a13.296 13.296 0 0 0-10.94 5.707 13.495 13.495 0 0 0-.647 4.125Z" fill="#c1dde4" fill-rule="evenodd" data-name="Path"/><g data-name="Group"><g data-name="Group"><g data-name="Group"><path d="M721.6 512.45a13.296 13.296 0 0 0 13.34 13.335h121.052a13.341 13.341 0 1 0 0-26.676H734.94a13.341 13.341 0 0 0-12.695 9.217 13.495 13.495 0 0 0-.647 4.125h0ZM1038.061 359.811l.244 2.056a3.843 3.843 0 0 0 3.81 3.388h13.303a3.843 3.843 0 0 0 3.811-3.388l1.717-14.731c-.737-.14-1.403-.282-1.646-.352-1.883-.513-3.709-.948-5.233-2.248-1.525-1.3-2.562-3.203-1.704-5.195a7.27 7.27 0 0 1 4.688-4.105 9.857 9.857 0 0 1 5.316-.09l.404-3.51a3.843 3.843 0 0 0-3.81-4.265h-20.413a3.843 3.843 0 0 0-3.804 4.265l.473 4.003M1036.287 344.792l.02.14M1037.286 353.253v-.058" stroke-linejoin="round" stroke-linecap="round" stroke-width="4" stroke="#000" fill="transparent" data-name="Path"/><path d="M1037.094 353.253a.525.525 0 0 1 .173 0c.08-.01.162-.01.243 0a3.311 3.311 0 0 1 .532 6.577c-.353.07-.717.07-1.07 0a6.936 6.936 0 0 1-4.124-2.28 22.705 22.705 0 0 1-2.915-7.602.135.135 0 0 1 0-.084 24.921 24.921 0 0 1-.441-6.02c0-.865.108-1.723.21-2.562a6.61 6.61 0 0 1 5.515-5.617c.07 0 .154 0 .225-.038 2.69-.333 6.462.685 7.16 3.72.64 2.742-2.331 5.093-4.771 5.304 0 0-.64.083-1.544.14-1.806.123-4.81.103-6.795-.947a4.56 4.56 0 0 1-.82-.544" stroke-linejoin="round" stroke-linecap="round" stroke-width="4" stroke="#000" fill="transparent" data-name="Path"/><path d="M1034.289 344.94h5.361a3.984 3.984 0 0 1 3.964 3.772 3.997 3.997 0 0 1-3.382 4.15c-4.419.71-9.466.858-10.33-3.1M817.377 525.785s-15.621 14.84-10.747 60.846a20.534 20.534 0 0 0 3.33 9.185l1.697 2.562a20.764 20.764 0 0 0 11.817 8.505c10.203 2.786 28.713 9.242 40.146 21.476 4.829 5.181 1.236 13.623-5.848 13.623a8.006 8.006 0 0 1-6.68-3.562c-4.656-7.006-18.753-21.885-52.757-21.57-38.352.351-53.8 15.601-58.75 22.173a7.366 7.366 0 0 1-5.887 2.959 7.366 7.366 0 0 1-5.374-12.387c14.956-16.25 33.248-22.308 43.342-24.556a20.796 20.796 0 0 0 12.56-8.269 20.675 20.675 0 0 0 3.772-11.106c.564-14.263.858-48.888-8.807-59.866M849.85 418.255v1.038c0 7.103 5.725 8.326 10.67 8.448l95.694 2.228c4.195.103 7.724-3.56 7.814-8.146v-.193c0-4.483-3.305-8.23-7.442-8.326 0 0-53.538-1.511-94.99-2.651-.794 2.51-2.716 4.444-5.124 5.962a11.689 11.689 0 0 1-6.623 1.64h0ZM798.982 316.995a7.52 7.52 0 0 0 .782 3.369l42.797 87.733a7.788 7.788 0 0 0 5.124 4.118 7.686 7.686 0 0 0 5.277-.538 7.814 7.814 0 0 0 4.285-8.121 7.686 7.686 0 0 0-.705-2.287l-42.79-87.745a7.763 7.763 0 0 0-14.731 3.426l-.039.045Z" stroke-linejoin="round" stroke-linecap="round" stroke-width="4" stroke="#000" fill="transparent" data-name="Path"/></g><path d="M1145.457 308.336c.051-.18.122-.353.18-.526.057-.172.14-.371.192-.563M1145.457 308.342l-1.313-1.32-2.51-2.542M1130.681 311.813s-1.684 5.028-8.121 5.368" stroke-linejoin="round" stroke-linecap="round" stroke-width="4" stroke="#000" fill="transparent" data-name="Path"/><path d="M1159.31 323.592c5.765 2.914 12.304-3.388 11.85-8.583-.295-3.56.512-6.02 3.144-8.601.173-.173.333-.352.487-.525a7.398 7.398 0 0 0 1.217-8.218c-1.198-2.786-3.779-4.42-1.985-7.423a14.315 14.315 0 0 0 1.703-4.195c.724-3.97-.306-8.06-2.824-11.215-2.64-3.202-6.937-2.318-10.466-3.44-4.246-1.35-6.232-5.917-10.69-7.32-2.228-.698-4.297-.384-6.526.122-1.877.442-3.76.935-5.585 1.511-1.825.577-3.49 1.07-5.316.525-2.389-.698-4.227-2.895-6.827-2.914-2.6-.019-4.6 1.512-5.765 3.651-1.844 3.356-1.857 8.237-.121 11.132 1.793 2.997 5.546 4.265 8.774 4.912 4.125.845 8.39 1.07 12.566 1.441l2.428.596a3.65 3.65 0 0 1 2.408 4.56 73.348 73.348 0 0 1-6.161 14.872M1141.633 324.328s-12.707 9.307-19.95 4.176c-7.244-5.13-3.152-20.168-3.152-20.168" stroke-linejoin="round" stroke-linecap="round" stroke-width="4" stroke="#000" fill="transparent" data-name="Path"/><g data-name="Group"><path d="M1051.844 320.947s5.4-3.651 1.967-7.379c-3.433-3.727 1.14-8.646 1.14-8.646M1046.861 321.58s-3.573-2.414-1.28-4.886c2.292-2.472-.763-5.764-.763-5.764" stroke-linejoin="round" stroke-linecap="round" stroke-width="4" stroke="#000" fill="transparent" data-name="Path"/></g></g><g data-name="Group"><path d="M951.833 216.288a70.402 70.402 0 1 1 0 .1z" stroke-linejoin="round" stroke-linecap="round" stroke-width="4" stroke="#ccdde2" fill="transparent" data-name="Oval"/><path d="M983.569 216.288a38.666 38.666 0 1 1 0 .1z" stroke-linejoin="round" stroke-linecap="round" stroke-width="4" stroke="#ccdde2" fill="transparent" data-name="Oval"/><path d="M1015.606 216.288a6.629 6.629 0 1 1 0 .1z" stroke-linejoin="round" stroke-linecap="round" stroke-width="4" stroke="#ccdde2" fill="transparent" data-name="Oval"/><path d="m1008.51 194.253 10.234 16.499M1022.235 177.722v6.88M983.569 216.388h6.52M1022.235 255.06v-6.686M1060.907 216.388h-5.88" stroke-linejoin="round" stroke-linecap="round" stroke-width="4" stroke="#ccdde2" fill="transparent" data-name="Path"/></g></g><path d="M928.564 307.147a26.196 26.196 0 1 1 0 .1z" fill="#008379" fill-rule="evenodd" data-name="Oval"/><path d="M946.146 298.498a9.165 9.165 0 0 1 1.473-2.344 6.61 6.61 0 0 1 8.64-1.281 6.815 6.815 0 0 1 3.074 5.22 6.77 6.77 0 0 1 7.686 10.497c-1.877 2.447-5.066 4.054-7.955 4.99a23.538 23.538 0 0 1-4.656.986c-.8.09-5.367.704-5.764 0-2.85-4.458-4.874-12.624-2.498-18.068Z" fill="#fff" fill-rule="evenodd" data-name="Path"/><g data-name="Group"><path d="M875.046 281.88a14.424 14.424 0 1 1 0 .1z" fill="#008379" fill-rule="evenodd" data-name="Oval"/><path d="M883.212 284.535a4.906 4.906 0 0 1-.884-1.236 3.638 3.638 0 0 1 1.147-4.675 3.74 3.74 0 0 1 3.298-.474 3.728 3.728 0 0 1 6.956-1.717 9.101 9.101 0 0 1 .877 5.124c-.072.868-.23 1.726-.474 2.562-.121.43-.762 2.882-1.197 2.96-2.863.48-7.45-.193-9.723-2.544Z" fill="#fff" fill-rule="evenodd" data-name="Path"/></g><path d="m880.933 375.107-1.803-3.811a16.44 16.44 0 0 1 7.834-21.89l3.811-1.803a16.44 16.44 0 0 1 21.89 7.833l1.803 3.812a16.44 16.44 0 0 1-7.833 21.89l-3.812 1.803a16.44 16.44 0 0 1-21.89-7.834z" fill="#008379" fill-rule="evenodd" data-name="Rectangle"/><path d="M833.908 302.54a16.262 16.262 0 0 0-1.66 4.483 16.896 16.896 0 0 0 5.176 15.877c1.717 1.518 3.9 2.703 5.636 4.291a8.89 8.89 0 0 1 2.69 4.119c.09.546.31 1.062.64 1.505 1.013 1.089 2.005-.64 2.883-.935a6.065 6.065 0 0 1 4.31.211 16.825 16.825 0 0 0 18.51-27.297c-2.683-2.735-6.193-4.484-9.607-6.264-2.985-1.582-5.956-3.267-9.197-4.214-7.596-2.274-15.705 1.511-19.381 8.223Z" fill="#008379" fill-rule="evenodd" data-name="Path"/><g data-name="Group"><path d="M860.846 318.573a3.65 3.65 0 1 1 0 .1zM851.015 313.315a3.65 3.65 0 1 1 0 .1zM841.792 308.383a3.65 3.65 0 1 1 0 .1z" fill="#fff" fill-rule="evenodd" data-name="Oval"/></g><path d="M956.752 190.506s-24.037 74.347-116.568 70.332c-30.743-3.843-67.333 0-99.915 42.912-49.528 65.278-29.641 137.998-7.135 184.157" stroke-linejoin="round" stroke-linecap="round" stroke-width="4.11" stroke="#ccdde2" fill="transparent" data-name="Path"/><path d="M835.589 213.797c.072.888.209 1.769.41 2.636l2.281 9.894c.7 3.042 1.486 6.225 3.655 8.445 4.055 4.136 10.797 3.189 16.433 1.936l13.839-3.071c3.178-.705 6.407-1.43 9.255-3.006 2.849-1.577 5.323-4.157 5.982-7.345.506-2.352-.036-4.785-.553-7.127l-2.088-9.499c-.695-3.112-1.475-6.397-3.72-8.663-4-4.03-10.646-3.112-16.17-1.91l-14.173 3.081c-8.546 1.845-15.83 5.81-15.151 14.63Z" fill="#008379" fill-rule="evenodd" data-name="Path"/><path d="M1200.635 641.982H647.566" stroke-linejoin="round" stroke-linecap="round" stroke-width="4.11" stroke="#000" fill="transparent" data-name="Path"/><g data-name="Solid"><path d="M888.104 371.945c.26-.064.483-.23.62-.459l4.128-6.87 2.8 1.683a1.007 1.007 0 0 0 1.382-.345l4.617-7.684.548 2.202a1.007 1.007 0 1 0 1.955-.488l-1.137-4.561a1.007 1.007 0 0 0-1.22-.734l-4.562 1.137a1.007 1.007 0 1 0 .488 1.955l2.201-.549-4.098 6.82-2.8-1.681a1.007 1.007 0 0 0-1.382.344l-4.647 7.734a1.007 1.007 0 0 0 1.107 1.496Z" fill="#fff" fill-rule="evenodd" data-name="Path 3"/><path d="m905.533 369.676-16.941 4.224a1.007 1.007 0 0 0 .487 1.954l16.941-4.224a1.007 1.007 0 0 0-.487-1.954Z" fill="#fff" fill-rule="evenodd" data-name="Path 4"/></g></g></g><g data-name="graph (1)"><g data-name="Group 3"><path d="M869.949 205.773a2.357 2.357 0 0 0-1.698 3.997l-4.316 8.63a2.284 2.284 0 0 0-.285-.029c-.305 0-.607.06-.89.177l-3.35-3.768c.196-.346.3-.736.303-1.133a2.362 2.362 0 0 0-4.725 0c.003.564.208 1.108.58 1.532l-4.095 7.172a2.37 2.37 0 0 0-.422-.043 2.362 2.362 0 1 0 2.362 2.362 2.341 2.341 0 0 0-.58-1.532l4.095-7.172c.44.087.895.04 1.308-.133l3.35 3.767a2.334 2.334 0 0 0-.299 1.133 2.362 2.362 0 1 0 4.06-1.635l4.316-8.63c.094.016.19.025.286.03a2.362 2.362 0 0 0 0-4.725Zm-18.898 19.685a.787.787 0 1 1 0-1.575.787.787 0 0 1 0 1.575Zm6.3-11.024a.787.787 0 1 1 0-1.575.787.787 0 0 1 0 1.575Zm6.299 7.087a.787.787 0 1 1 0-1.575.787.787 0 0 1 0 1.575Zm6.299-12.599a.787.787 0 1 1 0-1.574.787.787 0 0 1 0 1.574Z" fill="#fff" fill-rule="evenodd" data-name="Path 5"/></g></g></g></svg>