<svg xmlns="http://www.w3.org/2000/svg" width="383.001" height="390.833" viewBox="188.499 996.19 383.001 390.833"><g data-name="Startup, Success, technology, growth | innovation, idea, thought, woman, statistics"><g data-name="Group"><g data-name="Oval"><path d="M376.472 1174.604a9.415 9.194-45.05 1 1 .07-.07z" fill="#ccdde2" fill-rule="evenodd"/><path d="M376.472 1174.604a9.415 9.194-45.05 1 1 .07-.07z" stroke-linejoin="round" stroke-linecap="round" stroke="rgba(0,0,0,0 )" fill="transparent"/></g><g data-name="Oval"><path d="M402.923 1171.398a9.42 9.198-45.05 1 1 .07-.07z" fill="#ccdde2" fill-rule="evenodd"/><path d="M402.923 1171.398a9.42 9.198-45.05 1 1 .07-.07z" stroke-linejoin="round" stroke-linecap="round" stroke="rgba(0,0,0,0 )" fill="transparent"/></g><path d="M465.527 1108.663s-40.9-67.966-122.656-41.367c-81.626 26.603-62.338 127.59-62.286 127.854-.356-1.85-14.497-3.613-15.994-3.83-41.714-6.153-72.741 32.57-75.818 70.732-3.82 47.334 32.864 80.86 74.643 95.294" stroke-linejoin="round" stroke-linecap="round" stroke-width="5.5" stroke="#ccdde2" fill="transparent" data-name="Path"/><g data-name="Shape"><path d="M428.46 1386.39c17.244-27.698 9.638-99.12 9.638-99.12l11.396.434c-18.345-32.73-9.264-52.98-2.702-61.79l-61.216-.596s.74 3.965 2.455 15.121c1.714 11.156-9.664 16.658-20.015 19.056-10.352 2.396-20.093-7.77-24.049-15.985-3.955-8.217-1.118-14.566-1.118-14.566l-17.922 5.211c-21.46 9.081-35.988 21.805-45.595 36.135a.192.192 0 0 0-.065.087 92.898 92.898 0 0 0-8.032 14.682c-7 16.133-9.216 33.195-9.098 48.637.522-16.962 3.938-34.007 9.96-48.81 17.944-3.67 30.572 3.673 38.3 11.015 6.314 6 9.356 11.999 9.352 11.991-3.137 7.205-5.447 16.893-5.312 29.704h-1.993c-.41 0-.796.017-1.188.052h-.396l-13.258.065-9.063.052c-.72.003-1.44.066-2.15.187-1.83.29-3.583.944-5.155 1.924-.205.117-.387.251-.575.369-.57.375-1.108.8-1.605 1.268a6.255 6.255 0 0 0-.492.473 14.673 14.673 0 0 0-3.046 4.52c-.1.215-.186.435-.256.66-.088.214-.161.433-.218.657a14.305 14.305 0 0 0-.644 4.273c0 .269.035.556.035.825.035.464.083.899.152 1.333.035.235.083.473.135.708.1.456.218.916.353 1.35.152.484.334.959.543 1.42.07.178.147.352.235.522 0 .052.035.086.07.134.1.209.218.439.335.643.174.339.392.673.61.994.256.391.543.743.83 1.099.286.354.591.691.914 1.012.345.35.71.678 1.097.981l.435.352c.494.373 1.015.711 1.557 1.012.252.134.523.273.792.408.025.019.056.03.087.03.305.152.61.274.914.391.304.117.61.235.926.335.323.086.645.186.967.256l.265.048c.253.056.505.104.762.143.455.078.913.131 1.374.16.28.03.563.041.845.035h-.03c-.188-.048-.375-.065-.562-.1h.087c.05.009.102.009.152 0 .279-.034.583-.034.87-.034h58.235c5.593.019 10.12 4.544 10.13 10.126a9.784 9.784 0 0 1-.436 3.006 10.056 10.056 0 0 1-2.502 4.134 10.108 10.108 0 0 1-7.153 2.97h-23.539c.016.076.038.15.065.222h6.766l97.355.404c.135-.191.27-.404.392-.626Zm-156.881-.018a83.053 83.053 0 0 1-2.776-6.818c1.236 4.338 2.132 6.818 2.132 6.818h.644Zm17.57 0c-.392 0-.78-.013-1.167-.048.388.035.775.048-.679.048h1.845Z" fill="#353642" fill-rule="evenodd"/><path d="M428.46 1386.39c17.244-27.698 9.638-99.12 9.638-99.12l11.396.434c-18.345-32.73-9.264-52.98-2.702-61.79l-61.216-.596s.74 3.965 2.455 15.121c1.714 11.156-9.664 16.658-20.015 19.056-10.352 2.396-20.093-7.77-24.049-15.985-3.955-8.217-1.118-14.566-1.118-14.566l-17.922 5.211c-21.46 9.081-35.988 21.805-45.595 36.135a.192.192 0 0 0-.065.087 92.898 92.898 0 0 0-8.032 14.682c-7 16.133-9.216 33.195-9.098 48.637.522-16.962 3.938-34.007 9.96-48.81 17.944-3.67 30.572 3.673 38.3 11.015 6.314 6 9.356 11.999 9.352 11.991-3.137 7.205-5.447 16.893-5.312 29.704h-1.993c-.41 0-.796.017-1.188.052h-.396l-13.258.065-9.063.052c-.72.003-1.44.066-2.15.187-1.83.29-3.583.944-5.155 1.924-.205.117-.387.251-.575.369-.57.375-1.108.8-1.605 1.268a6.255 6.255 0 0 0-.492.473 14.673 14.673 0 0 0-3.046 4.52c-.1.215-.186.435-.256.66-.088.214-.161.433-.218.657a14.305 14.305 0 0 0-.644 4.273c0 .269.035.556.035.825.035.464.083.899.152 1.333.035.235.083.473.135.708.1.456.218.916.353 1.35.152.484.334.959.543 1.42.07.178.147.352.235.522 0 .052.035.086.07.134.1.209.218.439.335.643.174.339.392.673.61.994.256.391.543.743.83 1.099.286.354.591.691.914 1.012.345.35.71.678 1.097.981l.435.352c.494.373 1.015.711 1.557 1.012.252.134.523.273.792.408.025.019.056.03.087.03.305.152.61.274.914.391.304.117.61.235.926.335.323.086.645.186.967.256l.265.048c.253.056.505.104.762.143.455.078.913.131 1.374.16.28.03.563.041.845.035h-.03c-.188-.048-.375-.065-.562-.1h.087c.05.009.102.009.152 0 .279-.034.583-.034.87-.034h58.235c5.593.019 10.12 4.544 10.13 10.126a9.784 9.784 0 0 1-.436 3.006 10.056 10.056 0 0 1-2.502 4.134 10.108 10.108 0 0 1-7.153 2.97h-23.539c.016.076.038.15.065.222h6.766l97.355.404c.135-.191.27-.404.392-.626Zm-156.881-.018a83.053 83.053 0 0 1-2.776-6.818c1.236 4.338 2.132 6.818 2.132 6.818h.644Zm17.57 0c-.392 0-.78-.013-1.167-.048.388.035.775.048-.679.048h1.845Z" stroke-linejoin="round" stroke-linecap="round" stroke="rgba(0,0,0,0 )" fill="transparent"/></g><g data-name="Path"><path d="M382.613 1208.33s1.471 8.911 2.994 16.98c4.351.047 8.702.082 13.005.117 2.176-12.22-.187-21.791-2.993-28.17-3.538 8.05-8.88 10.5-13.006 11.073Z" fill="#008379" fill-rule="evenodd"/><path d="M382.613 1208.33s1.471 8.911 2.994 16.98c4.351.047 8.702.082 13.005.117 2.176-12.22-.187-21.791-2.993-28.17-3.538 8.05-8.88 10.5-13.006 11.073Z" stroke-linejoin="round" stroke-linecap="round" stroke="rgba(0,0,0,0 )" fill="transparent"/></g><g data-name="Path"><path d="M311.1 1240.483a115.842 115.842 0 0 1 28.05-10.661l3.203-.552s2.384-5.41 2.398-5.428c1.118-2.836 2.971-6.6 3.546-9.589.7-3.529.87-7.142.504-10.721-.626-5.316-3.106-16.559-7.588-20.102-3.737-2.936-5.278-2.32-7.397-6.91-1.523-3.274-2.14-8.776.818-11.19 3.281-2.65 4.682-1.303 8.607-.895 14.915 1.477 23.439-9.236 28.921-21.617.87-2.01 1.775-4.134 3.198-5.845 1.632-1.972 3.89-2.415 5.74-4.009.787-.686 1.326-1.806.948-2.779a3.475 3.475 0 0 0-.949-1.198 30.613 30.613 0 0 0-12.257-6.883 44.9 44.9 0 0 0-22.19-.69c-7.658 2.53-14.541 7.325-19.175 14.651-6.392 10.123-7.932 20.623-4.351 31.089 3.668 10.717 7.762 23.306.87 33.62-9.176 13.7-14.707 23.337-12.897 39.709Z" fill="#008379" fill-rule="evenodd"/><path d="M311.1 1240.483a115.842 115.842 0 0 1 28.05-10.661l3.203-.552s2.384-5.41 2.398-5.428c1.118-2.836 2.971-6.6 3.546-9.589.7-3.529.87-7.142.504-10.721-.626-5.316-3.106-16.559-7.588-20.102-3.737-2.936-5.278-2.32-7.397-6.91-1.523-3.274-2.14-8.776.818-11.19 3.281-2.65 4.682-1.303 8.607-.895 14.915 1.477 23.439-9.236 28.921-21.617.87-2.01 1.775-4.134 3.198-5.845 1.632-1.972 3.89-2.415 5.74-4.009.787-.686 1.326-1.806.948-2.779a3.475 3.475 0 0 0-.949-1.198 30.613 30.613 0 0 0-12.257-6.883 44.9 44.9 0 0 0-22.19-.69c-7.658 2.53-14.541 7.325-19.175 14.651-6.392 10.123-7.932 20.623-4.351 31.089 3.668 10.717 7.762 23.306.87 33.62-9.176 13.7-14.707 23.337-12.897 39.709Z" stroke-linejoin="round" stroke-linecap="round" stroke="rgba(0,0,0,0 )" fill="transparent"/></g><g data-name="Shape"><path d="M396.237 1174.054c.378-.002.756-.025 1.13-.07 5.097-.628 8.773-5.18 8.307-10.283-.436-4.61-4.32-8.128-8.959-8.116h-.013a9.934 9.934 0 0 0-1.131.07c-5.096.628-8.772 5.179-8.306 10.283.435 4.603 4.308 8.116 8.936 8.116h.036Z" fill="#ccdde2" fill-rule="evenodd"/><path d="M396.237 1174.054c.378-.002.756-.025 1.13-.07 5.097-.628 8.773-5.18 8.307-10.283-.436-4.61-4.32-8.128-8.959-8.116h-.013a9.934 9.934 0 0 0-1.131.07c-5.096.628-8.772 5.179-8.306 10.283.435 4.603 4.308 8.116 8.936 8.116h.036Z" stroke-linejoin="round" stroke-linecap="round" stroke="rgba(0,0,0,0 )" fill="transparent"/></g><g data-name="Group"><g data-name="Group"><path d="M385.59 1225.31c4.35.047 8.702.082 13.005.117 32.79.17 64.174-.287 97.068 5.602M342.87 1228.953c-1.248.274-2.484.56-3.72.869a123.75 123.75 0 0 0-14.201 4.342 105.52 105.52 0 0 0-13.85 6.314.026.026 0 0 0-.034 0 90.8 90.8 0 0 0-19.28 13.975 75.278 75.278 0 0 0-12.431 15.846.191.191 0 0 0-.065.087 104.322 104.322 0 0 0-7.193 14.5c-6.021 14.803-9.437 31.848-9.96 48.81-.473 16.02 1.641 31.97 6.645 45.858a82.98 82.98 0 0 0 2.776 6.818c.065.17.152.321.217.49M323.965 1386.645v-.052a1.422 1.422 0 0 1-.065-.221M335.448 1288.99s-9.468 4.59-15.69 18.92c-3.128 7.204-5.448 16.893-5.313 29.703v.035c.07 8.168 1.149 17.6 3.655 28.47v.06" stroke-linejoin="round" stroke-linecap="round" stroke-width="4" stroke="#000" fill="transparent" data-name="Path"/><path d="M514.63 1107.06c-1.672-6.309-4.352-12.814-6.366-15.55-3.168-4.256-7.302-8.312-12.619-7.947-3.415.222-6.77 2.106-6.922 5.841-.144 4.052 4.138 8.55 5.513 12.359 1.305 3.674 1.901 7.951 1.214 11.816-.688 3.865-4.164 6.883-7.915 7.713a5.566 5.566 0 0 1-4.207-.57c-3.673-2.318-2.903-8.493-2.755-12.137.174-4.086.17-8.707-3.324-11.503-2.567-2.054-6.461-.69-8.354 1.567-3.29 3.909-3.45 9.793-3.616 14.604-.491 14.496 2.089 28.392 10.547 40.595 4.351 6.301 8.833 11.955 10.595 19.685 5.483 24.023 6.092 40.677 9.242 65.074" stroke-linejoin="round" stroke-linecap="round" stroke-width="4" stroke="#000" fill="transparent" data-name="Path"/><path d="M429.248 1387.023c16.813-47.69 8.85-99.792 8.85-99.792l90.311 2.857a26.946 26.946 0 0 0 20.58-8.575 26.835 26.835 0 0 0 7.04-21.12l-22.12-80.511-4.786-17.175a24.842 24.842 0 0 1 .992-16.346l2.253-5.367s4.086-8.316-5.073-7.534c-4.925.434-9.812 2.523-13.945 5.145-3.246 2.063-8.197 6.054-6.666 10.48 1.81 5.21 8.907 6.513 13.075 3.582" stroke-linejoin="round" stroke-linecap="round" stroke-width="4" stroke="#000" fill="transparent" data-name="Path"/><path d="M530.34 1133.416s7.737-17.37-13.487-12.876c-21.225 4.495-26.307 27.64-10.108 25.035" stroke-linejoin="round" stroke-linecap="round" stroke-width="4" stroke="#000" fill="transparent" data-name="Path"/><path d="M523.344 1119.546s6.788-8.23-3.359-12.16c-10.146-3.93-46.991 14.63-23.356 32.913M376.522 1207.94c1.97.539 4.03.672 6.052.39 4.143-.573 9.486-3.04 13.006-11.074a32.526 32.526 0 0 0 1.775-5.08c1.793-6.649 2.576-15.899 1.527-28.796a90.3 90.3 0 0 0-.931-7.513 67.66 67.66 0 0 0-3.363-12.823s0-.035-.035-.053c-3.838-10.126-10.586-18.673-21.934-21.96a44.756 44.756 0 0 0-25.993.373c-7.658 2.532-14.541 7.326-19.175 14.652-6.392 10.123-7.932 20.623-4.351 31.089 3.668 10.717 7.762 23.307.87 33.62-9.164 13.723-14.694 23.36-12.918 39.73M402.076 1225.935c3.333-15.95-1.166-27.58-4.7-33.76" stroke-linejoin="round" stroke-linecap="round" stroke-width="4" stroke="#000" fill="transparent" data-name="Path"/><path d="M397.951 1155.85s-7.297-7.613-15.75 4.412" stroke-linejoin="round" stroke-linecap="round" stroke-width="3" stroke="#000" fill="transparent" data-name="Path"/></g><path d="M379.372 1194.182c-3.085 1.993-7.262.756-9.533-2.315-2.467-3.33-3.455-7.777-3.99-11.812-.035-.29-.074-.577-.1-.868 3.763 5.902 11.069 7.317 17.5 7.934a11.76 11.76 0 0 1-2.093 5.354 6.708 6.708 0 0 1-1.784 1.707h0Z" stroke-linejoin="round" stroke-linecap="round" stroke-width="4" stroke="#000" fill="transparent" data-name="Path"/><g data-name="Group"><path d="m345.864 1220.75.018-.017" stroke-linejoin="round" stroke-linecap="round" stroke-width="4" stroke="#000" fill="transparent" data-name="Path"/><path d="M374.568 1153.51s-2.48-4.009-10.956-1.056c-8.475 2.953-8.576 7.778-8.576 7.778M393.835 1163.475s-3.916-1.975-6.984 0M372.732 1165.295s-3.916-1.976-6.961 0" stroke-linejoin="round" stroke-linecap="round" stroke-width="3" stroke="#000" fill="transparent" data-name="Path"/><path d="M382.613 1208.33s1.471 8.911 2.994 16.98c.222 1.146.435 2.275.627 3.391.996 5.433 1.792 10.262 1.827 11.725.252 12.16-11.265 19.173-22.39 19.055-15.612-.169-24.74-14.665-23.27-29.182.962-2.649 1.945-5.298 2.906-7.947 1.236-3.396 2.842-6.7 3.538-10.279.615-3.525.682-7.124.2-10.67-.627-5.297-1.658-13.196-6.14-16.74-3.737-2.936-7.64-4.864-9.772-9.454-1.523-3.274-1.453-7.49 1.506-9.905 3.28-2.65 8.471-2.328 12.396-1.941 25.314 2.583 29.526-22.99 36.375-26.581 5.613-2.958 9.824 3.678 11.143 6.14l.052.104a.104.104 0 0 0 .03.065c.24.435.357.726.357.726" stroke-linejoin="round" stroke-linecap="round" stroke-width="4" stroke="#000" fill="transparent" data-name="Path"/><path d="M383.262 1166.42s2.645 8.642 2.44 9.936c-.204 1.294-3.289.39-3.289.39" stroke-linejoin="round" stroke-linecap="round" stroke-width="3" stroke="#000" fill="transparent" data-name="Path"/><path d="M377.303 1175.434a10.62 10.369-45.05 1 1 .07-.07zM403.752 1172.225a10.62 10.369-45.05 1 1 .07-.07z" stroke-linejoin="round" stroke-linecap="round" stroke-width="3" stroke="#000" fill="transparent" data-name="Oval"/></g></g><path d="m380.486 1166.763 5.552-.673" stroke-linejoin="round" stroke-linecap="round" stroke-width="5.5" stroke="#000" fill="transparent" data-name="Path"/><g data-name="Shape"><path d="M490.99 1069.255c.52-.445 1.081-.84 1.675-1.182a24.969 24.969 0 0 0 6.092-4.876 25.29 25.29 0 0 0 6.63-19.325c-1.005-12.559-11.447-22.65-24.065-23.294h-.005c-10.252-.53-19.824 5.128-24.284 14.357a25.408 25.408 0 0 0 3.856 27.905c.055.06.106.122.153.187a25.975 25.975 0 0 0 6.339 5.08 8.203 8.203 0 0 1 1.64 1.182 24.48 24.48 0 0 0 10.95 2.584c3.777 0 7.555-.873 11.019-2.618Z" fill="#ffb34d" fill-rule="evenodd"/><path d="M490.99 1069.255c.52-.445 1.081-.84 1.675-1.182a24.969 24.969 0 0 0 6.092-4.876 25.29 25.29 0 0 0 6.63-19.325c-1.005-12.559-11.447-22.65-24.065-23.294h-.005c-10.252-.53-19.824 5.128-24.284 14.357a25.408 25.408 0 0 0 3.856 27.905c.055.06.106.122.153.187a25.975 25.975 0 0 0 6.339 5.08 8.203 8.203 0 0 1 1.64 1.182 24.48 24.48 0 0 0 10.95 2.584c3.777 0 7.555-.873 11.019-2.618Z" stroke-linejoin="round" stroke-linecap="round" stroke="rgba(0,0,0,0 )" fill="transparent"/></g><g data-name="Path"><path d="M469.03 1069.293a9.632 9.632 0 0 1 3.168 7.17v1.164c0 4.065 2.95 7.708 6.961 8.116a7.816 7.816 0 0 0 6.016-1.957 7.784 7.784 0 0 0 2.586-5.764v-1.559a9.719 9.719 0 0 1 3.211-7.2 24.53 24.53 0 0 1-21.96.03h.018Z" fill="#353642" fill-rule="evenodd"/><path d="M469.03 1069.293a9.632 9.632 0 0 1 3.168 7.17v1.164c0 4.065 2.95 7.708 6.961 8.116a7.816 7.816 0 0 0 6.016-1.957 7.784 7.784 0 0 0 2.586-5.764v-1.559a9.719 9.719 0 0 1 3.211-7.2 24.53 24.53 0 0 1-21.96.03h.018Z" stroke-linejoin="round" stroke-linecap="round" stroke="rgba(0,0,0,0 )" fill="transparent"/></g><g data-name="Group"><g data-name="Group"><path d="M469.03 1069.293a9.632 9.632 0 0 1 3.168 7.17v1.164c0 4.065 2.95 7.708 6.961 8.116a7.816 7.816 0 0 0 6.016-1.957 7.784 7.784 0 0 0 2.586-5.764v-1.559a9.719 9.719 0 0 1 3.211-7.2 24.53 24.53 0 0 1-21.96.03h.018Z" stroke-linejoin="round" stroke-linecap="round" stroke-width="4" stroke="#000" fill="transparent" data-name="Path"/><path d="M454.502 1045.987a25.293 25.293 0 0 0 6.396 16.862c.052.056.1.116.143.178a25.906 25.906 0 0 0 6.353 5.085c.59.33 1.138.726 1.636 1.181a24.53 24.53 0 0 0 21.96-.03 10.72 10.72 0 0 1 1.68-1.194 25.465 25.465 0 0 0 12.718-24.193c-1.102-13.617-12.784-23.934-26.46-23.366-13.676.567-24.46 11.816-24.426 25.477h0Z" stroke-linejoin="round" stroke-linecap="round" stroke-width="4" stroke="#000" fill="transparent" data-name="Path"/><path d="m487.191 1071.873 5.84-19.316 1.461-5.472a.747.747 0 0 0-1.396-.373c-1.306 2.302-3.368 5.19-5.422 5.116-3.407-.122-.609-10.444 2.176-9.363 2.785 1.081-2.554 7.903-8.054 8.755-5.5.85-3.994-8.377 0-8.742 3.994-.365 1.24 7.408-5.94 8.742-7.178 1.333-5.838-6.558-3.893-8.134 1.945-1.576 1.34 7.526-3.168 8.985-1.427.464-2.563-.53-3.12-1.768-.322-.72-.156-4.368.505-3.244 1.349 2.306 1.614 5.185 2.276 7.73 1.405 5.385 3.554 10.54 4.786 15.972" stroke-linejoin="round" stroke-linecap="round" stroke-width="3" stroke="#000" fill="transparent" data-name="Path"/><path d="M525.568 1387.023c-3.08-1.442-287.17 0-287.17 0" stroke-linejoin="round" stroke-linecap="round" stroke-width="4" stroke="#000" fill="transparent" data-name="Path"/></g><g data-name="Group"><path d="m480.008 1011.49.252-15.3M509.243 1025.72l10.612-11.043M450.664 1026.406l-10.847-10.813" stroke-linejoin="round" stroke-linecap="round" stroke-width="4" stroke="#000" fill="transparent" data-name="Path"/></g></g><g data-name="Path"><path d="m288.047 1366.153-.37.034c.2.035.436.07.64.118h.313l29.462-.152h3.328l49.498-.252h.561a.37.37 0 0 0 .135 0h.03c.312.003.623-.02.932-.065a14.134 14.134 0 0 1-7.236-3.001c-.327-.274-.662-.534-.966-.83l-.035-.034a1.965 1.965 0 0 1-.2-.187 14.292 14.292 0 0 1-4.23-9.332v-.795c.032-6.783 4.824-12.616 11.483-13.974a.026.026 0 0 1 .035 0c.322-.083.692-.135 1.031-.187l-.727-.048a2.424 2.424 0 0 0-.356 0h-.575l-41.818.217-7.697.035-6.83.035H310.75c-7.305.734-12.871 6.863-12.888 14.191 0 .673.052 1.346.153 2.011 1.018 6.822 6.769 11.946 13.675 12.185h.435-24.844c.36.013.596.013.765.03Z" fill="#fff" fill-rule="evenodd"/><path d="m288.047 1366.153-.37.034c.2.035.436.07.64.118h.313l29.462-.152h3.328l49.498-.252h.561a.37.37 0 0 0 .135 0h.03c.312.003.623-.02.932-.065a14.134 14.134 0 0 1-7.236-3.001c-.327-.274-.662-.534-.966-.83l-.035-.034a1.965 1.965 0 0 1-.2-.187 14.292 14.292 0 0 1-4.23-9.332v-.795c.032-6.783 4.824-12.616 11.483-13.974a.026.026 0 0 1 .035 0c.322-.083.692-.135 1.031-.187l-.727-.048a2.424 2.424 0 0 0-.356 0h-.575l-41.818.217-7.697.035-6.83.035H310.75c-7.305.734-12.871 6.863-12.888 14.191 0 .673.052 1.346.153 2.011 1.018 6.822 6.769 11.946 13.675 12.185h.435-24.844c.36.013.596.013.765.03h0Z" stroke-linejoin="round" stroke-linecap="round" stroke="rgba(0,0,0,0 )" fill="transparent"/></g><g data-name="Path"><path d="M354.58 1383.41a10.104 10.104 0 0 1-7.171 2.97h24.27c4.647 0 7.17-1.129 9.011-2.97a10.139 10.139 0 0 0 2.976-7.156c0-5.55-4.564-10.11-11.987-10.11h-24.27a10.13 10.13 0 0 1 9.374 6.239c1.57 3.782.7 8.136-2.203 11.027Z" fill="#d7e8f0" fill-rule="evenodd"/><path d="M354.58 1383.41a10.104 10.104 0 0 1-7.171 2.97h24.27c4.647 0 7.17-1.129 9.011-2.97a10.139 10.139 0 0 0 2.976-7.156c0-5.55-4.564-10.11-11.987-10.11h-24.27a10.13 10.13 0 0 1 9.374 6.239c1.57 3.782.7 8.136-2.203 11.027Z" stroke-linejoin="round" stroke-linecap="round" stroke="rgba(0,0,0,0 )" fill="transparent"/></g><g data-name="Path"><path d="M274.35 1352.13c0 .27 0 .556.035.826.035.456.083.894.152 1.333.035.234.083.473.135.708.1.434.218.912.353 1.35.152.484.334.958.544 1.42.068.178.147.352.235.521 0 .052.034.087.07.135.1.221.217.434.334.643.187.338.392.673.61.994.256.39.543.743.83 1.099.286.353.591.691.914 1.012.345.35.71.677 1.097.981l.435.352c.495.373 1.015.711 1.557 1.012.253.134.523.273.792.408.026.018.056.029.087.03.305.152.61.274.914.391.305.117.61.235.927.334.322.087.644.187.966.257.79.18 1.593.298 2.402.351h.778c-.187-.047-.374-.065-.56-.1a.092.092 0 0 0-.066 0c.085-.002.17-.013.252-.034a.554.554 0 0 0-.17 0h-.744 24.897-.435a14.287 14.287 0 0 1-8.35-3.262c-.355-.29-.695-.598-1.018-.925a9.838 9.838 0 0 1-.761-.829 6.372 6.372 0 0 1-.505-.638 5.91 5.91 0 0 1-.27-.356 5.644 5.644 0 0 1-.435-.678 6.512 6.512 0 0 1-.526-.868 8.518 8.518 0 0 1-.435-.895c-.066-.135-.118-.287-.205-.434a18.912 18.912 0 0 1-.692-2.258 5.887 5.887 0 0 1-.135-.743.741.741 0 0 1-.034-.187.507.507 0 0 1-.035-.152c0-.169-.048-.321-.065-.49v-.1a9.722 9.722 0 0 1-.087-1.42c-.006-.22.005-.439.034-.656v-.152a4 4 0 0 1 .053-.643 13.51 13.51 0 0 1 .796-3.426c.229-.662.52-1.3.87-1.906.32-.611.692-1.192 1.114-1.737.11-.16.228-.312.357-.456.052-.052.1-.122.17-.187.225-.296.474-.573.743-.83.2-.2.436-.403.64-.62.205-.218.544-.474.831-.678.287-.204.474-.352.727-.521.375-.272.77-.515 1.183-.725a8.448 8.448 0 0 1 1.201-.578c.48-.205.971-.385 1.47-.538.171-.063.348-.109.527-.135.466-.132.94-.234 1.419-.304.239-.052.474-.07.726-.1h.035a.196.196 0 0 0 .1 0h-.252l-13.258.065-9.063.052c-.72.004-1.44.066-2.15.187a13.84 13.84 0 0 0-5.19 1.924c-.205.117-.388.252-.575.369-.57.375-1.108.8-1.605 1.268a6.322 6.322 0 0 0-.492.473 14.676 14.676 0 0 0-3.046 4.521c-.1.214-.186.434-.256.66-.088.213-.161.432-.218.656a14.305 14.305 0 0 0-.679 4.23Z" fill="#ffb34d" fill-rule="evenodd"/><path d="M274.35 1352.13c0 .27 0 .556.035.826.035.456.083.894.152 1.333.035.234.083.473.135.708.1.434.218.912.353 1.35.152.484.334.958.544 1.42.068.178.147.352.235.521 0 .052.034.087.07.135.1.221.217.434.334.643.187.338.392.673.61.994.256.39.543.743.83 1.099.286.353.591.691.914 1.012.345.35.71.677 1.097.981l.435.352c.495.373 1.015.711 1.557 1.012.253.134.523.273.792.408.026.018.056.029.087.03.305.152.61.274.914.391.305.117.61.235.927.334.322.087.644.187.966.257.79.18 1.593.298 2.402.351h.778c-.187-.047-.374-.065-.56-.1a.092.092 0 0 0-.066 0c.085-.002.17-.013.252-.034a.554.554 0 0 0-.17 0h-.744 24.897-.435a14.287 14.287 0 0 1-8.35-3.262c-.355-.29-.695-.598-1.018-.925a9.838 9.838 0 0 1-.761-.829 6.372 6.372 0 0 1-.505-.638 5.91 5.91 0 0 1-.27-.356 5.644 5.644 0 0 1-.435-.678 6.512 6.512 0 0 1-.526-.868 8.518 8.518 0 0 1-.435-.895c-.066-.135-.118-.287-.205-.434a18.912 18.912 0 0 1-.692-2.258 5.887 5.887 0 0 1-.135-.743.741.741 0 0 1-.034-.187.507.507 0 0 1-.035-.152c0-.169-.048-.321-.065-.49v-.1a9.722 9.722 0 0 1-.087-1.42c-.006-.22.005-.439.034-.656v-.152a4 4 0 0 1 .053-.643 13.51 13.51 0 0 1 .796-3.426c.229-.662.52-1.3.87-1.906.32-.611.692-1.192 1.114-1.737.11-.16.228-.312.357-.456.052-.052.1-.122.17-.187.225-.296.474-.573.743-.83.2-.2.436-.403.64-.62.205-.218.544-.474.831-.678.287-.204.474-.352.727-.521.375-.272.77-.515 1.183-.725a8.448 8.448 0 0 1 1.201-.578c.48-.205.971-.385 1.47-.538.171-.063.348-.109.527-.135.466-.132.94-.234 1.419-.304.239-.052.474-.07.726-.1h.035a.196.196 0 0 0 .1 0h-.252l-13.258.065-9.063.052c-.72.004-1.44.066-2.15.187a13.84 13.84 0 0 0-5.19 1.924c-.205.117-.388.252-.575.369-.57.375-1.108.8-1.605 1.268a6.322 6.322 0 0 0-.492.473 14.676 14.676 0 0 0-3.046 4.521c-.1.214-.186.434-.256.66-.088.213-.161.432-.218.656a14.305 14.305 0 0 0-.679 4.23h0Z" stroke-linejoin="round" stroke-linecap="round" stroke="rgba(0,0,0,0 )" fill="transparent"/></g><g data-name="Group"><path d="M274.35 1352.13c0 .27 0 .556.035.826.035.456.083.894.152 1.333.035.234.083.473.135.708.1.434.218.912.353 1.35.152.484.334.958.544 1.42.067.182.151.356.252.521 0 .052.035.087.07.135.1.221.217.434.335.643.187.338.391.673.609.994.256.39.544.743.83 1.099.293.353.604.691.932 1.012.344.35.71.677 1.096.981l.435.352c.495.373 1.016.711 1.558 1.012.253.134.522.273.792.408.025.018.056.029.087.03.305.152.61.274.914.391.304.117.609.235.927.334.322.087.644.187.966.257l.265.047c.252.057.505.105.761.144.455.078.914.131 1.375.16.28.03.563.041.844.035h.07l29.413-.143 6.931-.035 46.2-.234c.17-.003.34-.015.51-.035.386 0 .76-.035 1.148-.065-6.907-.822-12.238-6.455-12.666-13.384V1351.7c-.009-6.822 4.802-12.704 11.5-14.062.34-.07.679-.117 1.031-.17a9.93 9.93 0 0 0-1.014-.064 2.424 2.424 0 0 0-.357 0h-.287l-46.2.234-10.442.052h-3.703l-22.19.118c-.729.002-1.456.06-2.176.169a14.459 14.459 0 0 0-5.19 1.924c-.205.117-.388.252-.575.369-.564.385-1.1.809-1.605 1.268-.17.152-.322.304-.492.473a14.676 14.676 0 0 0-3.046 4.52l-.257.661a5.794 5.794 0 0 0-.217.656 14.305 14.305 0 0 0-.653 4.282h0Z" stroke-linejoin="round" stroke-linecap="square" stroke-width="4" stroke="#000" fill="transparent" data-name="Path"/><path d="M298.16 1351.874c-.004.475.02.949.069 1.42v.1c.035.222.065.434.1.643a.74.74 0 0 0 .035.187c.029.25.074.498.135.742.1.434.235.908.374 1.346.1.304.2.608.317.912.088.152.14.304.205.435.127.306.273.605.435.894.153.303.329.593.527.869.128.236.274.462.435.677.082.117.17.235.27.356.154.224.322.437.504.639.238.29.492.567.762.83.323.318.663.621 1.018.907a14.287 14.287 0 0 0 8.345 3.291h59.475c.54 0 1.096-.03 1.658-.082a10.627 10.627 0 0 1-1.084-.187.13.13 0 0 1-.087 0h-.03a14.393 14.393 0 0 1-7.24-3.908l-.035-.035a14.256 14.256 0 0 1-4.125-9.502v-.56c.056-7.2 5.457-13.24 12.618-14.113a13.83 13.83 0 0 0-1.118-.083.798.798 0 0 0-.287 0 .026.026 0 0 0-.035 0 .92.92 0 0 0-.218 0h-58.73c-.41 0-.797 0-1.188.052h-.135a.196.196 0 0 1-.1 0h-.07l-.692.1c-.479.07-.953.172-1.418.304-.17.035-.357.083-.527.135a14.786 14.786 0 0 0-2.671 1.116c-.41.217-.805.46-1.184.725-.252.17-.491.335-.726.521-.235.187-.557.435-.831.678-.274.243-.435.434-.64.62-.257.274-.509.544-.744.83-.07.065-.117.135-.17.187l-.356.456c-.408.555-.78 1.135-1.114 1.737-.329.617-.62 1.254-.87 1.906a14.962 14.962 0 0 0-.797 3.427c0 .221-.035.434-.052.642v.152c-.009.196-.009.417-.009.634h0Z" stroke-linejoin="round" stroke-linecap="square" stroke-width="4" stroke="#000" fill="transparent" data-name="Path"/><path d="M287.303 1386.372h84.385a16.72 16.72 0 0 0 5.548-.79c.356-.135.691-.27 1.013-.435.322-.17.61-.339.897-.508.287-.17.54-.386.796-.59.252-.222.487-.435.71-.66a10.054 10.054 0 0 0 2.501-4.135 9.78 9.78 0 0 0 .457-3.005c.003-.395-.02-.79-.07-1.18a8.462 8.462 0 0 0-.352-1.62 8.243 8.243 0 0 0-1.084-2.346 7.14 7.14 0 0 0-.979-1.302c-.23-.257-.474-.5-.73-.73-2.063-1.837-5.057-2.97-8.76-2.97h-84.332.744a.554.554 0 0 1 .17 0h.052a.026.026 0 0 1-.034 0 .288.288 0 0 1-.118 0h-.087c.187.034.374.052.561.1H288.701a10.175 10.175 0 0 1 8.2 9.94c-.027 5.12-3.855 9.425-8.945 10.061.413.157.8.17-.653.17h0Z" stroke-linejoin="round" stroke-linecap="square" stroke-width="4" stroke="#000" fill="transparent" data-name="Path"/><path d="M287.982 1386.324c.387.035.775.048 1.166.048h58.274a10.109 10.109 0 0 0 7.153-2.97 10.054 10.054 0 0 0 2.502-4.135 9.78 9.78 0 0 0 .435-3.005c-.01-5.582-4.536-10.108-10.13-10.127h-58.234c-.287 0-.592 0-.87.035a.47.47 0 0 1-.152 0h-.087c.187.035.374.052.561.1h.1a10.175 10.175 0 0 1 8.202 9.94c-.028 5.12-3.856 9.425-8.946 10.062l.026.052Z" stroke-linejoin="round" stroke-linecap="square" stroke-width="4" stroke="#000" fill="transparent" data-name="Path"/><path d="M357.551 1376.262c0 5.584-4.535 10.11-10.129 10.11h24.266c4.634 0 7.17-1.13 9.015-2.97a10.052 10.052 0 0 0 2.96-7.14c0-5.567-4.552-10.127-11.975-10.127h-24.266c5.593.02 10.12 4.545 10.13 10.127h0ZM287.303 1386.372h1.845c-.391 0-.779 0-1.166-.048.387.035.775.048-.679.048h0ZM288.117 1366.179c.335 0 .692-.052 1.031-.052h-1.845c1.288.008 1.136.052.814.052Z" stroke-linejoin="round" stroke-linecap="square" stroke-width="4" stroke="#000" fill="transparent" data-name="Path"/></g><g data-name="Path"><path d="m540.992 1348.279 30.205-77.229a10.12 10.12 0 0 0-1.847-8.695 10.163 10.163 0 0 0-8.003-3.898H441.353a11.991 11.991 0 0 0-11.665 9.171l-33.068 77.22a10.12 10.12 0 0 0 1.9 8.642 10.163 10.163 0 0 0 7.976 3.86h122.866c5.504 0 10.3-3.741 11.63-9.071Z" fill="#fff" fill-rule="evenodd"/><path d="m540.992 1348.279 30.205-77.229a10.12 10.12 0 0 0-1.847-8.695 10.163 10.163 0 0 0-8.003-3.898H441.353a11.991 11.991 0 0 0-11.665 9.171l-33.068 77.22a10.12 10.12 0 0 0 1.9 8.642 10.163 10.163 0 0 0 7.976 3.86h122.866c5.504 0 10.3-3.741 11.63-9.071Z" stroke-linejoin="round" stroke-linecap="round" stroke="rgba(0,0,0,0 )" fill="transparent"/></g><g data-name="Path"><path d="m540.992 1348.279 30.205-77.229a10.12 10.12 0 0 0-1.847-8.695 10.163 10.163 0 0 0-8.003-3.898H441.353a11.991 11.991 0 0 0-11.665 9.171l-33.068 77.22a10.12 10.12 0 0 0 1.9 8.642 10.163 10.163 0 0 0 7.976 3.86h122.866c5.504 0 10.3-3.741 11.63-9.071Z" fill="#008379" fill-rule="evenodd"/><path d="m540.992 1348.279 30.205-77.229a10.12 10.12 0 0 0-1.847-8.695 10.163 10.163 0 0 0-8.003-3.898H441.353a11.991 11.991 0 0 0-11.665 9.171l-33.068 77.22a10.12 10.12 0 0 0 1.9 8.642 10.163 10.163 0 0 0 7.976 3.86h122.866c5.504 0 10.3-3.741 11.63-9.071Z" stroke-linejoin="round" stroke-linecap="round" stroke="rgba(0,0,0,0 )" fill="transparent"/></g><path d="m540.992 1348.279 30.205-77.229a10.12 10.12 0 0 0-1.847-8.695 10.163 10.163 0 0 0-8.003-3.898H441.353a11.991 11.991 0 0 0-11.665 9.171l-33.068 77.22a10.12 10.12 0 0 0 1.9 8.642 10.163 10.163 0 0 0 7.976 3.86h122.866c5.504 0 10.3-3.741 11.63-9.071Z" stroke-linejoin="round" stroke-linecap="square" stroke-width="4" stroke="#000" fill="transparent" data-name="Path"/><g data-name="Path"><path d="m536.58 1345.152 27.847-71.249c.7-2.791.074-5.75-1.699-8.02a9.374 9.374 0 0 0-7.377-3.6H444.668c-5.115 0-9.563 3.5-10.76 8.463l-30.505 71.219a9.34 9.34 0 0 0 1.752 7.974 9.379 9.379 0 0 0 7.359 3.564h113.328c5.074.002 9.5-3.44 10.738-8.351Z" fill="#008379" fill-rule="evenodd"/><path d="m536.58 1345.152 27.847-71.249c.7-2.791.074-5.75-1.699-8.02a9.374 9.374 0 0 0-7.377-3.6H444.668c-5.115 0-9.563 3.5-10.76 8.463l-30.505 71.219a9.34 9.34 0 0 0 1.752 7.974 9.379 9.379 0 0 0 7.359 3.564h113.328c5.074.002 9.5-3.44 10.738-8.351h0Z" stroke-linejoin="round" stroke-linecap="round" stroke="rgba(0,0,0,0 )" fill="transparent"/></g><g data-name="Path"><path d="M452.666 1275.384c1.466-2.202 3.863-3.179 5.36-2.171 1.497 1.007 1.519 3.582.052 5.784-.23.335-.49.65-.774.942l10.878 22.916c1.74-1.155 3.641-1.442 5.008-.53a3.72 3.72 0 0 1 1.527 2.758l7.431-2.506 6.497-2.171 2.123-.695a9.546 9.546 0 0 1 1.1-2.254c2.063-3.092 5.43-4.464 7.532-3.07 2.102 1.394 2.124 4.96.118 8.03l12.361 16.862c2.698-2.21 5.879-2.892 8.08-1.433 2.994 1.993 3.046 7.182.1 11.594-.117.174-.252.322-.374.487l8.254 11.256.074.108c.634.853.744 1.985.288 2.943a2.877 2.877 0 0 1-5.074.227l-7.34-11.025c-2.315 1.342-4.787 1.598-6.584.4-2.863-1.903-2.997-6.714-.435-10.988l-11.856-17.86c-1.74 1.185-3.681 1.489-5.065.573a3.582 3.582 0 0 1-1.466-2.302l-.87.248-6.61 1.802-8.458 2.275a9.236 9.236 0 0 1-1.262 2.84c-2.058 3.088-5.43 4.464-7.532 3.07-2.101-1.393-2.127-5.028-.07-8.116a9.8 9.8 0 0 1 1.019-1.263l-10.351-23.36c-1.25.87-2.611 1.065-3.616.409-1.519-.968-1.54-3.574-.065-5.78Z" fill="#fff" fill-rule="evenodd"/><path d="M452.666 1275.384c1.466-2.202 3.863-3.179 5.36-2.171 1.497 1.007 1.519 3.582.052 5.784-.23.335-.49.65-.774.942l10.878 22.916c1.74-1.155 3.641-1.442 5.008-.53a3.72 3.72 0 0 1 1.527 2.758l7.431-2.506 6.497-2.171 2.123-.695a9.546 9.546 0 0 1 1.1-2.254c2.063-3.092 5.43-4.464 7.532-3.07 2.102 1.394 2.124 4.96.118 8.03l12.361 16.862c2.698-2.21 5.879-2.892 8.08-1.433 2.994 1.993 3.046 7.182.1 11.594-.117.174-.252.322-.374.487l8.254 11.256.074.108c.634.853.744 1.985.288 2.943a2.877 2.877 0 0 1-5.074.227l-7.34-11.025c-2.315 1.342-4.787 1.598-6.584.4-2.863-1.903-2.997-6.714-.435-10.988l-11.856-17.86c-1.74 1.185-3.681 1.489-5.065.573a3.582 3.582 0 0 1-1.466-2.302l-.87.248-6.61 1.802-8.458 2.275a9.236 9.236 0 0 1-1.262 2.84c-2.058 3.088-5.43 4.464-7.532 3.07-2.101-1.393-2.127-5.028-.07-8.116a9.8 9.8 0 0 1 1.019-1.263l-10.351-23.36c-1.25.87-2.611 1.065-3.616.409-1.519-.968-1.54-3.574-.065-5.78h0Z" stroke-linejoin="round" stroke-linecap="round" stroke="rgba(0,0,0,0 )" fill="transparent"/></g><g data-name="Path"><path d="M531.42 1276.648h16.034a3.786 3.786 0 0 0 3.48-2.259c.092-.206.14-.43.144-.655a1.66 1.66 0 0 0-1.658-1.642h-17.052c.792 1.35.357 3.227-.948 4.556Z" fill="#d7e8f0" fill-rule="evenodd"/><path d="M531.42 1276.648h16.034a3.786 3.786 0 0 0 3.48-2.259c.092-.206.14-.43.144-.655a1.66 1.66 0 0 0-1.658-1.642h-17.052c.792 1.35.357 3.227-.948 4.556h0Z" stroke-linejoin="round" stroke-linecap="round" stroke="rgba(0,0,0,0 )" fill="transparent"/></g><g data-name="Path"><path d="M521.038 1275.006c.005.906.741 1.64 1.65 1.642h8.732c1.331-1.33 1.74-3.205.935-4.556h-7.701a3.786 3.786 0 0 0-3.48 2.245 1.69 1.69 0 0 0-.136.67Z" fill="#d7e8f0" fill-rule="evenodd"/><path d="M521.038 1275.006c.005.906.741 1.64 1.65 1.642h8.732c1.331-1.33 1.74-3.205.935-4.556h-7.701a3.786 3.786 0 0 0-3.48 2.245 1.69 1.69 0 0 0-.136.67h0Z" stroke-linejoin="round" stroke-linecap="round" stroke="rgba(0,0,0,0 )" fill="transparent"/></g><g data-name="Path"><path d="M525.05 1276.648c.047.087.1.17.157.252 1.148 1.559 3.628 1.706 5.556.3.23-.167.447-.351.648-.552 1.332-1.33 1.74-3.205.936-4.556a1.476 1.476 0 0 0-.157-.252c-1.136-1.567-3.616-1.702-5.543-.308a5.18 5.18 0 0 0-.657.56c-1.323 1.333-1.732 3.192-.94 4.556Z" fill="#fff" fill-rule="evenodd"/><path d="M525.05 1276.648c.047.087.1.17.157.252 1.148 1.559 3.628 1.706 5.556.3.23-.167.447-.351.648-.552 1.332-1.33 1.74-3.205.936-4.556a1.476 1.476 0 0 0-.157-.252c-1.136-1.567-3.616-1.702-5.543-.308a5.18 5.18 0 0 0-.657.56c-1.323 1.333-1.732 3.192-.94 4.556h0Z" stroke-linejoin="round" stroke-linecap="round" stroke="rgba(0,0,0,0 )" fill="transparent"/></g><g data-name="Path"><path d="M517.005 1285.055a1.656 1.656 0 0 0 1.658 1.641h16.834c-.814-1.363-.41-3.222.927-4.555h-15.812a3.786 3.786 0 0 0-3.481 2.258c-.085.208-.128.431-.126.656Z" fill="#d7e8f0" fill-rule="evenodd"/><path d="M517.005 1285.055a1.656 1.656 0 0 0 1.658 1.641h16.834c-.814-1.363-.41-3.222.927-4.555h-15.812a3.786 3.786 0 0 0-3.481 2.258c-.085.208-.128.431-.126.656Z" stroke-linejoin="round" stroke-linecap="round" stroke="rgba(0,0,0,0 )" fill="transparent"/></g><g data-name="Path"><path d="M535.497 1286.71h7.919a3.786 3.786 0 0 0 3.48-2.246 1.636 1.636 0 0 0-1.501-2.31h-8.971c-1.336 1.32-1.74 3.179-.927 4.555Z" fill="#d7e8f0" fill-rule="evenodd"/><path d="M535.497 1286.71h7.919a3.786 3.786 0 0 0 3.48-2.246 1.636 1.636 0 0 0-1.501-2.31h-8.971c-1.336 1.32-1.74 3.179-.927 4.555h0Z" stroke-linejoin="round" stroke-linecap="round" stroke="rgba(0,0,0,0 )" fill="transparent"/></g><g data-name="Path"><path d="M535.497 1286.71c.036.09.084.174.143.251 1.136 1.572 3.62 1.707 5.548.313.238-.171.464-.36.674-.565 1.306-1.328 1.74-3.191.936-4.555a1.302 1.302 0 0 0-.157-.247c-1.144-1.564-3.624-1.707-5.556-.304a5.593 5.593 0 0 0-.644.551c-1.353 1.32-1.758 3.179-.944 4.555Z" fill="#fff" fill-rule="evenodd"/><path d="M535.497 1286.71c.036.09.084.174.143.251 1.136 1.572 3.62 1.707 5.548.313.238-.171.464-.36.674-.565 1.306-1.328 1.74-3.191.936-4.555a1.302 1.302 0 0 0-.157-.247c-1.144-1.564-3.624-1.707-5.556-.304a5.593 5.593 0 0 0-.644.551c-1.353 1.32-1.758 3.179-.944 4.555h0Z" stroke-linejoin="round" stroke-linecap="round" stroke="rgba(0,0,0,0 )" fill="transparent"/></g><g data-name="Path"><path d="M529.888 1296.697h10.077a3.799 3.799 0 0 0 3.481-2.25c.092-.206.14-.429.144-.655a1.66 1.66 0 0 0-1.658-1.654h-11.086c.774 1.342.365 3.204-.958 4.56Z" fill="#d7e8f0" fill-rule="evenodd"/><path d="M529.888 1296.697h10.077a3.799 3.799 0 0 0 3.481-2.25c.092-.206.14-.429.144-.655a1.66 1.66 0 0 0-1.658-1.654h-11.086c.774 1.342.365 3.204-.958 4.56h0Z" stroke-linejoin="round" stroke-linecap="round" stroke="rgba(0,0,0,0 )" fill="transparent"/></g><g data-name="Path"><path d="M513.554 1295.043a1.643 1.643 0 0 0 1.65 1.633h14.684c1.306-1.334 1.74-3.196.94-4.56h-13.667c-1.5 0-2.858.886-3.459 2.258a1.69 1.69 0 0 0-.148.669Z" fill="#d7e8f0" fill-rule="evenodd"/><path d="M513.554 1295.043a1.643 1.643 0 0 0 1.65 1.633h14.684c1.306-1.334 1.74-3.196.94-4.56h-13.667c-1.5 0-2.858.886-3.459 2.258a1.69 1.69 0 0 0-.148.669Z" stroke-linejoin="round" stroke-linecap="round" stroke="rgba(0,0,0,0 )" fill="transparent"/></g><g data-name="Path"><path d="M523.531 1296.697c.043.089.096.172.157.248 1.136 1.572 3.616 1.707 5.543.313a6.44 6.44 0 0 0 .657-.56c1.306-1.334 1.74-3.197.94-4.56a1.945 1.945 0 0 0-.156-.248c-1.15-1.559-3.63-1.698-5.557-.304a6.088 6.088 0 0 0-.648.552c-1.314 1.311-1.75 3.183-.936 4.56Z" fill="#fff" fill-rule="evenodd"/><path d="M523.531 1296.697c.043.089.096.172.157.248 1.136 1.572 3.616 1.707 5.543.313a6.44 6.44 0 0 0 .657-.56c1.306-1.334 1.74-3.197.94-4.56a1.945 1.945 0 0 0-.156-.248c-1.15-1.559-3.63-1.698-5.557-.304a6.088 6.088 0 0 0-.648.552c-1.314 1.311-1.75 3.183-.936 4.56h0Z" stroke-linejoin="round" stroke-linecap="round" stroke="rgba(0,0,0,0 )" fill="transparent"/></g><g data-name="Path"><path d="M464.731 1343.745h10.082a3.799 3.799 0 0 0 3.48-2.25c.095-.205.146-.429.148-.655a1.66 1.66 0 0 0-1.657-1.655h-11.091c.77 1.373.36 3.227-.962 4.56Z" fill="#d7e8f0" fill-rule="evenodd"/><path d="M464.731 1343.745h10.082a3.799 3.799 0 0 0 3.48-2.25c.095-.205.146-.429.148-.655a1.66 1.66 0 0 0-1.657-1.655h-11.091c.77 1.373.36 3.227-.962 4.56h0Z" stroke-linejoin="round" stroke-linecap="round" stroke="rgba(0,0,0,0 )" fill="transparent"/></g><g data-name="Path"><path d="M424.723 1342.112a1.636 1.636 0 0 0 1.645 1.633h38.363c1.305-1.333 1.74-3.196.94-4.56h-37.34c-1.501 0-2.86.886-3.46 2.258a1.69 1.69 0 0 0-.148.67Z" fill="#d7e8f0" fill-rule="evenodd"/><path d="M424.723 1342.112a1.636 1.636 0 0 0 1.645 1.633h38.363c1.305-1.333 1.74-3.196.94-4.56h-37.34c-1.501 0-2.86.886-3.46 2.258a1.69 1.69 0 0 0-.148.67h0Z" stroke-linejoin="round" stroke-linecap="round" stroke="rgba(0,0,0,0 )" fill="transparent"/></g><g data-name="Path"><path d="M458.374 1343.745c.043.088.095.171.157.247 1.135 1.573 3.616 1.707 5.543.313.232-.17.452-.358.657-.56 1.305-1.333 1.74-3.196.94-4.56a1.945 1.945 0 0 0-.157-.247c-1.148-1.56-3.628-1.698-5.556-.304a6.088 6.088 0 0 0-.648.551c-1.332 1.333-1.74 3.205-.936 4.56Z" fill="#fff" fill-rule="evenodd"/><path d="M458.374 1343.745c.043.088.095.171.157.247 1.135 1.573 3.616 1.707 5.543.313.232-.17.452-.358.657-.56 1.305-1.333 1.74-3.196.94-4.56a1.945 1.945 0 0 0-.157-.247c-1.148-1.56-3.628-1.698-5.556-.304a6.088 6.088 0 0 0-.648.551c-1.332 1.333-1.74 3.205-.936 4.56h0Z" stroke-linejoin="round" stroke-linecap="round" stroke="rgba(0,0,0,0 )" fill="transparent"/></g></g></g></svg>