<svg xmlns="http://www.w3.org/2000/svg" width="43.397" height="43.385" viewBox="659.41 1300.307 43.397 43.385"><g data-name="project-management (1)"><g data-name="Group 52"><g data-name="Group 51"><path d="m702.19 1311.697-.002-.001-2.8-.4a.72.72 0 0 1-.331-1.289l2.264-1.698a.72.72 0 0 0 .144-1.008l-2.593-3.456a.72.72 0 0 0-1.008-.144l-2.263 1.698a.72.72 0 0 1-1.148-.678l.4-2.801a.72.72 0 0 0-.61-.815h-.001l-4.274-.611a.72.72 0 0 0-.816.61l-.4 2.802a.72.72 0 0 1-1.289.33l-1.697-2.264a.72.72 0 0 0-1.008-.144l-2.164 1.624a13.933 13.933 0 0 0-2.945 0 13.682 13.682 0 0 0-12.064 12.268c-.02.204-.027.406-.037.609h-.216a.72.72 0 0 0-.704.576l-.498 2.366-1.993-1.375a.72.72 0 0 0-.918.084l-2.16 2.16a.72.72 0 0 0-.084.918l1.368 1.99-2.367.497a.72.72 0 0 0-.566.705v2.88c0 .34.239.635.572.705l2.367.498-1.368 1.99a.72.72 0 0 0 .083.917l2.16 2.16a.72.72 0 0 0 .919.084l1.99-1.372.497 2.367a.72.72 0 0 0 .704.576h2.88a.72.72 0 0 0 .706-.572l.497-2.367 1.99 1.368a.72.72 0 0 0 .917-.083l1.119-1.122v2.052a2.871 2.871 0 0 0 1.44 2.48v4.001a2.88 2.88 0 0 0 2.88 2.88h2.88a2.88 2.88 0 0 0 2.88-2.88v-4a2.871 2.871 0 0 0 1.441-2.48v-2.851c.02-1.2.647-2.306 1.666-2.94a13.819 13.819 0 0 0 1.695-1.296l-.96-1.072c-.476.425-.983.813-1.518 1.16a4.96 4.96 0 0 0-2.323 4.148v2.85a1.44 1.44 0 0 1-1.44 1.44h-5.761a1.44 1.44 0 0 1-1.44-1.44v-2.91a4.845 4.845 0 0 0-2.284-4.064c-5.708-3.586-7.427-11.12-3.841-16.827a12.205 12.205 0 0 1 10.29-5.712.783.783 0 0 0-.028.079.72.72 0 0 0 .138.533l1.697 2.263c.18.232.196.55.043.8a.716.716 0 0 1-.72.346l-2.8-.4a.72.72 0 0 0-.816.61v.001l-.611 4.277a.72.72 0 0 0 .61.815h.001l2.801.4a.72.72 0 0 1 .33 1.29l-2.263 1.697a.72.72 0 0 0-.144 1.008l2.593 3.456a.72.72 0 0 0 1.008.144l2.264-1.697a.72.72 0 0 1 1.144.677l-.4 2.802a.72.72 0 0 0 .61.815h.001l4.277.611a.72.72 0 0 0 .815-.611l.4-2.801a.72.72 0 0 1 1.29-.33l1.697 2.262a.72.72 0 0 0 1.008.144l3.457-2.592a.72.72 0 0 0 .144-1.008l-1.697-2.263a.708.708 0 0 1-.044-.8.7.7 0 0 1 .72-.345l2.802.4a.72.72 0 0 0 .815-.611l.61-4.278a.72.72 0 0 0-.61-.815Zm-23.867 25.515h5.76v1.44h-5.76v-1.44Zm0 2.88h5.76v.72a1.44 1.44 0 0 1-1.44 1.44h-2.88a1.44 1.44 0 0 1-1.44-1.44v-.72Zm-5.733-12.418c.393.321.804.62 1.23.896.681.43 1.193 1.08 1.452 1.843l-1.545 1.542-1.495-1.031a1.44 1.44 0 0 0-2.227.889l-.377 1.798h-1.712l-.377-1.795a1.44 1.44 0 0 0-2.227-.89l-1.496 1.029-1.312-1.31 1.03-1.494a1.44 1.44 0 0 0-.888-2.227l-1.795-.378v-1.711l1.795-.378a1.44 1.44 0 0 0 .89-2.223l-1.032-1.5 1.312-1.309 1.497 1.031a1.44 1.44 0 0 0 2.226-.89l.126-.599c.115.83.306 1.647.57 2.442a4.32 4.32 0 1 0 4.355 6.265Zm-1.118-1.015a2.876 2.876 0 1 1-2.7-3.85h.027a13.638 13.638 0 0 0 2.673 3.85Zm29.39-10.788-2.088-.298a2.16 2.16 0 0 0-2.034 3.435l1.265 1.687-2.304 1.728-1.266-1.686a2.16 2.16 0 0 0-3.867.99l-.292 2.09-2.85-.407.298-2.088a2.16 2.16 0 0 0-3.435-2.034l-1.687 1.265-1.728-2.304 1.686-1.266a2.16 2.16 0 0 0-.99-3.867l-2.088-.298.407-2.851 2.088.298a2.16 2.16 0 0 0 2.035-3.435l-1.27-1.689 2.304-1.728 1.266 1.687a2.16 2.16 0 0 0 3.867-.99l.298-2.088 2.851.407-.298 2.088a2.16 2.16 0 0 0 3.435 2.034l1.687-1.266 1.728 2.305-1.687 1.266a2.16 2.16 0 0 0 .99 3.867l2.089.298-.41 2.85Z" fill="#008379" fill-rule="evenodd" data-name="Path 30"/></g></g><g data-name="Group 54"><g data-name="Group 53"><path d="M690.374 1307.158a5.76 5.76 0 1 0 5.761 5.76 5.767 5.767 0 0 0-5.76-5.76Zm0 10.081a4.32 4.32 0 1 1 0-8.641 4.32 4.32 0 0 1 0 8.641Z" fill="#008379" fill-rule="evenodd" data-name="Path 31"/></g></g><g data-name="Group 56"><g data-name="Group 55"><path d="M680.483 1332.17h1.44v2.161h-1.44v-2.16z" fill="#008379" fill-rule="evenodd" data-name="Rectangle 9"/></g></g><g data-name="Group 58"><g data-name="Group 57"><path d="M678.054 1325.099a8.641 8.641 0 0 1-1.46-15.362l-.77-1.218c-4.71 2.967-6.123 9.192-3.155 13.903a10.081 10.081 0 0 0 4.862 4.017 4.597 4.597 0 0 1 2.952 4.292h1.44a6.025 6.025 0 0 0-3.87-5.632Z" fill="#008379" fill-rule="evenodd" data-name="Path 32"/></g></g><g data-name="Group 60"><g data-name="Group 59"><path d="M694.885 1327.13h5.04v1.44h-5.04v-1.44z" fill="#008379" fill-rule="evenodd" data-name="Rectangle 10"/></g></g><g data-name="Group 62"><g data-name="Group 61"><path d="m693.704 1332.004.922-1.107 4.32 3.6-.921 1.106-4.32-3.6z" fill="#008379" fill-rule="evenodd" data-name="Rectangle 11"/></g></g><g data-name="Group 64"><g data-name="Group 63"><path d="M690.565 1332.891h1.44v5.04h-1.44v-5.04z" fill="#008379" fill-rule="evenodd" data-name="Rectangle 12"/></g></g><g data-name="Group 66"><g data-name="Group 65"><path d="m660.146 1312.75 5.76-1.44.35 1.396-5.761 1.44-.35-1.397z" fill="#008379" fill-rule="evenodd" data-name="Rectangle 13"/></g></g><g data-name="Group 68"><g data-name="Group 67"><path d="m661.342 1305.394.836-1.172 5.04 3.6-.836 1.172-5.04-3.6z" fill="#008379" fill-rule="evenodd" data-name="Rectangle 14"/></g></g><g data-name="Group 70"><g data-name="Group 69"><path d="m667.512 1300.664 1.395-.357 1.473 5.76-1.396.357-1.472-5.76z" fill="#008379" fill-rule="evenodd" data-name="Rectangle 15"/></g></g></g></svg>