<svg xmlns="http://www.w3.org/2000/svg" width="34.471" height="39.84" viewBox="34.5 0 34.471 39.84"><path d="M68.193 17.025a.778.778 0 1 0 0-1.556h-2.947V13.35h2.947a.778.778 0 1 0 0-1.556h-2.947V10.52a.778.778 0 0 0-.228-.55l-2.25-2.252a.778.778 0 0 0-.55-.228h-1.274V4.545a.778.778 0 1 0-1.556 0v2.946h-2.12V4.545a.778.778 0 1 0-1.556 0v2.946h-2.116V4.702A4.708 4.708 0 0 0 48.893 0a4.723 4.723 0 0 0-4.527 3.426 6.97 6.97 0 0 0-4.272 2.05 6.977 6.977 0 0 0-2.025 4.932c0 .922.182 1.836.531 2.683a7.723 7.723 0 0 0-2.74 2.447 7.691 7.691 0 0 0-1.36 4.381 7.698 7.698 0 0 0 4.1 6.83 7.037 7.037 0 0 0-.53 2.681c0 1.859.718 3.61 2.024 4.932a6.97 6.97 0 0 0 4.272 2.05 4.723 4.723 0 0 0 4.527 3.428 4.708 4.708 0 0 0 4.703-4.702v-2.79h2.117v2.947a.778.778 0 1 0 1.556 0v-2.947h2.119v2.947a.778.778 0 1 0 1.556 0v-2.947h1.273a.778.778 0 0 0 .55-.228l2.25-2.25a.778.778 0 0 0 .229-.55v-1.276h2.947a.778.778 0 1 0 0-1.556h-2.947v-2.116h2.947a.778.778 0 1 0 0-1.556h-2.947v-2.119h2.947a.778.778 0 1 0 0-1.556h-2.947v-2.116h2.947Zm-19.3 21.26a3.16 3.16 0 0 1-2.905-1.94 6.885 6.885 0 0 0 3.709-1.963.778.778 0 0 0-1.113-1.09 5.334 5.334 0 0 1-3.589 1.599c-2.963-.049-5.37-2.494-5.37-5.461 0-.938.241-1.861.697-2.671a.778.778 0 0 0-.388-1.104 6.153 6.153 0 0 1-3.878-5.736c0-2.539 1.522-4.79 3.877-5.734.463-.25.593-.618.39-1.103a5.476 5.476 0 0 1-.697-2.674c0-2.966 2.406-5.412 5.369-5.46.687.027 1.36.188 1.996.479.601.276 1.137.652 1.592 1.12a.776.776 0 0 0 1.1.014.778.778 0 0 0 .015-1.1 6.856 6.856 0 0 0-2.06-1.45 6.93 6.93 0 0 0-1.65-.516 3.16 3.16 0 0 1 2.905-1.939 3.15 3.15 0 0 1 3.147 3.146v9.54h-2.423l-2.064-2.064c.22-.401.337-.853.337-1.323a2.764 2.764 0 0 0-4.713-1.952 2.743 2.743 0 0 0-.809 1.952c0 .737.287 1.43.809 1.952a2.764 2.764 0 0 0 3.274.47l2.294 2.293c.166.149.349.225.55.228h2.745v3.343h-4.877a2.765 2.765 0 0 0-2.648-1.98 2.762 2.762 0 0 0-2.76 2.758 2.763 2.763 0 0 0 2.76 2.761 2.766 2.766 0 0 0 2.648-1.983h4.877v3.343h-2.745a.775.775 0 0 0-.55.228l-2.294 2.295a2.766 2.766 0 0 0-3.274.47 2.742 2.742 0 0 0-.809 1.954c0 .737.288 1.43.809 1.948a2.753 2.753 0 0 0 1.952.807c.707 0 1.413-.268 1.951-.806.521-.52.809-1.212.81-1.949 0-.47-.117-.923-.338-1.325l2.065-2.066h2.422v9.542a3.15 3.15 0 0 1-3.146 3.146Zm-2.56-27.43a1.206 1.206 0 0 1-2.409 0 1.206 1.206 0 0 1 2.409 0Zm-.613 9.064c0 .664-.541 1.205-1.205 1.205s-1.203-.54-1.203-1.205a1.204 1.204 0 0 1 2.408 0Zm.613 9.067c0 .32-.125.622-.352.849a1.206 1.206 0 0 1-2.057-.849 1.206 1.206 0 0 1 2.056-.852c.228.228.354.53.353.852Zm17.356.011-1.794 1.794h-8.3v-2.305h7.01c.43 0 .778-.349.778-.779v-4.296a.778.778 0 1 0-1.556 0v3.518h-6.231V12.911h6.23v3.51a.778.778 0 1 0 1.557 0v-4.288a.778.778 0 0 0-.778-.778h-7.01V9.047h8.3l1.794 1.796v18.154Z" fill="#008379" fill-rule="evenodd" data-name="Path 34"/></svg>