<svg xmlns="http://www.w3.org/2000/svg" width="38.546" height="33.233" viewBox="661.41 1173.196 38.546 33.233"><g data-name="graphic-tool"><g data-name="Group 72"><g data-name="Group 71"><path d="m687.415 1178.608-3.671-5.099a.753.753 0 0 0-1.222 0l-3.671 5.099a.752.752 0 0 0-.142.44V1203.599a2.82 2.82 0 0 0 2.817 2.818h3.214a2.82 2.82 0 0 0 2.817-2.818v-24.551a.753.753 0 0 0-.142-.44Zm-4.282-3.37 2.288 3.177h-4.576l2.288-3.177Zm-2.918 4.683h3.574v19.5h-1.312v-14.38a.753.753 0 1 0-1.506 0v14.38h-.756v-19.5Zm5.836 23.678c0 .723-.588 1.312-1.311 1.312h-3.214a1.313 1.313 0 0 1-1.311-1.312v-2.672h5.836v2.672Zm0-4.178h-.756v-19.5h.756v19.5Z" fill="#008379" fill-rule="evenodd" data-name="Path 36"/></g></g><g data-name="Group 74"><g data-name="Group 73"><path d="M682.462 1181.87a.789.789 0 0 0-.112-.27.717.717 0 0 0-.208-.209.738.738 0 0 0-.271-.112.775.775 0 0 0-.435.044.759.759 0 0 0-.338.277.766.766 0 0 0-.127.418c0 .198.08.392.22.532a.758.758 0 0 0 .82.163.742.742 0 0 0 .408-.408.753.753 0 0 0 .043-.435Z" fill="#008379" fill-rule="evenodd" data-name="Path 37"/></g></g><g data-name="Group 76"><g data-name="Group 75"><path d="M668.733 1187.296v-.114a1.077 1.077 0 0 1 1.108-1.077l2.293-.097a2.446 2.446 0 0 0 2.426-2.443 2.446 2.446 0 0 0-2.443-2.443h-5.124a.939.939 0 0 1-.937-.938.921.921 0 0 1 .91-.923h4.51a3.036 3.036 0 0 0 3.032-3.032 3.036 3.036 0 0 0-3.032-3.033h-5.1a.753.753 0 0 0 0 1.506h5.1c.842 0 1.527.685 1.527 1.527 0 .842-.685 1.527-1.527 1.527h-4.478a2.393 2.393 0 0 0-1.721.694 2.416 2.416 0 0 0-.727 1.734 2.446 2.446 0 0 0 2.443 2.443h5.124a.938.938 0 1 1-.032 1.876l-2.293.097a2.585 2.585 0 0 0-2.565 2.583v.114c-3.269.375-5.817 3.16-5.817 6.527v6.034a6.579 6.579 0 0 0 6.572 6.571 6.579 6.579 0 0 0 6.571-6.57v-6.035c0-3.369-2.55-6.154-5.82-6.528Zm-5.817 6.528a5.073 5.073 0 0 1 4.313-5.01v6.141h-4.313v-1.13Zm10.131 6.034a5.071 5.071 0 0 1-5.065 5.066 5.071 5.071 0 0 1-5.066-5.066v-3.397h10.131v3.397Zm0-4.903h-4.312v-6.14a5.073 5.073 0 0 1 4.312 5.01v1.13Z" fill="#008379" fill-rule="evenodd" data-name="Path 38"/></g></g><g data-name="Group 78"><g data-name="Group 77"><path d="M664.215 1173.802a.796.796 0 0 0-.112-.27.759.759 0 0 0-.626-.335.759.759 0 0 0-.738.605.754.754 0 0 0 1.364.565.743.743 0 0 0 .128-.417.755.755 0 0 0-.016-.148Z" fill="#008379" fill-rule="evenodd" data-name="Path 39"/></g></g><g data-name="Group 80"><g data-name="Group 79"><path d="M699.95 1180.708c-.082-1.776-.977-2.655-1.696-3.362-.778-.764-1.248-1.226-.805-2.738.201-.685-.075-1.044-.258-1.197-.227-.191-.633-.352-1.276-.034-.833.413-2.098 1.625-3.075 2.949-.897 1.215-1.95 3.035-1.867 4.803.062 1.322.623 2.535 1.538 3.387a3.652 3.652 0 0 0-.72 2.182c0 .518.105 1.011.297 1.46v14.712a3.251 3.251 0 0 0 3.248 3.248 3.251 3.251 0 0 0 3.247-3.248v-14.226a3.676 3.676 0 0 0 .551-1.946 3.65 3.65 0 0 0-.704-2.16c1.021-.947 1.59-2.345 1.52-3.83Zm-2.873 22.162c0 .96-.78 1.742-1.741 1.742-.96 0-1.742-.782-1.742-1.742v-13.006c.39.229.83.39 1.305.463a.752.752 0 0 0 .115.008h.897a.751.751 0 0 0 .115-.008c.05-.008.1-.017.148-.027l.094-.02.04-.009c.27-.063.528-.155.77-.272v12.871Zm-.597-14.261-.01.005a2.218 2.218 0 0 1-.196.092l-.04.016-.06.022-.032.01a2.229 2.229 0 0 1-.069.022l-.026.008a2.04 2.04 0 0 1-.077.02l-.021.005a2.092 2.092 0 0 1-.1.02h-.775a2.087 2.087 0 0 1-.108-.022l-.043-.011a1.944 1.944 0 0 1-.064-.018l-.053-.016-.04-.013a2.184 2.184 0 0 1-1.47-2.051 2.164 2.164 0 0 1 1.215-1.945l.015-.008c.03-.015.061-.029.092-.042l.016-.006a2.143 2.143 0 0 1 .626-.155c.013-.002.026-.002.04-.003a2.222 2.222 0 0 1 .328 0l.04.003a2.184 2.184 0 0 1 .62.153l.022.01a2.16 2.16 0 0 1 .487.288c.506.397.832 1.014.832 1.705 0 .812-.463 1.542-1.149 1.911Zm.828-5.086c-.017-.01-.034-.017-.05-.026a3.592 3.592 0 0 0-.12-.065l-.061-.031a3.655 3.655 0 0 0-.416-.173l-.023-.008a3.63 3.63 0 0 0-.217-.066h-.001a3.64 3.64 0 0 0-.456-.093l-.042-.005a3.58 3.58 0 0 0-.181-.018l-.055-.005a3.73 3.73 0 0 0-.445 0l-.052.004c-.06.005-.12.01-.18.018l-.041.005a3.64 3.64 0 0 0-.887.237l-.016.006a3.673 3.673 0 0 0-.204.092l-.043.022c-.046.023-.091.046-.136.071l-.04.021c-.692-.59-1.119-1.474-1.165-2.45-.05-1.08.582-2.557 1.736-4.053a12.012 12.012 0 0 1 1.576-1.701c-.124 1.608.713 2.43 1.41 3.115.64.63 1.192 1.172 1.248 2.359.05 1.085-.378 2.097-1.14 2.744Z" fill="#008379" fill-rule="evenodd" data-name="Path 40"/></g></g></g></svg>