<svg xmlns="http://www.w3.org/2000/svg" width="279.286" height="327.531" viewBox="918.5 2273.652 279.286 327.531"><g data-name="Success, Social media | achievement, woman, trophy, award, reward, win, competition"><g data-name="Group"><path d="M1025.784 2452.075a6.587 5.353-60 1 1 .086.05z" fill="#ccdde2" fill-rule="evenodd" data-name="Oval"/><path d="M1040.512 2447.1c1.819-3.165 5.379-4.532 7.95-3.054 2.573 1.479 3.184 5.243 1.365 8.408-1.82 3.165-5.38 4.532-7.951 3.054-2.573-1.478-3.183-5.243-1.364-8.408Z" fill="#fff" fill-rule="evenodd" data-name="Oval"/><g data-name="Group"><path d="M991.67 2494.383c4.156-9.462 6.78-20.38 7.027-33.041 1.201-61.927 71.221-109.715 148.895-57.189 77.674 52.527 9.026 197.029 9.026 197.029M937.364 2601.182c-3.432-2.697-29.595-28.277-13.88-42.918 6.714-6.25 21.166-13.546 35.643-24.671" stroke-linejoin="round" stroke-linecap="round" stroke-width="4.47" stroke="#ccdde2" fill="transparent" data-name="Path"/><path d="M1124.58 2445.965a7.046 7.046 0 0 0 2.115 3.822" stroke-linejoin="round" stroke-linecap="round" stroke-width="4.47" stroke="#ccdde2" fill="transparent" data-name="Path"/></g><path d="M1063.6 2474.083c-.538.142-.993.244-1.353.327-.27.048-.492.095-.644.117h-.033l-.211.036s-.022-.025-.037-.025c-3.639-2.672-2.522-7.643-2.522-7.643 10.882 1.714 13.138-7.1 13.138-7.1-.142-4.225-.946-6.212-2.802-7.355-1.94-1.216-5.033-1.529-9.76-2.548l-.783-.174c-7.031-1.598-10.31-8.815-11.606-12.818a21.374 21.374 0 0 1-.728-2.711c-7.963 2.991-12.948 7.227-15.82 10.404-1.135-22.523 21.472-19.288 21.472-19.288 3.804.055 7.585.608 11.246 1.645a75.3 75.3 0 0 1 2.38 1.092c.364.185.75.386 1.091.593.343.208.728.411 1.063.619.244.142.491.295.728.455a31.12 31.12 0 0 1 11.464 12.985c.036.072.067.146.094.222.115.246.216.499.303.757 5.116 22.389-10.67 28.798-16.68 30.41Z" fill="#008379" fill-rule="evenodd" data-name="Path"/><path d="M1063.6 2474.083c-1.586-2.639-.851-5.823-.851-5.823 3.587.567 6.237-.013 8.469-1.206 3.65-1.934 4.665-5.89 4.665-5.89-.233-6.482-1.983-7.698-6.747-8.735-1.765-.397-3.934-.76-6.598-1.354a11.879 11.879 0 0 1-3.163-1.205c-7.238-3.966-9.189-14.335-9.189-14.335-1.12.419-2.183.874-3.199 1.343a21.374 21.374 0 0 1-.728-2.711c-7.963 2.991-12.948 7.227-15.82 10.405-1.135-22.524 21.472-19.289 21.472-19.289 3.804.055 7.585.608 11.246 1.645a75.3 75.3 0 0 1 2.38 1.092c.364.186.75.386 1.091.593.343.208.728.411 1.063.619.244.142.491.295.728.455a31.12 31.12 0 0 1 11.464 12.985c.036.072.067.146.094.222.115.246.216.5.303.757 5.116 22.41-10.67 28.82-16.68 30.432Z" fill="#008379" fill-rule="evenodd" data-name="Path"/><path d="M1101.751 2573.767c1.682 10.976 3.738 21.774 5.885 27.415h-96.518c-11.62-32.994-6.11-69.038-6.11-69.038l-17.141.539c10.31-18.087 6.641-33.38 4.902-38.482 13.465-2.29 26.93-4.087 40.538-4.24-.364 7.788 8.137 16.74 20.398 14.386 4.972-.946 11.031-2.911 11.162-11.62l3.199.56c4.425.728 8.429 1.507 12.224 2.384 9.827 2.264 18.27 5.095 28.791 8.676-14.557 10.776-7.322 35.665-7.322 35.665l.364.83-4.648-.83s1.722 17.072 4.276 33.755Z" fill="#353642" fill-rule="evenodd" data-name="Path"/><path d="M984.187 2316.375a17.425 17.425 0 1 1 0 .1z" fill="#ffb34d" fill-rule="evenodd" data-name="Oval"/><path d="M1007.34 2310.66a6.074 6.074 0 0 0-.978-1.562 4.389 4.389 0 0 0-5.747-.859 4.498 4.498 0 0 0-2.045 3.469 4.502 4.502 0 0 0-5.095 6.984c1.248 1.626 3.37 2.696 5.291 3.319 1.008.32 2.046.541 3.097.658.532.059 3.57.466 3.854 0 1.856-2.958 3.203-8.392 1.624-12.01Z" fill="#fff" fill-rule="evenodd" data-name="Path"/><path d="M972.294 2310.812a60.476 60.476 0 0 0-3.454-.269 51.015 51.015 0 0 0-3.712.306 42.216 42.216 0 0 0-11.373 2.911 31.71 31.71 0 0 0-4.694 2.406 27.735 27.735 0 0 0-3.094 2.158 14.459 14.459 0 1 1 26.327-7.508v-.004Z" fill="#ffb34d" fill-rule="evenodd" data-name="Path"/><path d="M965.128 2310.849a42.216 42.216 0 0 0-11.373 2.911 29.128 29.128 0 0 1-.444-1.273 13.542 13.542 0 0 1-.63-2.548c-.221-1.66-.188-3.64.583-5.15a3.73 3.73 0 0 1 7.053 1.296 3.807 3.807 0 0 1 3.337.28 3.64 3.64 0 0 1 1.474 4.484Z" fill="#fff" fill-rule="evenodd" data-name="Path"/><path d="M949.06 2316.162a27.735 27.735 0 0 0-3.093 2.158c-.657.51-1.289 1.051-1.892 1.623a13.196 13.196 0 0 0-2.027 2.468 17.785 17.785 0 0 0-1.39 2.638 27.145 27.145 0 0 0-1.402 4.331 57.323 57.323 0 0 0-1.248 9.703 12.738 12.738 0 0 1 5.583-24.133h.651c1.67.08 3.309.492 4.819 1.212Z" fill="#008379" fill-rule="evenodd" data-name="Path"/><path d="M942.048 2322.41a17.785 17.785 0 0 0-1.39 2.64 27.146 27.146 0 0 0-1.402 4.33c-.757-1.052-1.4-2.31-1.503-3.57a3.304 3.304 0 0 1 3.276-3.563c.346-.004.691.051 1.019.164Z" fill="#fff" fill-rule="evenodd" data-name="Path"/><g data-name="Group"><path d="M1012.163 2304.588a9.593 9.593 0 1 1 0 .1z" fill="#008379" fill-rule="evenodd" data-name="Oval"/><path d="M1025.92 2306.398a3.44 3.44 0 0 0 .589-.822 2.416 2.416 0 0 0-.764-3.108 2.486 2.486 0 0 0-2.184-.317 2.478 2.478 0 0 0-4.626-1.143c-.567.98-.67 2.282-.582 3.392a8.61 8.61 0 0 0 .313 1.714c.08.284.506 1.914.797 1.965 1.892.32 4.942-.127 6.456-1.681Z" fill="#fff" fill-rule="evenodd" data-name="Path"/></g><g data-name="Group"><path d="M1010.63 2405.145a6.85 6.85 0 1 1 0 .1z" fill="#008379" fill-rule="evenodd" data-name="Oval"/><path d="M1020.45 2406.479a2.38 2.38 0 0 0 .418-.59c.403-.77.17-1.72-.542-2.216a1.772 1.772 0 0 0-1.569-.226 1.772 1.772 0 0 0-3.3-.818 4.334 4.334 0 0 0-.42 2.423c.034.415.11.824.226 1.223.059.2.364 1.369.568 1.401 1.361.219 3.537-.105 4.618-1.197Z" fill="#fff" fill-rule="evenodd" data-name="Path"/></g><path d="M999.965 2327.845a12.337 12.337 0 0 1 16.427-5.879 12.337 12.337 0 0 1 5.879 16.428 12.337 12.337 0 0 1-16.427 5.878 12.337 12.337 0 0 1-5.879-16.427z" fill="#008379" fill-rule="evenodd" data-name="Rectangle"/><path d="m1021.952 2335.265-3.3 6.98a6.1 6.1 0 0 1-8.102 2.912l-8.37-3.96a6.103 6.103 0 0 1-2.911-8.101l.222-.473c2.274-1.82 6.208-4.265 7.642-.928 2.067 4.804 4.753 3.25 8.189 1.24 2.882-1.699 6.325-2.263 6.63 2.33Z" fill="#fff" fill-rule="evenodd" data-name="Path"/><path d="M1006.402 2325.164a2.577 2.577 0 1 1 0 .1z" fill="#fff" fill-rule="evenodd" data-name="Oval"/><path d="M1031.051 2360.883a16.244 16.244 0 0 1 21.63-7.74 16.244 16.244 0 0 1 7.74 21.629 16.244 16.244 0 0 1-21.63 7.74 16.244 16.244 0 0 1-7.74-21.63z" fill="#ffb34d" fill-rule="evenodd" data-name="Rectangle"/><path d="m1059.998 2370.654-4.367 9.189a8.032 8.032 0 0 1-10.667 3.818l-11.006-5.205a8.032 8.032 0 0 1-3.817-10.667l.295-.622c2.995-2.387 8.17-5.615 10.059-1.223 2.725 6.325 6.26 4.28 10.783 1.634 3.781-2.223 8.32-2.973 8.72 3.076Z" fill="#fff" fill-rule="evenodd" data-name="Path"/><path d="M1039.523 2357.387a3.392 3.392 0 1 1 0 .1z" fill="#fff" fill-rule="evenodd" data-name="Oval"/><path d="M1058.72 2318.364c.506.93.874 1.93 1.092 2.966a11.25 11.25 0 0 1-3.446 10.554c-1.14 1.008-2.592 1.798-3.749 2.853a5.928 5.928 0 0 0-1.787 2.74 2.33 2.33 0 0 1-.426 1.001c-.676.728-1.335-.414-1.921-.622a4.032 4.032 0 0 0-2.864.142 11.19 11.19 0 0 1-12.301-18.135c1.783-1.82 4.12-2.973 6.372-4.167 1.987-1.055 3.964-2.183 6.118-2.805 5.073-1.507 10.463 1.008 12.912 5.473Z" fill="#ffb34d" fill-rule="evenodd" data-name="Path"/><g data-name="Group"><path d="M1035.942 2328.996a2.427 2.427 0 1 1 0 .1zM1042.482 2325.499a2.427 2.427 0 1 1 0 .1zM1048.618 2322.216a2.427 2.427 0 1 1 0 .1z" fill="#fff" fill-rule="evenodd" data-name="Oval"/></g><path d="M1134.094 2481.834v.059l-.899 20.664-.502 11.322c0-.419.022-.852.047-1.27-6.212-2.079-14.193-5.034-20.35-7.123-12.12-4.134-21.25-7.311-32.107-9.808-.655-3.162-1.274-9.946 1.773-19.848 4.367-14.128 5.804-28.463 3.584-31.233a.28.28 0 0 0-.08-.08c-1.58-5.695-5.757-2.009-5.757-2.009s.025.058.036.091a42.001 42.001 0 0 0-2.86-4.156c.034-.206.089-.409.163-.604 1.343-4.04 8.498-5.011 8.498-5.011 10.474.771 15.984 5.44 18.765 11.573 2.449 7.74 1.004 16.133.687 24.074-.127 3.442-.618 8.734 2.01 11.522 2.427 4.589 8.533 2.605 10.19 2.103.538-.153 1.935-.247 3.77-.306 3.737-.09 9.236-.021 12.588.037.164.003.306.003.444.003Z" fill="#008379" fill-rule="evenodd" data-name="Path"/><path d="M989.14 2296.102a8.112 8.112 0 0 1-2.325.175 8.28 8.28 0 0 1-6.773-4.59c-.484-1.014-.728-2.205-1.255-3.238a4.367 4.367 0 0 0-1.576-1.82 1.7 1.7 0 0 1-.623-.506c-.364-.626.568-.858.834-1.23a2.995 2.995 0 0 0 .484-2.056 8.247 8.247 0 0 1 15.361-5.015c.925 1.634 1.263 3.523 1.649 5.36.342 1.62.728 3.247.728 4.903.033 3.89-2.846 7.195-6.504 8.017Z" fill="#ffb34d" fill-rule="evenodd" data-name="Path"/><g data-name="Group"><path d="M983.903 2279.407a1.787 1.787 0 1 1 0 .1zM985.046 2284.75a1.787 1.787 0 1 1 0 .1zM986.12 2289.765a1.787 1.787 0 1 1 0 .1z" fill="#fff" fill-rule="evenodd" data-name="Oval"/></g><g data-name="Group"><path d="M1082.103 2347.39a13.582 13.582 0 1 1 0 .1z" fill="#008379" fill-rule="evenodd" data-name="Oval"/><path d="M1096.194 2353.833c.458.146.935.22 1.416.222a3.428 3.428 0 0 0 3.44-2.952 3.516 3.516 0 0 0-1.002-2.973 3.512 3.512 0 0 0-1.51-6.576c-1.598-.091-3.308.611-4.658 1.426-.703.43-1.361.929-1.966 1.489-.309.284-2.1 1.867-1.976 2.263.8 2.61 3.316 6.187 6.256 7.1Z" fill="#fff" fill-rule="evenodd" data-name="Path"/></g><path d="M1101.992 2402.923a15.38 15.38 0 0 1-3.043 3.276 15.93 15.93 0 0 1-15.543 2.387c-2.006-.797-3.927-2.133-6.002-2.911a8.403 8.403 0 0 0-4.603-.51 3.3 3.3 0 0 1-1.536.102c-1.347-.393-.328-1.95-.44-2.824a5.732 5.732 0 0 0-2.006-3.53 15.846 15.846 0 0 1 15.085-27.146c3.443 1.092 6.387 3.308 9.335 5.394 2.599 1.838 5.273 3.639 7.45 5.94 5.128 5.462 5.386 13.883 1.303 19.822Z" fill="#ffb34d" fill-rule="evenodd" data-name="Path"/><g data-name="Group"><path d="M1072.007 2383.957a3.436 3.436 0 1 1 0 .1zM1080.6 2389.991a3.436 3.436 0 1 1 0 .1zM1088.665 2395.65a3.436 3.436 0 1 1 0 .1z" fill="#fff" fill-rule="evenodd" data-name="Oval"/></g><g data-name="Group"><path d="M997.664 2300.975a11.544 11.544 0 0 1-.273 1.762l-1.522 6.598c-.465 2.02-.99 4.149-2.434 5.634-2.693 2.755-7.202 2.125-10.962 1.288l-9.23-2.05c-2.117-.472-4.272-.953-6.186-2.008-1.914-1.055-3.545-2.77-4.003-4.898-.324-1.569.025-3.188.364-4.753l1.437-6.34c.462-2.074.986-4.269 2.482-5.776 2.668-2.69 7.086-2.078 10.787-1.277l9.437 2.049c5.699 1.248 10.558 3.89 10.103 9.771Z" fill="#008379" fill-rule="evenodd" data-name="Path"/><path d="M984.937 2301.154a3.075 3.075 0 0 1-1.194 5.19l-2.813.862-2.81.859a3.075 3.075 0 0 1-3.897-3.64l.659-2.867.658-2.864a3.079 3.079 0 0 1 5.095-1.562l2.151 2.006 2.15 2.016Z" fill="#fff" fill-rule="evenodd" data-name="Path"/></g><g data-name="Group"><path d="M1101.377 2313.677a11.613 11.613 0 0 1-.273 1.761l-1.522 6.609c-.465 2.02-.99 4.149-2.434 5.63-2.693 2.759-7.202 2.125-10.962 1.292l-9.23-2.053c-2.117-.47-4.272-.953-6.186-2.005-1.914-1.052-3.545-2.773-4.003-4.898-.324-1.569.025-3.188.364-4.753l1.44-6.314c.46-2.079.983-4.27 2.48-5.78 2.667-2.686 7.085-2.078 10.786-1.273l9.422 2.034c5.714 1.234 10.573 3.88 10.118 9.75Z" fill="#008379" fill-rule="evenodd" data-name="Path"/><path d="M1088.65 2313.862a3.079 3.079 0 0 1-1.194 5.194l-2.813.858-2.81.863a3.075 3.075 0 0 1-3.897-3.64l.659-2.864.658-2.864a3.079 3.079 0 0 1 5.095-1.56l2.151 2.004 2.15 2.01Z" fill="#fff" fill-rule="evenodd" data-name="Path"/></g><g data-name="Group"><path d="M1057.825 2402.214c-.023.276-.067.55-.131.819l-.706 3.082c-.218.939-.462 1.929-1.135 2.62-1.252 1.285-3.352.99-5.096.6l-4.298-.953a10.649 10.649 0 0 1-2.875-.935 3.581 3.581 0 0 1-1.856-2.282 5.32 5.32 0 0 1 .171-2.213l.655-2.947c.215-.965.459-1.987 1.158-2.69 1.24-1.252 3.297-.968 5.018-.593l4.397.953c2.645.568 4.91 1.798 4.698 4.539Z" fill="#008379" fill-rule="evenodd" data-name="Path"/><path d="M1051.897 2402.297a1.43 1.43 0 0 1-.557 2.417l-1.307.4-1.31.4a1.43 1.43 0 0 1-1.82-1.688l.32-1.35.306-1.336a1.43 1.43 0 0 1 2.373-.728l1.001.932.994.953Z" fill="#fff" fill-rule="evenodd" data-name="Path"/></g><g data-name="Group"><path d="M1012.52 2274.42c.298.155.585.331.858.527l3.057 2.235c.94.68 1.918 1.419 2.362 2.489.826 1.99-.491 4.17-1.747 5.917l-3.082 4.295a12.643 12.643 0 0 1-2.388 2.737c-.96.727-2.205 1.215-3.395.971-.877-.174-1.634-.728-2.362-1.233l-2.948-2.115c-.964-.691-1.976-1.456-2.424-2.547-.797-1.966.488-4.102 1.714-5.823l3.127-4.404c1.874-2.657 4.301-4.574 7.227-3.05Z" fill="#008379" fill-rule="evenodd" data-name="Path"/><path d="M1009.812 2281.003a1.718 1.718 0 0 1 2.405 1.74l-.174 1.637-.175 1.638a1.718 1.718 0 0 1-2.722 1.204l-1.329-.968-1.328-.964a1.718 1.718 0 0 1 .317-2.962l1.503-.666 1.503-.66Z" fill="#fff" fill-rule="evenodd" data-name="Path"/></g><path d="M1156.603 2549.14c-.002.063-.009.127-.022.19a.07.07 0 0 0 0 .046 19.288 19.288 0 0 1-4.087 9.27c-.025.022-.036.058-.058.08-3.326 4.145-8.148 7.136-13.029 9.014-4.985 1.94-10.04 2.723-13.64 2.453h-.08c-4.403-.327-9.236.244-13.465 1.037-.444.084-.888.164-1.332.259-2.792.56-5.547 1.259-8.276 2.03l-.513.143-.342.09c-2.548-16.682-4.273-33.765-4.273-33.765l52.042 9.247c2.343.426 4.745.394 7.075-.094Z" fill="#008379" fill-rule="evenodd" data-name="Path"/><g data-name="Group"><path d="M1049.728 2469.84c-2.737 2.714-6.402 3.238-10.001 4.039-8.178 1.82-15.034-.248-15.395-9.648-.232-6.048.408-12.1 4.07-17.123 4.385-6.016 11.12-10.022 17.832-12.948 0 0 3.079 15.75 17.105 16.435 14.025.684 10.612 19.175-5.823 16.093M1060.27 2474.563c.365 0 .7 0 1.038-.025.082-.006.165-.006.247 0h.033l.644-.059" stroke-linejoin="round" stroke-linecap="round" stroke-width="3" stroke="#000" fill="transparent" data-name="Path"/><path d="M1075.81 2436.092a31.48 31.48 0 0 0-8.126-6.867 11.19 11.19 0 0 0-1.063-.619 26.83 26.83 0 0 0-1.092-.593 25.643 25.643 0 0 0-2.38-1.092 39.072 39.072 0 0 0-15.197-3.032c-28.067 0-20.268 24.286-20.268 24.286M1080.469 2495.438c-.968-5.16.244-13.192 1.587-19.616 1.204-5.72 2.522-10.157 2.522-10.157 1.987-11.675 1.903-17.934.982-21.155-1.58-5.689-5.757-2.002-5.757-2.002" stroke-linejoin="round" stroke-linecap="round" stroke-width="3" stroke="#000" fill="transparent" data-name="Path"/><path d="M1085.56 2444.51c-1.58-5.689-5.757-2.002-5.757-2.002a25.84 25.84 0 0 0-2.66-4.67 30.094 30.094 0 0 0-1.333-1.717c1.249-3.315 4.579-5.291 8.007-5.557 9-.692 17.873 5.266 20.584 13.83 2.45 7.74 1.004 16.132.688 24.073-.128 3.443-.619 8.735 2.009 11.522.138.142.269.27.418.397 2.184 1.882 5.663 1.987 9.786 1.707 1.201-.084 2.464-.186 3.77-.306 4.004-.364 8.371-.677 12.589.037l.418.069c-.127 6.878-.55 13.778-.898 20.656-.186 3.349-.364 6.7-.455 10.052-6.213-2.078-14.194-5.033-20.351-7.122l-3.283-1.132c-10.521-3.584-18.95-6.412-28.79-8.676-3.796-.877-7.8-1.66-12.225-2.384l-4.706-.826a1.354 1.354 0 0 1-1.12-1.343v-16.65a20.438 20.438 0 0 0 15.54-9.433c4.552-7.322 4.985-14.815 2.496-21.391a7.442 7.442 0 0 0-.31-.772 2.13 2.13 0 0 0-.094-.222c0-.022-.022-.058-.033-.084M964.087 2504.347c1.456-11.282 2.126-22.756 3.538-34.104M967.858 2468.467c.396-3.071.866-6.143 1.455-9.178.022-.15.048-.291.08-.43.328-1.797.692-3.584 1.092-5.371 1.216-5.346 5.46-9.258 8.476-13.615l.186-.466a59.026 59.026 0 0 0 10.368-32.12c.073-4.156-.09-12.374-4.855-14.07-2.675-.957-5.513.914-6.994 3.05a12.192 12.192 0 0 0-1.456 2.85" stroke-linejoin="round" stroke-linecap="round" stroke-width="3" stroke="#000" fill="transparent" data-name="Path"/><path d="M1011.118 2601.182c-11.62-32.994-6.11-69.038-6.11-69.038l-17.138.539-45.207 1.434a18.56 18.56 0 0 1-19.067-20.537l13.43-49.025M937.677 2462.16l1.179-4.294 1.368-4.87M941.389 2448.804l.782-2.813c1.037-3.735.78-7.711-.727-11.282l-1.554-3.712c-1.016-3.093-1.332-4.59-.059-7.613a13.374 13.374 0 0 1 2.5-3.876c3.068-3.385 7.388-5.066 11.84-5.641 4.45-.575 9.363-.128 12.944 2.758 2.431 1.958 4.731 6.62 3.141 9.666-1.154 2.217-3.596 2.86-5.674 2.067a5.066 5.066 0 0 1-1.914-1.273c-2.453-2.57-7.643-3.13-9.462-.63M1132.624 2516.688c0-.913.032-1.82.069-2.744v-.073c0-.418.022-.851.047-1.27M1127.954 2429.272c-4.261 2.278-9.494 8.006-.666 21.472 2.912 4.436 5.987 9.233 6.42 14.71.404 5.473.532 10.963.386 16.45" stroke-linejoin="round" stroke-linecap="round" stroke-width="3" stroke="#000" fill="transparent" data-name="Path"/><path d="m1086.623 2538.076 10.132 1.798.728.128 4.647.83 47.387 8.417c2.346.427 4.752.395 7.086-.095 0 0 0 0 0 0a18.586 18.586 0 0 0 14.743-17.468l-7.002-57.323-1.55-12.235a17.16 17.16 0 0 1 2.343-11.068l2.078-3.457s3.618-5.277-2.711-5.663c-3.41-.2-6.958.728-10.04 2.126-1.762.782-4.237 2.183-5.23 4.109a3.574 3.574 0 0 0-.386 2.394c.728 3.76 5.459 5.346 8.581 3.76" stroke-linejoin="round" stroke-linecap="round" stroke-width="3" stroke="#000" fill="transparent" data-name="Path"/><path d="M1166.593 2442.213s3.577-2.129 1.157-7.366c-.859-1.863-3.46-3.155-9.062-2.798-14.92.95-20.765 16.293-9.436 16.126" stroke-linejoin="round" stroke-linecap="round" stroke-width="3" stroke="#000" fill="transparent" data-name="Path"/><path d="M1163.194 2432.023c3.312-4.563-2.548-8.93-6.817-8.781-4.025.142-8.097 1.63-11.623 3.493-4.906 2.592-11.239 7.61-9.426 13.96.535 1.871 4.767 4.182 7.533 2.847" stroke-linejoin="round" stroke-linecap="round" stroke-width="3" stroke="#000" fill="transparent" data-name="Path"/><path d="M1135.015 2438.44v.021c-2.311 4.415-13.251 0-7.075-9.189a25.799 25.799 0 0 1 5.135-5.383c15.402-12.584 18.844.211 18.822-.55M1141.718 2443.644s5.634 4.003 3.905 10.674M943.376 2411.621c-.364-1.434-.317-3.242.535-5.557 1.226-3.326 4.8-5.51 8.28-6.947a43.173 43.173 0 0 1 3.639-1.296c3.796-1.165 7.963-1.783 12.01-1.376a22.2 22.2 0 0 1 4.028.772 17.73 17.73 0 0 1 4.32 1.9c3.326 2.045 5.58 5.15 6.933 9.225 1.18 3.516 1.634 7.694-1.285 9.888" stroke-linejoin="round" stroke-linecap="round" stroke-width="3" stroke="#000" fill="transparent" data-name="Path"/></g><path d="m982.102 2465.01-1.074 5.197a1.328 1.328 0 0 1-1.612 1.026c-4.13-.979-7.752-1.889-11.558-2.766-1.89-.444-3.84-.862-5.907-1.295-8.08-1.67-16.148-3.556-24.27-5.012-3.396-.607-6.795-1.135-10.216-1.532-1.914-.222-3.854-.313-5.78-.455a2.056 2.056 0 0 1-1.167-.396c-1.82-1.332 0-5.663.396-7.461v-.07c.28-1.378 8.207-.982 19.289.747 3.865.608 8.112 1.365 12.562 2.278 6.256 1.285 11.897 2.671 16.508 4.003.794.233 1.554.455 2.279.677h.021c.921.291 1.787.572 2.603.852 5.15 1.758 8.115 3.286 7.926 4.207Z" fill="#ffb34d" fill-rule="evenodd" data-name="Path"/><g data-name="Group"><g data-name="Group"><path d="m982.102 2465.01-1.074 5.197a1.328 1.328 0 0 1-1.612 1.026c-4.13-.979-7.752-1.889-11.558-2.766-1.89-.444-3.84-.862-5.907-1.295-8.08-1.67-16.148-3.556-24.27-5.012-3.396-.607-6.795-1.135-10.216-1.532-1.914-.222-3.854-.313-5.78-.455a2.056 2.056 0 0 1-1.167-.396c-1.82-1.332 0-5.663.396-7.461v-.07c.28-1.378 8.207-.982 19.289.747 3.865.608 8.112 1.365 12.562 2.278 6.256 1.285 11.897 2.671 16.508 4.003.794.233 1.554.455 2.279.677h.021c.921.291 1.787.572 2.603.852 5.15 1.758 8.115 3.286 7.926 4.207h0ZM970.77 2423.493l1.033 2.07c1.299 1.423 3.097 2.322 5.56 1.704 4.834-1.201 5.31-5.208 4.47-9.037a17.272 17.272 0 0 0-.56-2.052c-1.133-3.378-2.883-6.096-5.336-8.08a16.377 16.377 0 0 0-5.918-3.05 22.33 22.33 0 0 0-5.408-.862 31.575 31.575 0 0 0-10.623 1.456c-3.432 1.052-8.126 2.86-10.623 5.965a8.006 8.006 0 0 0-1.31 2.278c-.768 2.089-.899 3.781-.63 5.15l.259 1.273M972.108 2397.297l1.201-4.975 1.427-5.86a6.325 6.325 0 0 0-5.128-7.707 5.968 5.968 0 0 0-1.015-.08 6.292 6.292 0 0 0-6.165 4.96c-.364 1.696-.819 3.76-1.321 6.085-.477 2.205-1.005 4.622-1.565 7.17" stroke-linejoin="round" stroke-linecap="round" stroke-width="3" stroke="#000" fill="transparent" data-name="Path"/></g><path d="M957.853 2404.71v-.01" stroke-linejoin="round" stroke-linecap="round" stroke-width="2.98" stroke="#000" fill="transparent" data-name="Path"/><g data-name="Group"><path d="M953.217 2426.451c-.364 1.787-.572 2.912-.56 3.105v.025c-1.577 10.59-6.213 16.253-11.257 19.205a23.292 23.292 0 0 1-10.074 3.002M964.611 2428.355s-8.45 22.524 4.764 30.508c.699.42 1.429.785 2.184 1.092.904.375 1.838.676 2.791.899M980.33 2471.128s.058 1.04-12.705-.885c-4.367-.655-10.238-1.66-18.131-3.177a614.368 614.368 0 0 1-12.469-2.511c-17.898-3.829-16.511-4.775-16.511-4.775" stroke-linejoin="round" stroke-linecap="round" stroke-width="3" stroke="#000" fill="transparent" data-name="Path"/></g></g><path d="M1016.29 2344.52c-2.723 14.43-11.69 29.62-22.564 39.37-4.447 4.003-9.619 6.794-15.202 7.893a26.69 26.69 0 0 1-5.204.535l1.416-5.855a6.336 6.336 0 0 0-3.596-7.279 6.874 6.874 0 0 0-1.528-.455 5.98 5.98 0 0 0-1.02-.08 6.292 6.292 0 0 0-6.164 4.982c-.222 1.063-.491 2.268-.783 3.585-13.829-9.142-19.827-28.696-19.16-44.574.21-5.277.502-12.225 2.813-17.596a15.11 15.11 0 0 1 3.42-5.095c6.551-6.165 15.519-8.978 24.766-9.4a61.166 61.166 0 0 1 20.642 4.636c12.228 5.164 24.988 14.32 22.164 29.333Z" fill="#ffb34d" fill-rule="evenodd" data-name="Path"/><path d="M1016.29 2344.52c-2.723 14.43-11.69 29.62-22.564 39.37-4.447 4.003-9.619 6.794-15.202 7.893l1.292-5.32a6.325 6.325 0 0 0-5.127-7.708 5.97 5.97 0 0 0-1.016-.08 6.212 6.212 0 0 0-2.547.535 6.875 6.875 0 0 0-1.529-.455 5.98 5.98 0 0 0-1.019-.08 6.292 6.292 0 0 0-6.15 4.956c-.222 1.063-.491 2.268-.783 3.585-13.829-9.142-19.827-28.696-19.16-44.574.21-5.277.502-12.225 2.813-17.596a15.11 15.11 0 0 1 3.42-5.095c6.551-6.165 15.519-8.978 24.766-9.4a61.166 61.166 0 0 1 20.642 4.636c12.228 5.164 24.988 14.32 22.164 29.333Z" fill="#ffb34d" fill-rule="evenodd" data-name="Path"/><g data-name="Group"><path d="M1016.29 2344.523c-2.719 14.43-11.686 29.62-22.564 39.37-5.823 5.22-12.85 8.393-20.417 8.43l1.427-5.86a6.325 6.325 0 0 0-5.128-7.708 5.968 5.968 0 0 0-1.015-.08 6.292 6.292 0 0 0-6.165 4.96c-.364 1.696-.819 3.76-1.321 6.085-17.069-7.566-24.438-29.551-23.7-47.074.208-5.277.5-12.225 2.814-17.597a15.056 15.056 0 0 1 3.42-5.095c12.888-12.118 35.062-11.281 50.485-4.763 12.225 5.164 24.988 14.317 22.164 29.332h0Z" stroke-linejoin="round" stroke-linecap="round" stroke-width="4" stroke="#000" fill="transparent" data-name="Path"/><path d="M1016.217 2345.044c2.944 3.523 5.706 9.426 3.275 18.196a18.32 18.32 0 0 1-1.594 3.978c-3.865 6.915-11.325 8.127-16.355 8.054" stroke-linejoin="round" stroke-linecap="round" stroke-width="3" stroke="#000" fill="transparent" data-name="Path"/><path d="M1013.975 2352.42c2.547 3.05 4.902 7.88 3.92 14.805a25.362 25.362 0 0 1-.688 3.294c-3.64 13.072-17 12.428-21.585 11.791M942.626 2370.45c-2.846.586-18.95-2.719-19.146-16.144-.058-1.82.285-3.63 1.004-5.303 2.522-5.684 9.175-7.482 13.007-8.068" stroke-linejoin="round" stroke-linecap="round" stroke-width="3" stroke="#000" fill="transparent" data-name="Path"/><path d="M939.73 2363.72c-2.912.18-18.383-5.342-16.705-18.665.2-1.805.793-3.544 1.736-5.095 3.275-5.28 10.132-6.129 14.004-6.187" stroke-linejoin="round" stroke-linecap="round" stroke-width="3" stroke="#000" fill="transparent" data-name="Path"/><path d="M1005.008 2532.148s.33-2.53 2.15-8.243" stroke-linejoin="round" stroke-linecap="round" stroke-width="4.47" stroke="#000" fill="transparent" data-name="Path"/><path d="M1064.86 2492.705v.026c-.131 8.701-6.187 10.674-11.162 11.62-12.26 2.344-20.773-6.598-20.398-14.386" stroke-linejoin="round" stroke-linecap="round" stroke-width="3" stroke="#000" fill="transparent" data-name="Path"/><path d="M1035.625 2444.826s.364 4.004-3.119 9.168c-.931 1.39 2.293 1.961 3.061 2.22" stroke-linejoin="round" stroke-linecap="round" stroke-width="2" stroke="#000" fill="transparent" data-name="Path"/><path d="M1040.563 2456.882a7.49 6.089-60 1 1 .086.05zM1026.091 2452.279a7.515 6.11-60.113 1 1 .087.05z" stroke-linejoin="round" stroke-linecap="round" stroke-width="3" stroke="#000" fill="transparent" data-name="Oval"/></g><path d="M1025.872 2452.13c-2.562-1.455-3.163-5.218-1.343-8.37 1.317-2.3 3.548-3.64 5.652-3.64v.004c.797-.005 1.582.201 2.274.597 2.562 1.456 3.167 5.223 1.347 8.37-1.321 2.297-3.552 3.64-5.655 3.64a4.513 4.513 0 0 1-2.275-.6Z" fill="#fff" fill-rule="evenodd" data-name="Shape"/><path d="M1035.578 2446.147s1.092-1.626 3.556 1.252" stroke-linejoin="round" stroke-linecap="round" stroke="#000" fill="transparent" data-name="Path"/><path d="M1043.946 2450.559a1.769 1.5-52.64 1 1 .08.06zM1029.245 2446.429a1.769 1.5-52.64 1 1 .08.06z" fill="#353642" fill-rule="evenodd" data-name="Oval"/><g data-name="Group"><path d="M1043.05 2462.703c-7.454 6.332-11.366.691-11.366.691M964.087 2499.103c6.446-1.154 12.949-2.056 19.336-3.235a920.513 920.513 0 0 1 9.338-1.667c13.859-2.358 27.696-4.193 41.707-4.25a2.802 2.802 0 0 0 2.777-2.417l.258-1.94 1.634-12.094M1062.232 2474.469v-.349M920.488 2601.182h277.298M1097.479 2540.002s1.718 17.082 4.272 33.765c1.682 10.976 3.738 21.774 5.885 27.415" stroke-linejoin="round" stroke-linecap="round" stroke-width="3" stroke="#000" fill="transparent" data-name="Path"/><path d="m1101.751 2573.767.339-.09.517-.143a117.76 117.76 0 0 1 8.275-2.03c.444-.095.888-.175 1.332-.259a55.783 55.783 0 0 1 9.434-.92c1.4 0 2.744-.048 4.028-.117h.08c5.383-.306 9.881-1.168 13.64-2.453 6.14-2.089 10.285-5.299 13.03-9.015.021-.021.032-.058.057-.08a24.383 24.383 0 0 0 4.087-9.269.07.07 0 0 1 0-.047l.037-.175" stroke-linejoin="round" stroke-linecap="round" stroke-width="3" stroke="#000" fill="transparent" data-name="Path"/></g></g></g></svg>