<svg xmlns="http://www.w3.org/2000/svg" width="36" height="36" viewBox="597 3982 36 36"><path d="M615 4018c-2.437 0-4.77-.475-6.996-1.424-2.227-.95-4.143-2.227-5.748-3.832-1.605-1.605-2.883-3.521-3.832-5.748A17.657 17.657 0 0 1 597 4000c0-2.437.475-4.77 1.424-6.996.95-2.227 2.227-4.143 3.832-5.748 1.605-1.605 3.521-2.883 5.748-3.832A17.657 17.657 0 0 1 615 3982c2.437 0 4.77.475 6.996 1.424 2.227.95 4.143 2.227 5.748 3.832 1.605 1.605 2.883 3.521 3.832 5.748A17.657 17.657 0 0 1 633 4000c0 2.437-.475 4.77-1.424 6.996-.95 2.227-2.227 4.143-3.832 5.748-1.605 1.605-3.521 2.883-5.748 3.832A17.657 17.657 0 0 1 615 4018Zm10.582-27a6.5 6.5 0 0 0-.633.387l-.686.457-.65.352-.738.246c-.867-.96-1.934-1.441-3.199-1.441-2.742 0-4.113 1.148-4.113 3.445v2.074c-3.773-.187-6.668-1.57-8.684-4.148-.586.61-.879 1.277-.879 2.004 0 1.547.574 2.719 1.723 3.516-.14 0-.34.012-.598.035a2.665 2.665 0 0 1-.615 0 1.762 1.762 0 0 1-.51-.176c0 1.078.287 1.974.861 2.689.574.715 1.365 1.177 2.373 1.388-.235.281-.563.422-.984.422-.375 0-.703-.105-.984-.316 0 .914.44 1.623 1.318 2.127.879.504 1.869.768 2.971.791-.422.633-1.037 1.107-1.846 1.424a7.009 7.009 0 0 1-2.584.474c-.328 0-.78-.082-1.354-.246a18.804 18.804 0 0 0-.896-.246c.375.75 1.143 1.395 2.303 1.934 1.16.54 2.63.809 4.412.808 1.57 0 3.035-.275 4.395-.826 1.36-.55 2.52-1.283 3.48-2.197a14.435 14.435 0 0 0 2.479-3.129 14.629 14.629 0 0 0 1.547-3.639c.339-1.254.508-2.49.509-3.709 0-.047.14-.146.422-.299.281-.153.61-.358.984-.615.375-.257.656-.527.844-.809-1.265 0-2.109.023-2.531.07.82-.492 1.441-1.441 1.863-2.848Z" fill="#008379" fill-rule="evenodd" data-name="circletwitter"/></svg>