<svg xmlns="http://www.w3.org/2000/svg" width="36" height="36" viewBox="723 3982 36 36"><path d="m737.727 4004.704 7.977-4.908-7.977-4.5v9.408Zm3.273-13.287c4.732 0 8.583 3.851 8.583 8.583s-3.851 8.583-8.583 8.583-8.583-3.851-8.583-8.583 3.851-8.583 8.583-8.583m0-.825a9.408 9.408 0 0 0 0 18.817 9.408 9.408 0 0 0 9.409-9.409 9.408 9.408 0 0 0-9.409-9.409Zm18 9.408c0 9.941-8.059 18-18 18s-18-8.059-18-18 8.059-18 18-18 18 8.059 18 18" fill="#008379" fill-rule="evenodd" data-name="youtubemusic"/></svg>