<svg xmlns="http://www.w3.org/2000/svg" width="327.207" height="381.389" viewBox="137 3288.958 327.207 381.389"><g data-name="Business, Technology, startup | account, preferences, user, profile, settings, woman, graph, analysis"><g data-name="Group"><path d="M258.759 3288.958h175.318a20 20 0 0 1 20 20v173.88a20 20 0 0 1-20 20H258.76a20 20 0 0 1-20-20v-173.88a20 20 0 0 1 20-20z" fill="#008379" fill-rule="evenodd" data-name="Rectangle"/><g data-name="Group"><path d="M362.46 3556.645a.26.26 0 0 0 0-.08.828.828 0 0 1 0-.102v-.064c.01.071.024.142.042.212a.076.076 0 0 1-.043.034ZM362.392 3556.395c-3.574 3.62-7.114 7.648-10.887 11.307-1.038 1.017-2.1 2-3.185 2.95a50.991 50.991 0 0 1-3.722 2.974 5.473 5.473 0 0 0-.338-.778c-2.136-4.25-7.93-6.939-8.65-11.758-.655-4.5 3.384-8.635 2.724-13.046-.744-4.988-6.852-7.95-7.98-12.824-.72-3.026-.077-6.514-.34-9.634a63.66 63.66 0 0 0-1.754-10.334c.422-.03.845-.043 1.268-.055 8.586-.145 17.037 4.7 19.816 11.507 2.237 5.524 1.1 11.86 4.073 17.023.178.334.38.655.604.96.394.542.818 1.061 1.27 1.556l.942.986c.157.157.33.301.487.471.156.17.325.319.482.489 1.48 1.424 2.99 2.856 3.971 4.555.09.148.168.301.237.46.09.157.168.32.237.488.089.183.157.357.22.527.064.17.144.425.212.603.093.319.181.62.25.935 0 .08 0 .149.024.213.026.063 0 .05 0 .08a.162.162 0 0 1 0 .077c0 .055 0 .093.026.132v.025a.2.2 0 0 0 .013.11ZM362.447 3556.658h.012l-.012.013v-.013Z" fill="#fff" fill-rule="evenodd" data-name="Path"/><path d="M362.472 3556.633c.106-.094.194-.158.3-.251-.089.08-.194.17-.287.263h-.026l.013-.012ZM392.53 3535.713a36.289 36.289 0 0 0 0 4.449c-2.58.633-5.121 1.33-7.612 2.171a59.841 59.841 0 0 0-4.585 1.726 51.22 51.22 0 0 0-11.796 6.756 13.906 13.906 0 0 0 1.641-4.36c0-.064.025-.132.038-.208.656-3.183.706-6.527 2.2-9.57 2.778-5.609 10.903-9.676 19.409-9.939h.156c.774 0 1.56 0 2.347.038a48.059 48.059 0 0 0-1.797 8.937Z" fill="#fff" fill-rule="evenodd" data-name="Path"/></g><path d="M370.241 3546.547c0 .077-.026.145-.039.21a13.832 13.832 0 0 1-1.664 4.372c-.302.473-.635.927-.995 1.358-1.222 1.435-2.925 2.649-4.504 3.918-.105.099-.217.191-.334.276-.09.081-.198.17-.292.264h-.026a.076.076 0 0 0 0-.05.686.686 0 0 0-.043-.133v-.063a.123.123 0 0 1 0-.069v-.025c0-.038 0-.077-.025-.132a.16.16 0 0 0 0-.077.089.089 0 0 0 0-.08 1.616 1.616 0 0 0-.039-.214c-.069-.315-.159-.617-.253-.936-.069-.196-.133-.426-.214-.605-.082-.179-.133-.345-.223-.528a2.241 2.241 0 0 0-.24-.49 3.937 3.937 0 0 0-.24-.46c-.996-1.703-2.527-3.138-4.029-4.564a8.843 8.843 0 0 0-.489-.49 16.87 16.87 0 0 1-.493-.472l-.956-.988a18.248 18.248 0 0 1-1.287-1.559s.875-15.226 8.729-19.855c7.416-4.381 7.656 18.82 7.656 21.392Z" fill="#fff" fill-rule="evenodd" data-name="Path"/><g data-name="Group"><path d="M362.236 3556.586v.063a.258.258 0 0 0 0-.08.821.821 0 0 1 0-.102v-.063c-.003.06-.003.121 0 .182ZM388.557 3531.67l-3.787 10.674a60.32 60.32 0 0 0-4.603 1.72c2.433-4.722 5.218-8.99 8.39-12.394ZM362.278 3556.666a.846.846 0 0 0-.038-.25c.026.157.038.25.038.25ZM333.477 3520.942c8.492 10.991 14.131 29.671 17.774 46.724a76.288 76.288 0 0 1-3.197 2.942l-14.577-49.666ZM363.463 3539.474c-1.698 5.175-1.762 10.402-1.563 13.712a27.63 27.63 0 0 0 .34 3.192l1.223-16.904Z" fill="#fff" fill-rule="evenodd" data-name="Path"/></g><g data-name="Group"><path d="M362.29 3556.797a.259.259 0 0 0 0-.08.823.823 0 0 1 0-.103v-.063c.01.071.024.142.042.212a.076.076 0 0 1-.042.034ZM362.222 3556.547c-3.582 3.612-7.13 7.632-10.912 11.283a76.223 76.223 0 0 1-3.192 2.943 51.07 51.07 0 0 1-3.73 2.968 5.45 5.45 0 0 0-.34-.776c-2.14-4.24-7.948-6.924-8.67-11.733-.656-4.49 3.392-8.616 2.731-13.017-.746-4.978-6.868-7.934-8-12.797-.72-3.02-.076-6.5-.339-9.613-.3-3.48-.889-6.93-1.759-10.312.424-.03.848-.043 1.272-.056 8.606-.144 17.076 4.69 19.86 11.483 2.243 5.512 1.103 11.835 4.083 16.986.18.334.382.654.606.959.395.54.82 1.058 1.272 1.552l.946.983c.156.157.33.301.487.471.157.17.327.318.483.488 1.484 1.42 2.998 2.85 3.981 4.545.09.148.168.3.237.458.09.158.17.32.238.488.089.182.157.356.22.526.064.17.144.424.212.602.094.318.183.619.25.933 0 .08 0 .148.026.212.025.063 0 .05 0 .08a.161.161 0 0 1 0 .076c0 .056 0 .094.025.132v.025a.2.2 0 0 0 .013.11h0Z" stroke-linejoin="round" stroke-linecap="round" stroke-width="4.65" stroke="#ccdde2" fill="transparent" data-name="Path"/><path d="M370.027 3546.641a13.838 13.838 0 0 1-1.645 4.338c-.3.471-.628.923-.984 1.353-1.208 1.429-2.891 2.637-4.451 3.9-.104.1-.215.192-.33.276-.107.094-.196.157-.302.25M392.418 3540.349a36.05 36.05 0 0 1 0-4.44c.317-3.018.92-6 1.802-8.904-.788-.051-1.577-.051-2.353-.038h-.157c-8.525.263-16.668 4.32-19.454 9.918-1.496 3.036-1.547 6.36-2.204 9.549M370.03 3546.646c0-.068.026-.132.039-.212" stroke-linejoin="round" stroke-linecap="round" stroke-width="4.65" stroke="#ccdde2" fill="transparent" data-name="Path"/><path d="M370.065 3546.417c0 .076-.026.144-.038.207a13.838 13.838 0 0 1-1.645 4.355 13.3 13.3 0 0 1-.984 1.353c-1.208 1.429-2.891 2.637-4.451 3.9-.104.1-.215.192-.33.276-.09.081-.196.17-.289.263h-.025a.076.076 0 0 0 0-.05.687.687 0 0 0-.043-.132v-.064a.123.123 0 0 1 0-.067v-.026c0-.038 0-.076-.025-.131a.161.161 0 0 0 0-.077.09.09 0 0 0 0-.08 1.62 1.62 0 0 0-.038-.212c-.068-.314-.157-.615-.25-.933-.068-.195-.132-.424-.212-.602-.081-.178-.132-.344-.22-.526a2.24 2.24 0 0 0-.238-.488 3.932 3.932 0 0 0-.238-.458c-.983-1.696-2.497-3.125-3.98-4.545a8.772 8.772 0 0 0-.484-.488c-.157-.144-.33-.314-.487-.47l-.946-.984a18.143 18.143 0 0 1-1.271-1.552s.864-15.163 8.627-19.772c7.33-4.363 7.567 18.742 7.567 21.303h0Z" stroke-linejoin="round" stroke-linecap="round" stroke-width="4.65" stroke="#ccdde2" fill="transparent" data-name="Path"/><path d="M370.03 3546.646c0-.068.026-.132.039-.212M362.277 3556.746v.063a.259.259 0 0 0 0-.08.823.823 0 0 1 0-.102v-.063c-.003.06-.003.121 0 .182ZM388.556 3531.822c-3.166 3.392-5.935 7.675-8.376 12.415M362.32 3556.826a.848.848 0 0 0-.039-.25c.026.157.039.25.039.25ZM333.564 3521.09c8.479 10.995 14.109 29.681 17.746 46.74M363.502 3539.628c-1.695 5.177-1.759 10.406-1.56 13.717a27.69 27.69 0 0 0 .34 3.193" stroke-linejoin="round" stroke-linecap="round" stroke-width="4.65" stroke="#ccdde2" fill="transparent" data-name="Path"/><path d="M453.676 3417.573c5.397 20.217 10.963 42 10.505 62.78-.488 21.902-11.637 40.283-31.612 49.612-13.002 6.067-26.98 7.183-40.15 10.375-2.587.632-5.134 1.328-7.631 2.167a60.163 60.163 0 0 0-4.596 1.722 51.399 51.399 0 0 0-11.81 6.75 47.66 47.66 0 0 0-3.816 3.244 87.084 87.084 0 0 0-2.285 2.247c-.763.776 0 .026-.025.038-.025.013 0 0 0 0-3.582 3.613-7.13 7.633-10.912 11.284a76.203 76.203 0 0 1-3.192 2.942 51.075 51.075 0 0 1-3.73 2.969c-4.308 3.137-9.06 5.461-14.537 6.144-2.42.31-4.853.495-7.292.555a.191.191 0 0 1-.118 0M237.977 3302.501s-25.164-5.745-46.11 1.336c-2.61.86-5.138 1.95-7.555 3.256-11.87 6.424-20.827 18.496-20.17 40.423.352 11.448-.318 22.74-2.573 33.697a111.777 111.777 0 0 1-2.735 10.558 95.597 95.597 0 0 1-11.4 24.068c-15.617 23.685-13.251 48.304 4.07 71.134.908 1.196 1.84 2.379 2.798 3.536" stroke-linejoin="round" stroke-linecap="round" stroke-width="4.65" stroke="#ccdde2" fill="transparent" data-name="Path"/></g><path d="M412.64 3288.958H262.588c-44.94 0-31.37 36.43-31.37 81.37v51.14c0 44.94-1.96 81.37 42.98 81.37H412.64c44.94 0 41.37-36.43 41.37-81.37v-51.14c0-44.94 3.57-81.37-41.37-81.37Z" stroke-linejoin="round" stroke-linecap="round" stroke-width="2" stroke="#000" fill="transparent" data-name="Rectangle"/><path d="M380.543 3432.23c-5.99 0-10.851-5.244-10.851-11.695v-102.083c0-6.439 4.86-11.67 10.851-11.67h44.078c6.003 0 10.88 5.231 10.88 11.67v102.083c0 6.451-4.877 11.696-10.88 11.696h-44.078ZM379.858 3483.644c-5.987 0-10.852-5.269-10.852-11.753v-15.598c0-6.467 4.865-11.723 10.852-11.723h44.077c6.003 0 10.88 5.256 10.88 11.723v15.598c0 6.484-4.877 11.753-10.88 11.753h-44.077Z" fill="#d7e8f0" fill-rule="evenodd" data-name="Shape"/><path d="m324.886 3455.616-64.604-.924c-1.447-.023-2.602-1.184-2.58-2.595a2.35 2.35 0 0 1 .1-.694c.343-1.095 1.386-1.838 2.56-1.823l64.604.916a4.779 4.779 0 0 0-.08 5.12Z" fill="#ffb34d" fill-rule="evenodd" data-name="Path"/><path d="M340.797 3453.777c-.337 1.092-1.371 1.84-2.543 1.84l-4.664-.067a4.744 4.744 0 0 0 .08-5.108l4.664.066c1.447.03 2.6 1.186 2.586 2.593a2.38 2.38 0 0 1-.123.676ZM340.387 3464.56c-.336 1.096-1.37 1.844-2.538 1.836l-64.194-.92a4.756 4.756 0 0 0 .706-5.117l63.547.887c1.445.027 2.597 1.19 2.58 2.606a2.37 2.37 0 0 1-.1.708Z" fill="#d7e8f0" fill-rule="evenodd" data-name="Path"/><path d="m265.893 3465.102-5.663-.082a2.559 2.559 0 0 1-2.425-3.28 2.548 2.548 0 0 1 2.483-1.812l5.047.079a4.917 4.917 0 0 0-.489 1.946 4.74 4.74 0 0 0 1.047 3.15ZM320.223 3476.313l-59.941-.86c-1.443-.032-2.593-1.203-2.581-2.628a2.28 2.28 0 0 1 .11-.685 2.636 2.636 0 0 1 2.539-1.863l59.852.868a4.84 4.84 0 0 0 0 5.168h.021Z" fill="#ffb34d" fill-rule="evenodd" data-name="Path"/><path d="M340.831 3474.828c-.333 1.148-1.367 1.93-2.534 1.916l-9.4-.126-8.359-.117a5.19 5.19 0 0 1 0-5.362l8.514.13 9.292.139c1.44.023 2.59 1.236 2.576 2.713a2.59 2.59 0 0 1-.089.707Z" fill="#d7e8f0" fill-rule="evenodd" data-name="Path"/><path d="M333.67 3455.917a4.958 4.958 0 1 1-8.352-5.345 4.958 4.958 0 0 1 8.353 5.345Z" fill="#fff" fill-rule="evenodd" data-name="Path"/><path d="M331.859 3452.825a3.147 3.147 0 0 1-.833 1.592 5.444 5.444 0 0 1-.68.62c-.136.093-.838.641-.973.573-.924-.454-2.089-1.596-2.233-2.713a1.932 1.932 0 0 1 0-.527 1.3 1.3 0 0 1 1.309-1.066c.415.015.8.222 1.033.557a1.38 1.38 0 0 1 1.077-.48c.374.012.725.174.971.448.246.273.365.634.329.996Z" fill="#008379" fill-rule="evenodd" data-name="Path"/><path d="M273.786 3465.476a4.942 4.942 0 0 1-7.693-.119 4.897 4.897 0 0 1-1.058-3.234 5.085 5.085 0 0 1 .497-2 4.966 4.966 0 0 1 4.64-2.779 4.909 4.909 0 0 1 4.33 2.922 4.945 4.945 0 0 1-.704 5.222l-.012-.012Z" fill="#fff" fill-rule="evenodd" data-name="Path"/><path d="M272.35 3461.875a3.174 3.174 0 0 1-.835 1.593 4.644 4.644 0 0 1-.68.622c-.13.093-.835.647-.966.575-.923-.452-2.085-1.597-2.233-2.721a1.954 1.954 0 0 1 0-.528 1.29 1.29 0 0 1 1.006-1.027 1.32 1.32 0 0 1 1.353.52 1.323 1.323 0 0 1 1.567-.431c.561.23.885.81.78 1.397h.008Z" fill="#008379" fill-rule="evenodd" data-name="Path"/><path d="M328.906 3476.67a4.966 4.966 0 0 1-5.649 1.996 4.978 4.978 0 0 1-3.463-4.896 5.035 5.035 0 0 1 .74-2.45 4.963 4.963 0 0 1 8.623.357 4.981 4.981 0 0 1-.251 4.993Z" fill="#fff" fill-rule="evenodd" data-name="Path"/><path d="M327.112 3473.514a3.17 3.17 0 0 1-.836 1.597 4.645 4.645 0 0 1-.679.621c-.13.094-.836.644-.966.575-.923-.455-2.086-1.597-2.234-2.721a1.95 1.95 0 0 1 0-.528 1.29 1.29 0 0 1 1.006-1.027 1.32 1.32 0 0 1 1.354.52 1.324 1.324 0 0 1 1.564-.43c.56.23.885.807.783 1.393h.008Z" fill="#008379" fill-rule="evenodd" data-name="Path"/><path d="m257.27 3319.354.111 15.352c.06 5.564 4.508 10.091 10.083 10.262l15.232.263a9.793 9.793 0 0 0 7.068-2.858 9.744 9.744 0 0 0 2.862-7.052l-.115-15.352c-.054-5.564-4.503-10.091-10.078-10.257l-15.233-.268a9.793 9.793 0 0 0-7.067 2.858 9.744 9.744 0 0 0-2.862 7.052Z" fill="#fff" fill-rule="evenodd" data-name="Path"/><path d="m259.426 3322.977.08 11.03c.053 4.794 3.904 8.694 8.732 8.84l13.193.228a8.514 8.514 0 0 0 6.122-2.462 8.388 8.388 0 0 0 2.486-6.076v-.745c-1.853-3.763-5.462-9.396-9.33-6.028-5.55 4.841-8.09 1.157-11.326-3.596-2.702-3.978-6.81-6.883-9.957-1.191Z" fill="#008379" fill-rule="evenodd" data-name="Path"/><path d="M279.208 3320.305a3.739 3.642 56.4 1 1 .056.083z" fill="#008379" fill-rule="evenodd" data-name="Oval"/><path d="M345.696 3325.398a11.508 11.508 0 0 0-10.848 7.63 11.463 11.463 0 0 0 3.575 12.752l-30.144 61.284a4.83 4.83 0 0 0-.56-.055c-.481.006-.959.08-1.418.22l-19.611-24.304a7.476 7.476 0 0 0 .296-8.352 7.518 7.518 0 0 0-13.71 2.331 7.483 7.483 0 0 0 3.055 7.782l-13.743 39.012a5.191 5.191 0 0 0-4.837 4.458 5.182 5.182 0 0 0 3.428 5.608 5.203 5.203 0 0 0 6.188-2.246 5.174 5.174 0 0 0-.988-6.494l13.743-39.016c.17 0 .335.025.505.025a7.548 7.548 0 0 0 2.972-.61l19.607 24.296a5.101 5.101 0 0 0-.637 2.44 5.172 5.172 0 0 0 2.549 4.604 5.2 5.2 0 0 0 5.274 0 5.172 5.172 0 0 0 2.549-4.605 5.112 5.112 0 0 0-1.113-3.168l30.144-61.283a11.53 11.53 0 0 0 12.273-3.033 11.459 11.459 0 0 0 2.076-12.44 11.511 11.511 0 0 0-10.625-6.836Z" fill="#d7e8f0" fill-rule="evenodd" data-name="Path"/><g data-name="Group"><path d="M381.96 3347.443h40.109M381.96 3353.65h40.109M381.96 3359.851h40.109M381.96 3366.053h40.109M381.96 3372.26h40.109M381.96 3408.49h40.109M381.96 3413.964h40.109" stroke-linejoin="round" stroke-linecap="round" stroke-width="4.65" stroke="#fff" fill="transparent" data-name="Path"/></g><path d="M413.813 3456.195a3.544 3.544 0 0 1 1.271 2.773l-.093 12.494a3.592 3.592 0 0 1-1.066 2.53 3.553 3.553 0 0 1-2.535 1.027l-18.643-.161c-1.968-.02-3.55-1.638-3.533-3.617l.11-12.503a3.683 3.683 0 0 1 3.597-3.553l18.642.162a3.493 3.493 0 0 1 2.25.848Z" fill="#fff" fill-rule="evenodd" data-name="Path"/><path d="m410.985 3458.172-8.785 7.643c-.232.2-.573.2-.805 0l-8.944-7.803a.63.63 0 0 1-.176-.707.616.616 0 0 1 .604-.395l17.73.16a.617.617 0 0 1 .561.42.63.63 0 0 1-.185.682Z" fill="#008379" fill-rule="evenodd" data-name="Path"/><g data-name="Group"><path d="M396.11 3398.284a9.389 9.389 0 0 1-2.032-10.24 9.399 9.399 0 0 1 8.69-5.793 9.399 9.399 0 0 1 6.642 2.753 9.394 9.394 0 0 1-6.649 16.035 9.4 9.4 0 0 1-6.651-2.755Z" fill="#fff" fill-rule="evenodd" data-name="Shape"/><path d="M337.367 3336.9a8.44 8.436 0 1 1 0 .1zM399.879 3321.996a2.82 2.819 0 1 1 0 .1z" fill="#fff" fill-rule="evenodd" data-name="Oval"/><path d="M394.823 3334.842a7.874 7.874 0 0 1 7.877-7.871 7.874 7.874 0 0 1 7.876 7.871h-15.753ZM348.45 3604.293a3.15 3.15 0 0 1-2.048 2.942l-29.543 11.021s-1.408-2.61-3.864-6.973l-16.873-28.21c-4.56 23.441-9.645 46.913-12.796 61.541l-3.037 14.566 12.173 4.001a3.362 3.362 0 0 1 2.574 3.256 3.365 3.365 0 0 1-4.177 3.26l-28.215-7.147v-6.893l-.67-.131.58-80.401-27.57-6.516a124.473 124.473 0 0 1-10.96 2.891 65.647 65.647 0 0 1-27.752 1.196c-.08 0-.174-.038-.25-.055-.67-.127-1.34-.276-1.998-.424a7.417 7.417 0 0 1-.594-.132c-.577-.131-1.153-.3-1.73-.457-.318-.094-.632-.17-.933-.263-.302-.093-.526-.17-.79-.263a37.455 37.455 0 0 1-13.47-7.567 34.113 34.113 0 0 1-7.525-8.918 52.305 52.305 0 0 1-2.38-4.193c-4.479-8.838-5.412-11.843-4.11-11.924a54.492 54.492 0 0 1-8.304-3.73s-5.862-34.188 6.922-68.595c-.245-2.129-.2-4.28.131-6.397 2.694-19.304 17.518-39.147 35.205-47.184 9.476-4.307 24.928-10.916 19.935-24.073-1.578-4.163-3.817-7.75-4.241-12.069-.038-.424-.09-.8-.119-1.22-.708-10.174 5.217-19.835 14.811-23.315a23.57 23.57 0 0 1 19.41 1.272 9.653 9.653 0 0 1 2.706 2.12c2.918.076 6.583.588 8.305 1.39 2.918 1.365 5.255 3.755 7.003 6.447a24.638 24.638 0 0 1 3.643 16.93 24.268 24.268 0 0 1-3.419 9.19 24.622 24.622 0 0 1-2.994 3.918c-.988 1.034-2.392 2.543-3.745 3.098a.085.085 0 0 0 .106 0l-.395 6.304c8.102-1.844 29.746-9.44 45.614-40.805a215.707 215.707 0 0 1 3.563-7.236c3.664-7.117 7.592-14.196 12.796-20.317 1.273-1.484 3.156-2.823 5.18-2.179 1.772.564 2.968 2.543 1.734 4.205l-8.517 11.632 2.719-.352a2.095 2.095 0 0 1 1.434 2.861l-1.723 4.087.815-.958a3.36 3.36 0 0 1 4.627-.48 3.356 3.356 0 0 1 .67 4.6l-4.487 5.795a6.586 6.586 0 0 1-2.235 1.822l-8.882 4.282c2.627 3.227 5.07 6.6 7.317 10.101a173.753 173.753 0 0 1-17.081 26.528c-10.935 14.077-26.68 29.813-45.902 36.391-.424 11.636-2.481 23.166-5.675 34.446h29.105l7.253-19.779a4.738 4.738 0 0 1 4.454-3.111h28.99c.505.002 1.005.1 1.473.288a3.887 3.887 0 0 1 2.405 3.586 3.965 3.965 0 0 1-.263 1.378l-1.922 4.993h-8.237l-3.325 9.521.946-2.403h4.088a3.886 3.886 0 0 1 3.585 5.383l-3.483 8.326a16.188 16.188 0 0 1-12.165 9.694l-.369.064-.682 2.017.352-.695c-.115.276-.246.577-.365.907h9.17s-2.036 5.935-5.781 6.291a4.126 4.126 0 0 1-.908-.03h-19.002a66.733 66.733 0 0 1 3.537 4.299c5.514-.08 13.535.508 15.52 4.357.342.383.654.791.933 1.221.76 1.272 1.01 4.24.828 8.525a69.08 69.08 0 0 1-1.108 13.183 166.748 166.748 0 0 1 2.774 5.439c1.931 3.606 3.673 7.31 5.218 11.097.053.1.097.206.131.314a326.273 326.273 0 0 1 12.169 32.505l.195.682c2.63 7.749 4.772 14.79 5.586 19.075l13.785-2.823a3.153 3.153 0 0 1 4.144 2.98Z" fill="#fff" fill-rule="evenodd" data-name="Path"/></g><g data-name="Group"><path d="M300.699 3497.856h9.167a16.496 16.496 0 0 1-1.43 2.967c-1.131 1.771-2.878 3.623-5.19 3.31h-27.81a4.882 4.882 0 0 1-2.993-1 4.94 4.94 0 0 1 .157-2.65c11.232-1.72 22.74-3.572 27.887-4.636l.97-.17-.758 2.179ZM322.53 3458.73a3.965 3.965 0 0 1-.262 1.377l-1.917 4.988h-8.175l-3.358 9.578-1.22 3.06h-26.645l6.173-16.808a4.749 4.749 0 0 1 4.457-3.111h28.976c.504 0 1.004.098 1.471.288.162.066.32.141.475.225.013.127.025.27.025.402Z" fill="#ffb34d" fill-rule="evenodd" data-name="Path"/><path d="M322.535 3458.725a3.982 3.982 0 0 1-.263 1.377l-1.92 4.989h-8.171l2.84-7.705a3.876 3.876 0 0 1 7.514 1.339ZM309.861 3497.856s-2.628 7.722-7.403 6.06c-2.968-1.02-2.523-3.975-1.747-6.077l9.15.017Z" fill="#ffb34d" fill-rule="evenodd" data-name="Path"/></g><path d="M302.976 3464.887h-13.367M301.682 3470.061h-13.367" stroke-linejoin="round" stroke-linecap="round" stroke-width="4.65" stroke="#fff" fill="transparent" data-name="Path"/><path d="M312.06 3551.95a130.57 130.57 0 0 0-8.06-16.193c1.239-6.557 2.083-18.042-.602-23.255-1.985-3.852-9.997-4.437-15.528-4.356-4.27-5.641-7.723-8.549-7.723-8.549s-25.712 4.162-31.582 4.196c-5.87.034-5.866 3.285-5.866 3.285s-4.089 12.328-8.712 18.452c-4.623 6.124-17.06 13.562-34.98 16.427-17.92 2.865-32.014-.665-35.246-2.462-3.232-1.797-3.338-.064 2.448 11.324 5.785 11.388 14.692 19.576 29.652 22.275a65.546 65.546 0 0 0 27.743-1.195s23.671-5.963 30.615-10.51c6.943-4.548 8.029 1.636 8.029 1.636l-.679 92.89 18.323 3.653 15.83-76.086 16.88 28.226 17.539-7.205c-2.066-10.837-12.674-39.414-18.082-52.552Z" fill="#ffb34d" fill-rule="evenodd" data-name="Path"/><path d="M264.096 3427.814a13.775 13.775 0 0 1-3.148 6.956 14.107 14.107 0 0 1-4.816 3.938c-.44.213-.898.388-1.369.523 0-1.465-.025-2.954-.105-4.406-.3-5.44-1.395-11.105-4.854-15.288a16.953 16.953 0 0 0-6.139-4.642c.068-1.005.148-2 .211-3.005.181-1.718.173-3.45-.025-5.166-.223-1.042-.35-2.101-.38-3.166.039-.992-.105-4.799.679-5.622 1.308.546 2.708.833 4.125.844 3.172-.025 5.692-1.975 7.39-4.47a7.303 7.303 0 0 1 1.93-.354c1.92.287-3.813 5.466-1.943 4.88-1.217.375-2.106 2.207-2.68 3.253-.842 1.621-1.33 3.529-.505 5.242.809 1.638 2.503 3.048 3.703 4.394a57.928 57.928 0 0 1 4.534 5.39c2.216 3.09 3.834 6.884 3.392 10.7Z" fill="#008379" fill-rule="evenodd" data-name="Path"/><g data-name="Group"><path d="M234.697 3412.606c3.037.189 6.015.918 8.796 2.154a17.083 17.083 0 0 1 6.175 4.665c3.482 4.207 4.585 9.894 4.886 15.36.08 1.471.119 2.968.106 4.427-.064 12.943-2.218 25.75-5.755 38.273H307.585l1.222-3.058.976-2.46h4.114a3.89 3.89 0 0 1 3.588 5.39l-3.482 8.33a16.21 16.21 0 0 1-12.168 9.693l-.37.068-.97.17c-5.15 1.064-16.66 2.918-27.895 4.64a2536.135 2536.135 0 0 1-25.082 3.744 68.107 68.107 0 0 1-5.514.577c-11.099.682-22.559-1.786-25.528-14.419-1.934-8.091-1.51-16.814-1.42-25.236M287.835 3508.565c7.184-.33 13.622.733 16.383 5.229 1.391 2.273 1.052 10.288-.381 21.466M167.474 3553.275a.28.28 0 0 1 .038.063c3.075 6.268 8.482 11.68 15.4 15.466 24.374 13.333 61.035-2.29 74.22-8.79a3.448 3.448 0 0 1 4.971 3.1v99.982l28.208 7.146a3.342 3.342 0 0 0 4.102-2.544 3.35 3.35 0 0 0-2.498-3.97l-12.168-4.007c.564-3.953 8.817-40.096 15.832-76.134" stroke-linejoin="round" stroke-linecap="round" stroke-width="2" stroke="#000" fill="transparent" data-name="Path"/><path d="M279.48 3499.176c7.21 6.107 12.388 15.495 17.236 23.472 11.811 19.435 20.646 40.588 27.508 62.233 2.074 6.539 3.983 13.146 5.785 19.753l13.776-2.829a3.147 3.147 0 0 1 2.082 5.937l-29.54 11.026s-8.644-16.144-20.723-35.198c-17.702-27.954-50.415-71.04-59.05-61.85M253.71 3403.514s28.967-2.006 48.825-41.313c0 0 6.277 4.33 15.026 17.874 0 0-24.548 49.816-63.007 62.962" stroke-linejoin="round" stroke-linecap="round" stroke-width="2" stroke="#000" fill="transparent" data-name="Path"/></g><path d="m251.233 3357.736 1.676 2.58 1.01 1.571a77.216 77.216 0 0 1 2.699 7.398l.05.178 1.92 7.427a.034.034 0 0 1 0 .026 7.85 7.85 0 0 0 2.593 2.635c.25.137.484.304.696.497 1.152 1.171-1.886 1.51-2.514 1.897a2.13 2.13 0 0 0-.91 1.727c-3.608 15.207-1.286 11.213-2.837 14.596 1.345-1.154 4.69-4.826 4.69-4.826.418-.275.812-1.103 1.085-1.515a27.027 27.027 0 0 0 2.225-4.244 22.49 22.49 0 0 0 1.257-14.04c-1.73-7.295-5.766-14.595-13.64-15.907ZM250.698 3362.074a8.583 8.583 0 0 1-2.155 4.211 17.012 17.012 0 0 1-4.116 3.299c-2.887 1.723-6.101 3.026-8.527 5.353a13.375 13.375 0 0 0-4.07 8.894c-.169 3.455 1.064 7.034 1.813 10.269 2.375 10.456 1.613 20.505.3 31.029-1.244 9.93-3.895 19.647-9.035 28.29-6.063 10.189-16.018 18.344-27.221 22.53-9.315 3.485-27.416 6.575-34.263-3.12-1.181-3.062-1.194-6.564-.736-9.862 2.688-19.35 17.487-39.21 35.143-47.259 9.459-4.313 24.884-10.94 19.9-24.121-1.588-4.156-3.81-7.744-4.234-12.087-.038-.394-.076-.79-.114-1.21-.712-10.188 5.203-19.859 14.781-23.348a23.41 23.41 0 0 1 19.375 1.273 9.836 9.836 0 0 1 2.77 2.2c.053.06.101.125.143.195.06.15.108.305.144.462.234.984.269 2.004.102 3.002Z" fill="#008379" fill-rule="evenodd" data-name="Path"/><g data-name="Group"><path d="M254.6 3439.02c5.125-1.184 9.622-4.852 10.907-10.213 1.197-4.966-.695-10.063-3.627-14.058-2.72-3.69-8.383-6.786-7.938-12.02.144-1.696.984-3.18 2.079-4.495.394-.458.802-.882 1.247-1.314M244.031 3397.853l-.237 17.316M215.775 3389.171c-1.582-4.156-3.818-7.74-4.242-12.074a33.49 33.49 0 0 1-.11-1.221c-.718-10.178 5.214-19.835 14.806-23.325a23.546 23.546 0 0 1 19.419 1.272 9.846 9.846 0 0 1 2.766 2.201l.2.242a7.657 7.657 0 0 1 1.624 6.128 8.57 8.57 0 0 1-2.147 4.198 17.275 17.275 0 0 1-4.132 3.308c-2.893 1.722-6.11 3.016-8.549 5.34a13.331 13.331 0 0 0-4.064 8.906c-.174 3.452 1.065 7.023 1.803 10.263 2.38 10.445 1.62 20.48.305 30.989-1.247 9.92-3.899 19.631-9.058 28.266-6.075 10.178-16.045 18.33-27.275 22.507-9.517 3.545-28.176 6.683-34.73-3.694-2.202-3.482-2.347-7.888-1.778-11.968 2.694-19.326 17.53-39.174 35.214-47.21 9.495-4.36 24.95-10.964 19.948-24.128Z" stroke-linejoin="round" stroke-linecap="round" stroke-width="2" stroke="#000" fill="transparent" data-name="Path"/></g><path d="M251.098 3375.576a1.714 1.714 0 1 1 0 .1z" fill-rule="evenodd" data-name="Oval"/><g data-name="Group"><g data-name="Group"><g data-name="Group"><path d="M252 3370.475s-5.583 2.517-3.815 7.412" stroke-linejoin="round" stroke-linecap="round" stroke-width="2" stroke="#000" fill="transparent" data-name="Path"/><path d="M257.16 3397.003c1.4-.509 2.892-2.12 3.91-3.174a25.275 25.275 0 0 0 3.001-3.903 24.285 24.285 0 0 0-.233-26.117c-1.747-2.695-4.074-5.085-6.991-6.441a13.344 13.344 0 0 0-7.806-1.102 23.562 23.562 0 0 1 3.96 4.128 19.489 19.489 0 0 1 3.545 7.67c.093.487.173.97.258 1.462.424 2.619.662 5.271 1.946 7.416a7.96 7.96 0 0 0 2.637 2.657c.254.136.49.303.704.495 1.166 1.17-1.908 1.505-2.544 1.89-1.632.954-1.026 3.691-1.242 5.276a17.589 17.589 0 0 1-1.64 5.323c-.293.595-.626 1.17-.997 1.72-1.696 2.513-4.24 4.48-7.436 4.496-1.423-.012-2.83-.3-4.143-.847a15.992 15.992 0 0 1-5.888-4.14" stroke-linejoin="round" stroke-linecap="round" stroke-width="2" stroke="#000" fill="transparent" data-name="Path"/><path d="M254.09 3388.235s-3.845 2.19-5.51-2.852" stroke-linejoin="round" stroke-linecap="round" stroke-width="2" stroke="#000" fill="transparent" data-name="Path"/></g><path d="m309.614 3370.58 9.581-4.627a6.236 6.236 0 0 0 2.235-1.813l4.472-5.802a3.355 3.355 0 0 0-.646-4.628 3.359 3.359 0 0 0-4.649.505l-.818.953 1.725-4.08a2.118 2.118 0 0 0-1.428-2.87l-2.726.36 8.521-11.631c1.209-1.649.034-3.64-1.734-4.204-2.035-.649-3.917.69-5.18 2.174-5.198 6.119-9.137 13.196-12.796 20.315a225.654 225.654 0 0 0-3.557 7.238" stroke-linejoin="round" stroke-linecap="round" stroke-width="2" stroke="#000" fill="transparent" data-name="Path"/><g data-name="Group"><path d="M317.364 3348.579s-5.558 6.912 2.43 6.59M301.889 3495.55s-4.121 6.682.678 8.322c4.8 1.64 7.424-6.072 7.424-6.072h-9.264M303.364 3504.067h-19.112M322.66 3458.67a3.982 3.982 0 0 1-.264 1.376l-1.916 4.988h-8.17l2.836-7.704a3.875 3.875 0 0 1 7.513 1.34h0Z" stroke-linejoin="round" stroke-linecap="round" stroke-width="2" stroke="#000" fill="transparent" data-name="Path"/><path d="m282.768 3465.034-4.664 12.633 7.237-19.76a4.744 4.744 0 0 1 4.465-3.111h28.974M307.672 3477.667l4.638-12.633M160.746 3466.822c-12.783 34.397-6.924 68.583-6.924 68.583 19.308 10.738 46.684 9.806 66.292.368 6.936-3.347 14.415-8.39 17.442-15.78 2.222-5.412 4.532-10.781 6.436-16.27M149.723 3574.145h112.491M249.012 3477.68l-1.213 4.097" stroke-linejoin="round" stroke-linecap="round" stroke-width="2" stroke="#000" fill="transparent" data-name="Path"/><path d="M167.64 3553.47s-4.952-8.831-6.563-14.71" stroke-linejoin="round" stroke-linecap="round" stroke-width="2" stroke="#000" fill="transparent" data-name="Path"/></g></g><g data-name="Group"><path d="M192.081 3303.901v87.88h-33.035c1.088-3.477 2-6.994 2.734-10.55 2.256-10.951 2.926-22.257 2.574-33.678-.657-21.913 8.288-33.977 20.172-40.397a46.47 46.47 0 0 1 7.555-3.255h0Z" stroke-linejoin="round" stroke-linecap="round" stroke-width="4" stroke="#ccdde2" fill="transparent" data-name="Path"/><path d="M184.526 3307.156v74.074h-22.758c2.255-10.95 2.925-22.256 2.573-33.677-.644-21.913 8.301-33.969 20.185-40.397Z" stroke-linejoin="round" stroke-linecap="round" stroke-width="4" stroke="#ccdde2" fill="transparent" data-name="Path"/></g></g></g></g></svg>