<svg xmlns="http://www.w3.org/2000/svg" width="368" height="381.295" viewBox="883 2519.705 368 381.295"><g data-name="Shopping, e-commerce, sale | store, shop, smartphone, discount, happy, savings, gift"><g data-name="Group"><path d="M1178.97 2601.506h-.153a4.55 4.55 0 1 1 .148-9.1h.152a4.55 4.55 0 1 1-.148 9.1Z" fill="#fff" fill-rule="evenodd" data-name="Shape"/><g data-name="Group"><path d="M1129.786 2585.771a16.48 16.48 0 0 1 8.749-2.63c.538 0 1.063.029 1.58.076a58.597 58.597 0 0 0-.847-3.186 8.003 8.003 0 0 1-4.292-5.75c-.399.07-.802.105-1.207.107a7.435 7.435 0 0 1-4.067-1.195 7.673 7.673 0 0 1-.877-.246c-.38.067-.763.103-1.148.106a7.448 7.448 0 0 1-5.245-2.118l-3.673 1.27s9.422 4.754 11.027 13.566Z" fill="#008379" fill-rule="evenodd" data-name="Path"/><path d="M1130.884 2861.689c-.005 14.07-11.409 25.476-25.48 25.483H984.112c-14.072-.005-25.479-11.411-25.483-25.483v-264.682a25.487 25.487 0 0 1 25.483-25.505h16.209a11.015 11.015 0 0 1 7.778 3.22 10.858 10.858 0 0 1 3.186 7.054c.024.221.036.443.034.665v.564a11.502 11.502 0 0 0 1.229 4.639c.021.034.034.08.055.114a10.54 10.54 0 0 0 9.426 5.75h45.15a10.985 10.985 0 0 0 7.791-3.225c.782-.78 1.435-1.68 1.936-2.665a.161.161 0 0 0 .047-.067 10.592 10.592 0 0 0 1.216-4.567v-.424c.034-6.063 4.66-11.07 10.731-11.07h13.688l14.405-.178c.292-2.754 1.466-5.652 2.677-8.21.404-.887.882-1.737 1.428-2.543H985.15a33.418 33.418 0 0 0-33.423 33.423v273.595A33.414 33.414 0 0 0 985.15 2901h122.904a33.422 33.422 0 0 0 33.426-33.423v-18.84l-10.591 6.037-.004 6.915Z" fill="#008379" fill-rule="evenodd" data-name="Path"/><path d="M1134.578 2651.96c-1.271-1.31-2.5.724-3.694-.665v100.674a66.993 66.993 0 0 1 2.758-8.08c.245-.575.491-1.156.745-1.728a83.263 83.263 0 0 1 1.695-3.503c.161-.33.326-.644.5-.958.174-.313.385-.716.585-1.055.339-.618.703-1.237 1.076-1.843.254-.457.538-.898.817-1.343.208-.351.424-.69.653-1.017.246-.398.512-.792.77-1.177.319-.479.653-.958.984-1.428v-71.713a71.136 71.136 0 0 1-3.737-3.105c-1.089-.983-2.14-2-3.152-3.06ZM1140.467 2581.984c-1.466 1.847-3.283.296-5.647.296-2.153 0-3.39 3.483-4.754 2.08.076.187-.69 2.966-.627 3.153.208.559.394 1.143.56 1.728v.021c.211.75.372 1.496.512 2.267.034.174.072.364.093.55.06.395.119.806.153 1.212.046.377.073.756.08 1.136.038.423.047.885.047 1.343v29.656c.346.289.633.641.847 1.038 1.695 3.093 3.317.775 5.13 3.813.967 1.567 2.966 2.792 3.991 1.656.377-.423.61-2.237.61-2.914v-35.834c0-1.701-.126-3.4-.377-5.084-.076-.64-.483-5.47-.618-6.117Z" fill="#008379" fill-rule="evenodd" data-name="Path"/><path d="M1011.331 2581.86a10.337 10.337 0 0 1 1.229 4.636 11.498 11.498 0 0 1-1.229-4.635ZM1078.168 2581.835a10.592 10.592 0 0 1-1.216 4.568 11.4 11.4 0 0 1 1.216-4.568Z" fill="#3fbdf1" fill-rule="evenodd" data-name="Path"/></g><path d="M1240.358 2711.098c-40.477 12.638-61.402-18.314-61.402-18.314 1.53-2.267-.783-6.529-.783-6.529l-1.407-7.202c-17.883-.877-34.062-18.307-34.062-18.307 23.136-4.1 13.163-17.959 13.163-17.959l15.95 12.49 1.73-.153c.211-21.606 13.815-31.698 18.077-35.117 4.262-3.419 4.99-.025 4.99-.025s-1.872 6.914 6.118 7.871c7.99.958 13.841-6.528 13.841-6.528 2.741-6.143 5.898-2.335 5.898-2.335 13.697 7.287 16.175 25.318 19.115 37.918 2.03 8.634 5.893 27.241 8.473 36.308a14.531 14.531 0 0 1-.512 9.511 14.633 14.633 0 0 1-9.19 8.371Z" fill="#353642" fill-rule="evenodd" data-name="Path"/><path d="M1240.358 2711.098c-40.477 12.638-61.402-18.314-61.402-18.314 1.53-2.267-.783-6.529-.783-6.529l-1.407-7.202c-17.883-.877-34.062-18.307-34.062-18.307 15.328-7.664 13.163-17.959 13.163-17.959l15.95 12.49 1.73-.153c.211-21.606 13.815-31.698 18.077-35.117 4.262-3.419 4.99-.025 4.99-.025s-1.872 6.914 6.118 7.871c7.99.958 13.841-6.528 13.841-6.528 2.741-6.143 5.898-2.335 5.898-2.335 13.697 7.287 16.175 25.318 19.115 37.918 2.03 8.634 5.893 27.241 8.473 36.308a14.531 14.531 0 0 1-.512 9.511 14.633 14.633 0 0 1-9.19 8.371Z" fill="#008379" fill-rule="evenodd" data-name="Path"/><path d="M1188.07 2597.31a4.58 4.58 0 1 1 0 .1z" fill="#d7e8f0" fill-rule="evenodd" data-name="Oval"/><path d="M1198.89 2606.632c-.399 2.932-2.885 4.847-5.478 4.423" stroke-linejoin="round" stroke-linecap="round" stroke-width="2" stroke="#000" fill="transparent" data-name="Path"/><path d="M1168.191 2581.094a9.744 9.744 0 0 0 8.452 7.605 5.164 5.164 0 0 1 1.11-2.208c2.313-2.63 3.19 2.403 10.511-1.05 10.168-4.8 13.909-1.86 13.909-1.86.33.258.246 2.572.284 2.966.22 2.393.424 4.778.673 7.172.145 1.458.284 2.906.424 4.355.142-.241.298-.475.466-.699.983-3.224 3.716-6.999 7.202-5.278a5.02 5.02 0 0 1 1.788 1.529c2.275 3.118.424 6.05-2.046 8.198a12.71 12.71 0 0 1-2.08 1.788c.385.847 1.966 4.177 1.966 4.19.16.339 6.037-6.05 6.477-6.75a16.417 16.417 0 0 0 1.123-5.397c.246-7.6-2.673-16.523-8.749-20.996-1.504-1.11-2.029-2.161-2.118-3.631a.394.394 0 0 0-.699-.225c-1.974 2.186-6.749 1.869-6.749 1.869-16.523-4.483-22.225 2.779-25.589 4.02a6.3 6.3 0 0 1-4.237 0 2.542 2.542 0 0 1-1.775 1.95l.072.77a2.567 2.567 0 0 1-.415 1.682Z" fill="#008379" fill-rule="evenodd" data-name="Path"/><path d="M1203.643 2612.229c-1.089.847-4.13 3.287-5.346 4.012-.892.539-1.83 1-2.8 1.377-7.313 2.758-14.168-3.512-16.68-9.787-2.068-5.173-2.542-10.951-2.394-16.476.025-.572.047-1.156.093-1.741a.313.313 0 0 1 0-.106c.022-.266.062-.531.119-.792a5.118 5.118 0 0 1 1.11-2.208c2.309-2.626 3.186 2.407 10.507-1.05 10.167-4.8 13.913-1.86 13.913-1.86.326.258.241 2.572.28 2.966.22 2.397.423 4.778.677 7.172.14 1.462.28 2.906.424 4.355.034.399.072.784.106 1.178a8.918 8.918 0 0 1 .36-1.89c.983-3.223 3.715-6.994 7.202-5.278a5.02 5.02 0 0 1 1.788 1.53c2.275 3.117.423 6.049-2.046 8.197a18.556 18.556 0 0 1-1.983 1.483l-.187.118.094.187c.385.847 1.961 4.181 1.961 4.19.161.339 6.037-6.046 6.482-6.75a18.111 18.111 0 0 0 2.8-7.845c.039-.352.06-.69.073-1.042.245-7.6-2.674-16.523-8.749-20.997-1.508-1.11-2.034-2.16-2.118-3.63a.394.394 0 0 0-.7-.225c-1.974 2.186-6.753 1.868-6.753 1.868-16.501-4.482-22.225 2.78-25.584 4.02-3.36 1.242-6.309-1.05-6.309-1.05l.352 3.758c.023.258.008.518-.047.77a2.542 2.542 0 0 1-1.775 1.95 1.784 1.784 0 0 1-.525.105h-.131c.032.783.134 1.562.305 2.326a9.744 9.744 0 0 0 8.473 7.605" stroke-linejoin="round" stroke-linecap="round" stroke-width="2" stroke="#000" fill="transparent" data-name="Path"/><path d="M1174.38 2596.86a4.58 4.58 0 1 1 0 .1z" fill="#d7e8f0" fill-rule="evenodd" data-name="Oval"/><path d="M1194.56 2599.12a1.881 1.881 0 1 1-1.881-1.868c.182-.004.364.024.538.08a.94.94 0 0 0-.292.666.91.91 0 0 0 .91.902.881.881 0 0 0 .644-.283c.055.162.083.332.08.504ZM1181.244 2598.506a1.873 1.873 0 1 1-1.165-1.737.949.949 0 0 0-.424.772.902.902 0 0 0 .911.898.873.873 0 0 0 .632-.259c.028.107.044.216.046.326Z" fill-rule="evenodd" data-name="Path"/><g data-name="Group"><path d="M1185.892 2597.337s-1.174 5.215-1.314 5.74c-.423 1.695 2.94 1.17 2.94 1.17M1190.196 2587.491s5.529-2.071 8.605 2.08M1171.818 2591.639s2.847-5.173 7.88-4.025" stroke-linejoin="round" stroke-linecap="round" stroke-width="2" stroke="#000" fill="transparent" data-name="Path"/><path d="M1187.239 2597.31a5.41 5.41 0 1 1 0 .1zM1173.55 2596.86a5.41 5.41 0 1 1 0 .1z" stroke-linejoin="round" stroke-linecap="round" stroke-width="2" stroke="#000" fill="transparent" data-name="Oval"/></g><path d="m1187.239 2597.231-2.872-.093" stroke-linejoin="round" stroke-linecap="round" stroke-width="4.13" stroke="#000" fill="transparent" data-name="Path"/><path d="m1191.298 2791.056-5.745 35.19-6.224-.933a5.194 5.194 0 0 1-4.334-5.863l.462-3.775 4.237-31.054c6.897 4.041 11.604 6.435 11.604 6.435ZM1162.874 2836.536l-21.395 12.286-10.591 6.096-3.245 1.869a.92.92 0 0 0 0-.187l-2.542 1.45-3.27-6.284a6.236 6.236 0 0 1 2.537-8.384l37.07-20.297.034.339 1.402 13.112Z" fill="#008379" fill-rule="evenodd" data-name="Path"/><g data-name="Group"><path d="M1131.587 2749.575a13.194 13.194 0 0 0-.703-.885c-1.343-1.614-2.66-2.699-3.55-4.533a7.626 7.626 0 0 1 1.834-8.982 7.397 7.397 0 0 1 1.695-1.097M1176.703 2806.02l-1.246 9.646-.479 3.775a5.194 5.194 0 0 0 4.334 5.864l6.224.932 5.745-35.19s-4.707-2.393-11.596-6.443c-4.927-2.898-11.015-6.648-17.26-10.969" stroke-linejoin="round" stroke-linecap="round" stroke-width="2" stroke="#000" fill="transparent" data-name="Path"/><path d="M1175.643 2814.353s-6.719-3.622-15.251-8.838" stroke-linejoin="round" stroke-linecap="round" stroke-width="2" stroke="#000" fill="transparent" data-name="Path"/></g><g data-name="Group"><path d="M1130.884 2651.833v100.136c-1.856 6.855-2.741 13.98-3.212 21.15v-121.032c1.043 1.356 2.114-1.55 3.212-.254ZM1130.884 2854.774v5.758c-.005 14.07-11.409 25.476-25.48 25.483H984.112c-14.072-.005-25.479-11.411-25.483-25.483V2595.85a25.487 25.487 0 0 1 25.483-25.504h16.209c.744.002 1.486.076 2.216.22.488.102.969.235 1.44.398.208.08.424.161.619.246.33.137.653.293.966.466.376.203.74.43 1.089.678.233.16.453.326.665.5.211.174.538.47.783.712l1.695 2.186c.156.26.297.529.424.805l.618 1.563c.085.284.166.563.225.847l.152.886c.022.118.034.245.047.364.004.058.004.116 0 .174.025.28.047.55.047.847v.619a.233.233 0 0 0-.047-.072 9.986 9.986 0 0 0-1.822-2.453 10.592 10.592 0 0 0-7.486-3.106h-15.586a24.538 24.538 0 0 0-24.526 24.572v254.807c0 13.547 10.978 24.531 24.526 24.538h116.786c13.08-.003 23.855-10.27 24.487-23.335a.917.917 0 0 0 0-.186l3.246-1.848Z" fill="#d7e8f0" fill-rule="evenodd" data-name="Path"/><path d="M1076.952 2586.403v.478c-.033 5.827-4.765 10.533-10.592 10.532h-43.48c-5.86 0-10.287-4.787-10.312-10.65v-.267a10.545 10.545 0 0 0 9.482 5.863h45.128a10.986 10.986 0 0 0 7.791-3.224c.8-.801 1.469-1.723 1.983-2.732Z" fill="#d7e8f0" fill-rule="evenodd" data-name="Path"/></g><g data-name="Group"><path d="M1141.48 2695.071c15.069-3.063 29.698-6.227 37.476-6.122M1127.232 2782.375c-22.844-18.408-43.574-42.019-34.664-62.587 5.36-12.4 21.221-19.158 38.316-22.823" stroke-linejoin="round" stroke-linecap="round" stroke-width="2" stroke="#000" fill="transparent" data-name="Path"/><path d="M1176.876 2679.875c.373 1.343 2.08 9.079 2.5 10.477 1.55 5.046-18.184 18.395-21.526 21.395-6 5.35-11.676 11.375-16.37 18.09a73.12 73.12 0 0 0-7.838 14.053 66.994 66.994 0 0 0-2.758 8.079c-1.856 6.855-2.741 13.98-3.212 21.15-.372 5.43-.512 10.883-.665 16.208a319.38 319.38 0 0 0 .517 30.682c.047.644.093 1.27.148 1.915a110.774 110.774 0 0 0 3.063 17.925v.038M1173.957 2656.006c.64-19.84 9.647-30.432 17.667-36.011a25.682 25.682 0 0 1 4.99-2.665M1218.628 2617.198c.373.14.733.293 1.097.445l.399.174c.879.384 1.736.816 2.567 1.296a24.293 24.293 0 0 1 7.359 6.47.92.92 0 0 1 .186.258c.348.492.687.991 1.017 1.508 2.932 4.66 5.664 10.952 7.753 18.218a101.107 101.107 0 0 1 2.58 11.341" stroke-linejoin="round" stroke-linecap="round" stroke-width="2" stroke="#000" fill="transparent" data-name="Path"/><path d="M1241.586 2656.904c2.03 8.634 5.898 27.245 8.473 36.308.904 3.139.723 6.49-.512 9.515a14.633 14.633 0 0 1-9.19 8.371l-7.663 1.856a3.567 3.567 0 0 0-2.004 1.33 51.58 51.58 0 0 1-5.766 6.423c-33.156 31.215-73.052-1.097-63.486 102.386l.034.339a515.19 515.19 0 0 0 1.402 13.104l-21.395 12.201-10.591 6.037-3.233 1.848-2.542 1.449-3.27-6.283a6.236 6.236 0 0 1 2.525-8.406l3.304-1.834 3.063-1.695.149-.08 10.591-5.864 2.254-1.27" stroke-linejoin="round" stroke-linecap="round" stroke-width="2" stroke="#000" fill="transparent" data-name="Path"/><path d="M1141.484 2848.737v17.68c-.003 18.464-14.971 33.43-33.436 33.43H981.463a33.431 33.431 0 0 1-33.435-33.43V2590.93a33.431 33.431 0 0 1 33.435-33.43h141.964" stroke-linejoin="round" stroke-linecap="round" stroke-width="2" stroke="#000" fill="transparent" data-name="Path"/><path d="M1141.48 2590.931a33.706 33.706 0 0 0-.691-6.829s-.619-3.74-1.212-4.779" stroke-linejoin="round" stroke-linecap="round" stroke-width="4.13" stroke="#000" fill="transparent" data-name="Path"/><path d="M1141.48 2729.824V2658.844M1141.48 2590.936V2633.818M1175.457 2644.262v-.03a49.865 49.865 0 0 1-10.168-6.105 62.621 62.621 0 0 1-24.026-42.463M1130.892 2742.225v-90.426M1130.892 2626.392v-30.538c0-5.562-.487-12.154-3.482-16.353 0 0-7.266-9.164-14.65-9.164h-23.564" stroke-linejoin="round" stroke-linecap="round" stroke-width="2" stroke="#000" fill="transparent" data-name="Path"/><path d="M1098.69 2570.337h-9.494c-6.084 0-11.016 4.932-11.016 11.015 0 6.084-4.931 11.016-11.015 11.016h-44.832c-6.083 0-11.015-4.932-11.015-11.016 0-6.083-4.931-11.015-11.015-11.015h-16.192c-14.085.01-25.497 11.433-25.492 25.517v264.678c.007 14.075 11.417 25.483 25.492 25.487h121.29c14.075-.004 25.484-11.412 25.491-25.487v-5.753M1138.874 2559.072c4.614 1.974 8.922 8.503 11.015 12.871 3.88 8.105 7.266 14.307 11.863 22.03 3.935 6.622 7.545 13.795 13.735 18.641a20.666 20.666 0 0 0 11.438 4.436" stroke-linejoin="round" stroke-linecap="round" stroke-width="2" stroke="#000" fill="transparent" data-name="Path"/></g><path d="M1013.619 2570.346a50.649 50.649 0 0 1-78.585 42.226c-20.534-17.28-24.02-47.578-7.946-69.07 16.073-21.49 46.122-26.71 68.5-11.896a50.517 50.517 0 0 1 18.03 38.74Z" fill="#ffb34d" fill-rule="evenodd" data-name="Path"/><path d="M1008.111 2570.545a44.857 44.857 0 0 1-69.599 37.405c-18.138-15.316-21.201-42.113-6.987-61.127 14.215-19.013 40.783-23.658 60.606-10.595a44.764 44.764 0 0 1 15.98 34.317Z" fill="#ffb34d" fill-rule="evenodd" data-name="Path"/><g data-name="Group"><path d="m1062.624 2680.739-36.91 5.563a6.063 6.063 0 0 1-7.566-5.872l3.86-31.716h55.045c.936 0 1.695.76 1.695 1.695l-5.266 19.87a15.252 15.252 0 0 1-10.858 10.46Z" fill="#ffb34d" fill-rule="evenodd" data-name="Path"/><path d="M1024.825 2698.95a6.291 6.291 0 1 1 0 .1zM1048.71 2698.95a6.291 6.291 0 1 1 0 .1z" fill="#ffb34d" fill-rule="evenodd" data-name="Oval"/><path d="m1027.002 2655.362-5.732-.767 1.61-12.057a5.228 5.228 0 0 0-5.317-5.932l-4.94.127a2.894 2.894 0 0 1-.152-5.783l4.944-.127c3.5-.11 6.84 1.465 8.981 4.237a11.481 11.481 0 0 1 2.165 8.609l-1.559 11.693Z" fill="#ffb34d" fill-rule="evenodd" data-name="Path"/><path d="M1011.397 2723.77h66.722a20.728 20.728 0 0 1 20.727 20.728 20.728 20.728 0 0 1-20.727 20.727h-66.722a20.728 20.728 0 0 1-20.728-20.727 20.728 20.728 0 0 1 20.728-20.728z" fill="#ffb34d" fill-rule="evenodd" data-name="Rectangle"/></g><path d="M956.946 2789.844c11.693-3.39 21.725-16.188 7.685-26.78a19.17 19.17 0 0 0-1.449-.982 6.52 6.52 0 0 1 5.931-1.716c.034 0 .08 0 .115.025a.746.746 0 0 1 .211.055c1.53.352 3.237 1.182 5.14 2.619 14.018 10.591-5.368 24.339-17.633 26.78Z" fill="#ffb34d" fill-rule="evenodd" data-name="Path"/><g data-name="Group"><path d="m1014.78 2754.736-.022-21.17a43.42 43.42 0 0 1 6.83-.484c3.08 0 4.94.225 6.61 1.06a4.816 4.816 0 0 1 2.918 4.456c0 1.797-.996 3.563-3.529 4.525v.064c2.63.737 4.236 2.694 4.236 5.261a5.816 5.816 0 0 1-2.44 4.745c-1.605 1.22-4.296 1.928-8.897 1.928a32.513 32.513 0 0 1-5.707-.385Z" fill="#fff" fill-rule="evenodd" data-name="Shape"/><path d="M1040.78 2733.23v12.287c0 3.27 1.127 5.084 3.389 5.084 2.262 0 3.432-1.67 3.432-5.084v-12.286h5.842v11.947c0 6.672-3.339 10.036-9.401 10.036-5.902 0-9.045-3.237-9.045-10.168v-11.815h5.783ZM1062.416 2754.863v-8.724l-6.8-12.908h6.639l1.826 4.876c.58 1.508.996 2.597 1.479 4.008h.063c.424-1.314.847-2.542 1.381-4.008l1.763-4.876h6.54l-7.087 12.671v8.948l-5.804.013Z" fill="#fff" fill-rule="evenodd" data-name="Path"/></g><path d="M969.134 2760.366a6.52 6.52 0 0 0-5.93 1.716c-7.135 6.414-7.462 27.762-7.462 27.762h-1.893s-4.576-24.852 2.207-29.012h.025c.115-.047.598-.258 1.271-.491h.047a13.51 13.51 0 0 1 2.707-.632 28.025 28.025 0 0 1 9.028.657Z" fill="#d7e8f0" fill-rule="evenodd" data-name="Path"/><path d="M1013.619 2570.346c-.003 23.75-16.511 44.307-39.701 49.436-23.19 5.129-46.828-6.549-56.846-28.082-10.018-21.534-3.723-47.137 15.137-61.571 18.861-14.434 45.22-13.82 63.387 1.477a50.627 50.627 0 0 1 18.023 38.74h0Z" stroke-linejoin="round" stroke-linecap="round" stroke-width="2" stroke="#000" fill="transparent" data-name="Path"/><path d="M944.66 2832.986v22.03H895.09a4.376 4.376 0 0 1-4.38-4.461l.245-13.257a4.376 4.376 0 0 1 4.381-4.296l49.323-.016Z" fill="#f1f6f5" fill-rule="evenodd" data-name="Path"/><path d="M1023.295 2837.362v13.256a4.38 4.38 0 0 1-4.38 4.38H944.66v-22.03h74.254a4.38 4.38 0 0 1 4.381 4.394Z" fill="#ffb34d" fill-rule="evenodd" data-name="Path"/><path d="M952.124 2854.999v44.844h-47.496a7.677 7.677 0 0 1-7.66-7.625v-37.198l55.156-.021Z" fill="#f1f6f5" fill-rule="evenodd" data-name="Path"/><path d="M1014.767 2854.999v37.197a7.677 7.677 0 0 1-7.66 7.626h-54.983V2855h62.643Z" fill="#ffb34d" fill-rule="evenodd" data-name="Path"/><path d="m952.09 2584.797 17.37-31.44h4.335l-17.32 31.44h-4.384Zm13.469-9.308c0-5.164 3.33-9.575 9.011-9.575l.047.017c5.63 0 8.68 4.08 8.68 9.058 0 6.334-4.317 9.744-8.964 9.744-4.974 0-8.774-3.66-8.774-9.244Zm-22.903-12.625c0-5.207 3.334-9.621 9.011-9.621l.046.017c5.631 0 8.681 4.083 8.681 9.057 0 6.334-4.317 9.744-8.96 9.744-4.978 0-8.778-3.66-8.778-9.197Z" fill="#fff" fill-rule="evenodd" data-name="Shape"/><path d="M951.086 2789.611c-7.57 0-21.606-6.181-14.18-14.46a8.651 8.651 0 0 1 2.86-2.24l.06-.039h.025a17.794 17.794 0 0 1 5.626-1.567 8.244 8.244 0 0 1 1.881.06c-.991-.047-2.148.49-3.516 1.8-.242.22-.5.5-.767.792-7.41 8.261.36 14.99 8.011 15.654Z" fill="#d7e8f0" fill-rule="evenodd" data-name="Path"/><path d="m953.035 2789.234-1.177.225s-2.805-13.185-8.016-16.303c1.368-1.309 2.542-1.847 3.516-1.8.02.005.04.005.06 0l.423.059.149.034c4.859 1.495 5.045 17.785 5.045 17.785Z" fill="#ffb34d" fill-rule="evenodd" data-name="Path"/><g data-name="Group"><g data-name="Group"><path d="M952.12 2832.981h-56.77a4.38 4.38 0 0 0-4.38 4.305l-.238 13.256a4.38 4.38 0 0 0 4.38 4.461h123.798a4.38 4.38 0 0 0 4.38-4.385v-13.256a4.38 4.38 0 0 0-4.38-4.38h-81.948" stroke-linejoin="round" stroke-linecap="round" stroke-width="2" stroke="#000" fill="transparent" data-name="Path"/><path d="M1007.107 2899.848H904.624a7.681 7.681 0 0 1-7.656-7.66v-37.185h117.778v37.185a7.685 7.685 0 0 1-7.639 7.66h0Z" stroke-linejoin="round" stroke-linecap="round" stroke-width="2" stroke="#000" fill="transparent" data-name="Path"/></g></g><path d="M999.922 2792.67v8.55a2.826 2.826 0 0 1-2.826 2.825H949.18v-14.2h47.916a2.826 2.826 0 0 1 2.826 2.825Z" fill="#ffb34d" fill-rule="evenodd" data-name="Path"/><path d="M949.18 2789.844v14.201h-31.965a2.83 2.83 0 0 1-2.826-2.872l.153-8.562a2.822 2.822 0 0 1 2.825-2.767h31.813Z" fill="#f1f6f5" fill-rule="evenodd" data-name="Path"/><path d="M994.423 2804.045v24a4.957 4.957 0 0 1-4.953 4.94h-35.469v-28.94h40.422Z" fill="#ffb34d" fill-rule="evenodd" data-name="Path"/><path d="M954.001 2804.045v28.94H923.38a4.953 4.953 0 0 1-4.94-4.94v-24h35.562Z" fill="#f1f6f5" fill-rule="evenodd" data-name="Path"/><g data-name="Group"><g data-name="Group"><path d="M944.655 2832.981v22.022M952.12 2855.003v44.845M999.922 2792.67v8.55a2.826 2.826 0 0 1-2.826 2.825H949.18v-14.2h47.916a2.826 2.826 0 0 1 2.826 2.825h0ZM949.18 2789.844v14.201h-31.965a2.83 2.83 0 0 1-2.826-2.872l.153-8.562a2.822 2.822 0 0 1 2.825-2.767h31.813ZM994.423 2804.045v24a4.957 4.957 0 0 1-4.953 4.94h-35.469v-28.94h40.422Z" stroke-linejoin="round" stroke-linecap="round" stroke-width="2" stroke="#000" fill="transparent" data-name="Path"/><path d="M954.001 2804.045v28.94H923.38a4.953 4.953 0 0 1-4.94-4.94v-24h35.562ZM958.992 2789.84c11.714-3.39 29.74-16.18 15.726-26.771a13.824 13.824 0 0 0-5.139-2.623.619.619 0 0 0-.212-.05 6.503 6.503 0 0 0-6.045 1.694M963.322 2762.082c-7.139 6.418-7.46 27.758-7.46 27.758h-1.899s-7.062-38.324 9.359-27.758h0Z" stroke-linejoin="round" stroke-linecap="round" stroke-width="2" stroke="#000" fill="transparent" data-name="Path"/><path d="M957.09 2789.84h-1.229s.322-21.34 7.46-27.758c.499.304.98.634 1.445.987 14.04 10.591 4.013 23.403-7.676 26.771h0ZM956.378 2760.607c1.241-.45 2.528-.76 3.838-.923a28.114 28.114 0 0 1 9.342.758M950.07 2789.84c-7.673-.66-20.408-6.414-13.007-14.684a8.668 8.668 0 0 1 2.868-2.25.424.424 0 0 1 .123-.059 4.118 4.118 0 0 1 3.953.31" stroke-linejoin="round" stroke-linecap="round" stroke-width="2" stroke="#000" fill="transparent" data-name="Path"/><path d="M943.986 2773.156c5.21 3.11 8.003 16.307 8.003 16.307l1.178-.233s-.284-24.623-9.181-16.074Z" stroke-linejoin="round" stroke-linecap="round" stroke-width="2" stroke="#000" fill="transparent" data-name="Path"/><path d="m951.226 2789.611.763-.148s-2.792-13.197-8.003-16.307c-.246.22-.504.496-.775.788-7.414 8.274.36 14.998 8.015 15.667h0ZM948.117 2771.398a11.108 11.108 0 0 0-2.496-.106c-1.98.213-3.91.757-5.71 1.61" stroke-linejoin="round" stroke-linecap="round" stroke-width="2" stroke="#000" fill="transparent" data-name="Path"/></g><path d="m1199.182 2617.571 1.656 2.966s-2.423 5.389 4.072 6.32c6.495.933 15.044-5.452 15.277-9.667 9.977 3.855 15.252 13.557 15.345 23.945.17 25.716-32.918 41.307-55.03 38.977-11.112-1.165-21.606-6.067-30.367-12.985a62.313 62.313 0 0 1-3.39-2.843 66.552 66.552 0 0 1-6.227-6.503 98.97 98.97 0 0 1-2.915-3.64" stroke-linejoin="round" stroke-linecap="round" stroke-width="2" stroke="#000" fill="transparent" data-name="Path"/><g data-name="Group"><path d="m1213.362 2605.505 6.363 12.138M883 2899.843h368M1136.904 2558.348h-.055c-2.05.347-4.516 2.173-5.796 4.537-1.466 2.673-1.635 5.931-1.949 7.312-.034.157-.067.31-.084.45a2.766 2.766 0 0 0-.085.36l-.055.207a2.796 2.796 0 0 1-5.465-1.067l.118-.966c.038-.348.09-.674.157-1 .137-.946.345-1.881.623-2.796a3.88 3.88 0 0 1 .135-.424c.052-.219.121-.433.208-.64.04-.11.087-.22.14-.326M1142.106 2577.645c-1.282 1.23-2.508 1.842-3.677 1.84-.496 0-.985-.112-1.432-.327a3.5 3.5 0 0 1-1.114-.792c-1.06-1.09-1.017-2.915-.513-4.14a7.91 7.91 0 0 1 1.462-2.156c.19-.216.377-.424.542-.648a6.164 6.164 0 0 0 1.237-2.182c0-.047 0-.089.021-.136" stroke-linejoin="round" stroke-linecap="round" stroke-width="2" stroke="#000" fill="transparent" data-name="Path"/><path d="M1132.049 2557.161c.792.149 1.555.33 2.334.509.78.178 1.644.424 2.457.678 1.864.55 3.61 1.443 5.148 2.63 4.177 3.09 5.054 8.355 2.042 12.24M1129.104 2570.197c0 .039 0 .073-.02.12-.012.141-.031.283-.06.423l-.093.966a2.792 2.792 0 0 0 4.27 2.652 2.716 2.716 0 0 0 1.237-1.796c.08-.36.148-.75.242-1.119.339-1.432.466-2.711 1.533-3.813.3-.312.66-.562 1.055-.737.1-.043.203-.075.31-.097M1117.78 2567.664v-.11a16.646 16.646 0 0 1 1.432-5.296 10.947 10.947 0 0 1 1.885-2.86 8.05 8.05 0 0 1 4.66-2.592 16.045 16.045 0 0 1 1.56-.153 19.488 19.488 0 0 1 4.706.508c-1.27.098-3.448 1.458-5.02 3.17a8.82 8.82 0 0 0-1.56 2.198c-.198.424-.423.89-.58 1.339-.16.364-.3.733-.423 1.093a35.347 35.347 0 0 0-1.22 4.25 2.927 2.927 0 0 1-3.08 2.385 2.788 2.788 0 0 1-2.45-3.063l.086-.869" stroke-linejoin="round" stroke-linecap="round" stroke-width="2" stroke="#000" fill="transparent" data-name="Path"/></g><g data-name="Group"><path d="M1114.45 2641.851c-.72-1.445-1.186-3.029-.492-4.41 1.572-3.135 6.626-1.474 9.584-3.39 2.542-1.63 2.283-3.567 3.673-5.981 1.622-2.826 4.546-1.695 6.778-.289 2.852 1.784 9.08 8.05 19.065 14.223a81.3 81.3 0 0 1 8.897 6.401c7.85 6.47 27.407 17.68 44.408-12.477M1138.014 2654.646c-1.394-1.42-2.91-2.92-4.868-3.275-2.089-.386-4.173.601-6.287.703-5.207.237-9.07-4.614-11.752-9.083-.22-.36-.424-.746-.64-1.131" stroke-linejoin="round" stroke-linecap="round" stroke-width="2" stroke="#000" fill="transparent" data-name="Path"/><path d="M1125.592 2647.727s-4.978 2.674-7.096-.076M1115.543 2643.74s4.046 2.754 6.884.458M1113.666 2640.101s3.52 2.157 5.033.61" stroke-linejoin="round" stroke-linecap="round" stroke-width="2" stroke="#000" fill="transparent" data-name="Path"/></g></g></g></g></svg>