<svg xmlns="http://www.w3.org/2000/svg" width="296" height="320.162" viewBox="115 1901.95 296 320.162"><g data-name="Social media, Delivery, Business | fast, speed, account, graph, success, happy"><g data-name="Group"><path d="M199.279 2023.769h-26.015a5.51 5.51 0 0 1-5.51-5.517v-62.547a5.506 5.506 0 0 1 5.51-5.506h42.949a5.51 5.51 0 0 1 5.527 5.506v16.87" stroke-linejoin="round" stroke-linecap="round" stroke-width="4.5" stroke="#ccdde2" fill="transparent" data-name="Path"/><path d="M178.845 1957.779h32.35a6.47 6.47 0 0 1 6.47 6.47h0a6.47 6.47 0 0 1-6.47 6.47h-32.35a6.47 6.47 0 0 1-6.47-6.47h0a6.47 6.47 0 0 1 6.47-6.47z" stroke-linejoin="round" stroke-linecap="round" stroke-width="4.5" stroke="#ccdde2" fill="transparent" data-name="Rectangle"/><g data-name="Group"><path d="M193.403 1961.79a1.337 1.337 0 1 1 0 .1z" fill="#d7e8f0" fill-rule="evenodd" data-name="Oval"/><path d="M191.002 1967.948a3.742 3.742 0 1 1 7.47 0h-7.47Z" fill="#d7e8f0" fill-rule="evenodd" data-name="Path"/><path d="M189.916 1996.894a7.21 7.21 0 1 1 10.196-10.196 7.21 7.21 0 0 1-10.196 10.196Z" fill="#d7e8f0" fill-rule="evenodd" data-name="Shape"/></g><g data-name="Group"><path d="M176.903 1976.495h35.216M176.903 1979.963h35.216M176.903 2002.282h35.216M185.084 2005.561h18.854" stroke-linejoin="round" stroke-linecap="round" stroke-width="4.5" stroke="#ccdde2" fill="transparent" data-name="Path"/></g><g data-name="Group"><path d="M355.224 2010.402h24.498a22.88 22.88 0 0 1 22.88 22.88v62.713a22.88 22.88 0 0 1-22.88 22.88h-24.498a22.88 22.88 0 0 1-22.88-22.88v-62.713a22.88 22.88 0 0 1 22.88-22.88zM297.827 2010.402h8.105a22.88 22.88 0 0 1 22.88 22.88v62.713a22.88 22.88 0 0 1-22.88 22.88h-8.105a22.88 22.88 0 0 1-22.88-22.88v-62.713a22.88 22.88 0 0 1 22.88-22.88z" fill="#ffb34d" fill-rule="evenodd" data-name="Rectangle"/><path d="M278.06 2174.035h124.155a8.095 8.095 0 0 0 8.091-8.089v-154.114a8.088 8.088 0 0 0-8.091-8.092h-84.376l-22.052.132h-.064l-11.151.434h-.036l-2.934.113h-.26l-.217 1.747-.426 3.247c.01.013.01.03 0 .043l-3.472 5.143-.711 1.042-1.96 12.542v.06c-.043-.018-.085-.042-.139-.07a4.133 4.133 0 0 1-1.544-2.045c-.65-1.651-.807-3.839-.814-5.575l-.427 9.53v.035l-.594 12.73-.146 3.418c.278-.495.676-1.206 1.139-2.056l-1.476 9.433-.306 6.797-.762 17.176-.028.64v.245l-.2 4.183v.096l-.568 12.293-.054 1.138-.658 4.969-1.92 13.904v50.862a8.07 8.07 0 0 0 4.204 7.082c2.408 1.305 5.072 1.131 7.718 1.042a85.572 85.572 0 0 0 2.134-.092" fill="#ffb34d" fill-rule="evenodd" data-name="Path"/><path d="M273.347 2171.381c-.05 0-.104-.046-.164-.064a7.743 7.743 0 0 1-1.9-.996 7.854 7.854 0 0 1-3.304-6.423v-67.88l-1.92.922-.121.06-.26-.643-1.284-3.201-.356-.886-3.247-8.106s6.168-24.955 10.247-41.316a5678.62 5678.62 0 0 1 3.223-12.897c.156-.609.249-.964.266-1.025a.241.241 0 0 0 0-.043.768.768 0 0 0-.053-.355 2.76 2.76 0 0 0-.181-.38.267.267 0 0 0-.036-.072 16.945 16.945 0 0 0-1.423-2.056l-.675-8.37.11-.084.512-.41 3.5-2.774.815-2.155 1.597-4.19.71-1.868H284.594l11.318-.035h.971l21.473-.128h82.16a7.871 7.871 0 0 1 7.87 7.882v150.01a7.871 7.871 0 0 1-7.87 7.882H278.208" fill="#ffb34d" fill-rule="evenodd" data-name="Path"/></g><path d="m281.566 2003.95 2.91-.018h.06l11.169-.06h.078l22.053-.132h84.379a8.095 8.095 0 0 1 8.091 8.092v154.114a8.095 8.095 0 0 1-8.091 8.089H273.93a7.882 7.882 0 0 1-7.882-7.882v-16.828" stroke-linejoin="round" stroke-linecap="round" stroke-width="2" stroke="#000" fill="transparent" data-name="Path"/><path d="M294.398 2126.842h88.754a19.45 19.45 0 0 1 19.45 19.451 19.45 19.45 0 0 1-19.45 19.45h-88.754a19.45 19.45 0 0 1-19.45-19.45 19.45 19.45 0 0 1 19.45-19.45z" fill="#fff" fill-rule="evenodd" data-name="Rectangle"/><path d="M290.686 2135.507h61.96a7.75 7.75 0 0 1 7.75 7.75v6.63a7.75 7.75 0 0 1-7.75 7.75h-61.96a7.75 7.75 0 0 1-7.75-7.75v-6.63a7.75 7.75 0 0 1 7.75-7.75z" fill="#008379" fill-rule="evenodd" data-name="Rectangle"/><path d="M342.442 2142.439a2.29 2.29 0 1 1 0 .1z" fill="#fff" fill-rule="evenodd" data-name="Oval"/><path d="M338.337 2152.896a6.402 6.402 0 1 1 12.805 0h-12.805Z" fill="#fff" fill-rule="evenodd" data-name="Path"/><path d="M371.952 2154.756a11.276 11.276 0 1 1 15.953-15.94 11.276 11.276 0 0 1-15.953 15.94Z" fill="#008379" fill-rule="evenodd" data-name="Shape"/><path d="M391.91 2088.816a23.657 23.657 0 1 1-19.253-25.997 1.53 1.53 0 0 1 1.192 1.885l-.466 1.818-4.176 16.305a1.53 1.53 0 0 0 1.892 1.853l16.209-4.532 2.216-.619a1.53 1.53 0 0 1 1.9 1.107c.637 2.677.802 5.446.486 8.18Z" fill="#fff" fill-rule="evenodd" data-name="Path"/><path d="M392.469 2072.014a1.522 1.522 0 0 1-1.02 2.016l-1.527.427-13.2 3.689a1.53 1.53 0 0 1-1.891-1.853l3.41-13.275.328-1.273a1.519 1.519 0 0 1 1.952-1.067 19.893 19.893 0 0 1 11.948 11.336Z" fill="#fff" fill-rule="evenodd" data-name="Path"/><g data-name="Group"><path d="M361.581 2025.013a6.502 6.502 0 1 1 0 .1z" fill="#f1f6f5" fill-rule="evenodd" data-name="Oval"/><path d="M344.736 2039.483h47.331v1.302h-47.331v-1.302ZM344.736 2044.299h47.331v1.302h-47.331v-1.302ZM344.736 2048.688h47.331v1.302h-47.331v-1.302ZM283.448 2066.678h37.077v1.302h-37.077v-1.302ZM283.448 2071.932h37.077v1.302h-37.077v-1.302ZM283.448 2077.182h37.077v1.302h-37.077v-1.302ZM283.448 2082.435h37.077v1.302h-37.077v-1.302ZM283.448 2087.689h37.077v1.302h-37.077v-1.302Z" fill="#d7e8f0" fill-rule="evenodd" data-name="Path"/></g><path d="M278.362 2029.687s11.268 17.745 24.108 23.323c12.84 5.577 16.852 8.042 21.764 6.046 4.912-1.995 14.342-4.79 20.986-24.542 6.644-19.751 9.81-30.148 10.044-34.932.235-4.784-12.975-.853-12.975-.853s-7.114 20.967-22.7 30.325l-22.198-23.447-19.03 24.08ZM265.194 2056.958l9.07 2.461s-10.532 14.523-1.166 29.728c9.365 15.206 28.65 45.883 28.65 45.883l36.913 58.688-34.523-4.812-25.776-28.234-13.16-13.122-16.494-51.485 16.486-39.107Z" fill="#fff" fill-rule="evenodd" data-name="Path"/><g data-name="Group"><path d="M117.102 2132.007a3.977 3.977 0 0 0 4.98-.992l13.423-16.458 10.83-13.594-8.867-4.98a3.98 3.98 0 0 0-5.42 1.505l-16.526 29.024a3.998 3.998 0 0 0 1.58 5.495ZM321.428 2209.635l11.172 10.99a5.165 5.165 0 0 0 3.617 1.488h27.94a4.464 4.464 0 0 0 3.318-7.47 4.421 4.421 0 0 0-2.846-1.451l-15.497-1.59-27.704-1.967ZM219.404 2072.17s21.607 6.011 36.013 7.804c14.405 1.793 13.395-4.183 13.395-4.183l1.76-7.548c4.624-7.533 7.31-23.56 7.31-23.56l1.856-12.538 2.71 4.77 8.761 8.824.107.086c-.267-4.215-.064-10.137.917-18.204 2.263-18.674 9.753-16.508 9.753-16.508l-1.099-1.205c-5.175-8.611-21.697-17.713-26.975-19.89-5.278-2.177-3.02.907-2.347 3.201.672 2.294-1.249 8.75-8.942 5.463-7.694-3.286-8.081-10.435-8.081-10.435h-3.575c-21.928 2.635-33.079 14.33-33.079 14.33 23.294 5.495 17.948 25.254 17.948 25.254l-2.113 1.931c-8.27 7.17-8.846 14.085-8.13 16.966.714 2.881 5.815 6.758 15.024 9.006 9.208 2.248 10.883 2.252 12.964-1.729 2.081-3.98 4.507-4.47 7.825-5.068 3.319-.598 7.384 1.76 6.456 3.617-.928 1.857-1.6.235.711 5.25 2.312 5.015 1.238 7.566-4.98 12.186-6.217 4.62-33.86 2.027-33.86 2.027-13.221-3.656-10.33.153-10.33.153Z" fill="#008379" fill-rule="evenodd" data-name="Path"/></g><g data-name="Group"><path d="M269.943 1988.364v.95c6.18 1.544 12 4.277 17.137 8.045a59.352 59.352 0 0 1 2.443 1.878c.021-2.614-.203-5.24-1.046-7.715a11.496 11.496 0 0 0-3.702-5.41c-1.526-1.216-3.33-1.995-5.143-2.7-1.814-.703-3.596-1.322-5.261-2.272a11.382 11.382 0 0 1-3.596-3.095 3.244 3.244 0 0 1-.356-3.236 1.917 1.917 0 0 1-.48-.096l.004 13.65Z" fill="#3fbdf1" fill-rule="evenodd" data-name="Path"/><path d="M269.943 1988.364v.95c6.18 1.544 12 4.277 17.137 8.045a59.352 59.352 0 0 1 2.443 1.878c.021-2.614-.203-5.24-1.046-7.715a11.496 11.496 0 0 0-3.702-5.41c-1.526-1.216-3.33-1.995-5.143-2.7-1.814-.703-3.596-1.322-5.261-2.272a11.382 11.382 0 0 1-3.596-3.095 3.244 3.244 0 0 1-.356-3.236 1.917 1.917 0 0 1-.48-.096l.004 13.65ZM184.554 2047.415a25.847 25.847 0 0 0 7.64 3.745c1.177.363 2.372.662 3.581.896-4.776-11.257-1.202-26.068 13.872-41.86a89.854 89.854 0 0 1 8.227-7.619c4.684-3.81 8.846-6.648 13.754-8.931a60.038 60.038 0 0 1 6.758-2.636 61.395 61.395 0 0 1 12.581-2.763 44.39 44.39 0 0 1 2.902-.257 14.939 14.939 0 0 1 .14-5.015c.895-4.535 2.457-7.142 5.295-10.717 1.779-2.251 4.557-7.629.854-9.486-2.337-1.163-2.55-3.556-1.451-4.98.928-1.237 2.806-1.803 5.121-.355 1.601 1.024 3.5 1.089 5.336.587a11.82 11.82 0 0 0 3.628-3.287c2.689-3.852 2.785-9.688-1.423-12.516-2.294-1.547-5.218-1.92-7.96-1.622-1.228.135-2.438.4-3.61.79a.04.04 0 0 0-.032 0c-4.98 2.678-8.52 7.63-10.226 13.21-1.003 3.297-2.134 6.562-3.458 9.763-1.088 2.625-1.846 5.816-4.268 7.608a9.66 9.66 0 0 1-3.382 1.601c-4.578 2.902-10.927 1.227-15.931.608a25.538 25.538 0 0 0-11.887 1.195c-4.269 2.16-7.94 5.606-10.916 10.087-4.92 7.417.288 18.108-7.94 23.956-2.49 1.76-5.335 2.828-8.056 4.193-3.884 1.974-7.02 4.78-8.18 9.102-2.29 8.718 1.785 19.442 9.03 24.703Z" fill="#008379" fill-rule="evenodd" data-name="Path"/></g><path d="M385.71 2222.113H191.067" stroke-linejoin="round" stroke-linecap="round" stroke-width="2" stroke="#000" fill="transparent" data-name="Path"/><path d="M277.081 1951.227c.5 1.036.928 2.106 1.28 3.201.513 1.778-.042 2.881.737 4.578.267.587.65 1.579 1.067 2.582.117-.235.224-.427.288-.576 3.052-6.797-.96-10.073-2.892-11.194a9.483 9.483 0 0 1-.48 1.409Z" fill="#3fbdf1" fill-rule="evenodd" data-name="Path"/><path d="M277.081 1951.227c.5 1.036.928 2.106 1.28 3.201.513 1.778-.042 2.881.737 4.578.267.587.65 1.579 1.067 2.582.117-.235.224-.427.288-.576 3.052-6.797-.96-10.073-2.892-11.194a9.483 9.483 0 0 1-.48 1.409Z" fill="#3fbdf1" fill-rule="evenodd" data-name="Path"/><g data-name="Group"><path d="M209.459 2065.896c-1.864 14.697-.356 40.192 29.742 59.698 5.417 3.51 10.293 8.469 15.07 12.755a496.017 496.017 0 0 1 37.13 37.318c7.167 7.946 14.484 16.298 21.75 24.343a833.867 833.867 0 0 0 11.297 12.222c2.803 2.955 7.249 9.877 11.755 9.877h27.694c2.49 0 4.752-2.038 4.716-4.539a4.489 4.489 0 0 0-1.152-2.92 4.421 4.421 0 0 0-2.846-1.45l-15.497-1.59-74.875-119.077c-3.863-6.146-7.288-16.262-4.3-22.888 11.382-25.204 10.403-49.632 10.403-49.632" stroke-linejoin="round" stroke-linecap="round" stroke-width="2" stroke="#000" fill="transparent" data-name="Path"/><path d="M248.225 2133.255c-3.266 11.471-8.537 23.12-12.89 30.454a24.13 24.13 0 0 1-6.125 6.915c-8.92 6.832-21.53 6.103-30.084-1.178l-42.543-36.212-21.075-18.677-13.423 16.458a3.994 3.994 0 0 1-6.563-4.503l16.529-29.017a3.98 3.98 0 0 1 5.42-1.505l8.868 4.98 50.806 28.455a6.118 6.118 0 0 0 8.995-4.183l6.018-31.556M269.943 1972.6v16.6c1.611 2.347 2.422 5.69.885 8.18-2.06 3.34-6.605 2.785-9.486.918a22.03 22.03 0 0 1-2.422-1.814 13.904 13.904 0 0 1-4.667-8.686 14.938 14.938 0 0 1 .14-5.015c.903-4.531 2.46-7.135 5.302-10.72 1.779-2.24 4.553-7.626.847-9.483-4.343-2.166-1.334-8.504 3.67-5.335 3.885 2.465 9.465-.608 11.77-3.912 2.69-3.853 2.785-9.69-1.422-12.517-2.295-1.547-5.218-1.92-7.96-1.622-8.356.918-14.303 7.448-16.682 15.216-1.003 3.297-2.134 6.563-3.458 9.764-1.088 2.625-1.846 5.815-4.268 7.608-4.624 3.446-11.29 1.643-16.507 1.003-10.863-1.334-19.623 3.478-25.61 12.488-4.918 7.416.289 18.108-7.938 23.955-2.49 1.761-5.336 2.828-8.056 4.194-3.885 1.974-7.022 4.78-8.163 9.102-2.305 8.707 1.778 19.43 9.016 24.691 3.319 2.412 7.203 3.852 11.236 4.642" stroke-linejoin="round" stroke-linecap="round" stroke-width="2" stroke="#000" fill="transparent" data-name="Path"/><path d="M291.387 2001.265c.021-.2.028-.392.04-.58.18-3.44.16-7.004-.961-10.315-.688-2.122-1.975-4-3.707-5.406-1.529-1.213-3.332-2-5.14-2.704-1.806-.704-3.599-1.316-5.26-2.269a11.204 11.204 0 0 1-3.596-3.098 3.24 3.24 0 0 1-.355-3.226" stroke-linejoin="round" stroke-linecap="round" stroke-width="2" stroke="#000" fill="transparent" data-name="Path"/><path d="M266.574 1969.072c1.26 1.8 2.967 3.741 5.119 4.442 2.785.907 4.66-1.458 5.659-3.76.597-1.369 1.01-2.827 1.493-4.243.157-.466.253-.69.787-.711.533-.022 1.095.085 1.643.085a.22.22 0 0 0 .181-.338c-.736-1.12-1.835-4.175-2.39-5.399-.772-1.697-.213-2.796-.733-4.578a26.072 26.072 0 0 0-1.273-3.2" stroke-linejoin="round" stroke-linecap="round" stroke-width="2" stroke="#000" fill="transparent" data-name="Path"/><path d="M277.882 1948.08s7.593 2.912 3.67 11.666c-.242.53-.836 1.636-1.117 2.134" stroke-linejoin="round" stroke-linecap="round" stroke-width="2" stroke="#000" fill="transparent" data-name="Path"/></g><path d="M359.792 1923.12s.043.022.128.054" fill="#3fbdf1" fill-rule="evenodd" data-name="Path"/><g data-name="Group"><path d="M277.462 1969.502a2.522 2.522 0 0 1-2.778-1.843M278.746 1957.779c-1.572-1.28-3.297.355-4.35 1.543M254.264 1987.802a61.423 61.423 0 0 0-15.493 3.013c-8.181 2.681-13.815 6.142-20.499 11.566a90.323 90.323 0 0 0-8.227 7.63c-15.088 15.792-18.655 30.61-13.871 41.864 3.887 9.17 12.85 14.857 22.034 17.756 6.008 1.892 12.268 2.706 18.55 2.888 7.487.213 15.038-.071 22.407-1.494 3.106-.598 6.684-1.088 8.537-3.973 1.853-2.885 2.01-6.776.633-9.867-1.291-2.877-4.777-5.972-7.928-3.713a2.846 2.846 0 0 0-1.177 2.19" stroke-linejoin="round" stroke-linecap="round" stroke-width="2" stroke="#000" fill="transparent" data-name="Path"/><path d="M248.57 2006.831c.39 11.795-9.604 18.371-9.604 18.371-3.315 2.686-6.537 5.57-9.248 8.874-1.732 2.11-3.34 4.471-4.136 7.114a8.7 8.7 0 0 0 .028 5.545 9.792 9.792 0 0 0 3.244 4.169c2.696 2.11 5.976 3.201 9.227 4.147a81.247 81.247 0 0 0 10.919 2.326c2.134.306 3.034-.355 4.009-2.201.882-1.672 1.604-3.607 3.236-4.699 2.262-1.519 5.3-1.87 7.918-1.245 4.037.96 5.068 4.162 1.778 4.809" stroke-linejoin="round" stroke-linecap="round" stroke-width="2" stroke="#000" fill="transparent" data-name="Path"/></g><path d="m246.105 2086.85-61.338-14.822-14.597 60.41 59.637 14.824 1.914-.878 14.384-59.535Z" fill="#fff" fill-rule="evenodd" data-name="Path"/><path d="M217.803 2078.356c2.91-20.367 9.216-25.403 13.32-26.41l-.27-.15c-12.392-4.822-20.985 19.04-22.81 24.621l9.76 1.939Z" fill="#d7e8f0" fill-rule="evenodd" data-name="Path"/><path d="M217.632 2079.97c2.91-20.366 9.387-27.032 13.491-28.024l-.27-.15c-12.392-4.822-21.341 20.19-23.173 25.766l9.952 2.408Z" fill="#d7e8f0" fill-rule="evenodd" data-name="Path"/><path d="M230.853 2051.797c-14.014-5.45-23.173 25.765-23.173 25.765l9.96 2.408c5.786-31.3 18.203-25.609 18.203-25.609-.437-.131-4.99-2.564-4.99-2.564h0Z" stroke-linejoin="round" stroke-linecap="round" stroke-width="2" stroke="#000" fill="transparent" data-name="Path"/><path d="m170.172 2132.457 13.912-57.55 48.391 11.698-13.912 57.55-48.391-11.698Z" fill="#3fbdf1" fill-rule="evenodd" data-name="Path"/><path d="m170.173 2132.459 14.649-60.6 50.953 12.318-14.65 60.599-50.952-12.317Z" fill="#fff" fill-rule="evenodd" data-name="Path"/><path d="m173.537 2124.144 10.433-43.158a7.403 7.403 0 0 1 8.935-5.456l34 8.219a7.403 7.403 0 0 1 5.457 8.935l-10.433 43.158a7.403 7.403 0 0 1-8.936 5.456l-34-8.219a7.403 7.403 0 0 1-5.456-8.935Z" fill="#ffb34d" fill-rule="evenodd" data-name="Rectangle"/><path d="m170.174 2132.458 14.603-60.41 50.953 12.318-14.603 60.409-50.953-12.317Z" stroke-linejoin="round" stroke-linecap="round" stroke-width="2" stroke="#000" fill="transparent" data-name="Path"/><path d="m221.34 2144.823 14.604-60.409 10.171 2.459-14.603 60.409-10.171-2.46Z" fill="#fff" fill-rule="evenodd" data-name="Path"/><g data-name="Group"><path d="m221.34 2144.823 14.604-60.409 10.171 2.459-14.603 60.409-10.171-2.46Z" stroke-linejoin="round" stroke-linecap="round" stroke-width="2" stroke="#000" fill="transparent" data-name="Path"/><path d="m231.507 2147.262-3.275-8.426-6.897 5.969M241.022 2085.622l-12.79 53.214M353.226 1987.628c-.192.032-.355.064-.565.106a12.975 12.975 0 0 0-5.336 2.241c-1.739 1.345-3.318 3.681-4.086 5.691a127.425 127.425 0 0 1-3.831 9.006 85.097 85.097 0 0 1-7.47 13.018c-2.977 4.183-6.551 8.423-11.054 11.026-.566.342-1.16.631-1.779.865-.757.32-11.417-11.944-12.59-13.31-4.707-5.474-9.572-10.895-15.089-15.58a69.084 69.084 0 0 0-4.332-3.424 49.17 49.17 0 0 0-17.148-8.057" stroke-linejoin="round" stroke-linecap="round" stroke-width="2" stroke="#000" fill="transparent" data-name="Path"/><path d="M372.405 1987.18a.135.135 0 0 0 .064 0c4.93.576 2.998 5.89-.47 5.719-3.83-.192-7.65 0-11.47.064a7.324 7.324 0 0 0-3.074.565c-1.92.918-2.102 2.967-2.39 4.824a136.948 136.948 0 0 1-1.337 7.277c-1.003 4.78-2.241 9.497-3.66 14.17a193.092 193.092 0 0 1-2.999 9.031c-3.115 8.793-7.042 18.119-13.647 24.898-3.65 3.756-8.43 6.53-13.819 6.125-7.586-.566-14.885-4.375-21.32-8.707a.463.463 0 0 1-.074-.064 71.973 71.973 0 0 1-6.893-5.272s-8.867-7.896-11.578-13.68" stroke-linejoin="round" stroke-linecap="round" stroke-width="2" stroke="#000" fill="transparent" data-name="Path"/><path d="M386.422 1982.4v.497c0 3.436-2.767 4.026-5.157 4.083L335 1988.047c-2.027.054-3.731-1.721-3.774-3.937v-.093c0-2.173 1.594-3.98 3.596-4.03 0 0 25.88-.729 45.923-1.28.38 1.213 1.312 2.152 2.468 2.885a5.69 5.69 0 0 0 3.208.807h0ZM411 1933.446c0 .566-.134 1.125-.391 1.63l-20.676 42.415a3.792 3.792 0 0 1-2.465 1.991 3.731 3.731 0 0 1-2.55-.263 3.774 3.774 0 0 1-2.11-3.39c.004-.564.133-1.12.378-1.628l20.686-42.42a3.752 3.752 0 0 1 7.114 1.662l.014.003Z" stroke-linejoin="round" stroke-linecap="round" stroke-width="2" stroke="#000" fill="transparent" data-name="Path"/></g><path d="M343.377 1913.26a11.36 11.36 0 1 1 0 .1z" fill="#ffb34d" fill-rule="evenodd" data-name="Oval"/><path d="M351.128 1917.27a3.93 3.93 0 0 1-1.046-.587 2.845 2.845 0 0 1-.74-3.714 2.93 2.93 0 0 1 2.195-1.422 2.938 2.938 0 0 1 4.389-3.557c1.099.765 1.86 2.113 2.326 3.343.24.647.417 1.315.526 1.996.054.355.417 2.312.132 2.51-1.878 1.303-5.374 2.348-7.782 1.43Z" fill="#fff" fill-rule="evenodd" data-name="Path"/><g data-name="Group"><path d="M338.9 1942.068a6.253 6.253 0 1 1 0 .1z" fill="#ffb34d" fill-rule="evenodd" data-name="Oval"/><path d="M346.39 1944.821c-.15.163-.326.303-.52.413-.685.4-1.561.228-2.045-.402a1.618 1.618 0 0 1-.273-1.423 1.618 1.618 0 0 1-.89-2.977 3.945 3.945 0 0 1 2.188-.484c.38.01.758.06 1.127.15.189.042 1.263.27 1.306.455.274 1.234.078 3.237-.893 4.268Z" fill="#fff" fill-rule="evenodd" data-name="Path"/></g><path d="M377.286 1930.157a8.044 8.044 0 0 1 10.882 3.314 8.044 8.044 0 0 1-3.315 10.882 8.044 8.044 0 0 1-10.882-3.314 8.044 8.044 0 0 1 3.315-10.882z" fill="#ffb34d" fill-rule="evenodd" data-name="Rectangle"/><path d="m382.812 1944.245 4.443-2.37a3.98 3.98 0 0 0 1.636-5.366l-2.846-5.336a3.977 3.977 0 0 0-5.367-1.636l-.299.16c-1.11 1.54-2.586 4.176-.356 5.005 3.202 1.198 2.266 2.995 1.068 5.296-1.018 1.931-1.277 4.19 1.721 4.247Z" fill="#fff" fill-rule="evenodd" data-name="Path"/><path d="M374.215 1936.007a1.679 1.679 0 1 1 0 .1z" fill="#fff" fill-rule="evenodd" data-name="Oval"/><path d="M355.214 1965.806a7.181 7.181 0 0 0 1.967.626 7.327 7.327 0 0 0 6.758-2.575c.623-.775 1.089-1.746 1.743-2.529a3.873 3.873 0 0 1 1.729-1.252 1.48 1.48 0 0 0 .637-.31c.448-.462-.313-.853-.466-1.226a2.629 2.629 0 0 1 0-1.871 7.295 7.295 0 0 0-12.207-7.47c-1.132 1.22-1.81 2.778-2.515 4.269-.626 1.326-1.291 2.646-1.636 4.072-.8 3.38 1.006 6.812 3.99 8.266Z" fill="#ffb34d" fill-rule="evenodd" data-name="Path"/><g data-name="Group"><path d="M359.984 1952.12a1.583 1.583 0 1 1 0 .1zM357.91 1956.487a1.583 1.583 0 1 1 0 .1zM355.965 1960.585a1.583 1.583 0 1 1 0 .1z" fill="#fff" fill-rule="evenodd" data-name="Oval"/></g><g data-name="Group"><path d="M319.554 1972.255c.48-.064.956-.162 1.422-.295l5.357-1.508c1.64-.463 3.365-.975 4.528-2.223 2.155-2.316 1.458-5.994.622-9.045-.68-2.497-1.362-4.994-2.045-7.491-.47-1.722-.953-3.472-1.889-4.98-.935-1.508-2.415-2.803-4.179-3.08-1.298-.203-2.614.146-3.884.49l-5.14 1.424c-1.686.458-3.464.974-4.645 2.265-2.098 2.294-1.423 5.894-.619 8.892l2.053 7.665c1.259 4.607 3.617 8.49 8.419 7.886Z" fill="#ffb34d" fill-rule="evenodd" data-name="Path"/><path d="M319.198 1961.801a2.525 2.525 0 0 0 4.211-1.184l.598-2.34.594-2.344a2.525 2.525 0 0 0-3.134-3.052l-2.322.654-2.327.655a2.525 2.525 0 0 0-1.067 4.24l1.732 1.685 1.715 1.686Z" fill="#fff" fill-rule="evenodd" data-name="Path"/></g></g></g></svg>