<svg xmlns="http://www.w3.org/2000/svg" width="385.268" height="378.688" viewBox="887 4044 385.268 378.688"><g data-name="Group 165"><g data-name="Business, error | comment, review, account, profile, user, list, problem"><g data-name="Group"><g data-name="Group"><g data-name="Group"><path d="M971.799 4124.39c1.78-4.94 3.762-9.847 5.933-14.616 4.323-9.49 5.317-18.484 11.391-26.42M1003.203 4074.257c5.226-5.317 10.115-11.032 18.998-15.3 18.771-8.99 42.773-9.901 73.411 2.813M1224.417 4422.68c29.687-41.965 39.29-89.41 34.328-137.932M955.095 4216.092v.518c.291 9.418-8.412 48.46-33.095 60.86-24.683 12.402-42.281 66.837 13.369 88.194s52.62 57.016 52.62 57.016" stroke-linejoin="round" stroke-linecap="round" stroke-width="4" stroke="#ccdde2" fill="transparent" data-name="Path"/></g><path d="M1095.616 4102.078v-46.122c.017-6.596 5.36-11.94 11.957-11.956h152.739c6.596.016 11.94 5.36 11.956 11.956v216.866c-.012 6.594-5.362 11.933-11.956 11.93h-152.74a11.3 11.3 0 0 1-4.323-.83" stroke-linejoin="round" stroke-linecap="round" stroke-width="3" stroke="#000" fill="transparent" data-name="Path"/></g><path d="M1108.98 4051.307h149.924a8 8 0 0 1 8 8v210.16a8 8 0 0 1-8 8H1108.98a8 8 0 0 1-8-8v-210.16a8 8 0 0 1 8-8z" fill="#ffb34d" fill-rule="evenodd" data-name="Rectangle"/><path d="M1121.414 4068.807h123.241a12.48 12.48 0 0 1 12.48 12.48v17.386a12.48 12.48 0 0 1-12.48 12.48h-123.241a12.48 12.48 0 0 1-12.48-12.48v-17.386a12.48 12.48 0 0 1 12.48-12.48z" fill="#ffb34d" fill-rule="evenodd" data-name="Rectangle"/><g data-name="Group"><path d="M1242.315 4214.44H1127.08M1215.547 4225.168h-61.699" stroke-linejoin="round" stroke-linecap="round" stroke-width="7.24" stroke="#fff" fill="transparent" data-name="Path"/></g><path d="M1230.072 4295.42s-20.505-81.48-84.37-101.382l-25.959-6.195s-4.105-18.334-2.594-20.26c1.511-1.927 4.615-5.874 10.3-5.018 5.684.856 20.38 1.13 24.143-16.836 3.763-17.967-10.141-60.672-46.275-67.059-36.135-6.387-36.978 20.146-36.978 20.146l26.541 61.502-4.118 49.614-.518 73.908 139.828 11.58Z" fill="#fff" fill-rule="evenodd" data-name="Path"/><g data-name="Clipped"><g data-name="Clipped" clip-path="url(&quot;#a&quot;)" transform="translate(969.607 4076.418)"><g data-name="Group"><g data-name="Group"><path d="M39.769 156.057c.428.124 5.89 1.712 8.039 5.496a5.051 5.051 0 0 1 4.572-2.894h64.148a5.039 5.039 0 0 1 4.918 3.909l12.633 54.165c.856-.167 1.712-.27 2.603-.356l29.811-7.44a5.3 5.3 0 0 1 6.284 3.37c.199.557.297 1.145.291 1.737a5.312 5.312 0 0 1-4.94 5.3l-14.096.907c13.578 6.392 30.098 18.566 43.886 29.752 13.416-21.006.827-42.007-8.642-53.317 1.22-12.466 7.401-41.409 38.244-40.62-10.625-13.627-23.874-25.305-40.29-33.121-56.233 62.328-120.565 11.37-121.93 10.273a113.158 113.158 0 0 0-25.531 22.847M45.612 334.857v10.77h185.705v-15.256c-7.234.428-14.846-1.284-21.768-4.405-8.762-3.99-16.33-10.188-22.803-17.26-6.657-7.32-10.313-17.47-14.555-26.297-6.37-13.292-14.807-22.761-28.198-26.772l.856 3.681a5.06 5.06 0 0 1-4.918 6.203H75.46c1.285 11.13 6.7 71.917-29.85 69.349M75.432 51.592a71.216 71.216 0 0 0 2.235 17.068 14.157 14.157 0 0 0 11.181 10.526c.107-3.887 1.76-7.299 4.28-9.418-.23-3.29-.197-6.594.1-9.88.166-2.17.427-4.195.701-6.014.164-1.036.4-2.059.707-3.06a10.967 10.967 0 0 1 2.996-2.274c3.968-2.235 12.136-4.61 27.269-1.117a18.116 18.116 0 0 1 6.823 3.163.514.514 0 0 1 .12.103c1.366 1.259 3.104 2.851 4.902 3.677 1.862.856 3.805.89 5.436-1.134.043-.043.065-.082.103-.124.856-1.118 1.674-2.569 3.185-2.856 3.185-.599 4.735 2.569 5.137 5.231.351 2.462-.372 4.632-1.43 6.7a17.243 17.243 0 0 1-3.424 4.508c-.355.343-.68.715-.972 1.113.133.023.263.059.39.107.292.098.578.215.856.35 3.852 1.734 6.596 6.08 6.656 11.165 0 .158 6.46.064 7.278 0 3.15-.291 6.254-1.199 8.471-3.575 6.293-6.742 6.263-16.746 3.677-24.571-2.448-7.427-5.565-14.68-9.648-21.361-8.849-14.461-22.577-25.129-39.957-26.088a57.594 57.594 0 0 0-12.462.728 47.037 47.037 0 0 0-5.766 1.284C86.558 13.574 75.312 31.1 75.415 51.593" fill="#008379" fill-rule="evenodd" data-name="Path"/></g><path d="M85.693 216.446c2.093 5.372 7.076 8.446 11.13 6.85 4.054-1.598 5.646-7.214 3.557-12.586-2.089-5.373-7.076-8.45-11.13-6.85-4.054 1.601-5.65 7.218-3.557 12.59" fill="#008379" fill-rule="evenodd" data-name="Path"/><g data-name="Group"><path d="M74.923 264.425s11.37 79.259-34.11 70.475c-45.23-8.746-62.35-192.756 68.574-219.22M181.403 188.12s36.695 30.946 16.922 61.896" stroke-linejoin="round" stroke-linecap="round" stroke-width="3" stroke="#000" fill="transparent" data-name="Path"/><path d="M74.096 242.409c.63.038 1.529-.381 2.14-.548a61.214 61.214 0 0 0 2.308-.66 41.952 41.952 0 0 0 12.444-6.3c.857-.613 2.38-1.007 3.425-.604a3.455 3.455 0 0 1 2.226 2.727c.321 2.208-1.237 4.37-2.937 5.787-2.016 1.687-4.11 3.24-6.553 4.251a45.723 45.723 0 0 1-7.278 2.239c-1.126.261-2.269.428-3.386.715" stroke-linejoin="round" stroke-linecap="round" stroke-width="3" stroke="#000" fill="transparent" data-name="Path"/><path d="M60.013 220.966c-.463 2.44-.801 4.975-.57 7.453.193 2.098.946 4.546 3.28 5.056.443.117.903.159 1.36.124 8.785-.518 16.024-3.553 24.29-9.53 8.266-5.975 11.177 7.788 3.626 10.228M91.682 244.472a6.85 6.85 0 0 0 .578-.535c4.114-4.302 4.858 4.34.54 6.884l-.557.33c-.291.123-.604.269-.912.427-.146.039-.308.103-.458.146-3.904 1.712-8.061 2.808-12.153 3.925 4.05-1.322 8.086-2.624 12.153-3.925a21.85 21.85 0 0 0 1.036-.458c.107-.045.22-.08.334-.103a.458.458 0 0 1 .453.043c.098.08.17.187.206.308.663 1.593.124 3.6-.724 5.026-.89 1.507-2.418 2.667-3.925 3.493-4.054 2.273-8.767 3.617-13.318 4.422a9.268 9.268 0 0 1-2.568.167M35.66 274.43s13.95-23.776 15.504-44.448c.95-12.796 4.709-15.505 7.397-15.69" stroke-linejoin="round" stroke-linecap="round" stroke-width="3" stroke="#000" fill="transparent" data-name="Path"/><path d="m62.722 233.47-2.714-12.504-1.447-6.678-10.727-49.511a5.056 5.056 0 0 1 4.94-6.122h64.152a5.043 5.043 0 0 1 4.918 3.908l12.633 54.17 9.22 39.524.857 3.703a5.064 5.064 0 0 1-4.923 6.199H75.167" stroke-linejoin="round" stroke-linecap="round" stroke-width="3" stroke="#000" fill="transparent" data-name="Path"/></g><path d="M142.26 51.806s-3.395-14.396-22.565-16.305c-19.169-1.91-23.972 12.414-23.972 12.414l.604 1.443s25.2-10.112 39.117 4.319c0 0 5.013 2.273 6.815-1.862" fill="#008379" fill-rule="evenodd" data-name="Path"/><g data-name="Group"><path d="m137.088 216.377 29.816-7.448a5.283 5.283 0 1 1 1.627 10.398l-14.097.929M65.685 133.197s65.123 52.757 121.947-10.252M189.674 196.677c1.22-12.466 7.397-41.43 38.266-40.62M40.158 156.048s5.818 1.601 8.048 5.514" stroke-linejoin="round" stroke-linecap="round" stroke-width="3" stroke="#000" fill="transparent" data-name="Path"/><path d="M276.497 346.27H-.004" stroke-linejoin="round" stroke-linecap="round" stroke-width="7.24" stroke="#000" fill="transparent" data-name="Path"/></g><path d="M93.129 69.786c-2.607 2.191-4.281 5.77-4.281 9.82 0 6.72 4.67 12.157 10.44 12.157a8.801 8.801 0 0 0 1.94-.227c-6.72-5.137-8.082-21.75-8.082-21.75" fill="#ffb34d" fill-rule="evenodd" data-name="Path"/><g data-name="Group"><path d="M131.147 96.913a25.556 25.556 0 0 1-20.976.81C91.258 89.823 91.98 66.544 93.946 53.89c.157-1.027.38-2.042.668-3.04 2.17-7.234 7.834-13.129 15.296-14.802 14.451-3.267 27.666 4.927 33.15 15.958" stroke-linejoin="round" stroke-linecap="round" stroke-width="3" stroke="#000" fill="transparent" data-name="Path"/><path d="M94.434 51.079s.06-.086.184-.227c1.285-1.447 8.72-8.352 30.244-3.39a18.065 18.065 0 0 1 6.82 3.163.54.54 0 0 1 .128.102" stroke-linejoin="round" stroke-linecap="round" stroke-width="3" stroke="#000" fill="transparent" data-name="Path"/><path d="M151.806 86.147h10.646c7.684 0 13.776-7.038 16.425-13.643 3.725-9.29 1.34-18.797-2.012-27.825-2.808-7.556-6.378-14.897-11.074-21.469C155.277 8.506 139.404.176 121.159 1.717c-1.618.137-3.229.336-4.833.599-24.499 3.972-41.018 24.456-40.894 49.263a71.241 71.241 0 0 0 2.235 17.08 14.2 14.2 0 0 0 11.185 10.527" stroke-linejoin="round" stroke-linecap="round" stroke-width="3" stroke="#000" fill="transparent" data-name="Path"/><path d="M144.772 67.804c.294-.398.618-.772.972-1.118a17.153 17.153 0 0 0 3.425-4.503c1.057-2.068 1.78-4.238 1.43-6.7-.394-2.645-1.944-5.83-5.137-5.23-1.512.29-2.316 1.737-3.185 2.855-3.305 4.28-7.856-.022-10.647-2.607M93.129 69.786c-2.607 2.191-4.281 5.77-4.281 9.82 0 6.72 4.67 12.157 10.44 12.157a8.801 8.801 0 0 0 1.94-.227M115.47 78.035c-2.337 1.57-7.983 2.86-6.849-1.798 1.361-5.518 3.193-17.308-8.027-18.206 0 0-4.94.21-7.38 1.887M111.245 87.26s5.65 2.996 8.45-2.975" stroke-linejoin="round" stroke-linecap="round" stroke-width="3" stroke="#000" fill="transparent" data-name="Path"/></g><path d="M122.705 66.091c.218 1.897-.522 3.536-1.657 3.669-1.134.133-2.23-1.284-2.453-3.194-.222-1.909.527-3.531 1.657-3.664s2.234 1.284 2.453 3.19M104.306 67.209c.218 1.892-.522 3.536-1.657 3.668-1.134.133-2.23-1.284-2.448-3.193-.219-1.91.522-3.536 1.652-3.665 1.13-.128 2.235 1.285 2.453 3.19" fill-rule="evenodd" data-name="Path"/><g data-name="Group"><path d="M115.47 59.242s3.46-5.334 11.297-.274M109.392 97.371v29.589M226.369 274.43s-12.196-11.559-28.035-24.401c-13.789-11.186-30.326-23.382-43.908-29.769a68.535 68.535 0 0 0-5.065-2.14 27.714 27.714 0 0 0-12.281-1.713c-.873.072-1.742.19-2.603.351" stroke-linejoin="round" stroke-linecap="round" stroke-width="3" stroke="#000" fill="transparent" data-name="Path"/><path d="M143.698 256.257c13.394 4.011 21.832 13.48 28.197 26.772 4.234 8.827 7.899 18.977 14.555 26.297 6.468 7.068 14.037 13.27 22.8 17.26 15.899 7.235 35.475 6.679 45.804-9.053 6.987-10.668 9.735-23.921 11.13-36.387 2.398-21.665-5.17-82.735-38.244-125.094-10.625-13.626-23.879-25.304-40.291-33.12-11.52-5.471-24.542-9.05-39.302-10.064l-4.135-21.332M45.317 335.576v10.694M231.022 331.758v14.512" stroke-linejoin="round" stroke-linecap="round" stroke-width="3" stroke="#000" fill="transparent" data-name="Path"/></g><path d="M131.831 79.606a13.09 13.09 0 0 0 3.203 8.745 8.947 8.947 0 0 0 3.762.827c5.767 0 10.441-5.437 10.441-12.158a13.06 13.06 0 0 0-3.206-8.741 8.9 8.9 0 0 0-3.763-.83c-5.766 0-10.437 5.44-10.437 12.157" fill="#ffb34d" fill-rule="evenodd" data-name="Path"/><path d="M131.831 79.506a10.428 12.157 0 1 1 0 .1z" stroke-linejoin="round" stroke-linecap="round" stroke-width="3" stroke="#000" fill="transparent" data-name="Oval"/></g></g></g><path d="M1027.385 4098.383a33.894 33.894 0 0 0-39.5-48.604c-17.939 5.348-28.146 24.226-22.799 42.166a33.895 33.895 0 0 0 62.299 6.438Z" fill="#f1f6f5" fill-rule="evenodd" data-name="Shape"/><path d="M967.957 4262.647a16.957 16.957 0 0 0-3.521-18.511c-6.565-6.674-17.295-6.766-23.973-.206a16.956 16.956 0 1 0 27.494 18.717Z" fill="#008379" fill-rule="evenodd" data-name="Shape"/><path d="M917.005 4110.293c5.801-4.718 6.68-13.246 1.963-19.048-4.717-5.802-13.245-6.681-19.047-1.964-5.802 4.717-6.683 13.244-1.966 19.047a13.54 13.54 0 0 0 19.05 1.965Z" fill="#ffb34d" fill-rule="evenodd" data-name="Shape"/><path d="M1032.543 4197.6c-4.777 8.133-4.559 13.925-3.317 23.313.496 3.574-3.352 5.993-6.473 4.195-27.573-15.84-53.309-3.314-86.185-11.079-12.072-2.834-27.123-8.707-37.44-18.15a30.792 30.792 0 0 1-5.253-17.2c0-25.686 35.103-46.537 78.395-46.537 27.743 0 52.118 8.561 66.052 21.46l.039.038c3.536 5.295 5.48 11.083 5.48 17.123.02 9.217-6.833 19.208-11.298 26.836Z" fill="#f1f6f5" fill-rule="evenodd" data-name="Path"/><path d="M1043.737 4170.763v.65c-.154 8.99-4.666 17.368-10.008 24.615-3.579 4.846-7.825 10.231-6.82 16.173.429 2.62 1.906 4.996 2.274 7.624.368 2.629-1.032 5.908-3.686 6.045-1.687.085-3.12-1.113-4.456-2.14-7.898-6.122-18.164-8.412-28.147-8.815-9.982-.402-19.952.916-29.94 1.199-14.4.428-29.028-1.387-42.328-6.91-11.918-4.94-22.838-13.047-30.008-23.878-7.047-10.633-2.881-26.074 4.636-35.32 7.046-8.678 17.256-14.23 27.726-18.143 28.164-10.513 60.308-10.274 88.082 1.246 8.245 3.425 16.22 7.877 22.402 14.32 6.023 6.275 10.21 14.64 10.273 23.334h0Z" stroke-linejoin="round" stroke-linecap="round" stroke-width="3" stroke="#000" fill="transparent" data-name="Path"/><g data-name="Group"><path d="M917.368 4170.08a10.813 10.813 0 1 1 0 .1zM952.342 4170.08a10.813 10.813 0 1 1 0 .1zM987.997 4170.08a10.813 10.813 0 1 1 0 .1z" fill="#fff" fill-rule="evenodd" data-name="Oval"/></g></g></g><path d="M1249.649 4085.228c-1.831-2.749-4.829-3.971-6.694-2.732-1.866 1.24-1.892 4.477-.06 7.226a8.5 8.5 0 0 0 .96 1.184l-13.573 28.655c-2.144-1.445-4.545-1.801-6.252-.665-1.102.734-1.716 1.982-1.908 3.431l-9.272-3.13-8.11-2.71c-.857-.297-1.762-.58-2.645-.858a11.956 11.956 0 0 0-1.377-2.818c-2.573-3.86-6.78-5.575-9.396-3.86-2.616 1.716-2.65 6.206-.15 10.044l-15.438 21.112c-3.367-2.762-7.333-3.615-10.082-1.788-3.74 2.487-3.796 8.98-.125 14.499.146.218.313.398.468.609l-10.292 14.061c-.03.043-.069.095-.095.138a3.586 3.586 0 0 0 5.978 3.962l9.139-13.787c2.89 1.677 5.96 1.998 8.212.497 3.577-2.376 3.748-8.396.562-13.723l14.8-22.33c2.182 1.484 4.592 1.862 6.32.717a4.49 4.49 0 0 0 1.832-2.878c.368.099.733.206 1.102.309l8.246 2.251 10.554 2.844a11.652 11.652 0 0 0 1.578 3.555c2.573 3.86 6.776 5.575 9.396 3.838 2.62-1.737 2.659-6.287.09-10.15a11.9 11.9 0 0 0-1.286-1.575l12.92-29.217c1.557 1.06 3.277 1.334 4.508.515 1.891-1.235 1.921-4.473.09-7.226Z" fill="#fff" fill-rule="evenodd" data-name="Path"/></g><defs><clipPath id="a"><path d="M276.501 0H0v347.82h276.501V0Z" data-name="Path"/></clipPath></defs></svg>