<svg xmlns="http://www.w3.org/2000/svg" width="616" height="501.079" viewBox="635 165.461 616 501.079"><g data-name="Shopping, e-commerce | purchase, shopping, shop, commerce, payment, store"><g data-name="Group"><path d="M1032.354 208.096c-.233 0-.458-.034-.684-.034a7.385 7.385 0 0 1-6.68-7.803 6.968 6.968 0 0 1 6.988-6.516v.027h.684a7.392 7.392 0 0 1 6.68 7.803 6.974 6.974 0 0 1-6.988 6.523ZM1053.88 210.251c-.226 0-.451-.033-.685-.033a7.57 7.57 0 0 1-6.844-7.995 7.146 7.146 0 0 1 7.18-6.68l-.02.028h.684a7.529 7.529 0 0 1 6.844 7.994 7.145 7.145 0 0 1-7.16 6.686Z" fill="#fff" fill-rule="evenodd" data-name="Shape"/><g data-name="Group"><path d="M781.97 392.3s-10.499-99.929 60.971-113.385c71.47-13.456 84.755-2.17 134.534-36.337 49.78-34.167 207.058 66.685 175.218 208.543a429.217 429.217 0 0 1-14.27 49.657" stroke-linejoin="round" stroke-linecap="round" stroke-width="3.7" stroke="#ccdde2" fill="transparent" data-name="Path"/><path d="M1064.208 326.149h25.995v339.477h-25.995V326.15Z" stroke-linejoin="round" stroke-linecap="round" stroke-width="3.7" stroke="#ccdde2" fill="transparent" data-name="Path"/><path d="M1064.208 665.634h0-34.804V561.37a15.723 15.723 0 0 0-4.633-11.133 15.726 15.726 0 0 0-11.143-4.608H909.722a15.731 15.731 0 0 0-11.146 4.608 15.73 15.73 0 0 0-4.637 11.133v104.262h-33.873l-2.43-78.211V326.149h206.572v339.484h0Zm-127.635-156.11c-.91 0-1.65.74-1.65 1.65v13.374c-.001.442.17.858.481 1.172a1.66 1.66 0 0 0 1.169.485h26.967a1.64 1.64 0 0 0 1.17-.485 1.64 1.64 0 0 0 .48-1.172l-.007-13.374c0-.91-.74-1.65-1.65-1.65h-26.96Zm-35.406 0c-.91 0-1.659.74-1.67 1.65v13.374a1.675 1.675 0 0 0 1.67 1.657h26.94c.913 0 1.662-.743 1.67-1.657v-13.374a1.676 1.676 0 0 0-1.67-1.65h-26.94Zm87.861-23.339c-.438 0-.851.17-1.163.478a1.646 1.646 0 0 0-.493 1.172v13.36c-.002.447.171.867.487 1.183.31.31.739.487 1.176.487h26.954c.443-.002.86-.176 1.172-.492.312-.316.481-.735.478-1.178l-.007-13.36c0-.91-.74-1.65-1.65-1.65H989.028Zm-35.536 0c-.44 0-.853.171-1.163.481a1.658 1.658 0 0 0-.486 1.169v13.36c-.002.444.17.863.482 1.179.313.315.73.49 1.174.491H980.446c.438 0 .867-.177 1.176-.487.316-.316.49-.736.487-1.183l-.007-13.36a1.648 1.648 0 0 0-.492-1.172 1.648 1.648 0 0 0-1.164-.478h-26.954Zm-35.53 0c-.437 0-.85.17-1.163.478-.316.313-.49.729-.492 1.172v13.36c-.002.44.174.87.484 1.18.315.316.733.49 1.179.49h26.947a1.682 1.682 0 0 0 1.67-1.67v-13.36c-.011-.91-.76-1.65-1.67-1.65H917.963Zm-35.542 0c-.91 0-1.65.74-1.65 1.65v13.36c-.003.444.166.862.478 1.178.312.316.728.49 1.172.492H909.367c.438 0 .866-.177 1.176-.487.316-.316.489-.736.487-1.183v-13.36a1.646 1.646 0 0 0-.493-1.172 1.645 1.645 0 0 0-1.163-.478H882.42Zm12.895-106.588a15.732 15.732 0 0 0-11.16 4.623 15.731 15.731 0 0 0-4.624 11.16v55.653a15.736 15.736 0 0 0 4.625 11.158 15.737 15.737 0 0 0 11.159 4.624h131.523c2.08 0 4.11-.404 6.033-1.202a15.664 15.664 0 0 0 5.113-3.423 15.66 15.66 0 0 0 3.41-5.12 15.665 15.665 0 0 0 1.186-6.037l-.027-55.653a15.664 15.664 0 0 0-1.187-6.036 15.663 15.663 0 0 0-3.41-5.122 15.662 15.662 0 0 0-5.112-3.423 15.663 15.663 0 0 0-6.034-1.202H895.315Zm-6.694-31.827a7.829 7.829 0 0 0-5.543 2.308 7.83 7.83 0 0 0-.006 11.092 7.806 7.806 0 0 0 5.549 2.301H1034.755a7.714 7.714 0 0 0 2.99-.6 7.714 7.714 0 0 0 2.528-1.706h-.007a7.712 7.712 0 0 0 1.708-2.54 7.712 7.712 0 0 0 .592-3.004 7.805 7.805 0 0 0-.596-3.005 7.805 7.805 0 0 0-1.702-2.548 7.8 7.8 0 0 0-2.544-1.7 7.804 7.804 0 0 0-3.001-.598H888.62Z" stroke-linejoin="round" stroke-linecap="round" stroke-width="3.7" stroke="#ccdde2" fill="transparent" data-name="Shape"/><path d="M909.36 502.865h-26.94a1.656 1.656 0 0 1-1.65-1.67v-13.36c0-.91.739-1.65 1.65-1.65h26.94a1.656 1.656 0 0 1 1.67 1.65v13.36a1.663 1.663 0 0 1-1.67 1.67h0ZM901.167 509.525h26.94a1.67 1.67 0 0 1 1.67 1.65v13.374a1.67 1.67 0 0 1-1.67 1.656h-26.94a1.67 1.67 0 0 1-1.67-1.656v-13.374a1.67 1.67 0 0 1 1.67-1.65h0ZM946.58 487.835v13.36a1.677 1.677 0 0 1-1.67 1.67h-26.94a1.663 1.663 0 0 1-1.67-1.67v-13.36a1.656 1.656 0 0 1 1.67-1.65h26.94a1.67 1.67 0 0 1 1.67 1.65h0Z" stroke-linejoin="round" stroke-linecap="round" stroke-width="3.7" stroke="#ccdde2" fill="transparent" data-name="Path"/><path d="M937.334 509.525h25.439a2.41 2.41 0 0 1 2.41 2.41v11.86a2.41 2.41 0 0 1-2.41 2.41h-25.44a2.41 2.41 0 0 1-2.41-2.41v-11.86a2.41 2.41 0 0 1 2.41-2.41z" stroke-linejoin="round" stroke-linecap="round" stroke-width="3.7" stroke="#ccdde2" fill="transparent" data-name="Rectangle"/><path d="M953.5 502.865a1.663 1.663 0 0 1-1.657-1.67v-13.36a1.65 1.65 0 0 1 1.656-1.65h26.933a1.656 1.656 0 0 1 1.67 1.65v13.36a1.663 1.663 0 0 1-1.67 1.67H953.5ZM989.043 502.865a1.663 1.663 0 0 1-1.67-1.67v-13.36a1.656 1.656 0 0 1 1.67-1.65h26.94c.91 0 1.649.74 1.649 1.65v13.36a1.656 1.656 0 0 1-1.65 1.67h-26.94ZM1029.404 561.372v104.261H893.94V561.372c.023-8.701 7.082-15.743 15.783-15.743h103.899c8.702-.003 15.764 7.04 15.783 15.743h0ZM880.77 355.62a7.878 7.878 0 0 1 7.85-7.85h146.095a7.844 7.844 0 0 1 7.851 7.85 7.878 7.878 0 0 1-7.85 7.851H888.62a7.857 7.857 0 0 1-7.85-7.85h0ZM953.184 403.162v40.157a11.109 11.109 0 0 1-11.101 11.122h-38.938c-6.136-.008-11.106-4.986-11.102-11.122v-40.157a11.109 11.109 0 0 1 11.102-11.115h38.938a11.102 11.102 0 0 1 11.101 11.115ZM1029.644 403.114v40.26a11.109 11.109 0 0 1-11.102 11.122H979.53a11.115 11.115 0 0 1-11.109-11.122v-40.26a11.115 11.115 0 0 1 11.109-11.122h39.013a11.109 11.109 0 0 1 11.102 11.122h0Z" stroke-linejoin="round" stroke-linecap="round" stroke-width="3.7" stroke="#ccdde2" fill="transparent" data-name="Path"/><path d="M1026.81 466.816H895.315a15.737 15.737 0 0 1-11.158-4.625 15.737 15.737 0 0 1-4.626-11.159V395.38a15.73 15.73 0 0 1 4.623-11.16 15.73 15.73 0 0 1 11.16-4.623h131.496c2.081 0 4.112.405 6.034 1.202a15.663 15.663 0 0 1 5.112 3.423 15.664 15.664 0 0 1 3.41 5.121 15.665 15.665 0 0 1 1.187 6.037v55.652a15.665 15.665 0 0 1-1.187 6.037 15.664 15.664 0 0 1-3.41 5.122 15.658 15.658 0 0 1-5.112 3.423 15.665 15.665 0 0 1-6.034 1.202Zm-47.281-74.824c-1.467.001-2.898.287-4.253.85a11.06 11.06 0 0 0-3.605 2.41 11.056 11.056 0 0 0-2.407 3.608 11.06 11.06 0 0 0-.844 4.254v40.26c0 1.467.283 2.898.844 4.254.56 1.356 1.37 2.57 2.407 3.607a11.06 11.06 0 0 0 3.605 2.412c1.355.562 2.786.848 4.253.849h39.013c1.467-.001 2.897-.287 4.252-.85a11.05 11.05 0 0 0 3.603-2.411 11.05 11.05 0 0 0 2.406-3.608c.56-1.355.843-2.787.84-4.253v-40.26a11.052 11.052 0 0 0-.84-4.253 11.05 11.05 0 0 0-2.406-3.608 11.05 11.05 0 0 0-3.603-2.412 11.055 11.055 0 0 0-4.252-.849h-39.013Zm-76.384.055c-1.466.001-2.896.286-4.25.848a11.054 11.054 0 0 0-3.603 2.41 11.052 11.052 0 0 0-2.406 3.606 11.053 11.053 0 0 0-.843 4.251v40.157a11.042 11.042 0 0 0 3.249 7.86 11.043 11.043 0 0 0 7.853 3.262h38.938c1.467-.001 2.897-.287 4.252-.849a11.055 11.055 0 0 0 3.603-2.412 11.051 11.051 0 0 0 2.405-3.607c.56-1.356.843-2.787.841-4.254v-40.157a11.044 11.044 0 0 0-.84-4.252 11.046 11.046 0 0 0-2.406-3.606 11.048 11.048 0 0 0-3.603-2.41 11.045 11.045 0 0 0-4.252-.847h-38.938Z" stroke-linejoin="round" stroke-linecap="round" stroke-width="3.7" stroke="#ccdde2" fill="transparent" data-name="Shape"/><path d="M953.184 403.162v40.157a11.109 11.109 0 0 1-11.101 11.122h-38.938c-6.136-.008-11.106-4.986-11.102-11.122v-40.157a11.109 11.109 0 0 1 11.102-11.115h38.938a11.102 11.102 0 0 1 11.101 11.115ZM1029.644 403.114v40.26a11.109 11.109 0 0 1-11.102 11.122H979.53a11.115 11.115 0 0 1-11.109-11.122v-40.26a11.115 11.115 0 0 1 11.109-11.122h39.013a11.109 11.109 0 0 1 11.102 11.122h0Z" stroke-linejoin="round" stroke-linecap="round" stroke-width="3.7" stroke="#ccdde2" fill="transparent" data-name="Path"/><path d="M1029.644 403.114v40.26a11.109 11.109 0 0 1-11.102 11.122H979.53a11.115 11.115 0 0 1-11.109-11.122v-40.26a11.115 11.115 0 0 1 11.109-11.122h39.013a11.109 11.109 0 0 1 11.102 11.122h0ZM953.184 403.162v40.157a11.109 11.109 0 0 1-11.101 11.122h-38.938c-6.136-.008-11.106-4.986-11.102-11.122v-40.157a11.109 11.109 0 0 1 11.102-11.115h38.938a11.102 11.102 0 0 1 11.101 11.115ZM1029.404 561.372v104.261H893.94V561.372c.023-8.701 7.082-15.743 15.783-15.743h103.899c8.702-.003 15.764 7.04 15.783 15.743h0ZM911.03 487.835v13.36a1.663 1.663 0 0 1-1.67 1.67h-26.94a1.656 1.656 0 0 1-1.65-1.67v-13.36c0-.91.739-1.65 1.65-1.65h26.94a1.656 1.656 0 0 1 1.67 1.65h0ZM946.58 487.835v13.36a1.677 1.677 0 0 1-1.67 1.67h-26.94a1.663 1.663 0 0 1-1.67-1.67v-13.36a1.656 1.656 0 0 1 1.67-1.65h26.94a1.67 1.67 0 0 1 1.67 1.65h0ZM982.102 487.835v13.36a1.663 1.663 0 0 1-1.67 1.67H953.5a1.663 1.663 0 0 1-1.656-1.67v-13.36a1.65 1.65 0 0 1 1.656-1.65h26.933a1.656 1.656 0 0 1 1.67 1.65h0ZM1017.604 487.835v13.36a1.656 1.656 0 0 1-1.65 1.67h-26.911a1.663 1.663 0 0 1-1.67-1.67v-13.36a1.656 1.656 0 0 1 1.67-1.65h26.94c.9.015 1.622.75 1.621 1.65h0ZM929.777 511.175v13.374a1.67 1.67 0 0 1-1.67 1.656h-26.94a1.67 1.67 0 0 1-1.67-1.656v-13.374a1.67 1.67 0 0 1 1.67-1.65h26.94a1.67 1.67 0 0 1 1.67 1.65h0Z" stroke-linejoin="round" stroke-linecap="round" stroke-width="3.7" stroke="#ccdde2" fill="transparent" data-name="Path"/><path d="M937.334 509.525h25.439a2.41 2.41 0 0 1 2.41 2.41v11.86a2.41 2.41 0 0 1-2.41 2.41h-25.44a2.41 2.41 0 0 1-2.41-2.41v-11.86a2.41 2.41 0 0 1 2.41-2.41z" stroke-linejoin="round" stroke-linecap="round" stroke-width="3.7" stroke="#ccdde2" fill="transparent" data-name="Rectangle"/><path d="M1042.573 355.62a7.878 7.878 0 0 1-7.858 7.851H888.621a7.857 7.857 0 0 1-7.85-7.85 7.878 7.878 0 0 1 7.85-7.85h146.094a7.844 7.844 0 0 1 7.858 7.85h0Z" stroke-linejoin="round" stroke-linecap="round" stroke-width="3.7" stroke="#ccdde2" fill="transparent" data-name="Path"/><path d="M909.828 557.69h103.283a4.528 4.528 0 0 1 4.528 4.527h0a4.528 4.528 0 0 1-4.528 4.528H909.828a4.528 4.528 0 0 1-4.527-4.528h0a4.528 4.528 0 0 1 4.527-4.528zM909.828 576.375h103.283a4.528 4.528 0 0 1 4.528 4.527h0a4.528 4.528 0 0 1-4.528 4.528H909.828a4.528 4.528 0 0 1-4.527-4.528h0a4.528 4.528 0 0 1 4.527-4.527zM909.828 595.06h103.283a4.528 4.528 0 0 1 4.528 4.528h0a4.528 4.528 0 0 1-4.528 4.527H909.828a4.528 4.528 0 0 1-4.527-4.527h0a4.528 4.528 0 0 1 4.527-4.528zM909.828 613.752h103.283a4.528 4.528 0 0 1 4.528 4.528h0a4.528 4.528 0 0 1-4.528 4.527H909.828a4.528 4.528 0 0 1-4.527-4.527h0a4.528 4.528 0 0 1 4.527-4.528zM909.828 632.438h103.283a4.528 4.528 0 0 1 4.528 4.527h0a4.528 4.528 0 0 1-4.528 4.528H909.828a4.528 4.528 0 0 1-4.527-4.528h0a4.528 4.528 0 0 1 4.527-4.527z" stroke-linejoin="round" stroke-linecap="round" stroke-width="3.7" stroke="#ccdde2" fill="transparent" data-name="Rectangle"/><path d="M838.533 295.226h264.25c8.627 0 15.62 6.992 15.62 15.619v15.057H822.914v-15.057c0-8.627 6.993-15.62 15.62-15.62h0ZM1090.197 539.1h28.41v25.851h26.961v29.692h26.255v23.25h25.838v20.458H1251v27.268h-160.803V539.1ZM1095.556 481.86H1119.498l26.111 26.118 26.324 26.317 25.735 25.735 12.17 12.17M1118.793 564.951V481.86M1197.668 617.9v-57.87M1145.61 576.587V507.97M1171.823 534.295v62.62M857.533 608.79v17.542M831.538 626.332v-10.787c1.102 3.163 4.066 5.92 7.885 7.283-1.239-9.035-3.662-23.271-7.885-36.009M857.533 573.658V423.217h-25.995v143.678M831.538 615.56v10.772M831.538 566.895V423.217H669.722v242.416h161.816" stroke-linejoin="round" stroke-linecap="round" stroke-width="3.7" stroke="#ccdde2" fill="transparent" data-name="Path"/><path d="M718.94 546.304v-80.45a22.61 22.61 0 0 1 22.61-22.61h22.006a22.61 22.61 0 0 1 22.61 22.61v80.45a22.61 22.61 0 0 1-22.61 22.61H741.55a22.61 22.61 0 0 1-22.61-22.61z" stroke-linejoin="round" stroke-linecap="round" stroke-width="3.7" stroke="#ccdde2" fill="transparent" data-name="Rectangle"/><path d="M728.502 484.492v-15.353a15.93 15.93 0 0 1 15.93-15.93h16.311a15.93 15.93 0 0 1 15.93 15.93v15.353a15.93 15.93 0 0 1-15.93 15.93h-16.311a15.93 15.93 0 0 1-15.93-15.93zM728.543 543.34v-15.277a15.93 15.93 0 0 1 15.93-15.93h16.23a15.93 15.93 0 0 1 15.93 15.93v15.277a15.93 15.93 0 0 1-15.93 15.93h-16.23a15.93 15.93 0 0 1-15.93-15.93zM695.24 583.253h25.485a2.39 2.39 0 0 1 2.39 2.39v11.907a2.39 2.39 0 0 1-2.39 2.39H695.24a2.39 2.39 0 0 1-2.39-2.39v-11.907a2.39 2.39 0 0 1 2.39-2.39zM730.776 583.253h25.486a2.39 2.39 0 0 1 2.39 2.39v11.907a2.39 2.39 0 0 1-2.39 2.39h-25.486a2.39 2.39 0 0 1-2.39-2.39v-11.907a2.39 2.39 0 0 1 2.39-2.39zM766.312 583.253h25.486a2.39 2.39 0 0 1 2.39 2.39v11.907a2.39 2.39 0 0 1-2.39 2.39h-25.486a2.39 2.39 0 0 1-2.39-2.39v-11.907a2.39 2.39 0 0 1 2.39-2.39zM713.98 606.6h25.485a2.39 2.39 0 0 1 2.39 2.39v11.907a2.39 2.39 0 0 1-2.39 2.39H713.98a2.39 2.39 0 0 1-2.39-2.39V608.99a2.39 2.39 0 0 1 2.39-2.39zM749.392 606.6h25.487a2.39 2.39 0 0 1 2.39 2.39v11.907a2.39 2.39 0 0 1-2.39 2.39h-25.487a2.39 2.39 0 0 1-2.39-2.39V608.99a2.39 2.39 0 0 1 2.39-2.39z" stroke-linejoin="round" stroke-linecap="round" stroke-width="3.7" stroke="#ccdde2" fill="transparent" data-name="Rectangle"/><path d="M650.92 392.3h206.702v30.657H635v-14.73c.004-8.792 7.128-15.92 15.92-15.927ZM844.782 593.684c1.417-1.15 3.06-2.21 4.196-3.477 3.19-3.566 1.964-8.124 4.01-12.039 2.492-4.791 10.322-8.11 18.022-7.673a35.167 35.167 0 0 0-1.492 6.927c-.226 2.094.322 4.421-.28 6.454-.98 3.258-6.209 5.236-6.845 8.583-.561 2.957 2.902 5.722 2.327 8.734-.61 3.23-5.571 5.017-7.399 7.87-1.492 2.328-.787 4.984-1.56 7.454-.938 2.985-4.182 5.62-8.433 6.845l-.424.123a19.527 19.527 0 0 1-3.97-4.675" stroke-linejoin="round" stroke-linecap="round" stroke-width="3.7" stroke="#ccdde2" fill="transparent" data-name="Path"/><path d="M866.342 574.246c-11.478 11.711-16.878 36.399-18.98 49.13-.17 1.074-.328 2.053-.458 2.95M867.369 633.498l-5.284 29.527a3.58 3.58 0 0 1-3.525 2.957h-27.604a3.58 3.58 0 0 1-3.531-3.005l-4.887-29.479h44.83Z" stroke-linejoin="round" stroke-linecap="round" stroke-width="3.7" stroke="#ccdde2" fill="transparent" data-name="Path"/><path d="M872.386 630.206a3.586 3.586 0 0 1-3.573 3.292h-47.644a3.586 3.586 0 0 1 0-7.173h47.617a3.586 3.586 0 0 1 3.6 3.881h0ZM831.538 615.545a6.79 6.79 0 0 1-.205-.684c-.76-2.86-.082-5.961-1.513-8.644-1.759-3.306-6.509-5.373-7.111-9.124-.534-3.477 2.792-6.694 2.238-10.123-.602-3.867-5.626-6.16-6.578-9.945-.568-2.34-.047-5.044-.253-7.474a47.911 47.911 0 0 0-1.45-8.022c5.68-.39 11.43 1.793 14.872 5.339a11.52 11.52 0 0 1 2.444 3.566c1.964 4.524.794 9.808 3.86 13.942 1.67 2.238 4.442 3.908 5.866 6.249a7.46 7.46 0 0 1 .985 2.491c.007.065.018.129.034.192.035.123.048.24.069.342.513 3.463-.808 7.214-.383 10.78.383 2.957 1.984 5.92 1.067 8.809a27.96 27.96 0 0 1-2.546 5.564 19.774 19.774 0 0 1-3.114 4.148c-.137-.034-.26-.089-.397-.137-1.239-9.034-3.662-23.27-7.885-36.008" stroke-linejoin="round" stroke-linecap="round" stroke-width="3.7" stroke="#ccdde2" fill="transparent" data-name="Path"/><path d="M839.875 626.319c-.123-1.054-.28-2.204-.452-3.477-1.239-9.035-3.662-23.271-7.885-36.009-2.662-8.11-6.057-15.646-10.342-20.917M837.842 584.397s.76-11.787 7.118-15.373c6.359-3.587 6.222 16.509 6.222 16.509" stroke-linejoin="round" stroke-linecap="round" stroke-width="3.7" stroke="#ccdde2" fill="transparent" data-name="Path"/><path d="M844.782 593.684a29.13 29.13 0 0 1 .979-13.374" stroke-linejoin="round" stroke-linecap="round" stroke-width="3.7" stroke="#ccdde2" fill="transparent" data-name="Path"/></g><g data-name="Group"><path d="M940.55 373.177a5.434 5.434 0 0 1 .24 7.09l-15.818 27.207-.555 5.476-4.92 49.451-7.817 78.54c-.048.5-.15 1-.24 1.499-.048.397-.102.794-.17 1.19-.104.514-.227 1-.343 1.493-.116.493-.192.814-.315 1.211-.123.397-.287.945-.459 1.41l-.417 1.17c-.185.466-.377.911-.568 1.37-.192.458-.363.746-.548 1.122-.184.377-.43.863-.684 1.273-.253.41-.418.726-.637 1.068-.219.342-.5.808-.78 1.205s-.48.684-.719.999a26.29 26.29 0 0 1-1.601 1.944c-.295.342-.603.684-.91 1.013-.309.328-.685.636-1 .951-.315.315-.623.582-.951.856-.329.273-.685.588-1.061.862-.377.274-.685.534-1.034.773-.349.24-.746.52-1.122.78-.377.26-.74.46-1.116.685-.376.226-.78.452-1.17.685-.39.232-.794.397-1.205.581-.41.185-.794.397-1.204.568-.411.172-.883.35-1.328.5-.445.15-.794.308-1.191.431a28.58 28.58 0 0 1-2.307.623c-.445.103-.876.185-1.32.253-.446.069-.863.172-1.308.247h.068l6.106 13.004 5.715.055a28.49 28.49 0 0 1-5.572.24l9.049 19.294a20.307 20.307 0 0 1-18.37 28.938h-10.952a3.224 3.224 0 0 0-3.217 3.238v1.601a16.653 16.653 0 1 1-10.69 0v-1.601a3.23 3.23 0 0 0-3.231-3.238H734.039a3.23 3.23 0 0 0-3.23 3.238v1.601a16.673 16.673 0 1 1-10.692 0v-1.601a3.237 3.237 0 0 0-3.237-3.238H698.1a4.374 4.374 0 0 1-3.08-7.467 4.326 4.326 0 0 1 3.08-1.273h180.933a13.6 13.6 0 0 0 12.32-19.329l-15.558-33.572-155.923-12.607a2.326 2.326 0 0 0-.363-.055 30.146 30.146 0 0 1-2.053-.274c-.23-.03-.458-.07-.684-.123a30.07 30.07 0 0 1-2.26-.5l-.636-.184a40.063 40.063 0 0 1-2.053-.685l-.534-.205a23.094 23.094 0 0 1-1.841-.808 7.463 7.463 0 0 1-.746-.363 21.12 21.12 0 0 1-1.629-.896 29.91 29.91 0 0 1-14.757-25.783V457.52c.003-14.905 10.96-27.543 25.715-29.657l195.306-28.062 19.24-26.646a5.476 5.476 0 0 1 7.974.02Z" fill="#f1f6f5" fill-rule="evenodd" data-name="Path"/><path d="M954.39 666.352a4.843 4.843 0 0 1-2.41-1.294 5.046 5.046 0 0 1-.808-1.136c-.393-.7-.6-1.49-.602-2.293a4.79 4.79 0 0 1 2.252-4.106 4.54 4.54 0 0 1 1.533-.637l14.975-3.997 19.986-5.318 19-167.546.746-6.755 2.499-22.135-.329-1.78-.308-1.649v-.123c-.376-2.013-.753-4.045-1.115-6.037l-.124-.76a323.77 323.77 0 0 1-1.41-9.171c-3.148-.452-5.66-.883-7.145-1.24l-2.163-.328a5.358 5.358 0 0 1-4.545-5.078c-.465-2.786 1.013-6.16 2.526-9.583.93-3.203 1.896-6.817 2.827-10.69 1.697-8.74 3.196-19.568 4.106-23.58.082-.93.172-1.84.24-2.737a1.487 1.487 0 0 0-1.534-1.444c-.58.136-1.183.294-1.772.444h-.048c-12.532 3.149-25.064 5.75-36.823 8.542a29.964 29.964 0 0 1-4.84 1.17c-1.751.457-3.49.914-5.214 1.37l.225-.192c-.896.458-1.91.328-2.874-.91a6.838 6.838 0 0 1-1.116-2.738c-.637-2.772-1.465-5.49-1.944-8.31-5.27-2.908-10.307-8.021-15.372-3.737-3.286 2.738-5.99 10.452-11.41 7.934-4.737-2.205-4.545-6.818-3.751-11.102.952-5.264 5.222-9.966 10.267-10.794 6.933-1.184 14.045-1.239 21.019-2.443a189.756 189.756 0 0 0 13.525-2.943c7.453-2.136 16.858-5.216 24.825-8.036l2.888-3.182c-.397-.288-.808-.583-1.205-.89l-40.142-26.51-3.272-2.052.123-.055c-3.237-2.184 1.253-9.117 1.752-9.863l-.93-1.013a17.188 17.188 0 0 0-5.148-3.34c-2.47-.979-5.085-.794-7.528-1.752a13.449 13.449 0 0 1-6.283-5.215c-.638-1.001-1.175-2.063-1.602-3.17a.047.047 0 0 1-.035 0 3.465 3.465 0 0 1-.123-.376c-.137-.308-.24-.67-.342-.993l-.054-.191c-.137-.363-.227-.726-.33-1.102a32.274 32.274 0 0 1-.958-6.926c-.034-.343-.034-.685-.034-1.028l-.315-.102-17.234-5.345v-.069l-.76-.24a2.552 2.552 0 0 1-1.601-3.422l6.714-15.886a2.56 2.56 0 0 1 3.135-1.444l29.157 9.206a2.553 2.553 0 0 1 1.568 3.497c.219.035.458.069.684.123a22.785 22.785 0 0 1 10.22 4.49 21.427 21.427 0 0 1 7.056 11.294 12.482 12.482 0 0 0 3.689 5.941l39.451 23.49c.516.133 1.04.238 1.567.315v.068c.151.014.295.082.445.082v3.772c.083-.794.185-1.568.308-2.34.017-.115.03-.229.035-.343.944-8.624 3.99-16.749 8.295-24.223 7.317-13.353 17.713-23.113 26.18-29.5a83.292 83.292 0 0 1 10.506-7.117l-.623-1.137c-.979.52-1.923 1.047-2.874 1.582l-.822.465-2.395-10.328-1.034-4.456-4.305-7.68a3.278 3.278 0 0 0-.602-.068c-5.887-.842-9.363-6.092-11.307-10.705a24.28 24.28 0 0 1-1.91-8.604v-.43a8.733 8.733 0 0 1-4.66-8.296 8.21 8.21 0 0 1 1.875-4.722c.013-.343.034-.685.082-1.028.985-8.384 4.62-16.85 10.95-22.326 1.05-.9 2.18-1.703 3.375-2.395a25.312 25.312 0 0 1 10.623-3.34.054.054 0 0 1 .034 0c.397-.069.787-.069 1.184-.069.103-.034.191-.09.28-.09 9.57-2.388 17.263 1.705 22.786 8.249a31.208 31.208 0 0 1 4.962 6.317c.03.033.054.074.068.116a35.686 35.686 0 0 1 4.833 18.268c.383 6.386.452 11.923 1.225 16.536a27.55 27.55 0 0 0 2.909 8.056 14.507 14.507 0 0 0 6.33 5.134c2.003.033 4 .211 5.976.533.602.049 1.225.117 1.841.206a42.111 42.111 0 0 1 18.521 7.624c.383.295.774.59 1.157.897a41.109 41.109 0 0 1 13.84 18.145s.239 2.286.5 5.591c.102.945.205 1.91.205 2.876.342 4.616.406 9.249.19 13.873a20.24 20.24 0 0 0 2.376 7.898 30.188 30.188 0 0 0 7.371 7.345c2.122 1.396 4.36 2.614 6.53 3.873 1.292.62 2.5 1.402 3.594 2.327a24.107 24.107 0 0 1 9.096 14.265 34.354 34.354 0 0 1 .793 15.057c-.937 6.202-4.36 11.246-8.466 15.202-4.476 5.201-10.506 8.85-17.837 11.136a52.342 52.342 0 0 1-13.34 1.759c-6.16 0-13.34-1.226-18.815-5.736-5.058-3.58-8.918-9.411-9.808-18.727a996.015 996.015 0 0 0-.794 31.533v.034c.02.15.945 16.715 1.773 33.689.808 11.772 1.479 21.69 1.225 28.589.014.828.069 1.642.069 2.327a8.797 8.797 0 0 1-.794 3.99 8.964 8.964 0 0 1-1.089 2.875c-.684 1.067-2.614 1.793-5.475 2.259a31.555 31.555 0 0 1-7.762 1.369l3.477 62.756c35.7 28.247 61.696 75.015 74.324 101.216 5.66 11.67 8.624 14.4 8.624 14.4l-39.965 46.714a4.854 4.854 0 0 1-6.543.794l-1.102-.808a4.887 4.887 0 0 1-1.512-6.044l15.742-32.661h.43c.76-.452-.458-4.757-34.578-37.72l-.273-.274-.684-.637-9.138-8.671-.685-.685-.52-.458-43.872-41.71v-.035c-.055-.013-.055-.068-.055-.068l-1.5-1.369-28.609 113.207-4.791 18.884H955.384c-.335 0-.669-.04-.995-.116Z" fill="#f1f6f5" fill-rule="evenodd" data-name="Shape"/><path d="m994.443 343.76-1.191-.445a2.382 2.382 0 0 1-.247-.151c-6.221-4.025-11.08-9.705-15.235-15.742-4.38-6.372-19.411-12.93-24.27-18.966-3.115-3.82-6.373-8.214-11.143-10.116-2.458-.965-5.086-.78-7.53-1.752a13.32 13.32 0 0 1-6.276-5.216 17.42 17.42 0 0 1-1.622-3.183 2.895 2.895 0 0 1-.13-.39 8.077 8.077 0 0 1-.39-1.19 12.64 12.64 0 0 1-.322-1.103 18.411 18.411 0 0 1-.445-2.053 39.335 39.335 0 0 1-.486-4.675v-.075a55.808 55.808 0 0 1 .042-4.675v-.04h-.076l-6.988-2.458a5.633 5.633 0 0 1-3.778-4.36 4.189 4.189 0 0 1 .055-1.677 5.106 5.106 0 0 1 2.607-3.422 4.99 4.99 0 0 1 3.984-.301l14.065 5.106 2.889 1.04.075.041s0-4.284 4.107-4.195c3.798.095 17.562 1.211 21.642 16.262a12.395 12.395 0 0 0 3.689 5.927l33.25 19.91a14.846 14.846 0 0 0 8.124 3.731v4.223a.041.041 0 0 0 0 .062v3.073l2.642 18.514 1.862 12.943c-2.43.198-4.873.11-7.282-.26l-1.581-.596h-.041l-10-3.792Z" fill="#fff" fill-rule="evenodd" data-name="Path"/></g><path d="M1008.405 313.596v.055a546.258 546.258 0 0 0-2.183 23.887c-4.435 2.053-8.96 3.833-13.408 5.605a2.381 2.381 0 0 1-.247-.15 45.488 45.488 0 0 1-8.268-6.968l-37.74-23.421a20.047 20.047 0 0 0 6.126-4.792l.116-.116c7.112-7.638 13.278-20.533 14.045-22.149l.164.172 33.25 19.91a14.832 14.832 0 0 0 8.125 3.723l.02 4.244ZM941.46 274.309l-.76 2.053-.725 1.992-.397 1.13-.055.17-.075.206a2.053 2.053 0 0 1-2.608 1.266l-12.033-3.696h-.054l-17.29-5.311 4.49-10.616 1.979-4.675a2.574 2.574 0 0 1 3.148-1.437l23.826 7.529a14.373 14.373 0 0 0-2.348-.336 3.806 3.806 0 0 0-3.018 1.212 3.518 3.518 0 0 0-.801 3.052 8.213 8.213 0 0 0 2.053 3.655c.096.11.192.206.301.315a13.538 13.538 0 0 0 3.04 2.512s.033 0 .074.055c.042.055 0 0 0 0 .396.336.815.645 1.253.924Z" fill="#ffb34d" fill-rule="evenodd" data-name="Path"/><g data-name="Group"><path d="M925.068 277.43c0 .37 0 .767.04 1.136.05 1.638.224 3.27.52 4.88.11.693.259 1.378.446 2.054.095.37.184.725.315 1.095.13.37.266.821.43 1.232.054.151.115.3.186.445.385.957.865 1.874 1.43 2.737a13.477 13.477 0 0 0 6.352 5.243c2.423.945 5.071.78 7.529 1.746 4.695 1.882 7.919 6.112 10.95 9.897M946.936 275.685c-.685-.11-1.37-.24-2.054-.411a14.464 14.464 0 0 1-1.766-.575 15.27 15.27 0 0 1-2.628-1.328s-.055 0-.075-.055a14.14 14.14 0 0 1-3.333-2.826 8.172 8.172 0 0 1-2.054-3.655 3.374 3.374 0 0 1 .801-3.053 3.82 3.82 0 0 1 3.018-1.211c1.054.083 2.1.245 3.128.486 1.472.26 2.943.5 4.401.8a23.032 23.032 0 0 1 10.226 4.49 21.546 21.546 0 0 1 7.057 11.287 12.423 12.423 0 0 0 3.668 5.94l41.498 24.71" stroke-linejoin="round" stroke-linecap="round" stroke-width="3" stroke="#000" fill="transparent" data-name="Path"/><path d="M925.115 278.56s1.328 7.467 11.711 7.261a3.942 3.942 0 0 0 2.314-7.022l-.137-.103" stroke-linejoin="round" stroke-linecap="round" stroke-width="3" stroke="#000" fill="transparent" data-name="Path"/><path d="M926.785 287.765s5.086 5.29 10.158 3.005c4.483-2.054 1.416-6.071 1.416-6.071M940.66 278.457l-.37-.11" stroke-linejoin="round" stroke-linecap="round" stroke-width="3" stroke="#000" fill="transparent" data-name="Path"/></g><path d="M886.971 567.69a28.685 28.685 0 0 1-6.516.184l-3.422-.274 9.938.09Z" fill="#d7e8f0" fill-rule="evenodd" data-name="Path"/><path d="m925.437 412.984-12.765 127.991c-1.377 13.767-12.003 24.8-25.708 26.694a28.684 28.684 0 0 1-6.515.184l-3.423-.273-156.17-12.615a29.623 29.623 0 0 1-12.812-4.058 29.431 29.431 0 0 1-2.854-12.704v-2.977l143.48 11.635 3.422.281c2.172.18 4.357.117 6.516-.185 13.701-1.9 24.323-12.93 25.708-26.693l10.266-102.77 30.855-4.51Z" fill="#008379" fill-rule="evenodd" data-name="Path"/><path d="m894.569 417.42-10.267 102.769c-1.385 13.763-12.006 24.792-25.708 26.693a29.505 29.505 0 0 1-6.516.185l-3.422-.28-143.48-11.636V470.6c.007-14.906 10.956-27.546 25.708-29.678l163.685-23.504Z" fill="#c1dde4" fill-rule="evenodd" data-name="Path"/><path d="M898.88 580.769c-2.16.309-4.348.37-6.522.185l-3.422-.274 9.945.089Z" fill="#d7e8f0" fill-rule="evenodd" data-name="Path"/><path d="m887.053 567.69 15.305 32.62a20.307 20.307 0 0 1-18.378 28.924h-10.95a3.224 3.224 0 0 0-3.231 3.224v15.907a5.346 5.346 0 1 1-10.691 0V632.45a3.217 3.217 0 0 0-3.231-3.223H735.045a3.217 3.217 0 0 0-3.224 3.223v15.907a5.352 5.352 0 0 1-10.697 0V632.45a3.217 3.217 0 0 0-3.224-3.223h-18.781a4.38 4.38 0 0 1 0-8.755H880.03a13.593 13.593 0 0 0 12.32-19.3l-15.557-33.539" fill="#008379" fill-rule="evenodd" data-name="Path"/><g data-name="Group"><path d="m880.449 567.874-159.592-12.902c-15.565-1.255-27.557-14.254-27.556-29.869v-67.582c.004-14.903 10.956-27.54 25.708-29.664l195.299-28.062 19.253-26.66a5.476 5.476 0 0 1 8.002.049 5.476 5.476 0 0 1 .246 7.09l-15.838 27.235-13.285 133.466c-1.622 16.253-15.958 28.214-32.237 26.899h0Z" stroke-linejoin="round" stroke-linecap="round" stroke-width="3" stroke="#000" fill="transparent" data-name="Path"/><path d="M881.147 649.816c.017 8.503-6.373 15.655-14.824 16.592-8.452.936-16.253-4.643-18.098-12.943-1.845-8.301 2.857-16.66 10.91-19.392v14.292a5.346 5.346 0 0 0 10.691 0v-14.298a16.605 16.605 0 0 1 11.32 15.749h0ZM743.142 649.816c.016 8.5-6.374 15.65-14.824 16.583-8.45.933-16.246-4.648-18.086-12.947-1.84-8.3 2.867-16.653 10.919-19.379v14.292a5.352 5.352 0 0 0 5.352 5.345 5.346 5.346 0 0 0 5.346-5.345v-14.298a16.584 16.584 0 0 1 11.293 15.749h0Z" stroke-linejoin="round" stroke-linecap="round" stroke-width="3.7" stroke="#000" fill="transparent" data-name="Path"/><path d="m887.053 567.69 15.305 32.62a20.307 20.307 0 0 1-18.378 28.924h-10.95a3.224 3.224 0 0 0-3.231 3.224v15.907a5.346 5.346 0 1 1-10.691 0V632.45a3.217 3.217 0 0 0-3.231-3.224H735.045a3.217 3.217 0 0 0-3.224 3.224v15.907a5.352 5.352 0 0 1-10.697 0V632.45a3.217 3.217 0 0 0-3.224-3.224h-18.781a4.38 4.38 0 0 1 0-8.754H880.03a13.593 13.593 0 0 0 12.32-19.3l-15.557-33.539M941.85 274.117l-1.588 4.23-.431 1.136-.13.377a2.053 2.053 0 0 1-2.567 1.266l-12.066-3.696-18.344-5.64a2.553 2.553 0 0 1-1.601-3.422l6.707-15.893a2.58 2.58 0 0 1 3.149-1.437l29.15 9.206a2.573 2.573 0 0 1 1.609 3.497M935.813 265.527l-25.947-8.398M967.353 285.575s-9.98 21.704-19.65 26.857a.445.445 0 0 0-.042.774l45.344 29.93M948.476 302.618s-5.6 8.158-1.465 10.157" stroke-linejoin="round" stroke-linecap="round" stroke-width="3" stroke="#000" fill="transparent" data-name="Path"/></g><path d="M951.576 355.867s-2.293.103 2.307 5.893 6.16 16.81 3.032 24.688c0 0-.137 2.054 8.049-.506 8.186-2.56 36.898-8.549 36.898-8.549s4.483-2.361 3.094 3.62c-1.39 5.983-4.107 27.988-6.947 34.333-2.84 6.344-5.606 12.634 4.168 15.016 9.774 2.382 63.092 7.392 63.092 7.392s36.276 8.042 35.892-8.617c-.383-16.66-3.045-64.618-3.045-64.618s.219-37.022 2.662-58.91c0 0 6.38-55.612-12.587-60.752-18.966-5.14-25.406.329-30.218 2.923-4.812 2.594-47.227 24.763-49.54 70.498 0 0-.158 17.672-3.737 20.307-3.58 2.635-45.468 17.125-53.12 17.282Z" fill="#ffb34d" fill-rule="evenodd" data-name="Path"/><path d="m1019.569 647.57-4.791 18.884h-58.336a4.942 4.942 0 0 1-3.422-1.41 4.853 4.853 0 0 1 2.368-8.158l34.962-9.315s20.239 7.111 29.219 0ZM1087.356 438.801c-.445 0-.91.041-1.369.041a1020.417 1020.417 0 0 1-6.091 35.243c-26.132-5.852-62.237 4.524-62.237 4.524l.76 4.106c-5.955.322-7.782-1.875-7.782-1.875l-1.314-.815 3.278-28.931-.63-3.422v-.11c-.39-2.012-.76-4.045-1.115-6.057l-.13-.74a339.645 339.645 0 0 1-1.438-9.356l.432.062c.15 0 .294.055.465.068l.37.062c.321.034.636.089.951.13.684.09 1.567.22 2.553.37.39 0 .8.096 1.232.17 14.839 2.061 53.496 7.092 72.065 6.53Z" fill="#008379" fill-rule="evenodd" data-name="Path"/><path d="m1048.274 534.008-.089.356-28.616 113.207-4.791 18.883h-58.336a4.942 4.942 0 0 1-3.422-1.41 4.86 4.86 0 0 1 2.368-8.165l34.962-9.308 18.973-167.546 3.278-28.931M958.414 377.886c-2.054.096-3.204.116-3.204.116-2.053.144-4.045-.636-6.016-1.697-5.27-2.91-10.321-8.008-15.386-3.724-3.279 2.738-5.982 10.445-11.403 7.933-4.73-2.197-4.545-6.844-3.764-11.102.972-5.27 5.236-9.965 10.266-10.807 6.927-1.17 14.045-1.225 21.013-2.437a209.207 209.207 0 0 0 40.991-11.923c14.681-5.852 30.697-11.882 41.539-23.9 12.874-14.23 21.054-32.854 25.523-51.375" stroke-linejoin="round" stroke-linecap="round" stroke-width="3" stroke="#000" fill="transparent" data-name="Path"/><path d="M1165.547 314.705c0-.15-.068-.301-.116-.452a28.952 28.952 0 0 0-9.302-14.407l-.164-.117c-.418-.301-.849-.582-1.287-.87a64.81 64.81 0 0 0-1.786-1.067.616.616 0 0 0-.165-.082 38.882 38.882 0 0 1-6.59-3.922l-.103-.068c-2.786-1.855-5.312-4.004-7.043-6.995a.78.78 0 0 1-.103-.199c-.034 0-.034-.048-.048-.068a12.738 12.738 0 0 1-2.375-7.878v-.082c-.5-4.524 0-9.281-.178-13.874 0-.28 0-.568-.055-.849-.054-.28-.048-.636-.068-.917a.787.787 0 0 0 0-.287 24.932 24.932 0 0 0-.35-2.738c-1.587-8.576-7.097-16.221-13.839-21.615-.145-.13-.3-.246-.465-.349-7.529-5.544-15.845-7.7-21.266-8.535a.588.588 0 0 0-.15 0 40.602 40.602 0 0 1-5.763-.52h-.083a8.254 8.254 0 0 1-5.01-3.142 13.69 13.69 0 0 1-1.232-1.882.308.308 0 0 1-.102-.15 18.48 18.48 0 0 1-2.738-7.215c-.055-.246-.116-.5-.15-.732-1.171-5.558-1.205-11.601-1.24-16.59-.451-7.7-3.867-17.612-9.814-24.64 0 0 0-.035-.035-.035a28.185 28.185 0 0 0-5.77-4.442 29.883 29.883 0 0 0-17.562-3.655h-.035a25.516 25.516 0 0 0-10.615 3.333 23.059 23.059 0 0 0-3.375 2.41c-6.344 5.44-9.965 13.935-10.95 22.312a24.383 24.383 0 0 0-.165 1.937.548.548 0 0 0 0 .233 6.974 6.974 0 0 0-1.369 3.69 7.385 7.385 0 0 0 4.237 7.145V208.84a24.086 24.086 0 0 0 1.903 8.611c1.95 4.613 5.427 9.87 11.32 10.705 1.047.147 2.1.24 3.156.28l2.785 11.923 2.348 10.377c10.41-5.928 21.984-11.574 32.99-8.118l4.908 2.053c5.092 1.588 6.2 6.099 10.04 10.02 12.218 9.966 26.01 57.391 26.81 60.328a.205.205 0 0 0 .034.102v.117c.035.14.086.275.15.404.049.143.103.294.165.444.123.302.24.603.356.904 2.416 6.297 10.267 26.81 12.053 31.868 2.053 5.975 3.717 6.44 3.717 6.44a.684.684 0 0 0 .253-.096c.082-.034.198-.089.335-.137a52.531 52.531 0 0 0 14.49-8.829v-.034a33.688 33.688 0 0 0 8.432-14.572 34.708 34.708 0 0 0 .979-16.926Z" fill="#f1f6f5" fill-rule="evenodd" data-name="Path"/><path d="M1030.903 192.45s1.28-21.307 21.17-26.297c19.89-4.99 31.758 18.117 32.655 32.95.896 14.831 0 25.064 10.451 29.731 0 0 30.205-.37 41.334 27.378 0 0 1.506 13.6.89 22.354s10.307 16.427 16.255 19.124c5.948 2.696 16.297 13.688 13.484 31.641-2.813 17.953-26.297 26.324-26.297 26.324s-20.067 5.941-32.168-3.977c-12.847-10.52-9.213-29.76-9.213-29.76s6.933-62.571-5.688-72.851c-6.947-5.66-10.102-5.147-15.01-8.132-5.167-3.141-7.015-4.106-8.747-6.317-3.367-4.333-9.336-10.876-5.017-26.31s0-7.652-4.106-9.829c0 0-5.038-7.775-12.642-2.279-7.604 5.496-5.75-7.912-5.75-7.912l-3.34 4.49s-5.222 1.047-8.26-.329Z" fill="#008379" fill-rule="evenodd" data-name="Path"/><path d="M1026.222 199.814c-.185-9.945 3.524-21.115 11.252-27.74a23.408 23.408 0 0 1 3.367-2.417c8.35-4.934 19.952-4.49 28.261.308a30.58 30.58 0 0 1 10.718 10.746l.069.123a35.81 35.81 0 0 1 4.839 18.268c.04 8.337.089 19.65 5.441 26.57 3.381 4.38 7.878 3.149 12.827 3.895a41.84 41.84 0 0 1 18.52 7.631c7.379 5.428 13.525 13.525 15.223 22.67 1.636 8.801-1.56 18.726 3.182 26.864 3.477 5.947 10.09 8.665 15.688 12.135 11.238 7.05 13.552 20.711 9.993 32.73-3.71 12.532-12.43 20.232-24.757 24.072 0 0-41.655 10.266-42.168-26.242" stroke-linejoin="round" stroke-linecap="round" stroke-width="3" stroke="#000" fill="transparent" data-name="Path"/><path d="M1027.104 206.113a7.413 7.235 43.35 1 1 .073.068zM1048.667 208.115a7.447 7.269 43.35 1 1 .072.069z" fill="#ccdde2" fill-rule="evenodd" data-name="Oval"/><path d="M1041.923 187.658c-.432 2.93-2.211 5.633-5.38 6.44-3.573.911-5.476 4.388-6.475 7.886a23.326 23.326 0 0 0 1.047 15.489c1.951 4.6 5.435 9.856 11.321 10.698 10.773 1.533 16.132-3.005 16.132-3.005" stroke-linejoin="round" stroke-linecap="round" stroke-width="3" stroke="#000" fill="transparent" data-name="Path"/><path d="M1049.04 201.357a1.855 1.855 0 1 1 0 .1zM1032.772 200.138a1.855 1.855 0 1 1 0 .1z" fill-rule="evenodd" data-name="Oval"/><g data-name="Group"><path d="M1041.923 187.658a10.267 10.267 0 0 0 .185 5.325c.081.28.186.553.314.815 1.287 3.018 4.278 5.427 9.583 5.126 11.519-.636 15.625-1.369 14.688 3.922a31.334 31.334 0 0 1-1.67 5.476c-1.267 3.36-2.15 9.13-.849 15.413 1.499 7.344 5.058 14.846 17.056 19.021M1042.929 201.908s-1.944 7.105-1.745 8.152c.198 1.047 2.683.233 2.683.233M1044.298 216.802c3.716 2.005 8.028.74 9.712-2.615" stroke-linejoin="round" stroke-linecap="round" stroke-width="3" stroke="#000" fill="transparent" data-name="Path"/><path d="M1047.861 208.964a8.638 8.432 43.35 1 1 .073.069zM1026.282 206.984a8.638 8.432 43.35 1 1 .072.068z" stroke-linejoin="round" stroke-linecap="round" stroke-width="3" stroke="#000" fill="transparent" data-name="Oval"/></g><path d="m1045.194 202.114-4.53-.418M1050.896 251.277l-2.519-10.896-2.738-11.752" stroke-linejoin="round" stroke-linecap="round" stroke-width="3.7" stroke="#000" fill="transparent" data-name="Path"/><path d="m1172.474 618.037-39.958 46.713a4.853 4.853 0 0 1-6.544.787l-1.095-.8a4.873 4.873 0 0 1-1.526-6.037l15.701-32.676s24.982.719 24.777-22.436c5.66 11.697 8.645 14.449 8.645 14.449Z" fill="#008379" fill-rule="evenodd" data-name="Path"/><g data-name="Group"><g data-name="Group"><path d="m1104.946 588.311-.28-.28-10.506-9.986-.507-.466-43.887-41.75v-.042l-.061-.055-1.485-1.368-13.34-12.683a47.781 47.781 0 0 1-14.045-25.968l-2.416-12.95-.767-4.106-5.05-27.495-.63-3.422v-.11c-.39-2.012-.76-4.044-1.116-6.057l-.13-.739" stroke-linejoin="round" stroke-linecap="round" stroke-width="3" stroke="#000" fill="transparent" data-name="Path"/><g data-name="Group"><path d="M1009.268 431.43c.431 3.114.917 6.242 1.437 9.356l.13.74c.356 2.012.726 4.045 1.116 6.057v.11M1049.664 535.76l.055.055.04.04M1093.646 577.58l.507.465a978.184 978.184 0 0 1 10.506 9.986l.274.28c42.086 40.663 34.112 37.713 34.112 37.713l-15.708 32.676a4.88 4.88 0 0 0 1.534 6.036l1.095.801a4.853 4.853 0 0 0 6.543-.787l39.951-46.713s-2.977-2.738-8.638-14.449c-13.6-28.185-42.64-80.196-82.619-107.3a9.069 9.069 0 0 1-3.84-9.309c.767-3.71 1.492-7.419 2.204-11.142.11-.575.22-1.157.315-1.732a1050.825 1050.825 0 0 0 6.092-35.242M1006.653 337.709c.616-8.898 1.37-16.954 2.184-23.956.11-1.06.24-2.108.349-3.134 1.67-15.257 9.945-29.028 20.122-40.19 10.062-11.034 22.868-21.76 37.398-26.106a37.145 37.145 0 0 1 14.497-1.567 20.841 20.841 0 0 1 15.968 11.013 35.742 35.742 0 0 1 3.669 12.238v.17c.855 6.845.37 14.025.445 20.822.13 14.181-1.082 28.335-2.65 42.435M1005.435 373.177v-.02" stroke-linejoin="round" stroke-linecap="round" stroke-width="3" stroke="#000" fill="transparent" data-name="Path"/></g><g data-name="Group"><path d="M949.94 356.141c6.482 7.584 10.52 18.651 7.741 28.548-.684 2.348-3.162 5.53-5.414 2.635a6.755 6.755 0 0 1-1.115-2.737c-.637-2.786-1.472-5.524-1.958-8.35" stroke-linejoin="round" stroke-linecap="round" stroke-width="3" stroke="#000" fill="transparent" data-name="Path"/><path d="M954.916 388.447c52.942-13.99 127.91-18.727 144.055-92.537a100.839 100.839 0 0 0 1.876-29.93" stroke-linejoin="round" stroke-linecap="round" stroke-width="3" stroke="#000" fill="transparent" data-name="Path"/><path d="M1005.284 376.51c-1.047 17.659-6.577 36.96-9.63 46.542a5.393 5.393 0 0 0 4.32 6.982c2.497.39 5.66.855 9.294 1.369l.431.061c.15 0 .294.055.465.069l.37.061c.322.034.637.09.951.13.822.13 1.677.24 2.553.37.39 0 .801.096 1.232.171 21.218 3.012 52.826 6.947 70.71 6.557.466 0 .931 0 1.37-.041l1.368-.055 1.328-.075c4.887-.356 8.213-1.191 9.165-2.663 6.16-9.315-5.27-62.852.205-114.097" stroke-linejoin="round" stroke-linecap="round" stroke-width="3" stroke="#000" fill="transparent" data-name="Path"/></g><path d="M1147.67 666.461H646.498" stroke-linejoin="round" stroke-linecap="round" stroke-width="3" stroke="#000" fill="transparent" data-name="Path"/></g><path d="M669.722 509.525s-67.863 79.594 0 156.108" stroke-linejoin="round" stroke-linecap="round" stroke="#ccdde2" fill="transparent" data-name="Path"/></g></g></g></svg>