<svg xmlns="http://www.w3.org/2000/svg" width="380.75" height="376.048" viewBox="867.25 1093.976 380.75 376.048"><g data-name="social media, startup, communication | laptop, computer, man, work, publish, followers"><g data-name="Group"><g data-name="Group"><path d="M921.064 1264c13.922-19.46 34.785-28.28 34.785-28.28.681-.283-2.22-26.943-2.28-28.834-.88-31.143 4.286-63.547 27.696-86.035 29.265-28.094 82.364-33.915 115.936-10.246-.423-.313 11.045-9.353 12.014-9.933a46.47 46.47 0 0 1 20.635-6.561c29.375-2.115 56.314 20.965 67.334 48.885 11.02 27.92 8.49 91.535-11.727 109.882M908.512 1297.758a70.701 70.701 0 0 1 5.834-22.188c.299-.669.612-1.323.939-1.963M944.817 1378.742a142.112 142.112 0 0 1-9.391-9.353" stroke-linejoin="round" stroke-linecap="round" stroke-width="5.05" stroke="#ccdde2" fill="transparent" data-name="Path"/></g><path d="M1226.825 1287.28c.026 2.114 0 4.272-.101 6.433-.6 13.372-3.465 27.193-10.622 38.454a50.17 50.17 0 0 1-4.35 5.922c-15.228-2.01-17.5-17.543-35.11-26.325-21.097-10.546-55.642-6.768-55.642-6.768l17.019-15.7c-.91-47.277-35.62-44.375-35.62-44.375l-1.763 4.32c1.34-3.912 2.694-7.56 4.065-10.945l.076-.177c16.075-39.926 32.73-44.875 45.687-50.641a41.575 41.575 0 0 1 9.447-1.125c33.127-.178 52.57 33.559 61.072 60.717 2.116 6.769 5.369 21.245 5.804 37.523.009.871.038 1.78.038 2.686Z" fill="#008379" fill-rule="evenodd" data-name="Path"/><path d="M1245.439 1464.478c-2.572 3.54-6.815 5.47-11.19 5.47h-50.255a13.846 13.846 0 0 1-10.318-4.396c-.025 0 0 0 0 0a5.862 5.862 0 0 1-.5-.575 13.16 13.16 0 0 1-2.838-6.802c-.254-2.289 1.447-4.324 3.748-4.23a3.608 3.608 0 0 1 3.452 3.257c0 .182.038.36.064.537a6.003 6.003 0 0 0 1.315 2.8 6.117 6.117 0 0 0 4.886 2.162h50.662a6.282 6.282 0 0 0 4.81-2.115 5.986 5.986 0 0 0 1.15-5.804l-22.627-67.283a12.266 12.266 0 0 0-.656-1.506 16.223 16.223 0 0 0-14.852-9.281c-9.527.114-21.621.14-22.76.14-25.351-.094-36.887-.094-43.233.076a10.576 10.576 0 0 1 2.301-4.205s.026-.026.026-.038a8.884 8.884 0 0 1 5.922-2.788c9.4-.77 18.707-2.175 27.747-4.628 15.952-4.324 31.169-11.74 41.74-23.664a55.789 55.789 0 0 0 11.422-19.908 79.081 79.081 0 0 0 3.477-17.987c.164-1.93.265-3.873.305-5.83v-.089c0-.448.025-.91.025-1.358a63.163 63.163 0 0 0-.38-8.346 10.64 10.64 0 0 1 7.377 3.054c.173.456.3.928.38 1.409.077.456.115.917.115 1.38v54.718a28.229 28.229 0 0 1-8.372 20.098c-4.4 4.357-5.651 10.97-3.566 16.786l22.488 66.915a13.177 13.177 0 0 1-1.865 12.03Z" fill="#c1dde4" fill-rule="evenodd" data-name="Path"/><path d="M935.43 1462.79v-153.403h9.387v153.466l-9.387-.063Z" fill="#2e2e2e" fill-rule="evenodd" data-name="Path"/><g data-name="Group"><path d="M1121.005 1304.974c6.721-.714 14.497-1.56 21.963-1.391M1084.387 1311.751c-11.904 3.004-23.487 7.34-33.369 14.548-16.582 12.082-24.163 34.621-17.386 54.148 0 .026 26.65 76.903 26.65 76.903h-7.013a11.447 11.447 0 0 0-8.13 3.384c-2.086 2.073-3.114 5.53-3.114 8.702h63.129l-23.99-78.472a12.898 12.898 0 0 1 12.377-16.71c13.669.385 26.364.91 40.188.309M1226.923 1294.352v-.084c-.614-16.499-1.443-32.777-5.957-47.21-8.502-27.16-27.945-60.896-61.072-60.718-3.182.012-6.351.39-9.447 1.125-21.836 5.19-37.002 27.565-45.687 50.641l-.076.178a144.442 144.442 0 0 0-2.301 6.624 30.791 30.791 0 0 1-1.764 4.32 29.722 29.722 0 0 1-29.266 16.392c-40.103-3.647-92.956-5.728-109.602 22.45" stroke-linejoin="round" stroke-linecap="round" stroke-width="2" stroke="#000" fill="transparent" data-name="Path"/><path d="M1161.298 1263.666c-5.838 7.047-11.984 13.854-18.338 20.436-13.008 13.486-24.231 27.81-44.418 28.766-16.105.774-31.436-5.406-46.665-9.691-16.29-4.582-24.536-8.245-39.718-12.873a49.186 49.186 0 0 0-13.478-2.115l-15.284.118M1101.685 1458.34a11.206 11.206 0 0 1 4.628-.982h7.03s-14.696-28.567-26.447-47.582" stroke-linejoin="round" stroke-linecap="round" stroke-width="2" stroke="#000" fill="transparent" data-name="Path"/><path d="m1111.338 1374.626 49.156 95.322h-65.688M1245.439 1464.478c-2.572 3.54-6.815 5.47-11.19 5.47h-50.255c-4.167 0-8.232-1.726-10.83-4.984a13.16 13.16 0 0 1-2.838-6.802c-.254-2.289 1.446-4.323 3.748-4.23a3.608 3.608 0 0 1 3.452 3.257 5.952 5.952 0 0 0 1.379 3.338 6.312 6.312 0 0 0 4.886 2.161h50.674a6.282 6.282 0 0 0 4.81-2.115 5.986 5.986 0 0 0 1.15-5.804l-22.627-67.27a16.308 16.308 0 0 0-15.508-10.787c-9.527.114-21.621.14-22.76.14-28.228-.09-39.341-.09-45.23.126a.698.698 0 0 1-.693-.702 10.576 10.576 0 0 1 2.69-7.081.063.063 0 0 0 .025-.043 8.91 8.91 0 0 1 5.923-2.783c9.4-.77 18.706-2.175 27.746-4.628 15.953-4.324 31.17-11.74 41.74-23.664a55.79 55.79 0 0 0 11.423-19.908 79.081 79.081 0 0 0 3.464-17.979c.167-1.935.268-3.878.305-5.83v-.092c0-.445.025-.906.025-1.354a63.133 63.133 0 0 0-.38-8.347c4.602-.025 9.243 3.321 10.046 7.992.077.455.115.917.115 1.379v54.71a28.229 28.229 0 0 1-8.372 20.098c-4.4 4.357-5.652 10.97-3.566 16.786l22.488 66.915c1.386 4.07.7 8.561-1.84 12.03h0Z" stroke-linejoin="round" stroke-linecap="round" stroke-width="2" stroke="#000" fill="transparent" data-name="Path"/><path d="M873.06 1297.762h130.928a5.81 5.81 0 0 1 5.81 5.81h0a5.81 5.81 0 0 1-5.81 5.81H873.06a5.81 5.81 0 0 1-5.81-5.81h0a5.81 5.81 0 0 1 5.81-5.81zM913.97 1463.518h52.942a3.253 3.253 0 0 1 3.253 3.253h0a3.253 3.253 0 0 1-3.253 3.253h-52.943a3.253 3.253 0 0 1-3.253-3.253h0a3.253 3.253 0 0 1 3.253-3.253z" stroke-linejoin="round" stroke-linecap="round" stroke-width="2" stroke="#000" fill="transparent" data-name="Rectangle"/><path d="M928.107 1292.546v.584c.085 4.014 3.862 4.628 7.12 4.653l62.972-.042c2.758 0 5.034-2.116 5.038-4.713v-.11c-.05-2.538-2.267-4.607-4.992-4.611 0 0-35.23-.127-62.515-.207-.49 1.43-1.734 2.538-3.287 3.443a8.799 8.799 0 0 1-4.336 1.003ZM893.478 1235.987c.013.668.204 1.32.554 1.89l29.19 49.026a5.076 5.076 0 0 0 3.383 2.259 5.842 5.842 0 0 0 3.465-.377c1.79-.795 2.822-2.399 2.788-4.023a4.231 4.231 0 0 0-.064-.61 3.993 3.993 0 0 0-.49-1.268l-29.19-49.025c-1.269-2.145-4.374-2.987-6.87-1.883-1.78.779-2.813 2.382-2.766 4.01h0Z" stroke-linejoin="round" stroke-linecap="round" stroke-width="2" stroke="#000" fill="transparent" data-name="Path"/><path d="M972.407 1288.307s3.515-3.346 11.6-8.66M1001.071 1233.313l-12.813 14.21a5.203 5.203 0 1 1-7.48-7.225l2.344-2.268c.089-.127.19-.241.292-.36l1.692-1.865 14.552-15.813a15.707 15.707 0 0 1 14.193-4.924l.216.038" stroke-linejoin="round" stroke-linecap="round" stroke-width="2" stroke="#000" fill="transparent" data-name="Path"/><path d="M1019.118 1237.158H1006.3a5.5 5.5 0 1 1 0-10.998h18.19" stroke-linejoin="round" stroke-linecap="round" stroke-width="2" stroke="#000" fill="transparent" data-name="Path"/><path d="M1009.29 1237.159c-.177 2.246-1.036 3.908-2.3 5.076-3.258 2.961-9.231 2.635-13.385.6" stroke-linejoin="round" stroke-linecap="round" stroke-width="2" stroke="#000" fill="transparent" data-name="Path"/><path d="M985.127 1235.796c-3.684-4.437-2.927-10.47-.063-15.136 11.824-19.307 34.363-7.415 49.181.906a200.995 200.995 0 0 1 25.226 16.862c7.056 5.499 13.587 12.081 22.065 15.39 5.076 1.983 11.07 2.457 16.121.169M1006.99 1242.201c8.94 6.6 17.479 13.73 25.567 21.35" stroke-linejoin="round" stroke-linecap="round" stroke-width="2" stroke="#000" fill="transparent" data-name="Path"/></g><path d="M1115.784 1138.415c2.14 1.954 5.428 2.06 8.148 1.798 3.477-.318 6.92-1.16 10.326-1.87l2.069-.106h.03a3.02 3.02 0 0 1 2.99 3.05 60.71 60.71 0 0 1-1.328 13.288l3.964 2.144c.511-1.43-.064-3.49 1.15-3.646.779-1.451 1.938-2.395 3.757-1.316 3.562 2.115 4.966 8.33 1.535 11.177l2.2 4.112a7.048 7.048 0 0 0 8.266 3.435l-2.246-4.967c5.27.935 8.96-5.643 7.352-9.658-1.096-2.758-1.04-4.903.423-7.585.097-.181-.897-.423-.812-.609.05-1.967-.495-4.074-1.443-5.076-1.666-1.794-5.021-2.115-4.336-4.84a11.48 11.48 0 0 0 .334-3.633 11.257 11.257 0 0 0-4.776-8c-2.775-1.823-5.88-.17-8.845-.216-3.6-.038-6.18-3.092-9.954-3.138-1.878-.03-3.384.702-4.992 1.611a61.544 61.544 0 0 0-3.955 2.458c-1.286.876-2.428 1.633-3.964 1.637-2 .026-3.934-1.244-5.948-.651a4.653 4.653 0 0 0-2.538 1.734c-.639 3.122.516 6.984 2.593 8.867Z" fill="#008379" fill-rule="evenodd" data-name="Path"/><g data-name="Group"><path d="M1142 1156.254a15.23 15.23 0 0 1 1.133-3.19c.779-1.45 1.942-2.394 3.757-1.315 3.562 2.115 4.966 8.33 1.535 11.176l2.2 4.112a7.048 7.048 0 0 0 8.266 3.435" stroke-linejoin="round" stroke-linecap="round" stroke-width="2" stroke="#000" fill="transparent" data-name="Path"/><path d="m1156.645 1165.506 2.238 4.975c.562 1.188 2.174 4.843 3.862 8.642 1.201 2.72 2.453 5.52 3.384 7.58" stroke-linejoin="round" stroke-linecap="round" stroke-width="2" stroke="#000" fill="transparent" data-name="Path"/><g data-name="Group"><path d="M1120.395 1147.641s6.595-1.641 9.476 3.359" stroke-linejoin="round" stroke-linecap="round" stroke-width="2" stroke="#000" fill="transparent" data-name="Path"/><path d="M1122.337 1162.57c-1.777.486-4.167.922-5.537-.626l2.986-6.286a7.505 7.505 0 0 0 .508-4.941c-.652-2.788-2.28-7.023-.533-10.699" stroke-linejoin="round" stroke-linecap="round" stroke-width="2" stroke="#000" fill="transparent" data-name="Path"/></g></g><path d="M1124.015 1154.531a2.064 1.756 31.08 1 1 .086.052z" fill-rule="evenodd" data-name="Oval"/><g data-name="Group"><g data-name="Group"><path d="m1136.399 1193.722-1.566-17.37M1141.983 1156.71v-.46a4.81 4.81 0 0 0 0-.49M1141.987 1156.715l-1.362-.732-2.606-1.417M1131.081 1163.018s-.131 4.4-5.16 6.21" stroke-linejoin="round" stroke-linecap="round" stroke-width="2" stroke="#000" fill="transparent" data-name="Path"/><path d="M1156.645 1165.506c5.27.935 8.96-5.644 7.352-9.658-1.096-2.758-1.04-4.903.423-7.585.097-.182.178-.36.262-.537 1.088-2.399.703-4.776-1.006-6.815-1.62-1.93-4.062-2.606-3.36-5.42.316-1.22.433-2.485.348-3.743a11.561 11.561 0 0 0-4.908-8.228c-2.85-1.891-6.062-.178-9.133-.224-3.697-.055-6.366-3.203-10.246-3.25-1.941 0-3.507.724-5.156 1.663a62.534 62.534 0 0 0-4.074 2.539c-1.312.896-2.538 1.692-4.095 1.692-2.064 0-4.057-1.27-6.121-.677-2.065.592-3.291 2.301-3.698 4.28-.66 3.106.495 6.985 2.572 8.885 2.141 1.954 5.428 2.06 8.148 1.797 3.477-.317 6.92-1.159 10.326-1.87l2.069-.105h.03a3.02 3.02 0 0 1 2.99 3.05 60.71 60.71 0 0 1-1.328 13.287M1142.782 1170.32s-7.86 10.44-14.844 8.1c-6.984-2.339-7.34-15.262-7.34-15.262" stroke-linejoin="round" stroke-linecap="round" stroke-width="2" stroke="#000" fill="transparent" data-name="Path"/><g data-name="Path"><path d="M935.43 1462.79v-153.403h9.387v153.466" fill="#353642" fill-rule="evenodd"/><path d="M935.43 1462.79v-153.403h9.387v153.466" stroke-linejoin="round" stroke-linecap="round" stroke-width="2" stroke="#000" fill="transparent"/></g></g></g><path d="M944.068 1189.817c8.369 0 15.153 6.784 15.153 15.153s-6.784 15.153-15.153 15.153-15.153-6.784-15.153-15.153 6.784-15.153 15.153-15.153Z" fill="#ffb34d" fill-rule="evenodd" data-name="Oval"/><path d="M938.141 1208.879a5.229 5.229 0 0 1-1.167-1.096 3.807 3.807 0 0 1 .232-5.046 3.934 3.934 0 0 1 3.304-1.164 3.913 3.913 0 0 1 6.815-3.185c1.18 1.337 1.735 3.325 1.942 5.076.107.914.121 1.837.042 2.754-.038.461-.203 3.122-.634 3.291-2.851 1.092-7.712 1.329-10.534-.63Z" fill="#fff" fill-rule="evenodd" data-name="Path"/><path d="M1042.858 1208.326a8.122 8.122 0 1 1 0 .1z" fill="#ffb34d" fill-rule="evenodd" data-name="Oval"/><path d="M1050.422 1204.661c.247-.149.517-.256.8-.317a2.047 2.047 0 0 1 2.394 1.27c.232.618.162 1.31-.19 1.869a2.115 2.115 0 0 1 0 4.031 5.131 5.131 0 0 1-2.907-.211 7.407 7.407 0 0 1-1.345-.61c-.216-.122-1.472-.807-1.451-1.057.123-1.641 1.117-4.052 2.699-4.975Z" fill="#fff" fill-rule="evenodd" data-name="Path"/><path d="M988.004 1199.162c.91.76 1.926 1.382 3.016 1.849a12.556 12.556 0 0 0 12.315-1.502c1.353-1.032 2.538-2.458 3.938-3.494a6.608 6.608 0 0 1 3.384-1.371 2.61 2.61 0 0 0 1.189-.25c.939-.583-.17-1.552-.267-2.237a4.518 4.518 0 0 1 .775-3.11 12.5 12.5 0 0 0-17.243-17.412c-2.382 1.561-4.15 3.875-5.944 6.088-1.582 1.95-3.236 3.87-4.395 6.1-2.724 5.241-1.134 11.697 3.232 15.339Z" fill="#ffb34d" fill-rule="evenodd" data-name="Path"/><g data-name="Group"><path d="M1001.448 1179.074a2.712 2.712 0 1 1 0 .1zM996.202 1185.487a2.712 2.712 0 1 1 0 .1zM991.282 1191.507a2.712 2.712 0 1 1 0 .1z" fill="#fff" fill-rule="evenodd" data-name="Oval"/></g><path d="M1072.42 1166.212a7.268 7.268 0 0 1-3.749 5.013l-22.615 12.014a7.344 7.344 0 0 1-9.95-3.046l-18.025-33.94a7.352 7.352 0 0 1 3.042-9.936l22.632-12.01c3.405-1.81 8.105-.423 9.933 3.041l18.03 33.927a7.238 7.238 0 0 1 .702 4.937Z" fill="#ffb34d" fill-rule="evenodd" data-name="Path"/><path d="m1065.706 1163.64-22.053-8.405a1.27 1.27 0 0 1-.782-1.447l5.114-23.525a1.27 1.27 0 0 1 2.348-.326l16.938 31.922a1.27 1.27 0 0 1-1.565 1.781Z" fill="#fff" fill-rule="evenodd" data-name="Path"/><path d="M1098.647 1189.83a3.807 3.807 0 0 1 1.583 2.885l.846 13.448a3.867 3.867 0 0 1-3.626 4.103l-20.183 1.244a3.87 3.87 0 0 1-4.094-3.621l-.825-13.457a3.968 3.968 0 0 1 3.617-4.094l20.178-1.27c.899-.05 1.786.22 2.504.762Z" fill="#ffb34d" fill-rule="evenodd" data-name="Path"/><path d="m1095.965 1192.487-8.833 8.744a.668.668 0 0 1-.846.059l-10.152-7.572a.664.664 0 0 1 .36-1.193l18.985-1.172a.664.664 0 0 1 .486 1.134Z" fill="#fff" fill-rule="evenodd" data-name="Path"/><g data-name="Group"><path d="M961.586 1263.729c-1.325.218-2.664.33-4.006.338-12.852 0-12.42-11.916-12.42-11.916l10.647 2.3a6.502 6.502 0 0 1 .618-6.074c2.436-3.562 8.097-1.73 8.097-1.73l3.52-2.267-.762 4.23 4.716-.795-2.424 2.804c3.258 3.13 7.408 12.662-2.601 17.615-10.009 4.954-14.328-.981-14.328-.981l4.937-3.181 4.006-.343Z" fill="#ffb34d" fill-rule="evenodd" data-name="Path"/></g><path d="M959.834 1250.435a1.54 1.54 0 1 1 0 .1z" fill="#fff" fill-rule="evenodd" data-name="Oval"/><path d="M988.215 1469.948h176.095" stroke-linejoin="round" stroke-linecap="round" stroke-width="2" stroke="#000" fill="transparent" data-name="Path"/></g></g></svg>