<?xml version="1.0" standalone="no"?>
<!DOCTYPE svg PUBLIC "-//W3C//DTD SVG 20010904//EN"
 "http://www.w3.org/TR/2001/REC-SVG-20010904/DTD/svg10.dtd">
<svg version="1.0" xmlns="http://www.w3.org/2000/svg"
 width="800.000000pt" height="800.000000pt" viewBox="0 0 800.000000 800.000000"
 preserveAspectRatio="xMidYMid meet">
<metadata>
Created by potrace 1.14, written by Peter Selinger 2001-2017
</metadata>
<g transform="translate(0.000000,800.000000) scale(0.100000,-0.100000)"
fill="#000000" stroke="none">
<path d="M800 7569 c0 -284 3 -428 10 -424 6 3 10 1 10 -6 0 -7 3 -9 7 -6 3 4
12 2 20 -5 10 -8 12 -8 8 4 -4 9 0 15 9 15 8 0 13 -4 10 -9 -6 -10 10 -11 20
0 10 10 30 10 37 0 10 -14 48 -18 43 -4 -2 6 4 12 16 13 11 1 20 -3 20 -8 0
-6 -5 -7 -12 -3 -7 5 -8 3 -3 -6 6 -10 11 -9 22 5 7 11 13 14 13 8 0 -6 7 -13
14 -16 11 -4 13 -1 9 11 -6 15 -5 16 12 2 11 -9 16 -10 11 -2 -4 6 -2 12 3 12
6 0 11 -6 11 -14 0 -8 4 -17 9 -20 5 -3 8 1 7 10 0 10 8 18 22 20 14 3 21 0
17 -6 -3 -5 -2 -10 4 -10 5 0 13 5 16 10 3 6 11 10 17 10 7 0 7 -4 0 -13 -8
-10 -6 -13 8 -13 10 0 17 4 14 7 -2 4 0 10 6 14 5 3 10 1 10 -6 0 -7 3 -9 7
-6 3 4 12 2 20 -5 10 -8 12 -8 8 3 -4 10 2 15 15 16 11 1 20 -3 20 -8 0 -6 -4
-8 -8 -5 -5 3 -9 -2 -9 -11 0 -13 3 -12 17 4 15 19 18 19 29 4 6 -9 9 -11 6
-4 -3 6 -1 14 5 18 5 3 10 1 10 -5 0 -7 6 -8 19 0 25 13 34 13 26 0 -3 -5 -2
-10 4 -10 5 0 13 5 16 10 3 6 11 10 17 10 7 0 7 -4 0 -12 -8 -10 -5 -13 13
-13 12 0 21 5 18 10 -2 6 6 11 17 12 11 1 20 -3 20 -8 0 -6 -5 -7 -12 -3 -7 5
-8 3 -3 -6 6 -10 11 -9 22 5 7 11 13 14 13 8 0 -6 7 -13 14 -16 11 -4 13 -1 9
11 -6 15 -5 16 12 2 11 -9 16 -10 11 -2 -4 6 -2 12 3 12 6 0 11 -6 11 -14 0
-8 4 -17 9 -20 5 -3 8 2 7 10 0 9 7 18 17 19 9 2 17 -2 17 -8 0 -5 3 -7 7 -4
3 4 12 2 20 -5 10 -8 12 -8 8 4 -4 9 0 15 9 15 8 0 13 -4 10 -9 -6 -10 10 -11
20 -1 10 10 36 13 36 3 0 -13 29 -20 36 -8 4 6 3 8 -4 4 -6 -3 -13 -3 -16 2
-2 4 11 8 30 8 19 0 34 -4 34 -9 0 -5 8 -3 17 4 11 10 14 10 9 2 -8 -14 6 -18
18 -6 10 10 36 13 36 4 0 -4 12 -13 28 -20 l27 -12 -22 18 -23 18 25 1 c14 1
22 -2 19 -7 -3 -5 -1 -9 5 -9 5 0 13 5 16 10 3 6 11 10 17 10 7 0 7 -4 0 -13
-8 -10 -6 -13 8 -13 10 0 17 4 14 7 -2 4 0 10 6 14 5 3 10 1 10 -6 0 -7 3 -9
7 -6 3 4 12 2 20 -5 10 -8 12 -8 8 3 -4 10 2 15 15 16 11 1 20 -3 20 -8 0 -6
-4 -8 -8 -5 -5 3 -9 -2 -9 -11 0 -13 3 -12 17 4 15 19 18 19 29 4 6 -9 9 -11
6 -4 -3 6 -1 14 5 18 5 3 10 1 10 -5 0 -7 6 -8 19 0 25 13 34 13 26 0 -3 -5
-2 -10 4 -10 5 0 13 5 16 10 3 6 11 10 17 10 6 0 5 -7 -3 -17 -10 -12 -11 -15
-1 -9 7 4 20 2 30 -6 15 -11 15 -11 5 3 -13 16 -8 29 9 29 5 0 6 -4 3 -10 -3
-5 -2 -10 4 -10 5 0 13 5 16 10 3 6 11 10 17 10 7 0 7 -4 0 -13 -8 -10 -6 -13
8 -13 10 0 17 4 14 7 -2 4 0 10 6 14 5 3 10 1 10 -6 0 -7 3 -9 7 -6 3 4 12 2
20 -5 10 -8 12 -8 8 3 -4 10 2 15 15 16 11 1 20 -3 20 -8 0 -6 -4 -8 -8 -5 -5
3 -9 -2 -9 -11 0 -13 3 -12 17 4 15 19 18 19 29 4 6 -9 9 -11 6 -4 -3 6 -1 14
5 18 5 3 10 1 10 -5 0 -7 6 -8 19 0 25 13 34 13 26 0 -3 -5 -2 -10 4 -10 5 0
13 5 16 10 3 6 11 10 17 10 7 0 7 -4 0 -12 -8 -10 -5 -13 13 -13 12 0 21 5 18
10 -2 6 6 11 17 12 11 1 20 -3 20 -8 0 -6 -5 -7 -12 -3 -7 5 -8 3 -3 -6 6 -10
11 -9 22 5 7 11 13 14 13 8 0 -6 7 -13 14 -16 11 -4 13 -1 9 11 -6 15 -5 16
12 2 11 -9 16 -10 11 -2 -4 6 -2 12 3 12 6 0 11 -6 11 -14 0 -8 4 -17 9 -20 5
-3 8 1 7 10 0 10 8 18 22 20 14 3 21 0 17 -6 -3 -5 -2 -10 4 -10 5 0 13 5 16
10 3 6 11 10 17 10 7 0 7 -4 0 -13 -8 -10 -6 -13 8 -13 10 0 17 4 14 7 -2 4 0
10 6 14 5 3 10 1 10 -6 0 -7 3 -9 7 -6 3 4 12 2 20 -5 10 -8 12 -8 8 3 -4 10
2 15 15 16 11 1 20 -3 20 -8 0 -6 -4 -8 -8 -5 -5 3 -9 -2 -9 -11 0 -13 3 -12
17 4 15 19 18 19 29 4 6 -9 9 -11 6 -4 -3 6 -1 14 5 18 5 3 10 1 10 -5 0 -7 6
-8 19 0 25 13 34 13 26 0 -3 -5 -2 -10 4 -10 5 0 13 5 16 10 3 6 11 10 17 10
7 0 7 -4 0 -12 -8 -10 -5 -13 13 -13 12 0 21 5 18 10 -2 6 6 11 17 12 11 1 20
-3 20 -8 0 -6 -5 -7 -12 -3 -7 5 -8 3 -3 -6 6 -10 11 -9 22 5 7 11 13 14 13 8
0 -6 7 -13 14 -16 11 -4 13 -1 9 11 -6 15 -5 16 12 2 11 -9 16 -10 11 -2 -4 6
-2 12 3 12 6 0 11 -6 11 -14 0 -8 4 -18 10 -21 5 -3 7 0 4 8 -3 8 0 18 7 23 7
4 10 3 6 -3 -4 -6 0 -13 8 -16 8 -4 12 -1 9 6 -2 7 4 13 16 14 11 1 20 -3 20
-8 0 -6 -5 -7 -12 -3 -7 5 -8 3 -3 -6 6 -10 11 -9 22 5 7 11 13 14 13 8 0 -6
7 -13 14 -16 11 -4 13 -1 9 11 -6 15 -5 16 12 2 11 -9 16 -10 11 -2 -4 6 -2
12 3 12 6 0 11 -6 11 -14 0 -8 4 -17 9 -20 5 -3 8 1 7 10 0 10 8 18 22 20 14
3 21 0 17 -6 -3 -5 -2 -10 4 -10 5 0 13 5 16 10 3 6 11 10 17 10 7 0 7 -4 0
-13 -8 -10 -6 -13 8 -13 10 0 17 4 14 7 -2 4 0 10 6 14 5 3 10 1 10 -6 0 -7 3
-9 7 -6 3 4 12 2 20 -5 10 -8 12 -8 8 3 -4 10 2 15 15 16 11 1 20 -3 20 -8 0
-6 -4 -8 -8 -5 -5 3 -9 -2 -9 -11 0 -13 3 -12 17 4 15 19 18 19 29 4 6 -9 9
-11 6 -4 -3 6 -1 14 5 18 5 3 10 1 10 -5 0 -7 6 -8 19 0 25 13 34 13 26 0 -3
-5 -2 -10 4 -10 5 0 13 5 16 10 3 6 11 10 17 10 7 0 7 -4 0 -12 -8 -10 -5 -13
13 -13 12 0 21 5 18 10 -2 6 6 11 17 12 11 1 20 -3 20 -8 0 -6 -5 -7 -12 -3
-7 5 -8 3 -3 -6 6 -10 11 -9 22 5 7 11 13 14 13 8 0 -6 7 -13 14 -16 11 -4 13
-1 9 11 -6 15 -5 16 12 2 11 -9 16 -10 11 -2 -4 6 -2 12 3 12 6 0 11 -6 11
-14 0 -8 4 -17 9 -20 5 -3 8 1 7 10 0 10 8 18 22 20 14 3 21 0 17 -6 -3 -5 -2
-10 4 -10 5 0 13 5 16 10 3 6 11 10 17 10 7 0 7 -4 0 -13 -8 -10 -6 -13 8 -13
10 0 17 4 14 7 -2 4 0 10 6 14 5 3 10 1 10 -6 0 -7 3 -9 7 -6 3 4 12 2 20 -5
10 -8 12 -8 8 3 -4 10 2 15 15 16 11 1 20 -3 20 -8 0 -6 -4 -8 -8 -5 -5 3 -9
-2 -9 -11 0 -13 3 -12 17 4 15 19 18 19 29 4 6 -9 9 -11 6 -4 -3 6 -1 14 5 18
5 3 10 1 10 -5 0 -7 6 -8 19 0 25 13 34 13 26 0 -3 -5 -2 -10 4 -10 5 0 13 5
16 10 3 6 11 10 17 10 6 0 5 -7 -3 -17 -10 -12 -11 -15 -1 -9 7 4 20 2 30 -6
15 -11 15 -11 5 3 -13 16 -8 29 9 29 5 0 6 -4 3 -10 -3 -5 -2 -10 4 -10 5 0
13 5 16 10 3 6 11 10 17 10 7 0 7 -4 0 -13 -8 -10 -6 -13 8 -13 10 0 17 4 14
7 -2 4 0 10 6 14 5 3 10 1 10 -6 0 -7 3 -9 7 -6 3 4 12 2 20 -5 10 -8 12 -8 8
3 -4 10 2 15 15 16 11 1 20 -3 20 -8 0 -6 -4 -8 -8 -5 -5 3 -9 -2 -9 -11 0
-13 3 -12 17 4 15 19 18 19 29 4 6 -9 9 -11 6 -4 -3 6 -1 14 5 18 5 3 10 1 10
-5 0 -7 6 -8 19 0 25 13 34 13 26 0 -3 -5 -2 -10 4 -10 5 0 13 5 16 10 3 6 11
10 17 10 7 0 7 -4 0 -13 -8 -10 -6 -13 8 -13 10 0 17 4 14 7 -2 4 0 10 6 14 5
3 10 1 10 -6 0 -7 3 -9 7 -6 3 4 12 2 20 -5 10 -8 12 -8 8 4 -4 9 0 15 9 15 8
0 13 -4 10 -9 -6 -10 10 -11 20 -1 10 10 36 13 36 3 0 -13 29 -20 36 -8 4 6 3
8 -4 4 -6 -3 -13 -3 -16 2 -2 4 11 8 30 8 19 0 34 -5 34 -10 0 -6 5 -5 12 2
15 15 28 15 28 1 0 -5 -6 -7 -12 -3 -9 5 -9 2 1 -9 15 -19 26 -23 15 -5 -5 8
-2 9 11 4 16 -6 16 -4 4 10 -13 16 -11 15 20 0 28 -15 33 -16 28 -3 -6 17 12
17 34 1 8 -5 26 -9 42 -8 15 0 27 -4 27 -10 0 -6 5 -4 10 4 7 10 12 12 18 4 4
-6 16 -11 27 -11 11 0 23 5 27 11 5 7 8 4 8 -7 0 -15 4 -16 20 -7 17 9 19 8
13 -7 -6 -15 -4 -16 9 -5 12 9 18 10 23 2 4 -6 17 -10 28 -9 36 2 47 0 47 -12
0 -8 -6 -7 -17 2 -16 13 -17 12 -5 -2 9 -12 23 -15 47 -12 21 3 35 0 35 -6 0
-6 5 -11 11 -11 5 0 7 5 3 11 -4 8 0 8 15 0 11 -7 21 -17 21 -24 0 -7 4 -6 10
3 8 12 10 12 10 1 0 -8 7 -11 19 -8 14 3 18 1 14 -10 -5 -13 -3 -14 18 -3 22
12 23 12 10 -4 -12 -14 -12 -16 2 -11 9 4 21 -3 31 -17 9 -12 16 -17 16 -10 0
7 9 10 23 8 12 -3 25 -5 29 -5 4 -1 4 -8 1 -18 -4 -11 -3 -14 5 -9 18 11 52
-12 46 -32 -5 -16 -5 -16 6 1 12 19 30 23 30 6 0 -5 -5 -7 -12 -3 -7 4 -8 3
-4 -4 4 -6 13 -9 22 -5 8 3 14 1 12 -5 -2 -5 2 -11 7 -12 6 -1 16 -7 24 -13
12 -10 13 -9 6 2 -5 10 -4 12 4 7 7 -4 9 -17 6 -29 -5 -18 -4 -19 5 -7 9 11
13 12 17 3 2 -7 11 -13 19 -13 9 0 13 -4 10 -9 -3 -5 2 -8 12 -7 9 0 16 -4 15
-11 -1 -6 4 -14 13 -17 10 -4 13 -2 8 7 -4 6 2 3 13 -8 11 -11 18 -24 15 -30
-3 -5 3 -3 14 5 10 8 16 10 12 6 -4 -5 3 -19 17 -31 13 -13 21 -26 17 -29 -3
-4 2 -4 12 0 13 5 17 4 13 -3 -4 -6 4 -13 17 -17 13 -3 27 -13 30 -23 6 -16 6
-16 -12 0 -10 9 -22 17 -26 17 -4 0 6 -11 21 -24 22 -19 31 -22 42 -13 12 10
13 9 8 -7 -9 -22 9 -47 28 -40 7 3 12 -1 12 -10 -1 -8 2 -15 7 -15 13 1 28
-29 22 -40 -4 -5 4 -7 16 -5 13 2 18 2 11 -2 -15 -7 -6 -34 12 -34 15 0 47
-35 39 -43 -3 -3 5 -17 20 -31 16 -17 23 -32 19 -43 -4 -9 -2 -14 3 -11 5 3
14 0 21 -7 10 -11 10 -15 0 -18 -7 -3 -2 -6 11 -6 12 -1 22 -5 22 -11 0 -5 -8
-7 -17 -4 -11 4 -14 3 -7 -3 6 -4 19 -23 28 -40 9 -18 21 -33 27 -33 6 0 6 -6
0 -18 -7 -14 -6 -19 4 -19 8 0 11 5 8 11 -3 6 -2 7 2 3 14 -12 15 -38 2 -30
-8 5 -8 2 0 -9 7 -8 9 -19 5 -24 -4 -4 2 -2 12 6 13 10 17 10 12 3 -4 -8 -2
-13 6 -13 10 0 10 -2 -1 -9 -11 -7 -11 -9 0 -14 11 -4 11 -6 0 -6 -11 -1 -10
-5 5 -16 16 -13 17 -16 4 -25 -13 -8 -12 -10 3 -10 10 0 15 -4 12 -10 -3 -5
-2 -10 4 -10 5 0 8 -9 6 -20 -2 -11 1 -23 7 -26 7 -5 8 -2 3 7 -7 12 -6 12 6
0 11 -10 11 -15 2 -18 -10 -3 -9 -9 3 -20 13 -13 13 -17 2 -24 -13 -8 -4 -13
17 -9 6 1 5 -4 -2 -11 -9 -9 -9 -15 2 -25 8 -8 11 -26 9 -44 -3 -18 -1 -30 6
-30 6 0 8 -5 3 -12 -11 -19 -13 -39 -2 -32 5 3 9 0 9 -6 0 -6 5 -8 12 -4 7 4
8 3 4 -5 -4 -6 -11 -9 -15 -7 -4 3 -7 -4 -8 -14 -1 -11 2 -22 8 -25 5 -4 6 2
2 12 -3 10 -2 14 2 10 5 -4 9 -27 10 -50 0 -23 4 -47 8 -54 4 -6 4 -14 -1 -17
-9 -6 -9 -87 1 -103 4 -6 3 -14 -3 -18 -5 -3 -10 -11 -10 -16 0 -6 5 -7 12 -3
7 5 8 3 3 -6 -4 -7 -9 -38 -10 -69 0 -31 -7 -67 -15 -81 -12 -23 -12 -24 3
-11 10 7 17 11 17 7 0 -10 -24 -50 -35 -58 -6 -5 -5 -8 4 -8 11 0 11 -3 0 -17
-8 -9 -9 -14 -3 -10 6 3 11 0 11 -8 0 -8 -5 -11 -10 -8 -6 4 -7 -4 -3 -21 5
-21 4 -26 -6 -20 -8 5 -8 1 2 -11 14 -17 13 -18 -2 -12 -10 3 -20 1 -24 -5 -4
-7 -3 -8 4 -4 7 4 12 1 12 -9 0 -9 -4 -13 -10 -10 -7 4 -7 -3 0 -20 6 -15 6
-24 1 -20 -5 3 -12 1 -16 -5 -3 -5 0 -10 7 -10 7 -1 2 -7 -11 -14 -17 -9 -20
-15 -10 -18 12 -4 12 -8 -1 -23 -8 -10 -10 -16 -3 -12 7 5 9 0 6 -13 -3 -11
-10 -20 -15 -20 -5 0 -6 5 -3 10 3 6 2 10 -4 10 -5 0 -9 -9 -8 -19 0 -11 5
-17 9 -15 4 3 5 -2 2 -10 -3 -9 -10 -16 -15 -16 -5 0 -9 -5 -9 -11 0 -5 6 -7
13 -3 17 11 -13 -28 -36 -44 -9 -7 -15 -18 -11 -23 3 -5 0 -17 -8 -26 -9 -12
-9 -15 -1 -9 9 5 11 2 7 -8 -3 -9 -11 -14 -16 -13 -6 1 -13 -4 -16 -12 -3 -9
0 -11 8 -6 9 5 11 4 6 -3 -4 -7 -15 -12 -24 -12 -15 0 -15 -2 -2 -10 13 -9 7
-14 -12 -11 -4 0 -5 -5 -2 -13 3 -8 0 -17 -5 -21 -6 -3 -8 -12 -4 -18 4 -7 -1
-6 -10 2 -15 12 -17 12 -11 -4 5 -13 4 -16 -4 -11 -7 4 -10 2 -6 -7 3 -8 -5
-19 -18 -26 -13 -6 -15 -9 -6 -7 10 3 20 0 24 -6 4 -6 3 -8 -4 -4 -6 3 -13 2
-17 -4 -4 -6 -12 -7 -18 -3 -8 5 -8 2 0 -9 15 -18 5 -32 -12 -18 -9 8 -12 4
-9 -16 2 -18 -2 -24 -11 -20 -15 5 -28 -20 -18 -36 3 -6 1 -8 -4 -5 -6 4 -14
0 -17 -9 -3 -9 -13 -14 -20 -11 -10 4 -13 0 -11 -14 2 -11 0 -17 -4 -14 -5 2
-15 -3 -22 -12 -12 -14 -12 -16 1 -9 8 4 6 1 -4 -8 -10 -8 -23 -13 -27 -10 -5
3 -6 -3 -2 -12 4 -10 2 -15 -3 -11 -6 3 -16 2 -24 -4 -12 -6 -12 -9 -2 -9 10
0 10 -3 -2 -15 -17 -18 -30 -20 -20 -3 4 6 3 8 -4 4 -6 -3 -9 -16 -7 -27 4
-18 2 -19 -12 -7 -9 7 -14 8 -10 2 8 -14 -18 -38 -33 -29 -5 3 -13 -2 -17 -11
-10 -27 -46 -59 -64 -56 -8 1 -24 -8 -35 -20 l-19 -23 22 18 c16 14 23 15 29
6 4 -7 3 -10 -3 -6 -6 4 -16 1 -22 -7 -7 -8 -22 -12 -34 -9 -18 4 -19 3 -7 -6
13 -9 12 -11 -5 -12 -11 -1 -24 -1 -28 0 -5 1 -6 -3 -3 -8 4 -5 -7 -15 -24
-23 -16 -7 -30 -17 -30 -23 0 -5 -5 -3 -10 5 -8 13 -10 13 -10 -1 0 -9 -7 -20
-16 -23 -8 -3 -12 -2 -9 4 3 6 -1 7 -9 4 -9 -3 -14 -10 -11 -14 3 -5 1 -11 -5
-15 -5 -3 -10 0 -10 7 0 10 -3 9 -9 -1 -8 -12 -12 -12 -24 -2 -12 9 -17 9 -23
0 -4 -7 -3 -9 4 -5 6 3 13 2 17 -4 3 -5 -2 -10 -12 -10 -10 0 -29 -8 -42 -17
-14 -9 -22 -12 -18 -7 11 19 -31 13 -49 -7 -19 -21 -39 -26 -29 -6 4 6 -1 3
-9 -7 -17 -21 -25 -24 -93 -29 -23 -2 -49 -11 -58 -21 -22 -21 -31 -21 -14 2
8 11 4 9 -11 -4 -19 -17 -30 -20 -48 -13 -17 6 -24 5 -28 -6 -4 -8 -10 -15
-16 -15 -5 0 -6 6 -3 13 4 6 -1 3 -9 -7 -12 -15 -16 -16 -16 -5 -1 11 -3 10
-10 -3 -6 -10 -20 -15 -35 -13 -16 1 -25 -3 -25 -12 0 -8 -5 -11 -10 -8 -6 4
-8 12 -4 18 3 7 -1 4 -9 -6 -11 -13 -16 -15 -20 -5 -4 10 -7 10 -18 -1 -12
-12 -12 -13 1 -6 13 8 13 7 1 -8 -14 -18 -26 -24 -17 -8 3 5 -1 14 -9 21 -13
11 -14 10 -9 -5 5 -13 4 -16 -4 -11 -7 4 -12 3 -12 -2 0 -6 -7 -13 -16 -16 -8
-3 -12 -2 -9 4 3 6 1 10 -5 10 -6 0 -13 -7 -16 -15 -5 -12 -11 -10 -29 11 -13
15 -27 24 -33 20 -6 -3 -13 -2 -17 4 -4 6 -11 7 -17 4 -7 -4 -8 -2 -4 5 6 9
12 9 24 -1 15 -12 16 -11 3 4 -7 10 -17 15 -22 12 -5 -3 -9 0 -9 6 0 7 -7 9
-16 6 -12 -5 -15 -2 -10 9 3 9 2 13 -4 10 -6 -3 -10 -2 -10 3 0 6 -7 13 -16
16 -15 6 -15 4 -3 -11 13 -16 12 -17 -4 -4 -10 8 -15 21 -12 29 4 12 3 13 -10
2 -13 -11 -15 -9 -15 11 0 19 -2 21 -10 9 -7 -12 -10 -12 -10 -1 0 7 -6 11
-14 8 -10 -4 -14 0 -11 13 3 14 -2 17 -20 15 -14 -1 -22 2 -19 7 5 8 -53 35
-68 30 -4 -1 -4 6 -1 15 5 12 2 15 -10 10 -9 -3 -17 -2 -17 4 0 6 -6 7 -12 3
-10 -6 -10 -5 -1 7 11 14 8 16 -18 14 -25 -2 -30 1 -26 17 5 16 3 17 -9 7 -11
-9 -14 -9 -14 1 0 7 -7 10 -16 6 -8 -3 -12 -2 -9 4 10 17 -5 32 -20 20 -9 -8
-14 -6 -19 5 -4 11 -2 14 6 9 7 -5 8 -3 4 5 -5 7 -11 10 -14 7 -3 -3 -14 2
-24 11 -18 16 -19 16 -13 -3 4 -13 2 -11 -8 5 -11 18 -16 20 -20 10 -4 -10 -6
-9 -6 4 -1 15 -12 22 -33 18 -5 0 -8 4 -8 10 0 6 -6 9 -14 6 -8 -3 -20 2 -28
11 -9 11 -10 14 0 8 18 -11 15 -1 -5 15 -10 8 -14 9 -10 2 4 -6 3 -14 -3 -18
-5 -3 -10 -2 -10 4 0 5 -7 17 -16 25 -17 18 -39 22 -29 6 3 -6 -1 -7 -9 -4 -8
3 -18 15 -22 26 -5 16 -8 18 -15 7 -7 -12 -9 -12 -9 0 0 8 -6 11 -16 7 -14 -5
-15 -4 -5 8 11 13 9 15 -7 11 -11 -2 -30 5 -43 16 -12 10 -26 16 -30 13 -5 -3
-9 0 -9 5 0 6 -5 11 -11 11 -5 0 -7 -6 -3 -12 4 -8 3 -10 -2 -5 -5 5 -9 14 -9
20 0 5 -6 12 -14 15 -9 3 -11 0 -6 -7 5 -9 2 -9 -13 0 -12 7 -18 17 -15 22 4
6 -5 8 -21 5 -20 -4 -26 -1 -26 13 0 11 -5 19 -11 19 -5 0 -7 -4 -4 -10 3 -6
-1 -7 -9 -4 -9 3 -16 11 -16 18 0 8 -2 8 -8 0 -5 -9 -11 -8 -20 2 -10 10 -10
14 -1 14 7 0 9 3 6 6 -4 4 -14 1 -24 -7 -11 -9 -14 -10 -9 -1 5 8 0 12 -14 12
-13 0 -19 4 -14 11 4 8 0 9 -15 4 -14 -4 -21 -3 -19 5 2 7 -3 15 -11 18 -10 3
-12 0 -7 -13 5 -15 4 -16 -9 -5 -8 7 -13 16 -10 20 3 4 -2 10 -10 14 -8 3 -17
1 -21 -5 -8 -14 -34 9 -34 30 0 14 -2 14 -10 1 -5 -8 -10 -10 -10 -4 0 7 -13
10 -32 8 -29 -4 -30 -3 -13 9 14 11 15 16 5 22 -9 5 -11 4 -6 -3 4 -7 1 -12
-8 -12 -9 0 -16 4 -16 9 0 5 -8 8 -17 7 -11 0 -17 5 -15 14 3 12 1 12 -9 3
-10 -10 -15 -9 -26 5 -8 9 -12 11 -8 5 3 -7 1 -13 -4 -13 -6 0 -11 4 -11 9 0
4 -10 8 -22 7 -13 0 -23 5 -24 12 -3 25 -5 27 -15 12 -8 -11 -12 -12 -16 -2
-2 6 -11 12 -19 12 -8 0 -14 4 -14 9 0 5 -9 11 -21 14 -20 5 -20 5 -2 -16 18
-21 18 -21 -2 -7 -11 8 -26 22 -33 30 -8 8 -11 11 -9 5 3 -5 -6 -11 -19 -11
-23 -2 -24 -1 -7 12 16 12 15 13 -10 8 -21 -3 -27 -1 -21 8 4 7 4 10 -1 6 -4
-4 -14 -3 -22 4 -11 9 -12 7 -8 -8 4 -12 1 -10 -8 5 -11 18 -16 20 -20 10 -4
-10 -6 -10 -6 -1 -1 6 -13 12 -27 12 -14 0 -23 4 -19 10 3 6 1 10 -4 10 -6 0
-11 -6 -11 -12 0 -8 -3 -9 -8 -3 -11 16 -47 41 -39 28 5 -8 0 -11 -13 -10 -22
1 -27 13 -7 21 6 3 -1 2 -17 -1 -23 -5 -27 -3 -21 8 6 11 5 12 -6 2 -17 -17
-29 -16 -29 2 0 9 -6 12 -17 8 -10 -4 -14 -2 -10 4 3 5 0 10 -8 10 -8 0 -11
-5 -8 -11 4 -6 -4 -2 -17 9 -23 19 -23 19 -16 1 6 -19 6 -19 -12 -3 -15 13
-21 14 -31 4 -11 -10 -11 -8 -1 13 13 25 13 25 -8 6 -19 -16 -22 -17 -28 -3
-3 8 -12 18 -20 21 -8 3 -13 2 -10 -3 6 -9 -31 -7 -56 4 -10 4 -15 12 -11 19
4 6 -1 5 -10 -3 -13 -10 -17 -10 -17 -1 0 8 -8 10 -21 7 -16 -4 -19 -2 -14 11
5 14 3 13 -14 -2 -14 -13 -21 -14 -27 -5 -4 8 -3 10 4 5 7 -4 12 -2 12 3 0 6
-12 11 -26 11 -14 0 -35 5 -47 12 -21 10 -21 10 -7 -7 14 -17 13 -17 -5 -8
-11 6 -30 9 -42 8 -19 -1 -21 1 -10 14 10 12 9 14 -5 8 -10 -3 -18 -3 -18 1 0
4 -22 7 -50 7 -38 0 -50 3 -50 15 0 13 -1 13 -10 0 -8 -12 -10 -12 -10 -1 0 8
-3 11 -6 8 -4 -3 -16 -2 -27 4 -15 9 -18 8 -12 -3 6 -10 5 -11 -6 0 -16 14
-33 16 -24 2 3 -6 -1 -7 -9 -4 -9 3 -13 11 -9 18 4 6 -1 5 -10 -3 -15 -12 -17
-11 -17 3 0 13 -7 15 -36 10 -28 -4 -34 -3 -28 8 6 10 3 9 -10 -1 -15 -13 -19
-13 -27 0 -7 12 -9 12 -9 0 0 -11 -4 -10 -14 4 -13 18 -13 18 -25 -1 -12 -18
-12 -18 -8 3 3 15 1 20 -9 16 -7 -2 -12 -10 -10 -16 1 -7 1 -9 -1 -4 -3 4 -9
5 -14 2 -5 -4 -6 0 -4 7 4 9 -2 14 -14 14 -11 0 -17 -4 -15 -8 3 -4 0 -8 -5
-8 -6 0 -11 4 -11 9 0 6 -12 9 -27 7 -16 -1 -34 2 -40 7 -8 5 -13 6 -13 0 0
-10 -41 -10 -58 1 -7 4 -9 12 -6 18 4 7 2 8 -5 4 -6 -4 -8 -12 -5 -18 4 -6 2
-8 -4 -4 -5 3 -12 3 -15 -1 -2 -5 -2 -2 -1 5 4 15 -1 15 -29 0 -19 -9 -20 -9
-10 3 9 11 7 14 -13 15 -15 1 -21 -2 -17 -10 4 -7 2 -7 -8 1 -11 9 -19 9 -26
2 -7 -7 -14 -5 -22 5 -10 12 -18 13 -32 5 -14 -7 -19 -6 -19 2 0 8 -4 8 -15
-1 -12 -10 -15 -10 -15 0 0 9 -4 9 -17 -1 -9 -8 -14 -9 -10 -3 4 7 0 15 -9 18
-8 3 -12 2 -9 -3 3 -5 1 -12 -5 -16 -5 -3 -10 -3 -10 2 0 4 -11 13 -24 19 -21
10 -23 9 -18 -10 5 -20 5 -20 -14 1 -15 18 -22 20 -34 12 -13 -10 -13 -10 1
-6 9 3 16 -1 16 -8 0 -10 -6 -11 -23 -3 -13 6 -21 15 -17 20 3 6 -3 5 -14 -1
-14 -7 -24 -7 -33 2 -10 9 -11 9 -6 0 4 -7 2 -13 -3 -13 -6 0 -11 6 -11 13 0
8 -4 7 -10 -3 -6 -10 -10 -11 -10 -2 0 6 -5 12 -11 12 -5 0 -7 -6 -3 -12 5 -9
2 -9 -9 1 -9 7 -17 9 -17 4 0 -5 -7 -10 -15 -10 -8 0 -12 4 -9 9 3 4 1 8 -5 8
-5 0 -13 -5 -17 -11 -4 -8 -9 -7 -14 2 -7 10 -12 10 -23 1 -7 -7 -17 -8 -21
-4 -12 11 -76 10 -76 -2 0 -6 -4 -5 -9 3 -8 13 -12 13 -27 0 -14 -11 -16 -11
-10 0 6 9 4 12 -5 9 -12 -4 -14 -77 -17 -428 -2 -430 1 -467 33 -440 8 7 15 7
19 1 4 -5 23 -4 50 4 35 11 44 11 40 1 -3 -8 6 -12 25 -11 23 0 27 3 19 13 -8
9 -7 11 5 6 9 -3 18 -13 20 -22 4 -14 5 -13 6 2 1 20 1 20 16 0 13 -18 14 -18
9 6 -2 14 -2 19 2 12 3 -6 11 -9 16 -6 7 4 8 2 4 -4 -10 -16 26 -15 43 1 9 7
11 7 8 1 -4 -7 0 -15 9 -18 8 -3 12 -2 9 3 -3 5 -1 12 5 16 5 3 10 0 10 -8 0
-10 12 -14 39 -13 23 1 37 5 34 11 -3 6 0 5 7 -2 7 -6 19 -9 28 -6 11 5 13 3
7 -8 -7 -11 -6 -12 6 -2 9 7 20 8 29 3 8 -5 19 -6 25 -2 20 13 40 11 58 -5 15
-14 17 -14 12 -2 -4 10 0 16 10 16 11 0 14 -6 9 -21 -4 -17 -3 -18 5 -6 10 13
12 13 21 0 8 -12 10 -10 10 10 1 25 1 25 13 3 9 -17 16 -19 30 -12 12 7 17 7
17 -2 0 -9 3 -9 14 0 11 9 16 9 21 1 4 -7 15 -10 25 -7 9 2 25 0 35 -6 14 -7
16 -7 10 3 -6 10 -4 12 9 7 10 -4 20 -7 23 -7 3 0 0 -7 -7 -15 -11 -13 -10
-14 4 -9 9 3 16 11 16 18 0 6 4 5 9 -3 10 -16 61 -22 61 -8 0 5 6 4 13 -2 8
-6 17 -8 20 -4 10 9 38 -18 30 -30 -3 -6 -1 -7 6 -3 9 6 9 11 0 22 -10 12 -10
15 2 12 8 -2 19 -9 25 -17 6 -8 21 -15 32 -16 17 -1 19 1 10 12 -8 11 -7 12 6
7 9 -3 16 -11 16 -18 0 -7 3 -7 8 -1 11 15 41 15 35 -1 -4 -10 2 -11 25 -4 26
7 30 6 25 -8 -4 -10 -3 -14 2 -10 4 4 14 3 21 -3 10 -9 15 -7 20 5 5 13 9 13
26 -7 11 -12 17 -17 14 -11 -3 7 1 14 9 18 13 5 20 -5 16 -26 -2 -14 11 -9 26
10 14 16 14 16 9 0 -3 -10 0 -20 6 -24 6 -4 8 -3 5 3 -4 7 3 10 18 9 14 0 25
-3 25 -6 0 -3 11 -7 25 -8 14 -1 25 3 25 9 0 5 5 7 11 3 8 -4 7 -9 -2 -15 -7
-4 -10 -11 -6 -15 3 -4 14 -1 24 7 13 11 15 11 9 1 -6 -11 1 -13 35 -11 34 3
44 0 47 -13 2 -9 10 -19 19 -22 14 -6 14 -4 2 10 -13 16 -12 16 9 5 12 -6 27
-9 32 -6 5 3 18 1 27 -5 16 -11 16 -11 1 -6 -10 3 -20 0 -24 -6 -4 -6 -3 -8 4
-4 6 3 13 2 17 -4 4 -7 13 -6 27 1 11 6 18 7 15 2 -3 -5 4 -15 16 -23 20 -12
21 -12 8 3 -19 24 1 21 29 -3 25 -22 35 -26 25 -10 -3 6 -1 10 4 10 6 0 11 -4
11 -9 0 -4 10 -8 23 -7 12 1 34 -6 50 -17 20 -13 27 -15 28 -5 0 7 5 3 11 -9
13 -27 30 -31 21 -5 -5 14 -4 14 9 -2 10 -13 22 -17 37 -13 15 4 26 -1 34 -14
6 -10 15 -19 20 -19 4 0 5 4 2 10 -3 6 1 7 9 4 9 -3 14 -9 11 -14 -7 -11 71
-34 91 -26 15 6 15 4 3 -11 -7 -10 -9 -15 -4 -10 4 4 18 -1 29 -10 20 -17 20
-17 7 0 -12 15 -12 17 3 11 9 -3 16 -11 16 -18 0 -6 5 -4 10 4 8 13 10 12 10
-2 0 -10 3 -18 8 -19 4 -1 21 -2 37 -4 44 -4 45 -4 45 -16 0 -8 -6 -7 -17 2
-16 12 -17 12 -5 -2 8 -11 23 -15 43 -13 21 3 28 0 23 -8 -5 -8 -2 -9 9 -5 9
3 16 3 16 -1 -3 -19 2 -25 11 -12 6 10 10 11 10 3 0 -7 7 -13 16 -13 8 0 12
-5 8 -11 -5 -8 -1 -8 14 0 18 10 20 9 17 -9 -2 -11 0 -18 5 -15 5 3 11 1 15
-4 3 -5 14 -8 25 -6 11 2 20 0 20 -6 0 -5 5 -9 11 -9 5 0 7 5 3 12 -4 7 -3 8
5 4 9 -6 9 -11 -1 -24 -12 -14 -10 -14 11 -3 15 8 21 9 17 2 -4 -7 1 -11 13
-11 12 0 21 -4 21 -10 0 -5 3 -9 8 -9 20 3 32 -2 32 -16 0 -8 4 -15 10 -15 5
0 7 8 3 18 -4 12 0 11 15 -6 11 -13 29 -24 40 -25 12 0 18 -5 16 -9 -3 -4 2
-8 10 -8 9 0 16 -4 16 -10 0 -5 6 -10 14 -10 8 0 17 -6 19 -12 4 -10 6 -9 6 1
1 10 7 7 20 -8 11 -12 23 -22 27 -21 5 1 11 -7 15 -17 6 -15 8 -14 9 7 l2 25
7 -24 c3 -13 14 -25 24 -27 10 -1 15 2 11 9 -3 7 1 3 10 -7 8 -10 13 -23 10
-27 -3 -5 1 -6 9 -3 8 3 18 1 22 -5 3 -6 13 -11 22 -11 9 0 24 -9 33 -20 11
-13 21 -17 25 -10 3 5 11 10 17 10 7 0 7 -4 0 -13 -8 -10 -6 -16 10 -26 16
-10 19 -10 13 1 -3 7 0 5 8 -4 8 -10 19 -18 26 -18 6 0 11 -6 11 -12 0 -9 4
-8 10 2 6 10 10 11 10 3 0 -7 9 -22 21 -34 l21 -21 -6 24 -6 23 11 -22 c7 -13
17 -23 24 -23 7 0 17 -10 23 -22 7 -15 11 -18 12 -8 0 10 6 6 16 -10 10 -16
13 -18 9 -6 -5 17 -2 16 19 -5 44 -44 52 -49 65 -36 7 7 11 8 9 2 -4 -14 27
-57 35 -48 4 3 7 -2 8 -13 0 -18 1 -18 8 -1 6 17 8 16 21 -7 7 -14 17 -26 22
-26 5 0 6 -6 2 -12 -6 -10 -5 -10 8 0 13 10 18 9 29 -5 13 -17 13 -17 -6 -3
-19 14 -19 14 -6 -3 8 -10 20 -16 27 -13 8 3 13 0 11 -6 -1 -6 4 -13 12 -16 9
-3 11 0 6 8 -5 8 -4 11 3 6 6 -4 9 -13 6 -21 -4 -10 0 -13 15 -10 11 2 20 1
20 -3 -3 -20 2 -32 14 -29 6 1 11 -4 10 -10 -3 -12 9 -17 30 -14 4 0 7 -6 7
-14 0 -8 7 -15 16 -15 8 0 12 -4 9 -10 -3 -5 1 -10 10 -10 9 0 27 -11 41 -25
14 -14 30 -22 37 -18 7 4 6 -1 -2 -10 -12 -15 -12 -17 4 -11 13 5 16 4 11 -4
-4 -7 -1 -12 9 -12 9 0 13 -5 10 -10 -4 -6 -3 -10 2 -9 21 4 34 -2 27 -13 -5
-8 -2 -9 11 -4 16 6 16 4 4 -11 -7 -10 -9 -15 -5 -11 5 4 15 0 23 -10 8 -9 12
-11 8 -5 -4 9 -1 11 10 7 13 -5 13 -9 3 -22 -7 -9 -8 -13 -2 -9 6 3 22 -5 37
-19 14 -13 34 -24 44 -25 11 0 13 -3 6 -6 -7 -2 -13 -9 -13 -14 0 -4 8 -5 17
-2 13 5 15 2 10 -11 -4 -10 -3 -15 3 -11 6 3 10 1 10 -4 0 -6 5 -11 11 -11 5
0 7 5 4 10 -10 16 1 11 16 -7 10 -11 10 -14 2 -9 -7 4 -13 3 -13 -2 0 -5 11
-14 25 -20 14 -7 28 -19 31 -27 4 -8 9 -13 13 -10 4 2 8 -2 8 -10 0 -8 -5 -15
-10 -15 -6 0 -7 -3 -4 -6 4 -4 14 -1 23 7 16 13 17 12 12 -9 -6 -20 -4 -22 10
-10 12 10 14 10 8 1 -4 -8 -2 -13 4 -13 7 0 9 -7 6 -17 -4 -10 -4 -14 0 -10 4
4 13 -1 21 -11 9 -10 11 -11 7 -2 -7 13 -6 13 10 1 13 -11 14 -16 4 -22 -9 -6
-6 -9 10 -9 13 0 22 -6 22 -16 0 -9 5 -12 12 -8 8 5 9 2 5 -9 -3 -9 -1 -19 5
-23 7 -4 8 -3 4 4 -4 7 -5 12 -3 12 3 0 14 -16 26 -35 11 -19 27 -35 36 -35 9
0 14 -4 11 -9 -3 -5 1 -11 9 -15 8 -3 15 -12 15 -21 0 -8 4 -15 8 -15 13 0 53
-36 47 -42 -3 -3 6 -17 20 -32 14 -15 25 -31 25 -37 0 -5 5 -9 11 -9 5 0 7 -6
3 -12 -6 -10 -5 -10 8 -1 19 17 32 4 15 -15 -10 -13 -9 -15 5 -9 11 4 17 2 15
-6 -1 -7 3 -11 10 -10 7 2 10 -3 7 -11 -3 -7 3 -19 13 -27 17 -13 17 -13 3 6
-15 20 -14 20 8 1 22 -19 30 -32 13 -21 -6 3 -9 -3 -8 -14 1 -14 5 -17 13 -10
15 12 29 -24 18 -43 -6 -9 -3 -9 9 1 15 12 17 11 18 -5 1 -11 1 -23 0 -27 -1
-5 3 -6 9 -2 16 10 40 -14 33 -32 -5 -12 -2 -15 10 -10 9 3 16 3 16 -1 -2 -15
14 -52 22 -52 5 0 8 -6 7 -12 -2 -7 5 -12 14 -12 15 1 16 -2 7 -19 -10 -17 -9
-19 6 -13 14 5 16 2 12 -13 -3 -14 -1 -18 10 -14 12 5 14 1 9 -15 -6 -17 -4
-21 8 -16 11 4 16 0 16 -11 0 -10 4 -13 13 -9 8 5 8 2 -2 -9 -11 -15 -11 -17
2 -17 8 0 18 -7 21 -16 3 -8 2 -13 -2 -10 -5 3 -9 -1 -9 -8 0 -8 8 -11 20 -8
13 3 18 1 14 -5 -4 -6 0 -13 8 -17 8 -3 15 -15 15 -26 0 -12 4 -18 10 -15 5 3
7 0 4 -8 -3 -8 2 -21 10 -30 9 -9 16 -22 16 -29 0 -10 3 -9 10 2 8 12 10 9 10
-13 0 -20 4 -26 13 -21 7 5 7 1 -3 -12 -8 -10 -11 -16 -6 -12 5 4 15 1 22 -7
17 -17 18 -29 2 -19 -9 5 -9 2 1 -9 16 -20 25 -22 16 -4 -9 17 25 -24 36 -45
7 -13 6 -17 -3 -14 -7 1 -10 1 -5 -1 4 -3 7 -11 7 -18 0 -8 4 -17 10 -20 6 -4
7 1 3 12 -3 10 -2 15 2 10 5 -4 9 -15 10 -25 4 -29 17 -52 30 -52 8 0 11 -8 8
-20 -3 -12 0 -20 7 -20 7 0 10 -6 7 -13 -6 -15 10 -38 38 -56 11 -7 13 -10 4
-8 -9 3 -16 -1 -16 -9 0 -7 4 -11 9 -8 11 7 38 -14 38 -29 0 -6 -6 -3 -13 7
-13 18 -14 18 -14 1 0 -10 9 -20 20 -23 14 -4 16 -7 5 -13 -10 -7 -11 -9 0 -9
7 0 10 -4 7 -10 -3 -5 2 -10 12 -11 10 0 13 -3 6 -6 -10 -3 -10 -7 0 -18 7 -7
17 -10 22 -7 6 3 4 -2 -4 -11 -9 -11 -10 -17 -2 -17 6 0 11 -9 11 -21 0 -11 5
-17 10 -14 6 3 10 2 10 -4 0 -5 -6 -12 -12 -14 -9 -4 -8 -6 2 -6 8 -1 20 -12
27 -26 8 -19 8 -23 0 -18 -8 4 -8 2 0 -9 7 -8 10 -18 6 -21 -3 -4 1 -7 11 -7
9 0 15 -4 11 -9 -3 -5 -1 -13 5 -16 8 -5 8 -11 1 -19 -6 -7 -8 -15 -5 -19 3
-3 -4 -3 -17 0 -13 4 -20 2 -16 -3 3 -6 -3 -11 -14 -11 -10 -1 -19 3 -19 8 0
6 5 7 12 3 7 -4 8 -3 4 5 -4 6 -11 9 -16 6 -5 -3 -20 -1 -32 5 l-23 11 22 -18
23 -18 -25 -1 c-14 -1 -22 2 -19 7 3 5 1 9 -5 9 -5 0 -13 -4 -16 -10 -3 -5
-11 -10 -17 -10 -7 0 -7 4 0 13 8 10 6 13 -8 13 -10 0 -17 -4 -14 -7 2 -4 0
-10 -6 -14 -5 -3 -10 -1 -10 6 0 7 -3 9 -7 6 -3 -4 -12 -2 -20 5 -10 8 -12 8
-8 -3 4 -10 -2 -15 -15 -16 -11 -1 -20 3 -20 8 0 6 4 8 8 5 5 -3 9 2 9 11 0
13 -3 12 -17 -4 -15 -19 -18 -19 -29 -4 -6 9 -9 11 -6 4 3 -6 1 -14 -5 -18 -5
-3 -10 -1 -10 5 0 7 -6 8 -19 0 -25 -13 -34 -13 -26 0 3 5 2 10 -4 10 -5 0
-13 -5 -16 -10 -3 -6 -11 -10 -17 -10 -7 0 -7 4 0 13 8 9 5 12 -13 12 -12 0
-21 -5 -18 -10 2 -6 -6 -11 -17 -12 -11 -1 -20 3 -20 8 0 6 5 7 12 3 7 -5 8
-3 3 6 -6 10 -11 9 -22 -5 -7 -11 -13 -14 -13 -8 0 6 -7 13 -14 16 -11 4 -13
1 -9 -11 6 -15 5 -16 -12 -2 -11 9 -16 10 -11 2 4 -6 2 -12 -3 -12 -6 0 -11 6
-11 14 0 8 -4 17 -9 20 -5 3 -8 -1 -7 -10 0 -10 -8 -18 -22 -20 -14 -3 -21 0
-17 6 3 5 2 10 -4 10 -5 0 -13 -5 -16 -10 -3 -6 -11 -10 -17 -10 -7 0 -7 4 0
13 8 10 6 13 -8 13 -10 0 -17 -4 -14 -7 2 -4 0 -10 -6 -14 -5 -3 -10 -1 -10 6
0 7 -3 9 -7 6 -3 -4 -12 -2 -20 5 -10 8 -12 8 -8 -3 4 -10 -2 -15 -15 -16 -11
-1 -20 3 -20 8 0 6 4 8 8 5 5 -3 9 2 9 11 0 13 -3 12 -17 -4 -15 -19 -18 -19
-29 -4 -6 9 -9 11 -6 4 3 -6 1 -14 -5 -18 -5 -3 -10 -1 -10 5 0 7 -6 8 -19 0
-25 -13 -34 -13 -26 0 3 6 2 10 -4 10 -5 0 -13 -5 -16 -10 -3 -6 -11 -10 -17
-10 -7 0 -7 4 0 13 8 10 6 13 -8 13 -10 0 -18 -4 -17 -9 1 -5 -4 -12 -12 -15
-8 -3 -11 0 -7 7 4 6 0 11 -9 11 -9 0 -14 -4 -11 -8 3 -5 -2 -9 -10 -9 -10 0
-11 4 -4 11 13 13 13 29 0 21 -5 -3 -10 -1 -10 5 0 6 -5 8 -12 4 -8 -5 -8 -1
2 12 8 10 10 16 6 12 -11 -9 -39 28 -32 41 3 5 -1 11 -9 15 -8 3 -15 10 -15
16 0 17 -26 40 -35 32 -5 -4 -5 -1 -1 6 6 10 11 10 22 1 12 -10 13 -9 8 5 -3
9 -14 16 -24 16 -13 0 -17 7 -14 25 2 22 -1 25 -19 20 -12 -4 -17 -3 -12 2 15
11 13 30 -5 45 -12 11 -12 10 0 -7 14 -18 14 -19 -2 -6 -10 7 -15 17 -13 22 3
4 -3 13 -12 19 -17 11 -17 11 0 6 9 -3 17 -1 17 4 0 6 -9 10 -19 10 -10 0 -22
7 -25 16 -6 15 -4 15 11 3 15 -12 15 -11 -1 8 -10 13 -24 20 -30 16 -6 -4 -4
2 4 12 8 10 10 16 4 12 -13 -8 -27 19 -18 34 3 5 2 9 -3 8 -4 -1 -15 -1 -23 0
-13 1 -13 2 0 11 13 8 13 10 -2 10 -9 0 -20 5 -24 12 -5 7 -2 9 7 4 8 -4 3 2
-11 14 -13 12 -25 28 -26 37 -2 9 -8 21 -15 27 -9 8 -10 8 -4 -3 5 -10 4 -12
-4 -7 -6 4 -9 11 -6 16 8 13 -6 41 -18 33 -6 -4 -8 2 -4 16 4 18 3 20 -9 10
-13 -11 -19 -2 -15 24 0 4 -4 7 -10 7 -5 0 -7 5 -3 12 5 8 2 9 -10 5 -9 -4
-14 -3 -11 2 3 5 1 12 -5 16 -6 4 -8 11 -5 16 6 8 -9 13 -29 10 -5 -1 -3 5 4
14 7 8 10 18 6 22 -3 3 -6 1 -6 -6 0 -8 -5 -7 -16 4 -9 8 -13 22 -10 30 3 8 2
14 -2 13 -15 -3 -42 15 -42 28 0 8 -9 14 -20 14 -11 0 -20 4 -20 10 0 5 8 6
18 3 10 -4 5 4 -12 20 -16 15 -34 24 -40 20 -6 -4 -4 2 4 12 14 17 13 18 -3
12 -11 -4 -16 -3 -12 3 3 6 1 10 -4 10 -6 0 -11 6 -11 14 0 8 -7 17 -16 20 -9
3 -12 11 -8 18 5 7 2 9 -8 5 -22 -8 -30 3 -15 21 9 13 9 14 0 8 -7 -4 -21 -2
-30 4 -17 11 -17 11 0 6 9 -3 17 -1 17 4 0 10 -23 15 -45 10 -5 -1 -7 2 -3 5
4 4 -4 17 -18 27 -21 17 -23 23 -12 37 7 9 8 13 3 8 -4 -4 -20 3 -33 15 -14
13 -22 16 -17 8 5 -8 5 -12 0 -8 -4 4 -13 18 -20 30 -6 13 -19 22 -28 22 -13
-2 -16 3 -11 18 3 12 2 18 -3 15 -6 -4 -19 1 -29 9 -10 9 -12 12 -4 8 8 -4 5
4 -8 18 -12 13 -19 29 -15 33 5 5 1 4 -8 -3 -13 -10 -21 -6 -45 20 -16 17 -23
28 -16 24 6 -4 12 -2 12 4 0 7 -8 9 -22 5 -17 -6 -20 -4 -15 9 4 10 3 14 -2
11 -5 -3 -12 -1 -16 5 -4 6 -10 8 -15 5 -4 -3 -6 5 -3 17 3 17 2 19 -5 9 -8
-11 -11 -10 -16 7 -4 11 -14 26 -24 34 -15 12 -16 11 -4 -4 9 -12 10 -18 2
-23 -6 -4 -14 -4 -17 -1 -4 3 -1 6 5 6 9 0 9 5 0 19 -7 11 -16 17 -20 15 -4
-3 -8 2 -8 11 0 9 -4 13 -10 10 -5 -3 -10 1 -10 9 0 9 -6 13 -14 10 -8 -3 -17
0 -22 7 -4 7 -3 10 3 6 5 -3 10 0 10 7 0 9 -8 11 -21 8 -20 -5 -20 -5 -3 12 9
10 15 22 12 27 -9 13 9 11 23 -3 9 -9 11 -6 7 10 -2 14 1 22 11 22 8 0 14 5
14 11 0 5 5 7 10 4 6 -3 10 -1 10 5 0 6 4 9 9 6 9 -6 40 23 39 37 0 5 3 11 6
14 3 4 6 2 6 -4 0 -5 7 -10 15 -10 11 0 12 4 4 13 -12 15 5 29 23 18 8 -5 9
-2 5 9 -3 9 -1 19 5 23 7 4 8 3 4 -4 -4 -7 -2 -12 3 -12 6 0 11 6 11 14 0 8 4
18 10 21 6 3 7 -1 4 -12 -3 -10 4 -2 16 17 12 19 19 27 16 18 -3 -10 -1 -20 5
-23 5 -4 8 -3 7 2 -4 14 22 52 43 64 15 8 19 8 15 0 -4 -6 -2 -11 3 -11 6 0
11 10 11 23 0 16 3 18 9 9 7 -11 9 -11 14 2 4 9 14 16 24 16 15 0 16 2 3 10
-13 8 -12 10 5 11 11 1 24 1 28 0 4 -1 3 8 -3 19 -6 11 -7 20 -3 20 4 0 0 5
-10 11 -9 5 -22 7 -29 3 -6 -4 -8 -3 -5 3 4 6 0 16 -8 23 -8 7 -12 16 -9 21 3
5 0 8 -8 7 -7 -2 -12 3 -10 10 2 10 -2 10 -20 1 -20 -11 -21 -10 -10 3 10 13
10 17 -3 22 -11 4 -14 2 -10 -7 3 -6 -2 -2 -11 11 -9 12 -23 22 -31 22 -8 0
-11 5 -8 10 5 9 -15 15 -38 11 -4 -1 -3 9 4 21 6 13 8 20 4 16 -5 -4 -15 -2
-24 5 -14 10 -14 10 -6 -3 6 -9 2 -8 -7 3 -10 10 -22 16 -28 12 -9 -6 -15 8
-11 29 1 5 -5 6 -14 3 -8 -4 -15 -2 -15 3 0 6 -7 10 -15 10 -8 0 -15 7 -15 16
0 13 -3 14 -13 5 -17 -14 -30 -2 -16 15 7 9 6 12 -8 10 -24 -4 -45 16 -29 27
6 6 4 6 -8 3 -11 -4 -23 0 -30 9 -6 9 -21 17 -33 18 -16 1 -19 5 -12 13 7 8 6
15 -2 20 -8 4 -9 3 -5 -4 4 -7 1 -12 -9 -12 -9 0 -13 4 -10 10 6 10 -7 14 -33
11 -7 -1 -12 2 -11 6 1 4 1 15 0 23 -1 13 -2 13 -11 0 -8 -13 -10 -12 -10 4 0
12 -5 16 -14 13 -9 -4 -18 2 -22 15 -5 16 -8 18 -15 7 -7 -12 -9 -12 -9 0 0 9
-7 11 -21 8 -15 -4 -18 -2 -10 7 8 9 7 13 -4 14 -8 1 -22 3 -30 4 -8 1 -12 5
-9 10 3 4 0 8 -6 8 -6 0 -8 5 -4 13 11 17 -27 -12 -48 -38 -9 -11 -23 -20 -30
-20 -7 -1 -12 -6 -11 -13 2 -7 -6 -12 -18 -12 -11 0 -18 -4 -14 -9 6 -10 -29
-34 -37 -25 -3 2 -11 -2 -18 -11 -11 -13 -10 -15 6 -10 10 3 7 -1 -9 -8 -15
-7 -24 -17 -20 -22 5 -4 0 -5 -11 -1 -13 5 -17 2 -13 -9 4 -8 1 -17 -5 -21 -7
-4 -8 -3 -4 4 4 7 2 12 -3 12 -6 0 -11 -4 -11 -10 0 -5 -5 -9 -12 -7 -7 1 -13
-5 -13 -13 0 -8 -6 -14 -13 -13 -6 2 -9 -4 -5 -13 3 -9 0 -14 -8 -12 -8 2 -13
-2 -12 -9 2 -7 -4 -10 -13 -6 -9 3 -14 0 -12 -8 2 -8 -4 -13 -14 -13 -9 1 -14
-4 -12 -11 6 -15 -22 -39 -35 -30 -7 3 -8 0 -5 -9 4 -11 0 -16 -10 -16 -9 0
-16 -5 -16 -11 0 -6 -7 -8 -16 -5 -14 5 -15 4 -4 -9 7 -8 11 -15 9 -16 -35 -7
-37 -6 -31 9 5 15 4 16 -13 2 -11 -9 -16 -10 -11 -2 5 8 -1 12 -18 12 -27 0
-35 15 -13 23 6 3 -3 4 -20 3 -18 -2 -31 -1 -29 3 1 3 -6 14 -17 24 -19 19
-19 18 -12 -5 l8 -23 -22 25 c-13 14 -19 19 -15 11 5 -10 3 -12 -5 -7 -7 5
-10 14 -8 20 3 7 -1 13 -9 13 -7 0 -11 -4 -8 -9 3 -4 -2 -5 -10 -2 -9 3 -13
11 -10 16 4 6 -2 7 -16 3 -18 -6 -22 -4 -17 8 4 12 -2 15 -28 13 -18 -1 -33 1
-33 4 0 3 0 12 -1 20 -1 13 -2 13 -11 0 -9 -13 -10 -13 -10 0 0 13 -1 13 -10
0 -8 -12 -10 -10 -11 10 0 23 -1 23 -9 5 -6 -14 -9 -16 -10 -5 -2 8 -1 19 0
25 1 5 -2 7 -5 3 -4 -4 -17 -3 -29 3 -20 10 -20 10 -2 -5 11 -9 14 -16 8 -16
-7 0 -21 9 -32 20 -22 22 -35 27 -24 8 4 -7 3 -8 -4 -4 -7 4 -12 15 -12 24 0
10 -3 13 -8 7 -9 -13 -27 -13 -39 -1 -5 5 -2 6 6 1 10 -5 12 -4 7 4 -4 6 -12
8 -18 5 -6 -4 -18 2 -26 12 -13 16 -14 17 -9 2 4 -10 2 -18 -3 -18 -6 0 -10 8
-10 18 0 14 -2 15 -10 2 -8 -13 -10 -12 -10 3 0 10 -4 15 -10 12 -5 -3 -10 0
-10 7 0 11 -2 10 -9 0 -6 -11 -10 -10 -15 3 -5 15 -9 15 -23 4 -14 -12 -16
-12 -8 0 6 11 4 13 -9 8 -14 -6 -17 -3 -12 8 4 13 2 14 -14 5 -24 -13 -33 -13
-25 0 4 6 -5 10 -19 10 -14 0 -26 5 -26 11 0 6 -6 9 -14 6 -8 -3 -22 3 -31 13
-9 10 -24 16 -36 13 -11 -3 -28 2 -38 11 -14 13 -21 14 -27 5 -4 -7 -3 -10 4
-5 6 3 13 3 16 -2 2 -4 -4 -9 -15 -9 -10 -1 -19 3 -19 8 0 6 -6 7 -12 3 -8 -5
-8 -2 1 10 12 15 12 17 0 14 -8 -2 -17 -7 -21 -13 -5 -6 -8 -5 -8 4 0 11 -3
11 -17 0 -12 -10 -15 -11 -9 -1 6 9 1 11 -18 8 -20 -4 -24 -1 -19 12 6 15 5
15 -10 3 -10 -8 -20 -11 -24 -7 -3 3 0 6 8 6 10 0 11 2 2 8 -7 4 -28 7 -48 7
-19 -1 -35 2 -35 6 0 5 -10 13 -22 19 -23 11 -23 11 -3 -6 l20 -17 -20 8 c-11
4 -30 8 -41 9 -12 1 -30 8 -40 16 -10 8 -15 10 -11 3 4 -6 2 -15 -4 -19 -7 -4
-9 -3 -6 3 4 6 -4 18 -18 27 -15 10 -26 12 -30 6 -4 -7 -13 -7 -25 0 -13 7
-20 6 -23 -3 -3 -7 -6 -5 -6 6 -1 9 -6 17 -12 17 -5 0 -7 -5 -4 -10 3 -6 -1
-10 -10 -10 -10 0 -13 5 -9 12 5 8 2 9 -9 5 -10 -4 -20 0 -26 11 -10 16 -10
15 -11 -2 0 -14 -3 -16 -13 -7 -8 6 -17 8 -20 4 -4 -3 -14 0 -24 8 -11 9 -14
10 -9 2 4 -7 2 -13 -3 -13 -6 0 -11 6 -11 13 0 8 -4 7 -10 -3 -8 -13 -10 -12
-10 3 0 9 -5 17 -11 17 -6 0 -8 -7 -5 -16 5 -13 3 -14 -6 -6 -22 17 -24 18
-44 2 -15 -11 -16 -11 -6 0 18 21 14 32 -8 20 -14 -7 -20 -7 -20 0 0 5 -5 10
-11 10 -5 0 -8 -4 -5 -9 7 -11 -13 -9 -32 3 -7 4 -16 5 -19 2 -4 -3 -16 2 -27
11 -15 13 -17 14 -8 2 9 -13 9 -16 -3 -16 -8 0 -15 7 -15 14 0 8 -5 11 -10 8
-6 -4 -8 -11 -5 -16 3 -5 -1 -6 -9 -3 -9 3 -14 10 -11 15 6 8 -28 4 -44 -5 -5
-4 -11 0 -14 6 -3 10 -7 10 -19 0 -10 -8 -19 -9 -22 -4 -7 12 -86 20 -86 9 0
-4 -6 -5 -12 0 -7 4 -30 7 -50 6 -24 -2 -38 2 -38 10 0 8 -3 8 -9 -2 -6 -9
-10 -10 -16 -2 -5 9 -10 9 -21 0 -8 -6 -14 -7 -14 -2 0 5 -11 9 -24 9 -14 0
-23 -3 -20 -7 2 -4 -3 -9 -11 -12 -9 -4 -12 -1 -9 7 3 8 0 17 -7 22 -7 4 -10
3 -5 -4 3 -6 2 -13 -4 -17 -5 -3 -10 0 -10 7 0 9 -3 9 -10 -2 -9 -13 -10 -13
-10 0 0 13 -1 13 -10 0 -6 -10 -10 -639 -10 -1727 l0 -1713 898 1 c493 0 891
3 884 6 -10 4 -9 9 5 20 10 8 12 12 6 8 -8 -4 -13 0 -13 10 0 9 4 13 10 10 7
-4 7 3 0 20 -6 15 -6 24 -1 20 5 -3 12 -1 16 5 3 5 -1 10 -11 10 -15 0 -15 2
0 24 12 18 12 26 3 29 -6 3 -4 6 7 6 16 1 17 3 5 18 -10 12 -11 15 -1 9 9 -6
11 -1 8 18 -3 16 0 26 7 26 7 0 6 4 -3 10 -12 7 -12 12 -2 22 6 6 12 20 12 31
0 10 4 16 8 13 5 -3 9 1 9 9 0 8 -5 11 -11 8 -6 -4 -5 1 2 10 8 9 11 21 7 27
-3 5 -2 10 4 10 6 0 8 6 5 14 -3 8 -1 17 5 21 6 3 11 19 11 36 0 16 5 29 13
29 8 0 8 3 -2 9 -13 8 -13 12 -1 26 12 14 12 18 -1 27 -11 8 -10 9 6 5 18 -3
21 1 19 24 -1 21 3 29 14 29 14 0 15 2 2 9 -8 6 -19 7 -25 3 -5 -3 -4 1 2 10
7 8 9 19 5 23 -4 5 -1 5 6 1 7 -4 9 -12 6 -18 -5 -7 -2 -8 5 -4 7 5 10 14 7
22 -3 8 0 14 6 14 7 0 6 5 -2 15 -9 11 -9 15 -1 15 7 0 11 6 10 13 -3 16 12
50 25 59 7 5 5 8 -4 8 -12 0 -12 2 -2 9 7 4 14 18 15 30 1 14 6 20 16 16 11
-4 12 -3 1 10 -8 9 -8 15 -2 15 6 0 9 9 7 20 -2 11 0 18 6 15 5 -4 9 -3 10 2
4 45 13 69 30 81 16 11 17 17 8 28 -11 13 -4 18 22 16 3 -1 6 5 6 13 0 7 -7
11 -16 8 -13 -4 -13 -2 1 10 10 8 15 17 11 20 -3 4 -1 7 6 7 7 0 9 5 6 10 -3
6 0 10 7 10 8 0 14 8 15 18 3 36 10 52 29 68 18 15 18 15 0 10 -16 -6 -17 -4
-6 9 7 8 17 12 24 8 6 -4 5 1 -3 10 -12 16 -12 17 5 10 16 -6 17 -5 6 9 -11
13 -11 18 0 24 7 5 16 9 20 9 3 0 10 4 15 9 4 5 3 6 -4 2 -6 -3 -14 -2 -18 4
-3 5 1 10 9 10 8 0 18 5 22 12 5 7 3 8 -5 3 -10 -5 -9 -2 0 13 7 12 18 18 24
14 5 -3 4 2 -4 11 -12 15 -12 19 5 31 10 8 22 13 25 10 3 -2 4 9 2 24 -4 21
-2 24 6 12 9 -12 11 -11 11 8 0 16 4 21 13 16 9 -6 9 -4 -1 8 -10 13 -10 18
-1 24 7 4 9 3 6 -3 -3 -5 0 -10 6 -10 8 0 12 11 11 26 -2 39 -3 41 -16 41 -9
0 -9 -3 0 -12 7 -7 12 -17 12 -22 -1 -11 -23 22 -26 37 -1 4 -2 10 -3 13 0 4
-8 0 -18 -7 -15 -13 -15 -12 -4 10 7 13 9 21 3 17 -5 -3 -15 1 -22 10 -7 8
-19 13 -27 10 -11 -5 -17 9 -15 34 0 3 -9 7 -20 7 -12 1 -25 8 -29 15 -7 10
-9 10 -9 -2 0 -11 -4 -9 -12 5 -14 25 -30 36 -44 31 -8 -3 -10 3 -6 17 5 19 3
20 -10 10 -12 -11 -17 -9 -26 11 -8 19 -16 22 -39 18 -25 -5 -27 -4 -14 12 8
9 11 19 7 23 -3 3 -6 2 -6 -4 0 -17 -45 -7 -48 11 -3 12 -10 16 -24 13 -16 -5
-19 -2 -15 14 4 16 3 18 -8 9 -9 -8 -14 -6 -19 6 -4 9 -13 14 -21 10 -10 -3
-15 1 -15 12 0 15 -2 15 -10 2 -8 -13 -10 -12 -10 4 0 11 -3 17 -6 13 -3 -3
-15 3 -27 13 -11 11 -24 17 -29 14 -4 -3 -11 2 -14 11 -5 12 -9 13 -20 4 -11
-9 -14 -8 -14 1 0 7 -7 10 -16 6 -14 -5 -15 -4 -4 9 11 13 10 14 -5 9 -13 -5
-16 -4 -11 4 5 8 1 10 -10 5 -14 -5 -16 -3 -10 12 7 18 6 18 -14 0 -12 -11
-20 -15 -18 -10 2 6 0 10 -3 10 -4 0 -17 9 -29 20 -15 14 -21 15 -18 5 2 -8
-3 -14 -10 -12 -10 2 -10 -2 -3 -17 8 -14 7 -22 -4 -31 -8 -7 -12 -16 -9 -21
3 -5 -2 -6 -10 -3 -11 4 -16 0 -16 -11 0 -10 -4 -13 -12 -9 -8 5 -7 0 2 -11
12 -15 12 -17 1 -10 -11 6 -13 4 -7 -10 6 -16 4 -16 -11 -4 -10 7 -15 9 -11 5
4 -5 -2 -25 -14 -44 -14 -23 -17 -33 -7 -28 8 4 6 1 -3 -7 -14 -11 -15 -16 -5
-26 9 -10 8 -11 -4 -6 -10 4 -20 1 -25 -6 -4 -7 -3 -10 4 -5 6 3 14 2 17 -4 4
-6 3 -10 -2 -9 -22 4 -32 -2 -27 -16 4 -8 1 -15 -5 -15 -6 0 -11 -7 -11 -16 0
-9 -5 -12 -12 -8 -8 5 -7 0 2 -11 12 -15 12 -17 1 -10 -11 6 -13 4 -8 -8 3 -9
3 -16 -1 -16 -19 3 -25 -2 -12 -11 13 -8 13 -10 -2 -10 -12 0 -15 -5 -11 -17
4 -11 3 -14 -5 -9 -8 5 -10 1 -5 -10 4 -11 3 -15 -4 -11 -7 4 -10 0 -8 -10 1
-10 -7 -26 -19 -36 -11 -10 -14 -15 -6 -11 12 6 13 5 3 -8 -7 -8 -10 -18 -6
-21 3 -4 1 -7 -5 -7 -7 0 -12 -7 -12 -15 0 -8 -6 -15 -12 -15 -9 0 -8 -4 2
-10 11 -7 11 -10 2 -10 -7 0 -12 -6 -11 -13 3 -20 -12 -47 -24 -40 -5 3 -7 2
-4 -4 4 -6 0 -18 -7 -29 -8 -10 -11 -25 -8 -33 3 -8 1 -12 -5 -8 -6 4 -9 -5
-7 -23 2 -17 -1 -30 -7 -30 -6 0 -8 4 -4 9 3 5 2 12 -2 14 -5 3 -9 -13 -9 -35
-1 -27 -7 -44 -18 -50 -14 -8 -15 -12 -4 -26 11 -13 11 -15 -2 -10 -12 5 -16
-1 -14 -23 1 -16 -3 -32 -9 -36 -6 -3 -7 -1 -3 5 11 18 0 14 -15 -5 -8 -9 -9
-14 -3 -10 8 4 11 -3 10 -22 -1 -24 -3 -27 -15 -18 -12 10 -12 9 -2 -11 6 -12
8 -22 4 -21 -20 3 -23 -2 -12 -22 9 -17 8 -20 -2 -14 -9 6 -11 2 -6 -14 5 -19
3 -20 -9 -10 -12 10 -15 10 -12 -2 2 -8 8 -17 13 -21 6 -5 3 -8 -7 -8 -12 0
-15 -5 -11 -16 4 -11 1 -15 -13 -13 -10 2 -25 0 -31 -4 -8 -5 -13 -4 -13 2 0
15 -27 14 -33 -1 -4 -10 -6 -10 -6 0 -1 10 -6 10 -22 1 -15 -7 -19 -8 -15 0 5
7 -3 9 -22 5 -35 -7 -50 10 -30 33 9 12 9 15 1 9 -8 -4 -13 -1 -13 9 0 10 5
13 12 9 7 -4 8 -3 4 5 -6 9 -11 9 -22 0 -9 -7 -14 -8 -14 -1 0 6 10 14 21 17
15 5 18 10 10 15 -16 9 -22 60 -7 60 6 0 4 5 -4 10 -8 5 -10 10 -4 10 7 0 8
17 4 50 -6 44 -4 50 9 45 11 -3 9 0 -3 10 -18 14 -18 15 -2 15 16 0 16 1 1 16
-14 15 -14 17 1 29 13 9 14 14 4 20 -9 6 -11 4 -5 -6 5 -8 4 -11 -1 -6 -14 13
-11 41 6 49 11 5 10 7 -5 7 -14 1 -16 4 -7 9 7 5 14 18 17 31 2 12 0 19 -4 16
-5 -3 -11 2 -15 10 -3 10 1 15 12 16 14 0 14 2 -3 9 -11 5 -14 9 -7 9 6 1 12
6 12 12 0 5 -3 8 -7 6 -5 -3 -8 6 -8 19 0 13 5 22 10 20 6 -2 10 11 10 30 0
18 -2 31 -6 28 -4 -2 -9 3 -13 11 -3 10 1 15 12 16 14 0 14 2 -3 9 -11 5 -14
9 -7 9 6 1 12 6 12 12 0 5 -3 8 -8 6 -4 -3 -7 6 -7 19 0 13 5 22 10 20 6 -2
10 11 10 30 0 18 -2 31 -6 28 -4 -2 -9 3 -13 11 -3 10 1 15 12 16 14 0 14 2
-3 9 -11 5 -14 9 -7 9 6 1 12 6 12 12 0 5 -3 8 -8 6 -4 -3 -7 6 -7 19 0 13 5
22 10 20 6 -2 10 11 10 30 0 18 -2 31 -6 28 -4 -2 -9 3 -13 11 -3 10 1 15 12
16 14 0 14 2 -3 9 -11 5 -14 9 -7 9 6 1 12 6 12 12 0 5 -3 8 -7 6 -5 -3 -8 6
-8 19 0 13 5 22 11 20 16 -6 10 34 -7 45 -11 7 -11 9 4 9 17 0 17 1 2 16 -14
15 -14 17 1 29 13 9 14 14 4 20 -9 6 -11 4 -5 -6 5 -8 4 -11 0 -6 -15 14 -12
47 4 48 12 0 11 3 -4 9 -11 5 -15 9 -10 9 6 1 9 18 7 41 -3 24 1 47 9 57 10
12 10 15 2 9 -8 -4 -13 -1 -13 9 0 10 5 13 12 9 7 -4 8 -3 4 5 -6 9 -11 9 -22
0 -9 -7 -14 -8 -14 -1 0 6 10 14 21 17 15 5 18 10 10 15 -16 9 -22 60 -7 60 6
0 4 5 -4 10 -8 5 -10 10 -5 10 6 0 9 24 7 57 -5 112 -2 122 33 101 6 -3 23 -4
38 -2 21 2 27 -1 23 -11 -3 -8 0 -17 6 -21 7 -4 8 -3 4 4 -10 17 27 10 51 -8
16 -14 17 -13 6 1 -12 14 -9 15 22 5 19 -6 35 -18 35 -26 0 -10 3 -11 8 -4 4
6 16 9 27 7 11 -2 27 -4 36 -5 9 -1 15 -8 12 -15 -4 -9 0 -11 11 -7 9 3 22 1
30 -5 7 -6 15 -9 18 -6 3 3 11 -1 18 -10 9 -11 17 -12 31 -5 15 9 17 8 12 -6
-5 -14 -3 -15 15 -5 19 10 22 9 22 -6 0 -15 2 -16 10 -3 8 12 10 12 10 -5 0
-17 2 -17 10 -5 5 8 10 10 10 4 0 -6 11 -10 25 -9 14 2 28 -2 32 -7 3 -7 1 -8
-5 -4 -8 5 -10 2 -6 -9 5 -12 9 -13 20 -4 11 9 14 8 14 -1 0 -8 10 -11 30 -8
23 3 27 2 19 -8 -7 -8 -7 -14 1 -19 5 -3 10 -1 10 6 0 7 8 5 22 -7 12 -10 18
-13 14 -7 -5 9 -2 11 8 7 9 -3 13 -11 9 -17 -3 -6 -1 -7 5 -3 6 3 15 -2 21
-11 10 -17 10 -17 11 2 1 19 1 19 19 -3 11 -12 31 -23 45 -24 28 -2 34 -13 14
-21 -7 -3 0 -4 17 -2 17 1 35 -5 45 -14 8 -10 11 -11 6 -4 -6 10 -4 12 8 7 9
-3 16 -12 16 -19 0 -8 8 -11 20 -8 14 4 20 0 20 -11 0 -9 5 -16 11 -16 5 0 7
6 3 13 -6 9 -5 9 8 0 8 -7 18 -9 22 -5 4 4 6 0 4 -8 -2 -10 3 -14 16 -12 11 2
15 -1 11 -7 -3 -6 1 -11 10 -11 10 0 13 -5 9 -12 -4 -7 -4 -10 1 -6 4 4 15 2
23 -5 11 -8 13 -8 9 0 -5 8 0 9 15 5 12 -3 17 -7 10 -10 -21 -7 -13 -20 10
-14 14 3 19 2 14 -6 -4 -7 -2 -12 4 -12 6 0 8 -5 4 -12 -4 -7 -3 -8 5 -4 6 4
8 13 5 19 -4 7 4 2 18 -11 13 -12 28 -19 33 -15 4 5 5 3 2 -3 -4 -7 0 -17 8
-24 13 -11 15 -10 9 6 -5 18 -5 18 9 2 8 -10 17 -15 20 -11 7 6 11 -12 8 -30
-1 -4 9 -2 21 4 22 12 22 11 8 -6 -14 -17 -14 -18 10 -5 24 13 24 12 10 -5 -9
-11 -10 -16 -3 -11 8 4 13 2 13 -6 0 -9 3 -9 10 2 8 13 10 12 10 -3 0 -10 4
-16 8 -13 5 3 16 -6 26 -19 11 -15 25 -22 38 -20 14 3 18 0 15 -9 -8 -21 4
-28 21 -13 9 6 13 8 10 2 -7 -11 17 -37 26 -28 3 3 9 -2 12 -11 5 -14 9 -15
15 -4 6 9 9 7 9 -9 0 -14 6 -23 16 -23 9 0 12 -5 8 -12 -5 -8 0 -7 11 2 10 8
16 11 13 5 -6 -10 9 -29 27 -34 6 -1 8 -10 7 -19 -3 -14 -1 -14 13 -2 9 7 15
9 13 4 -2 -5 7 -22 20 -38 12 -16 22 -25 22 -21 0 5 -7 16 -16 26 -10 11 -12
19 -4 24 6 3 9 2 8 -3 -3 -9 65 -92 76 -92 4 0 4 5 0 12 -4 7 -3 8 4 4 6 -4 8
-14 5 -23 -5 -12 -2 -15 10 -10 12 4 14 2 10 -11 -3 -9 -3 -14 2 -10 4 4 17
-4 27 -18 16 -20 23 -22 34 -13 17 14 19 -2 2 -20 -10 -11 -10 -13 0 -7 7 5
12 1 13 -11 0 -16 1 -16 8 1 7 19 8 19 14 -3 3 -13 10 -20 16 -16 7 4 8 0 4
-11 -4 -12 -3 -15 5 -10 7 4 12 2 12 -4 0 -6 5 -8 12 -4 8 5 9 2 5 -10 -5 -13
-1 -19 13 -23 11 -3 17 -9 14 -14 -3 -5 3 -6 12 -2 12 4 15 3 10 -5 -4 -7 -2
-12 4 -12 6 0 8 -5 4 -12 -5 -8 -2 -9 9 -5 9 3 16 3 16 -1 -3 -20 2 -25 12
-12 9 13 10 13 8 0 -3 -30 1 -41 13 -34 7 5 9 2 5 -9 -4 -11 -2 -14 8 -11 7 3
16 -3 20 -15 3 -12 11 -21 16 -21 6 0 7 -5 4 -10 -5 -9 15 -15 38 -11 4 0 6
-2 5 -6 -5 -18 14 -53 24 -47 8 5 9 1 5 -10 -10 -25 2 -40 19 -25 12 10 13 9
7 -6 -5 -14 -3 -17 10 -12 11 4 14 2 11 -8 -3 -7 4 -18 15 -25 12 -6 21 -20
21 -30 0 -18 10 -24 31 -22 4 1 6 -6 5 -16 0 -9 5 -16 12 -14 8 1 11 -2 8 -7
-4 -5 -1 -13 6 -18 7 -4 20 -17 28 -28 l15 -20 -25 20 -25 20 19 -22 c11 -13
26 -23 35 -23 14 0 14 -2 1 -10 -11 -7 -11 -10 -2 -10 7 0 10 -5 6 -12 -4 -7
-3 -8 4 -4 11 6 16 -5 13 -26 0 -4 7 -4 17 -1 15 6 15 4 4 -9 -12 -14 -10 -16
10 -10 21 5 22 4 9 -11 -11 -14 -11 -17 0 -18 8 -1 18 -1 23 0 5 1 3 -6 -5
-15 -12 -15 -12 -17 0 -9 11 6 13 4 7 -10 -5 -15 -4 -16 8 -6 11 9 16 9 22 0
4 -8 3 -9 -4 -5 -7 4 -12 2 -12 -3 0 -6 5 -11 12 -11 6 0 8 -3 5 -7 -4 -3 1
-12 11 -20 16 -12 16 -13 -3 -8 -16 5 -16 3 3 -6 12 -7 22 -21 22 -31 0 -11 5
-16 10 -13 6 3 10 -1 10 -10 0 -10 5 -13 13 -9 9 6 9 5 0 -7 -10 -12 -8 -18 7
-29 11 -8 20 -20 20 -28 0 -8 5 -10 12 -6 8 5 7 0 -2 -11 -9 -11 -10 -16 -2
-11 11 7 17 -11 13 -37 -1 -5 2 -6 6 -4 5 3 13 -1 20 -8 10 -11 10 -15 0 -18
-9 -4 -9 -6 1 -6 7 -1 10 -5 7 -11 -3 -5 2 -10 12 -10 15 0 16 -2 3 -10 -13
-8 -12 -10 3 -10 10 0 16 -4 13 -9 -4 -5 -3 -11 1 -13 5 -1 17 -18 27 -37 10
-19 14 -31 8 -27 -6 3 -14 2 -17 -4 -4 -6 -3 -10 2 -9 19 3 34 -2 28 -10 -3
-5 1 -16 9 -24 10 -10 12 -17 4 -25 -7 -7 -4 -14 12 -22 18 -10 19 -14 8 -28
-7 -9 -8 -13 -3 -10 6 3 16 0 23 -8 8 -9 9 -14 2 -14 -7 0 -6 -5 2 -14 7 -8
16 -12 19 -10 3 2 6 -3 6 -11 0 -8 -4 -12 -9 -9 -4 3 -8 0 -8 -5 0 -6 7 -11
15 -11 9 0 12 -6 9 -15 -3 -8 1 -22 10 -31 9 -8 14 -20 11 -25 -4 -5 -1 -9 6
-9 8 0 7 -5 -2 -17 -10 -11 -10 -14 -1 -9 7 4 12 1 12 -9 0 -9 4 -13 10 -10 6
3 10 -1 10 -10 0 -9 -4 -13 -10 -10 -6 3 -7 -1 -4 -9 5 -14 151 -16 1365 -16
l1359 0 0 21 c0 13 -4 18 -12 13 -7 -5 -8 -3 -2 7 15 24 13 38 -4 32 -13 -5
-14 -3 -5 7 12 13 6 43 -7 35 -5 -3 -6 4 -3 15 3 11 -1 28 -8 37 -10 12 -10
14 -1 9 17 -10 15 5 -4 32 -9 13 -13 29 -10 37 3 8 1 17 -5 21 -6 4 -5 12 3
22 11 13 11 14 -1 7 -11 -6 -13 -3 -9 13 4 14 2 20 -4 16 -7 -5 -9 2 -4 20 5
21 3 26 -11 26 -15 0 -16 2 -3 10 13 8 8 14 -11 12 -3 0 -6 15 -7 35 -2 20 -8
45 -13 56 -8 14 -8 18 0 13 16 -10 13 3 -4 20 -11 11 -15 12 -15 3 0 -7 -3 -9
-6 -6 -4 4 -1 13 6 22 8 10 9 15 1 15 -6 0 -11 5 -11 11 0 5 4 7 10 4 6 -3 7
1 4 9 -3 9 -10 14 -14 11 -5 -3 -6 4 -3 15 3 11 0 20 -6 20 -6 0 -11 7 -11 15
0 9 -7 28 -16 43 -12 21 -13 23 -1 9 14 -17 15 -17 13 7 0 13 -4 22 -8 19 -8
-4 -12 12 -9 30 1 5 -3 6 -8 3 -5 -3 -11 3 -14 15 -5 17 -3 18 9 8 12 -10 13
-9 8 5 -3 9 -13 16 -21 16 -13 0 -13 2 -2 17 8 9 9 14 3 11 -6 -4 -15 12 -23
38 -7 24 -18 41 -23 38 -6 -4 -6 2 1 14 8 16 7 24 -7 39 -9 10 -12 12 -7 3 9
-13 8 -13 -8 -1 -18 14 -18 16 -1 28 17 12 17 13 -2 13 -16 0 -17 2 -4 10 13
8 12 10 -2 10 -10 0 -18 5 -18 11 0 5 4 7 10 4 6 -3 7 1 4 9 -3 9 -10 14 -14
11 -4 -3 -11 2 -14 11 -3 8 -2 12 4 9 17 -11 11 7 -7 21 -17 13 -17 14 2 8 12
-3 9 1 -7 11 -27 15 -36 26 -20 24 22 -4 24 3 4 17 -12 8 -22 21 -22 27 0 7 4
6 10 -3 8 -13 10 -13 10 1 0 9 -9 19 -21 22 -17 5 -19 9 -10 26 14 25 14 41 1
21 -7 -11 -10 -11 -10 -2 0 8 -5 10 -12 6 -8 -5 -7 0 2 11 12 15 12 17 1 10
-11 -6 -13 -4 -8 8 4 11 1 17 -8 17 -8 0 -15 4 -15 10 0 5 8 7 18 3 11 -4 9 1
-8 16 -14 12 -18 19 -10 15 13 -7 13 -5 2 9 -8 9 -11 21 -8 26 4 6 -2 8 -12 6
-11 -2 -19 3 -19 10 0 8 3 12 7 10 4 -2 7 2 7 10 0 8 -7 17 -14 19 -9 4 -11 1
-7 -6 4 -6 3 -8 -2 -5 -5 3 -11 20 -12 37 -2 22 1 29 9 24 8 -4 9 -3 5 5 -6 9
-11 9 -21 1 -12 -10 -13 -8 -10 10 4 19 2 20 -12 8 -12 -9 -15 -9 -9 -1 4 7 9
22 11 34 3 17 1 19 -10 9 -10 -8 -15 -8 -21 1 -4 8 -3 9 4 5 7 -4 12 -1 12 9
0 10 -5 13 -11 9 -8 -5 -10 1 -7 20 5 23 3 24 -10 14 -11 -9 -13 -9 -9 -1 4 6
0 18 -8 26 -16 17 -21 32 -7 23 5 -3 9 1 9 8 0 7 -7 13 -15 12 -8 0 -17 6 -19
14 -4 13 -3 13 6 0 6 -8 11 -11 11 -7 0 8 -36 62 -58 85 -7 8 -16 27 -19 43
-3 16 -9 29 -14 29 -5 0 -9 7 -9 16 0 8 -5 12 -11 8 -7 -4 -6 2 2 17 12 23 11
23 -6 9 -11 -9 -16 -10 -11 -2 4 7 2 12 -6 12 -9 0 -9 3 2 10 10 6 11 10 3 10
-7 0 -13 7 -13 15 0 7 -8 18 -17 24 -15 8 -15 11 -3 28 14 16 14 17 -2 4 -16
-12 -18 -11 -18 10 0 19 -2 21 -10 9 -8 -12 -10 -10 -10 10 0 13 -10 33 -23
45 -13 11 -18 16 -11 12 7 -4 15 -3 19 3 4 6 3 10 -2 9 -4 -1 -16 1 -26 6 -15
6 -16 10 -5 16 9 6 6 9 -10 9 -13 0 -21 4 -18 9 9 13 -4 42 -15 35 -5 -3 -9
-2 -8 3 1 4 1 15 0 23 -1 13 -2 13 -11 0 -6 -9 -10 -10 -10 -3 0 6 5 15 10 18
15 9 2 25 -15 18 -11 -4 -13 -1 -8 13 5 13 3 15 -8 9 -11 -7 -12 -6 -2 7 16
18 5 32 -13 17 -10 -8 -12 -7 -10 8 2 10 -2 24 -10 31 -10 10 -14 10 -14 1 0
-7 -3 -9 -6 -6 -4 4 -1 14 7 24 9 11 10 14 2 9 -8 -4 -13 -1 -13 9 0 8 -10 20
-22 25 -13 5 -19 9 -14 9 4 1 1 12 -8 26 -11 17 -13 25 -5 25 7 0 9 3 6 6 -4
4 -13 1 -22 -6 -13 -11 -15 -9 -15 14 0 15 -7 29 -16 33 -8 3 -13 11 -10 18 3
8 -2 16 -10 19 -10 4 -13 2 -8 -7 4 -7 3 -9 -2 -4 -5 5 -9 14 -9 20 -1 7 -7
11 -15 9 -11 -3 -11 0 0 12 10 13 10 16 -3 16 -9 0 -19 9 -22 20 -4 11 -11 17
-17 14 -7 -5 -9 -2 -6 7 6 16 -16 41 -28 31 -4 -4 -4 1 -1 11 6 15 3 17 -16
12 -18 -5 -19 -4 -7 5 11 9 12 13 2 17 -6 2 -10 8 -8 11 2 4 -6 16 -17 27 -11
11 -16 14 -12 6 5 -9 4 -12 -3 -7 -7 4 -12 13 -12 20 0 7 -10 18 -22 25 -16 8
-17 10 -4 6 15 -4 17 -3 8 8 -7 8 -8 18 -4 23 4 4 -2 2 -12 -6 -13 -10 -17
-10 -12 -2 4 6 2 12 -3 12 -6 0 -11 7 -11 16 0 8 -4 12 -10 9 -5 -3 -10 -2
-10 4 0 5 6 12 13 15 6 3 2 3 -10 0 -19 -4 -23 -1 -23 16 0 17 -4 20 -22 15
-15 -4 -19 -3 -10 3 14 9 6 42 -10 42 -5 0 -6 -4 -3 -10 3 -5 2 -10 -3 -10 -9
0 -23 30 -26 55 -3 21 -17 34 -32 28 -11 -4 -15 0 -12 13 2 14 -3 19 -19 18
-17 0 -20 3 -13 16 10 18 4 30 -14 30 -6 0 -4 -5 4 -10 10 -7 11 -10 2 -10 -7
0 -16 8 -19 18 -9 23 -29 42 -37 35 -6 -6 -10 22 -7 41 1 5 -4 4 -12 -2 -17
-14 -28 -6 -20 16 4 9 2 13 -4 9 -15 -9 -36 19 -27 35 5 8 1 8 -11 -2 -11 -9
-16 -10 -11 -2 4 7 2 12 -6 12 -10 0 -10 2 1 9 11 7 10 10 -5 14 -16 4 -17 5
-1 6 9 0 17 6 17 12 0 6 9 9 20 6 11 -3 20 0 20 6 0 7 5 5 10 -3 8 -13 10 -13
10 2 0 9 5 20 12 24 7 5 9 2 5 -9 -4 -11 -2 -14 8 -10 8 3 12 9 9 14 -3 5 2 6
10 3 9 -4 16 -1 16 6 0 7 8 10 20 7 13 -3 20 0 20 9 0 8 3 13 8 12 4 -1 24 6
44 16 21 10 44 16 52 13 10 -4 14 0 11 14 -3 15 -1 18 12 10 12 -6 21 -4 32 8
9 9 12 10 6 2 -8 -11 -4 -11 16 2 14 10 29 14 34 10 4 -5 5 -2 1 5 -4 7 -12 9
-18 6 -7 -4 -8 -2 -4 5 5 7 16 9 28 5 16 -5 20 -3 15 9 -4 11 0 13 15 9 16 -4
19 -2 13 8 -6 10 -4 12 8 7 10 -3 17 -2 17 4 0 6 5 7 10 4 6 -3 10 -1 10 5 0
6 4 8 10 5 6 -3 7 1 4 9 -3 9 -2 16 4 16 6 0 13 -6 15 -12 3 -8 6 -6 6 5 1 9
5 16 10 15 5 -2 16 6 24 16 11 15 16 16 22 6 6 -9 4 -11 -5 -5 -9 5 -11 4 -6
-4 10 -16 26 -4 19 14 -4 11 -1 13 13 8 14 -5 16 -3 11 12 -6 15 -5 16 7 6 13
-11 15 -9 11 9 -3 18 -2 20 10 10 11 -9 15 -9 15 -1 0 6 15 18 33 26 17 8 24
13 15 10 -25 -6 -22 0 7 19 22 15 24 15 18 0 -5 -14 -3 -13 15 2 23 19 29 30
12 19 -5 -3 -7 0 -4 9 8 21 34 29 28 8 -3 -9 3 -3 13 13 10 17 25 31 33 33 8
2 20 10 26 17 6 8 15 11 19 7 5 -4 5 1 2 10 -4 11 0 19 14 23 17 6 23 16 21
36 -1 4 8 5 18 2 16 -4 19 -2 14 11 -3 9 -2 16 4 16 6 0 13 -6 15 -12 5 -12
11 16 8 34 0 4 7 4 16 1 13 -5 15 -2 10 11 -4 10 -3 15 3 11 6 -3 10 -1 10 6
0 7 3 10 6 6 10 -10 32 17 26 32 -3 9 -1 12 6 7 7 -4 12 -2 12 4 0 6 5 8 12 4
7 -5 9 -2 5 8 -5 14 32 58 48 58 3 0 8 0 13 0 4 0 0 5 -8 10 -11 7 -11 10 -2
10 8 0 10 5 6 13 -5 7 0 6 11 -3 11 -9 16 -10 11 -2 -4 6 -2 12 3 12 6 0 11 7
11 16 0 9 5 12 13 8 8 -5 7 -2 -2 9 -12 15 -12 17 3 11 11 -4 16 -2 14 7 -2 7
4 13 12 14 8 1 14 7 12 13 -1 7 5 20 13 28 8 9 13 20 9 25 -3 5 6 13 20 19 14
5 26 12 26 15 0 4 -4 3 -10 0 -5 -3 -10 -1 -10 4 0 6 5 11 11 11 5 0 7 5 3 12
-4 7 -3 8 4 4 7 -4 13 -2 13 3 3 21 5 26 19 49 8 12 22 22 30 22 13 0 13 1 0
10 -13 9 -8 14 12 12 3 -1 9 5 12 14 3 8 2 12 -3 9 -5 -3 -13 0 -17 6 -4 8 -3
9 4 5 7 -4 12 -2 12 3 0 6 6 10 13 9 7 -2 12 6 11 19 0 12 4 19 9 16 6 -4 8 0
4 10 -3 9 0 20 8 24 7 5 14 13 15 18 1 6 7 9 12 7 6 -2 8 4 5 12 -3 8 -1 17 6
20 9 3 9 5 0 5 -7 1 -13 6 -13 12 0 5 5 7 10 4 9 -6 15 8 11 29 -1 5 5 3 14
-4 14 -12 15 -10 5 14 -7 20 -7 25 2 20 8 -5 9 -2 5 10 -4 10 -3 15 3 11 6 -3
10 1 10 10 0 10 5 13 13 9 8 -5 8 -2 -2 9 -10 13 -10 17 -1 17 7 0 10 7 6 15
-3 8 -1 15 4 15 5 0 14 10 21 21 6 13 7 19 1 15 -6 -3 -9 1 -8 10 1 8 8 19 15
24 11 6 11 9 0 13 -8 3 -3 6 11 7 14 1 19 4 12 7 -10 4 -10 8 0 21 10 12 10
14 1 8 -9 -5 -11 -2 -7 8 3 9 11 13 16 10 6 -4 4 4 -3 17 -11 21 -10 22 3 12
12 -10 15 -10 15 2 0 8 -5 15 -11 15 -6 0 -5 4 2 9 8 4 13 11 13 15 -3 19 0
27 7 22 5 -3 9 1 9 9 0 8 -4 12 -9 9 -4 -3 -8 0 -8 5 0 6 6 11 14 11 9 0 12 8
8 26 -4 20 -2 25 8 19 9 -5 11 -4 6 3 -4 7 -9 21 -11 31 -3 15 0 18 13 13 15
-5 15 -2 -2 23 -14 21 -15 26 -4 17 13 -10 17 -10 22 3 4 11 2 14 -7 9 -9 -6
-9 -5 0 8 7 8 10 17 7 21 -3 3 0 15 6 27 10 18 9 21 -1 15 -9 -6 -11 -3 -6 9
4 10 7 22 7 27 0 4 8 6 18 2 11 -4 9 1 -8 17 -23 21 -24 23 -4 18 20 -5 21 -3
14 28 -4 19 -5 34 -1 34 10 0 7 50 -4 50 -5 0 -1 7 9 15 18 14 15 20 -9 15 -5
-1 -5 4 2 11 6 6 9 18 6 25 -3 9 0 13 8 11 8 -2 11 -2 6 0 -4 3 -4 10 -1 15 4
7 2 8 -4 4 -16 -10 -15 7 0 22 9 9 9 15 3 20 -12 8 -14 153 -3 146 5 -3 8 0 8
5 0 6 -4 11 -9 11 -10 0 -9 26 2 36 10 11 8 24 -4 24 -5 0 -7 -5 -3 -12 5 -7
3 -8 -5 -4 -9 6 -9 12 3 25 9 10 16 22 16 27 0 5 -5 2 -11 -6 -8 -11 -9 -7 -4
18 5 23 3 32 -7 32 -10 0 -9 3 2 10 12 8 12 10 1 10 -11 0 -9 5 5 22 10 12 13
18 7 14 -7 -4 -13 -2 -13 4 0 6 -4 9 -9 5 -5 -3 -13 -1 -16 5 -4 6 -1 9 6 8 6
-2 14 3 17 11 3 8 0 11 -7 7 -7 -5 -9 -1 -5 8 3 9 11 13 17 9 6 -3 7 -1 3 6
-4 6 -12 9 -17 6 -9 -6 -11 2 -13 60 0 17 -4 35 -9 42 -4 6 -2 15 3 18 7 5 5
12 -7 22 -16 13 -16 14 -1 9 12 -3 15 -1 12 9 -3 8 -13 11 -22 7 -15 -5 -15
-4 -3 11 9 12 10 17 2 17 -7 0 -9 5 -6 10 3 6 0 10 -7 11 -7 0 -4 4 7 9 11 5
14 9 8 9 -7 1 -13 12 -13 26 0 14 -5 25 -11 25 -7 0 -10 12 -7 29 3 21 1 28
-9 24 -7 -3 -13 0 -13 6 0 6 6 11 13 11 8 0 7 4 -3 10 -13 9 -13 11 0 20 8 5
10 10 5 10 -6 0 -15 -4 -21 -10 -6 -6 -10 -3 -10 9 0 11 5 17 11 14 5 -4 1 4
-10 17 -11 13 -14 20 -6 15 9 -5 12 -3 9 6 -3 8 -11 13 -17 12 -6 -2 -11 4
-11 12 0 9 6 12 18 9 9 -3 7 0 -6 8 -16 10 -19 17 -11 25 8 8 7 13 -2 18 -8 6
-10 4 -4 -5 6 -9 4 -11 -4 -6 -7 5 -10 14 -7 21 3 8 -3 16 -12 18 -16 4 -15 5
1 6 16 1 16 2 0 19 -10 11 -22 17 -27 14 -5 -3 -6 0 -2 7 4 6 12 9 17 6 5 -3
6 1 3 9 -3 9 -9 16 -13 16 -3 0 -12 9 -19 21 -8 12 -9 18 -3 15 7 -4 8 -1 5 8
-3 8 -12 12 -21 9 -13 -5 -13 -3 -4 15 7 12 9 23 6 23 -3 1 -9 2 -14 3 -5 0
-13 5 -18 10 -5 5 -3 6 5 2 17 -10 15 2 -3 21 -8 8 -13 18 -10 23 3 4 -2 10
-10 14 -8 3 -12 12 -9 20 3 7 -3 20 -13 27 -10 8 -19 21 -21 29 -2 8 -8 18
-14 21 -6 4 -8 11 -4 17 3 6 1 14 -5 18 -8 5 -9 3 -4 -6 5 -9 4 -11 -3 -6 -7
4 -12 14 -12 22 0 8 -6 14 -12 14 -9 0 -8 4 2 10 13 8 12 10 -4 10 -12 0 -16
5 -12 16 3 8 2 13 -2 11 -9 -6 -33 19 -25 27 4 3 -1 6 -11 6 -9 0 -15 4 -12 9
10 15 -5 40 -19 35 -10 -4 -12 1 -8 17 4 15 3 20 -5 15 -7 -4 -12 -1 -12 6 0
8 -9 20 -20 28 -11 8 -20 20 -20 26 0 7 -7 15 -16 18 -10 4 -13 13 -9 28 4 16
3 19 -3 9 -7 -9 -12 -10 -16 -2 -4 6 -12 9 -17 6 -5 -3 -6 0 -3 8 3 8 -2 17
-11 21 -9 3 -13 11 -9 17 4 8 -1 9 -17 4 -21 -7 -22 -6 -11 8 15 17 0 33 -20
21 -7 -4 -8 -3 -4 5 4 6 0 14 -8 17 -9 3 -16 10 -16 16 0 5 5 6 12 2 7 -4 8
-3 4 4 -4 6 -14 8 -22 5 -13 -5 -15 -1 -10 18 3 13 3 18 0 12 -3 -7 -10 -13
-15 -13 -6 0 -7 5 -4 10 3 6 -1 10 -11 10 -13 0 -14 3 -5 14 10 12 8 13 -8 9
-15 -4 -21 -1 -21 11 0 10 -4 14 -10 11 -5 -3 -10 3 -10 15 0 12 -3 19 -7 17
-13 -8 -55 12 -48 23 3 5 1 10 -5 10 -6 0 -16 5 -23 10 -7 6 -23 19 -37 31
l-25 20 30 -17 30 -16 -25 21 c-14 11 -31 21 -38 21 -8 0 -10 5 -6 13 5 7 0 6
-11 -3 -16 -14 -17 -13 -11 6 5 18 3 21 -18 19 -18 -2 -23 1 -19 11 3 8 -1 14
-11 14 -9 0 -16 5 -16 10 0 6 -6 10 -14 10 -8 0 -16 7 -20 15 -3 8 -15 15 -26
15 -11 0 -23 7 -26 15 -4 8 -14 15 -24 15 -10 0 -21 7 -24 16 -4 9 -13 14 -22
10 -8 -3 -12 -2 -9 4 3 6 0 10 -7 10 -10 0 -9 3 2 11 13 9 12 10 -2 5 -21 -6
-50 3 -43 14 3 4 -2 11 -11 14 -8 3 -12 2 -9 -4 3 -6 -1 -7 -9 -4 -9 3 -13 10
-10 15 3 5 1 9 -5 9 -5 0 -12 -6 -14 -12 -3 -7 -6 -2 -7 12 -1 14 -4 20 -7 13
-3 -10 -7 -10 -18 0 -7 7 -10 17 -7 22 3 6 -2 4 -11 -4 -11 -9 -17 -10 -17 -2
0 6 -5 11 -11 11 -5 0 -7 -5 -3 -12 4 -7 3 -8 -4 -4 -6 4 -9 13 -5 21 4 11 1
13 -13 8 -13 -5 -15 -3 -9 8 7 11 5 11 -10 -1 -15 -12 -17 -12 -10 -1 6 11 3
13 -13 9 -21 -6 -27 2 -23 26 1 5 -4 4 -13 -3 -11 -9 -16 -9 -22 0 -5 8 -3 9
6 4 9 -5 11 -4 6 3 -5 9 -13 9 -29 0 -21 -10 -21 -10 -7 7 14 17 14 18 -9 6
-13 -7 -21 -9 -18 -4 3 5 -3 15 -15 22 -11 7 -17 8 -13 2 3 -6 -1 -11 -9 -11
-8 0 -18 5 -22 12 -5 7 -3 8 6 3 8 -5 11 -4 6 3 -3 6 -19 10 -34 8 -15 -1 -33
5 -40 14 -9 10 -11 10 -6 1 5 -10 3 -12 -5 -7 -7 5 -10 15 -7 25 5 12 2 11 -9
-3 -8 -11 -15 -14 -15 -8 0 7 -9 12 -19 12 -11 0 -23 5 -26 10 -3 6 -13 10
-21 10 -9 0 -12 -5 -8 -12 4 -7 3 -8 -5 -4 -9 6 -9 11 1 24 12 13 10 14 -9 4
-28 -15 -36 -15 -27 0 5 7 3 8 -7 2 -19 -12 -40 -14 -34 -4 7 11 -31 23 -45
15 -5 -3 -10 2 -10 12 0 14 -2 15 -9 4 -7 -11 -14 -10 -37 4 -23 14 -25 14
-10 1 11 -9 15 -16 9 -16 -7 0 -19 7 -27 16 -9 8 -16 11 -16 6 0 -5 -7 -9 -15
-9 -10 0 -12 4 -5 12 7 8 3 11 -13 11 -12 -1 -25 -5 -29 -11 -5 -7 -8 -6 -8 1
0 12 -60 11 -80 -1 -8 -5 -11 -4 -7 2 4 6 -1 17 -10 24 -17 15 -19 14 -42 -4
-12 -9 -13 -9 -7 1 4 6 3 12 -3 12 -5 0 -12 -6 -14 -12 -4 -10 -6 -9 -6 1 -1
11 -4 11 -18 0 -11 -10 -14 -10 -9 -1 6 9 -406 12 -2043 12 l-2051 0 0 -431z
m4190 415 c0 -8 -19 -13 -24 -6 -3 5 1 9 9 9 8 0 15 -2 15 -3z m380 -984 c0
-5 -2 -10 -4 -10 -3 0 -8 5 -11 10 -3 6 -1 10 4 10 6 0 11 -4 11 -10z m-3410
-1936 c0 -8 -19 -13 -24 -6 -3 5 1 9 9 9 8 0 15 -2 15 -3z m-776 -762 c3 -5
-1 -9 -9 -9 -8 0 -12 4 -9 9 3 4 7 8 9 8 2 0 6 -4 9 -8z m666 -92 c0 -5 -2
-10 -4 -10 -3 0 -8 5 -11 10 -3 6 -1 10 4 10 6 0 11 -4 11 -10z m3435 -140
c-3 -5 -11 -10 -16 -10 -6 0 -7 5 -4 10 3 6 11 10 16 10 6 0 7 -4 4 -10z
m-181 -71 c-3 -5 -10 -7 -15 -3 -5 3 -7 10 -3 15 3 5 10 7 15 3 5 -3 7 -10 3
-15z m-119 -19 c3 -5 1 -10 -4 -10 -6 0 -11 5 -11 10 0 6 2 10 4 10 3 0 8 -4
11 -10z m-1725 -220 c0 -5 -2 -10 -4 -10 -3 0 -8 5 -11 10 -3 6 -1 10 4 10 6
0 11 -4 11 -10z m275 -520 c-3 -5 -12 -10 -18 -10 -7 0 -6 4 3 10 19 12 23 12
15 0z m-1281 -26 c3 -8 2 -12 -4 -9 -6 3 -10 10 -10 16 0 14 7 11 14 -7z
m3471 -254 c3 -5 1 -10 -4 -10 -6 0 -11 5 -11 10 0 6 2 10 4 10 3 0 8 -4 11
-10z m-1772 -491 c-8 -8 -13 -7 -18 2 -5 8 -4 10 3 5 7 -4 12 -2 12 5 0 7 3 9
7 6 4 -4 2 -12 -4 -18z m1091 -35 c3 -8 2 -12 -4 -9 -6 3 -10 10 -10 16 0 14
7 11 14 -7z m-2972 -58 c7 4 8 2 4 -5 -9 -13 -26 -5 -25 12 0 9 2 8 6 -1 2 -6
10 -9 15 -6z m4128 -30 c0 -3 -4 -8 -10 -11 -5 -3 -10 -1 -10 4 0 6 5 11 10
11 6 0 10 -2 10 -4z m-1017 -61 c-3 -9 -8 -14 -10 -11 -3 3 -2 9 2 15 9 16 15
13 8 -4z m1274 -367 c-3 -8 -6 -5 -6 6 -1 11 2 17 5 13 3 -3 4 -12 1 -19z
m-4777 8 c0 -3 -4 -8 -10 -11 -5 -3 -10 -1 -10 4 0 6 5 11 10 11 6 0 10 -2 10
-4z m888 -71 c-3 -3 -9 2 -12 12 -6 14 -5 15 5 6 7 -7 10 -15 7 -18z m256
-141 c3 -8 2 -12 -4 -9 -6 3 -10 10 -10 16 0 14 7 11 14 -7z m1734 -89 c-3 -3
-9 2 -12 12 -6 14 -5 15 5 6 7 -7 10 -15 7 -18z m1296 -351 c5 -14 4 -15 -9
-4 -17 14 -19 20 -6 20 5 0 12 -7 15 -16z"/>
<path d="M903 7125 c0 -8 4 -12 9 -9 5 3 6 10 3 15 -9 13 -12 11 -12 -6z"/>
<path d="M1110 7136 c0 -2 8 -10 18 -17 15 -13 16 -12 3 4 -13 16 -21 21 -21
13z"/>
<path d="M1703 7125 c0 -8 4 -12 9 -9 5 3 6 10 3 15 -9 13 -12 11 -12 -6z"/>
<path d="M1863 7125 c0 -8 4 -12 9 -9 5 3 6 10 3 15 -9 13 -12 11 -12 -6z"/>
<path d="M2710 7136 c0 -2 8 -10 18 -17 15 -13 16 -12 3 4 -13 16 -21 21 -21
13z"/>
<path d="M3350 7136 c0 -2 8 -10 18 -17 15 -13 16 -12 3 4 -13 16 -21 21 -21
13z"/>
<path d="M3830 7136 c0 -2 8 -10 18 -17 15 -13 16 -12 3 4 -13 16 -21 21 -21
13z"/>
<path d="M4583 7125 c0 -8 4 -12 9 -9 5 3 6 10 3 15 -9 13 -12 11 -12 -6z"/>
<path d="M4810 7131 c0 -6 4 -13 10 -16 6 -3 7 1 4 9 -7 18 -14 21 -14 7z"/>
<path d="M5989 6487 c6 -8 7 -18 3 -22 -4 -5 -1 -5 6 -1 10 6 10 11 1 22 -6 8
-14 14 -16 14 -3 0 0 -6 6 -13z"/>
<path d="M6253 5905 c0 -8 4 -12 9 -9 5 3 6 10 3 15 -9 13 -12 11 -12 -6z"/>
<path d="M7183 5510 c-1 -11 2 -22 6 -24 4 -3 7 4 6 14 -2 27 -10 33 -12 10z"/>
<path d="M2250 5009 c0 -5 5 -7 10 -4 6 3 10 8 10 11 0 2 -4 4 -10 4 -5 0 -10
-5 -10 -11z"/>
<path d="M2481 4961 c-8 -5 -9 -11 -3 -15 5 -3 12 1 16 9 6 17 6 18 -13 6z"/>
<path d="M1350 4269 c0 -5 5 -7 10 -4 6 3 10 8 10 11 0 2 -4 4 -10 4 -5 0 -10
-5 -10 -11z"/>
<path d="M6805 4250 c-3 -6 1 -7 9 -4 18 7 21 14 7 14 -6 0 -13 -4 -16 -10z"/>
<path d="M2320 4100 c-13 -8 -12 -10 3 -10 9 0 17 5 17 10 0 12 -1 12 -20 0z"/>
<path d="M2610 4016 c0 -2 8 -10 18 -17 15 -13 16 -12 3 4 -13 16 -21 21 -21
13z"/>
<path d="M2756 3961 c-3 -5 1 -11 9 -14 9 -4 12 -1 8 9 -6 16 -10 17 -17 5z"/>
<path d="M6575 3940 c-3 -5 -1 -10 4 -10 6 0 11 5 11 10 0 6 -2 10 -4 10 -3 0
-8 -4 -11 -10z"/>
<path d="M6410 3759 c0 -5 5 -7 10 -4 6 3 10 8 10 11 0 2 -4 4 -10 4 -5 0 -10
-5 -10 -11z"/>
<path d="M3156 2948 c3 -5 10 -6 15 -3 13 9 11 12 -6 12 -8 0 -12 -4 -9 -9z"/>
<path d="M4227 2779 c7 -7 15 -10 18 -7 3 3 -2 9 -12 12 -14 6 -15 5 -6 -5z"/>
<path d="M4145 2620 c-3 -5 -1 -10 4 -10 6 0 11 5 11 10 0 6 -2 10 -4 10 -3 0
-8 -4 -11 -10z"/>
<path d="M1675 2441 c-3 -5 -2 -12 3 -15 5 -3 9 1 9 9 0 17 -3 19 -12 6z"/>
<path d="M4080 2156 c0 -2 8 -10 18 -17 15 -13 16 -12 3 4 -13 16 -21 21 -21
13z"/>
<path d="M5397 1959 c7 -7 15 -10 18 -7 3 3 -2 9 -12 12 -14 6 -15 5 -6 -5z"/>
<path d="M4290 1946 c0 -2 8 -10 18 -17 15 -13 16 -12 3 4 -13 16 -21 21 -21
13z"/>
<path d="M2329 1913 c-13 -16 -12 -17 4 -4 9 7 17 15 17 17 0 8 -8 3 -21 -13z"/>
<path d="M2043 1365 c0 -8 4 -12 9 -9 5 3 6 10 3 15 -9 13 -12 11 -12 -6z"/>
<path d="M3025 1360 c-3 -6 1 -7 9 -4 18 7 21 14 7 14 -6 0 -13 -4 -16 -10z"/>
<path d="M2830 939 c0 -5 5 -7 10 -4 6 3 10 8 10 11 0 2 -4 4 -10 4 -5 0 -10
-5 -10 -11z"/>
<path d="M5420 886 c0 -2 8 -10 18 -17 15 -13 16 -12 3 4 -13 16 -21 21 -21
13z"/>
<path d="M2745 721 c-3 -5 -2 -12 3 -15 5 -3 9 1 9 9 0 17 -3 19 -12 6z"/>
</g>
</svg>
