<svg xmlns="http://www.w3.org/2000/svg" width="59.636" height="52.023" viewBox="767.138 1721 59.636 52.023"><g data-name="Group 944"><path d="M777.138 1721h39.636a10 10 0 0 1 10 10v32.023a10 10 0 0 1-10 10h-39.636a10 10 0 0 1-10-10V1731a10 10 0 0 1 10-10z" fill="#008379" fill-rule="evenodd" data-name="Rectangle 55"/><g data-name="analytics (1)"><g data-name="Group 82"><g data-name="Group 81"><path d="M810.694 1759.927h-28.927a.629.629 0 0 0 0 1.258h28.927a.63.63 0 0 0 0-1.258Z" fill="#fff" fill-rule="evenodd" data-name="Path 45"/></g></g><g data-name="Group 84"><g data-name="Group 83"><path d="M786.798 1752.381h-3.773a.63.63 0 0 0-.63.629v7.546a.63.63 0 0 0 .63.629h3.773a.63.63 0 0 0 .629-.629v-7.546a.63.63 0 0 0-.63-.629Zm-.629 7.546h-2.515v-6.288h2.515v6.288Z" fill="#fff" fill-rule="evenodd" data-name="Path 46"/></g></g><g data-name="Group 86"><g data-name="Group 85"><path d="M794.344 1746.093h-3.773a.63.63 0 0 0-.629.628v13.835a.63.63 0 0 0 .629.629h3.773a.63.63 0 0 0 .629-.629v-13.835a.63.63 0 0 0-.629-.628Zm-.629 13.834H791.2v-12.577h2.515v12.577Z" fill="#fff" fill-rule="evenodd" data-name="Path 47"/></g></g><g data-name="Group 88"><g data-name="Group 87"><path d="M801.89 1748.608h-3.773a.63.63 0 0 0-.629.629v11.32a.63.63 0 0 0 .63.628h3.772a.63.63 0 0 0 .63-.629v-11.32a.63.63 0 0 0-.63-.628Zm-.629 11.32h-2.515v-10.062h2.515v10.061Z" fill="#fff" fill-rule="evenodd" data-name="Path 48"/></g></g><g data-name="Group 90"><g data-name="Group 89"><path d="M809.436 1741.062h-3.773a.63.63 0 0 0-.629.629v18.865a.63.63 0 0 0 .63.629h3.772a.63.63 0 0 0 .63-.629v-18.865a.63.63 0 0 0-.63-.63Zm-.628 18.865h-2.516v-17.608h2.516v17.608Z" fill="#fff" fill-rule="evenodd" data-name="Path 49"/></g></g><g data-name="Group 92"><g data-name="Group 91"><path d="M784.911 1742.32a2.518 2.518 0 0 0-2.515 2.515 2.518 2.518 0 0 0 2.515 2.515 2.518 2.518 0 0 0 2.516-2.515 2.518 2.518 0 0 0-2.516-2.516Zm0 3.773a1.259 1.259 0 1 1 1.258-1.258c0 .693-.563 1.258-1.258 1.258Z" fill="#fff" fill-rule="evenodd" data-name="Path 50"/></g></g><g data-name="Group 94"><g data-name="Group 93"><path d="M792.457 1736.031a2.518 2.518 0 0 0-2.515 2.515 2.518 2.518 0 0 0 2.515 2.516 2.518 2.518 0 0 0 2.516-2.516 2.518 2.518 0 0 0-2.516-2.515Zm0 3.773a1.259 1.259 0 0 1-1.257-1.258c0-.693.563-1.257 1.257-1.257.695 0 1.258.564 1.258 1.257s-.563 1.258-1.258 1.258Z" fill="#fff" fill-rule="evenodd" data-name="Path 51"/></g></g><g data-name="Group 96"><g data-name="Group 95"><path d="M800.004 1738.546a2.518 2.518 0 0 0-2.516 2.516 2.518 2.518 0 0 0 2.516 2.515 2.518 2.518 0 0 0 2.515-2.515 2.518 2.518 0 0 0-2.515-2.516Zm0 3.773a1.259 1.259 0 1 1 1.258-1.258c0 .694-.564 1.258-1.258 1.258Z" fill="#fff" fill-rule="evenodd" data-name="Path 52"/></g></g><g data-name="Group 98"><g data-name="Group 97"><path d="M807.55 1731a2.518 2.518 0 0 0-2.516 2.516 2.518 2.518 0 0 0 2.516 2.515 2.518 2.518 0 0 0 2.515-2.515 2.518 2.518 0 0 0-2.515-2.516Zm0 3.773a1.259 1.259 0 0 1-1.258-1.257 1.259 1.259 0 0 1 2.515 0c0 .693-.563 1.257-1.257 1.257Z" fill="#fff" fill-rule="evenodd" data-name="Path 53"/></g></g><g data-name="Group 100"><g data-name="Group 99"><path d="M806.662 1734.404a.63.63 0 0 0-.89 0l-4.88 4.88a.63.63 0 0 0 .89.889l4.88-4.88a.63.63 0 0 0 0-.89Z" fill="#fff" fill-rule="evenodd" data-name="Path 54"/></g></g><g data-name="Group 102"><g data-name="Group 101"><path d="m798.483 1739.61-4.04-1.152a.623.623 0 0 0-.776.433.629.629 0 0 0 .432.777l4.04 1.152a.63.63 0 0 0 .345-1.21Z" fill="#fff" fill-rule="evenodd" data-name="Path 55"/></g></g><g data-name="Group 104"><g data-name="Group 103"><path d="M791.476 1739.33a.63.63 0 0 0-.882-.1l-4.742 3.78a.628.628 0 0 0 .784.985l4.741-3.78a.628.628 0 0 0 .1-.885Z" fill="#fff" fill-rule="evenodd" data-name="Path 56"/></g></g></g></g></svg>