<svg xmlns="http://www.w3.org/2000/svg" width="59.636" height="52.023" viewBox="184.862 1721 59.636 52.023"><g data-name="Group 937"><path d="M194.862 1721h39.636a10 10 0 0 1 10 10v32.023a10 10 0 0 1-10 10h-39.636a10 10 0 0 1-10-10V1731a10 10 0 0 1 10-10z" fill="#008379" fill-rule="evenodd" data-name="Rectangle 55"/><g data-name="XMLID_1605_"><path d="M229.189 1741.886v-1.416a.567.567 0 0 0-.04-.208l-1.209-3.078v-2.163c0-1.064-.866-1.93-1.93-1.93h-22.703c-1.064 0-1.93.866-1.93 1.93v2.163l-1.21 3.078a.568.568 0 0 0-.038.208v1.416c0 .969.484 1.789 1.248 2.269v13.683h-.68a.568.568 0 0 0-.568.567v3.179c0 .313.254.567.567.567h27.925a.568.568 0 0 0 .568-.567v-3.179a.568.568 0 0 0-.568-.567h-.68v-13.683a2.638 2.638 0 0 0 1.248-2.269Zm-2.895 1.59c-1.02 0-1.76-.669-1.76-1.59v-.849h3.52v.85c0 .92-.74 1.588-1.76 1.588Zm-2.894-1.59c0 .921-.74 1.59-1.76 1.59s-1.76-.669-1.76-1.59v-.849h3.52v.85Zm-4.655 0c0 .921-.74 1.59-1.76 1.59-1.019 0-1.759-.669-1.759-1.59v-.849h3.52v.85Zm-4.654 0c0 .921-.74 1.59-1.76 1.59-1.019 0-1.759-.669-1.759-1.59v-.849h3.52v.85Zm-4.654 0c0 .921-.74 1.59-1.76 1.59-1.019 0-1.759-.669-1.759-1.59v-.849h3.519v.85Zm-6.13-7.66h22.703c.439 0 .795.357.795.795v1.702h-9.592a.568.568 0 1 0 0 1.136h9.773l.803 2.043h-26.26l.803-2.043h9.773a.568.568 0 1 0 0-1.136h-9.593v-1.702c0-.438.357-.795.795-.795Zm-2.043 6.811h3.519v.85c0 .92-.74 1.588-1.76 1.588s-1.76-.668-1.76-1.589v-.849Zm0 17.936h14.93l1.18 2.043h-16.11v-2.043Zm17.778-3.101 1.964 3.403-2.495 1.44-1.965-3.403a.567.567 0 0 0-.775-.207l-.545.314v-5.824l5.044 2.912-1.02.59a.568.568 0 0 0-.208.775Zm9.012 5.144h-7.794l1.806-1.042a.568.568 0 0 0 .207-.776l-.13-.225h5.91v2.043Zm-1.249-3.178h-5.317l-1.18-2.043 1.381-.797a.568.568 0 0 0 0-.983l-6.747-3.895a.568.568 0 0 0-.85.492v7.226h-11.58v-13.267c.165.026.336.04.511.04.975 0 1.809-.41 2.327-1.065.52.655 1.352 1.065 2.328 1.065.975 0 1.808-.41 2.327-1.065.518.655 1.352 1.065 2.327 1.065.975 0 1.808-.41 2.327-1.065.519.655 1.352 1.065 2.327 1.065.975 0 1.808-.41 2.327-1.065.519.655 1.352 1.065 2.327 1.065.975 0 1.809-.41 2.327-1.065.519.655 1.352 1.065 2.327 1.065.176 0 .346-.014.511-.04v13.267Z" fill="#fff" fill-rule="evenodd" data-name="XMLID_1608_"/><path d="M211.03 1746.397a.568.568 0 1 0-.803.803l1.949 1.949a.566.566 0 0 0 .802 0 .568.568 0 0 0 0-.803l-1.948-1.949Z" fill="#fff" fill-rule="evenodd" data-name="XMLID_1621_"/><path d="M214.659 1745.663a.568.568 0 0 0-.568.567v1.616a.568.568 0 1 0 1.135 0v-1.616a.568.568 0 0 0-.567-.567Z" fill="#fff" fill-rule="evenodd" data-name="XMLID_1622_"/><path d="M211.354 1750.262h-1.803a.568.568 0 0 0 0 1.135h1.803a.568.568 0 1 0 0-1.135Z" fill="#fff" fill-rule="evenodd" data-name="XMLID_1623_"/><path d="M214.659 1737.859a.572.572 0 0 0 .567-.568.572.572 0 0 0-.567-.568.572.572 0 0 0-.568.568.57.57 0 0 0 .568.568Z" fill="#fff" fill-rule="evenodd" data-name="XMLID_1627_"/></g></g></svg>