<svg xmlns="http://www.w3.org/2000/svg" width="59.636" height="52.023" viewBox="767.138 1948 59.636 52.023"><g data-name="Group 946"><path d="M777.138 1948h39.636a10 10 0 0 1 10 10v32.023a10 10 0 0 1-10 10h-39.636a10 10 0 0 1-10-10V1958a10 10 0 0 1 10-10z" fill="#008379" fill-rule="evenodd" data-name="Rectangle 55"/><g data-name="smartphone (4)"><path d="M805.815 1964.966h-.568v-3.128a2.841 2.841 0 0 0-2.838-2.838h-11.163a2.841 2.841 0 0 0-2.837 2.838v3.128h-.568c-.939 0-1.703.763-1.703 1.702v.388c0 .939.764 1.703 1.703 1.703h.568v1.135h-.568c-.939 0-1.703.764-1.703 1.703v.388c0 .938.764 1.702 1.703 1.702h.568v11.536a2.841 2.841 0 0 0 2.837 2.838h11.163a2.841 2.841 0 0 0 2.838-2.838v-7.683a.568.568 0 0 0-1.135 0v4.845h-14.568v-17.71h14.568v7.757a.568.568 0 0 0 1.135 0v-2.254h.568c.939 0 1.702-.764 1.702-1.703v-1.807c0-.939-.764-1.702-1.702-1.702Zm-17.974 2.658a.568.568 0 0 1-.568-.568v-.388c0-.313.255-.567.568-.567h.568v1.523h-.568Zm0 4.928a.568.568 0 0 1-.568-.567v-.388c0-.313.255-.568.568-.568h.568v1.523h-.568Zm16.27 10.968v1.703c0 .939-.763 1.702-1.702 1.702h-11.163a1.705 1.705 0 0 1-1.702-1.702v-1.703h14.568Zm-14.567-19.98v-1.702c0-.939.764-1.703 1.702-1.703h11.163c.939 0 1.703.764 1.703 1.703v1.703h-14.568Zm16.838 4.935a.568.568 0 0 1-.567.568h-.568v-2.942h.568c.313 0 .567.254.567.567v1.807Z" fill="#fff" fill-rule="evenodd" data-name="Path 82"/><path d="M798.247 1961.27h-2.838a.568.568 0 1 0 0 1.136h2.838a.568.568 0 0 0 0-1.136Z" fill="#fff" fill-rule="evenodd" data-name="Path 83"/><path d="M804.112 1974.886a.568.568 0 1 1 0 .1z" fill="#fff" fill-rule="evenodd" data-name="Ellipse 2"/><path d="M796.827 1970.928a2.416 2.416 0 0 0-4.06 2.222c.266 1.316 1.501 2.514 3.67 3.558a.7.7 0 0 0 .78 0c2.17-1.044 3.405-2.241 3.671-3.558a2.416 2.416 0 0 0-4.06-2.222Zm2.98 1.713a1.283 1.283 0 0 1-.031.281c-.184.92-1.202 1.857-2.948 2.714-1.746-.857-2.765-1.795-2.949-2.714a1.28 1.28 0 0 1 1.247-1.56c.516 0 .978.308 1.178.783a.568.568 0 0 0 1.047 0 1.28 1.28 0 0 1 2.457.495Z" fill="#fff" fill-rule="evenodd" data-name="Path 84"/></g></g></svg>