<svg xmlns="http://www.w3.org/2000/svg" width="59.636" height="52.023" viewBox="185.138 1948 59.636 52.023"><g data-name="Group 945"><path d="M195.138 1948h39.636a10 10 0 0 1 10 10v32.023a10 10 0 0 1-10 10h-39.636a10 10 0 0 1-10-10V1958a10 10 0 0 1 10-10z" fill="#008379" fill-rule="evenodd" data-name="Rectangle 55"/><g data-name="network (1)"><g data-name="Group 106"><g data-name="Group 105"><path d="M228.039 1965.193a2.066 2.066 0 0 0-2.065 2.064c0 1.139.926 2.065 2.065 2.065a2.066 2.066 0 0 0 2.064-2.065 2.066 2.066 0 0 0-2.064-2.064Zm0 3.096a1.033 1.033 0 0 1 0-2.064 1.033 1.033 0 0 1 0 2.064Z" fill="#fff" fill-rule="evenodd" data-name="Path 57"/></g></g><g data-name="Group 108"><g data-name="Group 107"><path d="M201.203 1982.224a2.066 2.066 0 0 0-2.065 2.064c0 1.138.926 2.064 2.065 2.064a2.066 2.066 0 0 0 2.064-2.064 2.066 2.066 0 0 0-2.064-2.064Zm0 3.096a1.033 1.033 0 0 1 0-2.064 1.033 1.033 0 0 1 0 2.064Z" fill="#fff" fill-rule="evenodd" data-name="Path 58"/></g></g><g data-name="Group 110"><g data-name="Group 109"><path d="m227.038 1965.845-4.452-2.15a.515.515 0 1 0-.449.93l4.453 2.15a.515.515 0 1 0 .448-.93Z" fill="#fff" fill-rule="evenodd" data-name="Path 59"/></g></g><g data-name="Group 112"><g data-name="Group 111"><path d="M222.362 1985.836a2.066 2.066 0 0 0-2.064 2.064c0 1.139.925 2.065 2.064 2.065a2.066 2.066 0 0 0 2.064-2.064 2.066 2.066 0 0 0-2.064-2.065Zm0 3.097a1.033 1.033 0 0 1 0-2.065 1.033 1.033 0 0 1 0 2.065Z" fill="#fff" fill-rule="evenodd" data-name="Path 60"/></g></g><g data-name="Group 114"><g data-name="Group 113"><path d="m221.361 1986.489-4.452-2.15a.515.515 0 1 0-.449.93l4.453 2.149a.515.515 0 1 0 .448-.93Z" fill="#fff" fill-rule="evenodd" data-name="Path 61"/></g></g><g data-name="Group 116"><g data-name="Group 115"><path d="M214.62 1972.934a2.066 2.066 0 0 0-2.064 2.064c0 1.139.926 2.065 2.065 2.065a2.066 2.066 0 0 0 2.064-2.065 2.066 2.066 0 0 0-2.064-2.064Zm0 3.097a1.033 1.033 0 0 1 0-2.065 1.033 1.033 0 0 1 0 2.065Z" fill="#fff" fill-rule="evenodd" data-name="Path 62"/></g></g><g data-name="Group 118"><g data-name="Group 117"><path d="m213.713 1973.644-3.42-2.665a.517.517 0 0 0-.634.814l3.42 2.666a.515.515 0 0 0 .724-.09.517.517 0 0 0-.09-.725Z" fill="#fff" fill-rule="evenodd" data-name="Path 63"/></g></g><g data-name="Group 120"><g data-name="Group 119"><path d="M223.91 1972.418a5.684 5.684 0 0 0-5.677 5.677 5.684 5.684 0 0 0 5.677 5.677 5.684 5.684 0 0 0 5.677-5.677 5.684 5.684 0 0 0-5.677-5.677Zm0 10.322a4.65 4.65 0 0 1-4.645-4.645 4.65 4.65 0 0 1 4.645-4.645 4.65 4.65 0 0 1 4.645 4.645 4.65 4.65 0 0 1-4.645 4.645Z" fill="#fff" fill-rule="evenodd" data-name="Path 64"/></g></g><g data-name="Group 122"><g data-name="Group 121"><path d="M223.91 1974.482a2.066 2.066 0 0 0-2.064 2.065c0 1.138.926 2.064 2.064 2.064a2.066 2.066 0 0 0 2.064-2.064 2.066 2.066 0 0 0-2.064-2.065Zm0 3.097a1.033 1.033 0 0 1 0-2.064 1.033 1.033 0 0 1 0 2.064Z" fill="#fff" fill-rule="evenodd" data-name="Path 65"/></g></g><g data-name="Group 124"><g data-name="Group 123"><path d="M225.407 1979.643h-2.994c-.882 0-1.6.698-1.6 1.556v1.36c0 .185.099.355.258.448.865.5 1.847.765 2.84.765.992 0 1.973-.265 2.838-.765a.516.516 0 0 0 .258-.447v-1.36c0-.859-.718-1.557-1.6-1.557Zm.567 2.609a4.68 4.68 0 0 1-4.128 0v-1.052c0-.29.254-.525.567-.525h2.994c.313 0 .567.236.567.525v1.052Z" fill="#fff" fill-rule="evenodd" data-name="Path 66"/></g></g><g data-name="Group 126"><g data-name="Group 125"><path d="M211.524 1978.611a5.684 5.684 0 0 0-5.677 5.677 5.684 5.684 0 0 0 5.677 5.677 5.684 5.684 0 0 0 5.677-5.677 5.684 5.684 0 0 0-5.677-5.677Zm0 10.322a4.65 4.65 0 0 1-4.645-4.645 4.65 4.65 0 0 1 4.645-4.645 4.65 4.65 0 0 1 4.645 4.645 4.65 4.65 0 0 1-4.645 4.645Z" fill="#fff" fill-rule="evenodd" data-name="Path 67"/></g></g><g data-name="Group 128"><g data-name="Group 127"><path d="M211.524 1980.675a2.066 2.066 0 0 0-2.064 2.065c0 1.138.926 2.064 2.064 2.064a2.066 2.066 0 0 0 2.064-2.064 2.066 2.066 0 0 0-2.064-2.065Zm0 3.097a1.033 1.033 0 0 1 0-2.064 1.033 1.033 0 0 1 0 2.064Z" fill="#fff" fill-rule="evenodd" data-name="Path 68"/></g></g><g data-name="Group 130"><g data-name="Group 129"><path d="M213.021 1985.836h-2.994c-.882 0-1.6.698-1.6 1.556v1.36c0 .185.099.355.258.448.865.5 1.847.765 2.84.765.992 0 1.973-.265 2.838-.765a.516.516 0 0 0 .258-.447v-1.36c0-.859-.718-1.557-1.6-1.557Zm.567 2.609a4.68 4.68 0 0 1-4.128 0v-1.052c0-.29.254-.525.567-.525h2.994c.313 0 .567.236.567.525v1.052Z" fill="#fff" fill-rule="evenodd" data-name="Path 69"/></g></g><g data-name="Group 132"><g data-name="Group 131"><path d="M204.815 1965.709a5.684 5.684 0 0 0-5.677 5.677 5.684 5.684 0 0 0 5.677 5.677 5.684 5.684 0 0 0 5.677-5.677 5.684 5.684 0 0 0-5.677-5.677Zm0 10.322a4.65 4.65 0 0 1-4.645-4.645 4.65 4.65 0 0 1 4.645-4.645 4.65 4.65 0 0 1 4.645 4.645 4.65 4.65 0 0 1-4.645 4.645Z" fill="#fff" fill-rule="evenodd" data-name="Path 70"/></g></g><g data-name="Group 134"><g data-name="Group 133"><path d="M204.815 1967.773a2.066 2.066 0 0 0-2.064 2.065c0 1.138.926 2.064 2.064 2.064a2.066 2.066 0 0 0 2.064-2.064 2.066 2.066 0 0 0-2.064-2.065Zm0 3.097a1.033 1.033 0 0 1 0-2.064 1.033 1.033 0 0 1 0 2.064Z" fill="#fff" fill-rule="evenodd" data-name="Path 71"/></g></g><g data-name="Group 136"><g data-name="Group 135"><path d="M206.312 1972.934h-2.994c-.882 0-1.6.698-1.6 1.556v1.36c0 .185.099.355.258.447.865.501 1.847.766 2.84.766.992 0 1.973-.265 2.838-.766a.516.516 0 0 0 .258-.446v-1.36c0-.859-.718-1.557-1.6-1.557Zm.567 2.609a4.68 4.68 0 0 1-4.128 0v-1.052c0-.29.254-.525.567-.525h2.994c.313 0 .567.236.567.525v1.052Z" fill="#fff" fill-rule="evenodd" data-name="Path 72"/></g></g><g data-name="Group 138"><g data-name="Group 137"><path d="M217.201 1959a5.684 5.684 0 0 0-5.677 5.677 5.684 5.684 0 0 0 5.677 5.677 5.684 5.684 0 0 0 5.677-5.677 5.684 5.684 0 0 0-5.677-5.677Zm0 10.322a4.65 4.65 0 0 1-4.645-4.645 4.65 4.65 0 0 1 4.645-4.645 4.65 4.65 0 0 1 4.645 4.645 4.65 4.65 0 0 1-4.645 4.645Z" fill="#fff" fill-rule="evenodd" data-name="Path 73"/></g></g><g data-name="Group 140"><g data-name="Group 139"><path d="M217.201 1961.064a2.066 2.066 0 0 0-2.064 2.065c0 1.138.926 2.064 2.064 2.064a2.066 2.066 0 0 0 2.064-2.064 2.066 2.066 0 0 0-2.064-2.065Zm0 3.097a1.033 1.033 0 0 1 0-2.065 1.033 1.033 0 0 1 0 2.065Z" fill="#fff" fill-rule="evenodd" data-name="Path 74"/></g></g><g data-name="Group 142"><g data-name="Group 141"><path d="M218.698 1966.225h-2.994c-.882 0-1.6.698-1.6 1.556v1.36c0 .185.099.355.258.447.865.501 1.847.766 2.84.766.992 0 1.973-.265 2.838-.766a.516.516 0 0 0 .258-.446v-1.36c0-.859-.718-1.557-1.6-1.557Zm.567 2.609a4.68 4.68 0 0 1-4.128 0v-1.052c0-.29.254-.525.567-.525h2.994c.313 0 .567.236.567.525v1.052Z" fill="#fff" fill-rule="evenodd" data-name="Path 75"/></g></g><g data-name="Group 144"><g data-name="Group 143"><path d="M212.433 1964.34a.517.517 0 0 0-.728-.055l-3.576 3.06a.516.516 0 1 0 .67.784l3.577-3.06a.516.516 0 0 0 .057-.728Z" fill="#fff" fill-rule="evenodd" data-name="Path 76"/></g></g><g data-name="Group 146"><g data-name="Group 145"><path d="m223.807 1972.625-3.097-4.129a.516.516 0 0 0-.825.62l3.096 4.128a.516.516 0 0 0 .826-.619Z" fill="#fff" fill-rule="evenodd" data-name="Path 77"/></g></g><g data-name="Group 148"><g data-name="Group 147"><path d="M219.571 1979.802a.516.516 0 0 0-.722-.104l-2.883 2.162a.516.516 0 1 0 .62.825l2.882-2.161a.515.515 0 0 0 .103-.722Z" fill="#fff" fill-rule="evenodd" data-name="Path 78"/></g></g><g data-name="Group 150"><g data-name="Group 149"><path d="M206.363 1983.772h-3.612a.516.516 0 1 0 0 1.032h3.612a.516.516 0 1 0 0-1.032Z" fill="#fff" fill-rule="evenodd" data-name="Path 79"/></g></g><g data-name="Group 152"><g data-name="Group 151"><path d="M204.815 1959a2.066 2.066 0 0 0-2.064 2.064c0 1.139.926 2.065 2.064 2.065a2.066 2.066 0 0 0 2.064-2.065 2.066 2.066 0 0 0-2.064-2.064Zm0 3.096a1.033 1.033 0 0 1 0-2.064 1.033 1.033 0 0 1 0 2.064Z" fill="#fff" fill-rule="evenodd" data-name="Path 80"/></g></g><g data-name="Group 154"><g data-name="Group 153"><path d="M204.815 1962.096a.516.516 0 0 0-.516.517v3.612a.516.516 0 1 0 1.032 0v-3.612a.516.516 0 0 0-.516-.517Z" fill="#fff" fill-rule="evenodd" data-name="Path 81"/></g></g></g></g></svg>